<svg width="260" height="205" viewBox="0 0 260 205" fill="none" xmlns="http://www.w3.org/2000/svg">
<rect width="260" height="205" fill="#E5E5E5"/>
<g clip-path="url(#clip0)">
<rect width="260" height="205" fill="white"/>
<path d="M0 5C0 2.23858 2.23858 0 5 0H255C257.761 0 260 2.23858 260 5V5H0V5Z" fill="#FF0000"/>
<path d="M21.2477 37.0618H15.8002L14.8642 39.72H12.6365L17.2978 26.6909H19.7688L24.4301 39.72H22.1837L21.2477 37.0618ZM20.6486 35.3208L18.5333 29.2742L16.3992 35.3208H20.6486ZM28.5909 30.9403C28.9528 30.4411 29.4458 30.0355 30.0698 29.7235C30.7063 29.399 31.4114 29.2368 32.1851 29.2368C33.0962 29.2368 33.9199 29.4552 34.6562 29.892C35.3925 30.3288 35.9728 30.9528 36.3971 31.764C36.8215 32.5627 37.0336 33.48 37.0336 34.5158C37.0336 35.5517 36.8215 36.4814 36.3971 37.3051C35.9728 38.1163 35.3863 38.7528 34.6375 39.2146C33.9011 39.6638 33.0837 39.8885 32.1851 39.8885C31.3864 39.8885 30.6751 39.7325 30.0511 39.4205C29.4395 39.1085 28.9528 38.7091 28.5909 38.2224V39.72H26.4568V25.8672H28.5909V30.9403ZM34.8621 34.5158C34.8621 33.8045 34.7123 33.193 34.4128 32.6813C34.1258 32.1571 33.7389 31.764 33.2522 31.5019C32.7779 31.2274 32.2663 31.0901 31.7171 31.0901C31.1805 31.0901 30.6688 31.2274 30.1821 31.5019C29.7079 31.7765 29.321 32.1758 29.0215 32.7C28.7344 33.2242 28.5909 33.8419 28.5909 34.5533C28.5909 35.2646 28.7344 35.8886 29.0215 36.4253C29.321 36.9494 29.7079 37.3488 30.1821 37.6234C30.6688 37.8979 31.1805 38.0352 31.7171 38.0352C32.2663 38.0352 32.7779 37.8979 33.2522 37.6234C33.7389 37.3363 34.1258 36.9245 34.4128 36.3878C34.7123 35.8512 34.8621 35.2272 34.8621 34.5158ZM43.6181 39.8885C42.6446 39.8885 41.7648 39.6701 40.9786 39.2333C40.1923 38.784 39.5746 38.16 39.1253 37.3613C38.676 36.5501 38.4514 35.6141 38.4514 34.5533C38.4514 33.505 38.6822 32.5752 39.144 31.764C39.6058 30.9528 40.236 30.3288 41.0347 29.892C41.8334 29.4552 42.7258 29.2368 43.7117 29.2368C44.6976 29.2368 45.5899 29.4552 46.3886 29.892C47.1874 30.3288 47.8176 30.9528 48.2794 31.764C48.7411 32.5752 48.972 33.505 48.972 34.5533C48.972 35.6016 48.7349 36.5314 48.2606 37.3426C47.7864 38.1538 47.1374 38.784 46.3138 39.2333C45.5026 39.6701 44.604 39.8885 43.6181 39.8885ZM43.6181 38.0352C44.1672 38.0352 44.6789 37.9042 45.1531 37.6421C45.6398 37.38 46.033 36.9869 46.3325 36.4627C46.632 35.9386 46.7818 35.3021 46.7818 34.5533C46.7818 33.8045 46.6382 33.1742 46.3512 32.6626C46.0642 32.1384 45.6835 31.7453 45.2093 31.4832C44.735 31.2211 44.2234 31.0901 43.6742 31.0901C43.1251 31.0901 42.6134 31.2211 42.1392 31.4832C41.6774 31.7453 41.3093 32.1384 41.0347 32.6626C40.7602 33.1742 40.6229 33.8045 40.6229 34.5533C40.6229 35.664 40.9037 36.5251 41.4653 37.1366C42.0394 37.7357 42.757 38.0352 43.6181 38.0352ZM60.4229 29.4053V39.72H58.2889V38.5032C57.9519 38.9275 57.5089 39.2645 56.9597 39.5141C56.4231 39.7512 55.849 39.8698 55.2375 39.8698C54.4263 39.8698 53.6962 39.7013 53.0473 39.3643C52.4108 39.0274 51.9053 38.5282 51.5309 37.8667C51.169 37.2053 50.9881 36.4066 50.9881 35.4706V29.4053H53.1034V35.1523C53.1034 36.0758 53.3343 36.7872 53.7961 37.2864C54.2578 37.7731 54.8881 38.0165 55.6868 38.0165C56.4855 38.0165 57.1157 37.7731 57.5775 37.2864C58.0517 36.7872 58.2889 36.0758 58.2889 35.1523V29.4053H60.4229ZM65.7284 31.1462V36.8558C65.7284 37.2427 65.8158 37.5235 65.9905 37.6982C66.1777 37.8605 66.4897 37.9416 66.9265 37.9416H68.2369V39.72H66.5521C65.5912 39.72 64.8548 39.4954 64.3432 39.0461C63.8315 38.5968 63.5756 37.8667 63.5756 36.8558V31.1462H62.3588V29.4053H63.5756V26.8406H65.7284V29.4053H68.2369V31.1462H65.7284ZM88.7697 26.7096V39.72H86.6356V30.8093L82.667 39.72H81.1881L77.2007 30.8093V39.72H75.0667V26.7096H77.3692L81.9369 36.912L86.4859 26.7096H88.7697ZM101.028 34.3099C101.028 34.6968 101.003 35.0462 100.953 35.3582H93.0722C93.1346 36.1819 93.4404 36.8434 93.9895 37.3426C94.5386 37.8418 95.2125 38.0914 96.0113 38.0914C97.1594 38.0914 97.9706 37.6109 98.4449 36.6499H100.747C100.435 37.5984 99.8676 38.3784 99.0439 38.9899C98.2327 39.589 97.2218 39.8885 96.0113 39.8885C95.0253 39.8885 94.1393 39.6701 93.353 39.2333C92.5793 38.784 91.9677 38.16 91.5185 37.3613C91.0817 36.5501 90.8633 35.6141 90.8633 34.5533C90.8633 33.4925 91.0754 32.5627 91.4997 31.764C91.9365 30.9528 92.5418 30.3288 93.3156 29.892C94.1018 29.4552 95.0004 29.2368 96.0113 29.2368C96.9847 29.2368 97.8521 29.449 98.6133 29.8733C99.3746 30.2976 99.9674 30.8966 100.392 31.6704C100.816 32.4317 101.028 33.3115 101.028 34.3099ZM98.8005 33.636C98.7881 32.8498 98.5073 32.2195 97.9581 31.7453C97.409 31.271 96.7289 31.0339 95.9177 31.0339C95.1813 31.0339 94.5511 31.271 94.0269 31.7453C93.5028 32.207 93.1908 32.8373 93.0909 33.636H98.8005Z" fill="#1B1B1B"/>
<path d="M234.598 155.873C232.43 158.041 229.793 159.125 226.688 159.125C223.582 159.125 220.916 158.041 218.689 155.873C216.521 153.646 215.438 150.98 215.438 147.875C215.438 144.77 216.521 142.133 218.689 139.965C220.916 137.738 223.582 136.625 226.688 136.625C229.793 136.625 232.43 137.738 234.598 139.965C236.824 142.133 237.938 144.77 237.938 147.875C237.938 150.98 236.824 153.646 234.598 155.873ZM234.598 161.938C237.82 161.938 240.574 163.109 242.859 165.453C245.203 167.738 246.375 170.492 246.375 173.715V177.406C246.375 178.578 245.965 179.574 245.145 180.395C244.324 181.215 243.328 181.625 242.156 181.625H211.219C210.047 181.625 209.051 181.215 208.23 180.395C207.41 179.574 207 178.578 207 177.406V173.715C207 170.492 208.143 167.738 210.428 165.453C212.771 163.109 215.555 161.938 218.777 161.938H220.271C222.322 162.875 224.461 163.344 226.688 163.344C228.914 163.344 231.053 162.875 233.104 161.938H234.598Z" fill="#FF0000"/>
<path d="M21.824 65.848V77H20.368V71.944H14.688V77H13.232V65.848H14.688V70.744H20.368V65.848H21.824ZM32.3101 72.28C32.3101 72.5573 32.2941 72.8507 32.2621 73.16H25.2541C25.3075 74.024 25.6008 74.7013 26.1341 75.192C26.6781 75.672 27.3341 75.912 28.1021 75.912C28.7315 75.912 29.2541 75.768 29.6701 75.48C30.0968 75.1813 30.3955 74.7867 30.5661 74.296H32.1341C31.8995 75.1387 31.4301 75.8267 30.7261 76.36C30.0221 76.8827 29.1475 77.144 28.1021 77.144C27.2701 77.144 26.5235 76.9573 25.8621 76.584C25.2115 76.2107 24.6995 75.6827 24.3261 75C23.9528 74.3067 23.7661 73.5067 23.7661 72.6C23.7661 71.6933 23.9475 70.8987 24.3101 70.216C24.6728 69.5333 25.1795 69.0107 25.8301 68.648C26.4915 68.2747 27.2488 68.088 28.1021 68.088C28.9341 68.088 29.6701 68.2693 30.3101 68.632C30.9501 68.9947 31.4408 69.496 31.7821 70.136C32.1341 70.7653 32.3101 71.48 32.3101 72.28ZM30.8061 71.976C30.8061 71.4213 30.6835 70.9467 30.4381 70.552C30.1928 70.1467 29.8568 69.8427 29.4301 69.64C29.0141 69.4267 28.5501 69.32 28.0381 69.32C27.3021 69.32 26.6728 69.5547 26.1501 70.024C25.6381 70.4933 25.3448 71.144 25.2701 71.976H30.8061ZM41.784 68.232L36.504 81.128H35L36.728 76.904L33.192 68.232H34.808L37.56 75.336L40.28 68.232H41.784ZM44.7516 74.984L42.9596 79.288H41.9836L43.1516 74.984H44.7516ZM52.1411 65.848V77H50.6851V65.848H52.1411ZM58.3443 72.584C58.3443 71.688 58.5256 70.904 58.8883 70.232C59.2509 69.5493 59.7469 69.0213 60.3763 68.648C61.0163 68.2747 61.7256 68.088 62.5043 68.088C63.2723 68.088 63.9389 68.2533 64.5043 68.584C65.0696 68.9147 65.4909 69.3307 65.7683 69.832V68.232H67.2403V77H65.7683V75.368C65.4803 75.88 65.0483 76.3067 64.4723 76.648C63.9069 76.9787 63.2456 77.144 62.4883 77.144C61.7096 77.144 61.0056 76.952 60.3763 76.568C59.7469 76.184 59.2509 75.6453 58.8883 74.952C58.5256 74.2587 58.3443 73.4693 58.3443 72.584ZM65.7683 72.6C65.7683 71.9387 65.6349 71.3627 65.3683 70.872C65.1016 70.3813 64.7389 70.008 64.2803 69.752C63.8323 69.4853 63.3363 69.352 62.7923 69.352C62.2483 69.352 61.7523 69.48 61.3043 69.736C60.8563 69.992 60.4989 70.3653 60.2323 70.856C59.9656 71.3467 59.8323 71.9227 59.8323 72.584C59.8323 73.256 59.9656 73.8427 60.2323 74.344C60.4989 74.8347 60.8563 75.2133 61.3043 75.48C61.7523 75.736 62.2483 75.864 62.7923 75.864C63.3363 75.864 63.8323 75.736 64.2803 75.48C64.7389 75.2133 65.1016 74.8347 65.3683 74.344C65.6349 73.8427 65.7683 73.2613 65.7683 72.6ZM80.2448 68.072C80.9274 68.072 81.5354 68.216 82.0688 68.504C82.6021 68.7813 83.0234 69.2027 83.3328 69.768C83.6421 70.3333 83.7968 71.0213 83.7968 71.832V77H82.3568V72.04C82.3568 71.1653 82.1381 70.4987 81.7008 70.04C81.2741 69.5707 80.6928 69.336 79.9568 69.336C79.1994 69.336 78.5968 69.5813 78.1488 70.072C77.7008 70.552 77.4768 71.2507 77.4768 72.168V77H76.0368V72.04C76.0368 71.1653 75.8181 70.4987 75.3808 70.04C74.9541 69.5707 74.3728 69.336 73.6368 69.336C72.8794 69.336 72.2768 69.5813 71.8288 70.072C71.3808 70.552 71.1568 71.2507 71.1568 72.168V77H69.7008V68.232H71.1568V69.496C71.4448 69.0373 71.8288 68.6853 72.3088 68.44C72.7994 68.1947 73.3381 68.072 73.9248 68.072C74.6608 68.072 75.3114 68.2373 75.8768 68.568C76.4421 68.8987 76.8634 69.384 77.1408 70.024C77.3861 69.4053 77.7914 68.9253 78.3568 68.584C78.9221 68.2427 79.5514 68.072 80.2448 68.072ZM91.1868 64.264L90.9948 67.448H89.9868L89.7788 64.264H91.1868ZM104.31 65.928V77H102.854V68.744L99.1736 77H98.1496L94.4536 68.728V77H92.9976V65.928H94.5656L98.6616 75.08L102.758 65.928H104.31ZM106.235 72.584C106.235 71.688 106.416 70.904 106.779 70.232C107.142 69.5493 107.638 69.0213 108.267 68.648C108.907 68.2747 109.616 68.088 110.395 68.088C111.163 68.088 111.83 68.2533 112.395 68.584C112.96 68.9147 113.382 69.3307 113.659 69.832V68.232H115.131V77H113.659V75.368C113.371 75.88 112.939 76.3067 112.363 76.648C111.798 76.9787 111.136 77.144 110.379 77.144C109.6 77.144 108.896 76.952 108.267 76.568C107.638 76.184 107.142 75.6453 106.779 74.952C106.416 74.2587 106.235 73.4693 106.235 72.584ZM113.659 72.6C113.659 71.9387 113.526 71.3627 113.259 70.872C112.992 70.3813 112.63 70.008 112.171 69.752C111.723 69.4853 111.227 69.352 110.683 69.352C110.139 69.352 109.643 69.48 109.195 69.736C108.747 69.992 108.39 70.3653 108.123 70.856C107.856 71.3467 107.723 71.9227 107.723 72.584C107.723 73.256 107.856 73.8427 108.123 74.344C108.39 74.8347 108.747 75.2133 109.195 75.48C109.643 75.736 110.139 75.864 110.683 75.864C111.227 75.864 111.723 75.736 112.171 75.48C112.63 75.2133 112.992 74.8347 113.259 74.344C113.526 73.8427 113.659 73.2613 113.659 72.6ZM121.863 68.072C122.93 68.072 123.794 68.3973 124.455 69.048C125.117 69.688 125.447 70.616 125.447 71.832V77H124.007V72.04C124.007 71.1653 123.789 70.4987 123.351 70.04C122.914 69.5707 122.317 69.336 121.559 69.336C120.791 69.336 120.178 69.576 119.719 70.056C119.271 70.536 119.047 71.2347 119.047 72.152V77H117.591V68.232H119.047V69.48C119.335 69.032 119.725 68.6853 120.215 68.44C120.717 68.1947 121.266 68.072 121.863 68.072ZM131.442 68.088C132.199 68.088 132.86 68.2533 133.426 68.584C134.002 68.9147 134.428 69.3307 134.706 69.832V68.232H136.178V77.192C136.178 77.992 136.007 78.7013 135.666 79.32C135.324 79.9493 134.834 80.44 134.194 80.792C133.564 81.144 132.828 81.32 131.986 81.32C130.834 81.32 129.874 81.048 129.106 80.504C128.338 79.96 127.884 79.2187 127.746 78.28H129.186C129.346 78.8133 129.676 79.24 130.178 79.56C130.679 79.8907 131.282 80.056 131.986 80.056C132.786 80.056 133.436 79.8053 133.938 79.304C134.45 78.8027 134.706 78.0987 134.706 77.192V75.352C134.418 75.864 133.991 76.2907 133.426 76.632C132.86 76.9733 132.199 77.144 131.442 77.144C130.663 77.144 129.954 76.952 129.314 76.568C128.684 76.184 128.188 75.6453 127.826 74.952C127.463 74.2587 127.282 73.4693 127.282 72.584C127.282 71.688 127.463 70.904 127.826 70.232C128.188 69.5493 128.684 69.0213 129.314 68.648C129.954 68.2747 130.663 68.088 131.442 68.088ZM134.706 72.6C134.706 71.9387 134.572 71.3627 134.306 70.872C134.039 70.3813 133.676 70.008 133.218 69.752C132.77 69.4853 132.274 69.352 131.73 69.352C131.186 69.352 130.69 69.48 130.242 69.736C129.794 69.992 129.436 70.3653 129.17 70.856C128.903 71.3467 128.77 71.9227 128.77 72.584C128.77 73.256 128.903 73.8427 129.17 74.344C129.436 74.8347 129.794 75.2133 130.242 75.48C130.69 75.736 131.186 75.864 131.73 75.864C132.274 75.864 132.77 75.736 133.218 75.48C133.676 75.2133 134.039 74.8347 134.306 74.344C134.572 73.8427 134.706 73.2613 134.706 72.6ZM146.19 68.232L140.91 81.128H139.406L141.134 76.904L137.598 68.232H139.214L141.966 75.336L144.686 68.232H146.19ZM147.11 72.584C147.11 71.688 147.291 70.904 147.654 70.232C148.017 69.5493 148.513 69.0213 149.142 68.648C149.782 68.2747 150.491 68.088 151.27 68.088C152.038 68.088 152.705 68.2533 153.27 68.584C153.835 68.9147 154.257 69.3307 154.534 69.832V68.232H156.006V77H154.534V75.368C154.246 75.88 153.814 76.3067 153.238 76.648C152.673 76.9787 152.011 77.144 151.254 77.144C150.475 77.144 149.771 76.952 149.142 76.568C148.513 76.184 148.017 75.6453 147.654 74.952C147.291 74.2587 147.11 73.4693 147.11 72.584ZM154.534 72.6C154.534 71.9387 154.401 71.3627 154.134 70.872C153.867 70.3813 153.505 70.008 153.046 69.752C152.598 69.4853 152.102 69.352 151.558 69.352C151.014 69.352 150.518 69.48 150.07 69.736C149.622 69.992 149.265 70.3653 148.998 70.856C148.731 71.3467 148.598 71.9227 148.598 72.584C148.598 73.256 148.731 73.8427 148.998 74.344C149.265 74.8347 149.622 75.2133 150.07 75.48C150.518 75.736 151.014 75.864 151.558 75.864C152.102 75.864 152.598 75.736 153.046 75.48C153.505 75.2133 153.867 74.8347 154.134 74.344C154.401 73.8427 154.534 73.2613 154.534 72.6ZM159.202 64.264L159.01 67.448H158.002L157.794 64.264H159.202ZM164.735 72.584C164.735 71.688 164.916 70.904 165.279 70.232C165.642 69.5493 166.138 69.0213 166.767 68.648C167.407 68.2747 168.122 68.088 168.911 68.088C169.594 68.088 170.228 68.248 170.815 68.568C171.402 68.8773 171.85 69.288 172.159 69.8V65.16H173.631V77H172.159V75.352C171.871 75.8747 171.444 76.3067 170.879 76.648C170.314 76.9787 169.652 77.144 168.895 77.144C168.116 77.144 167.407 76.952 166.767 76.568C166.138 76.184 165.642 75.6453 165.279 74.952C164.916 74.2587 164.735 73.4693 164.735 72.584ZM172.159 72.6C172.159 71.9387 172.026 71.3627 171.759 70.872C171.492 70.3813 171.13 70.008 170.671 69.752C170.223 69.4853 169.727 69.352 169.183 69.352C168.639 69.352 168.143 69.48 167.695 69.736C167.247 69.992 166.89 70.3653 166.623 70.856C166.356 71.3467 166.223 71.9227 166.223 72.584C166.223 73.256 166.356 73.8427 166.623 74.344C166.89 74.8347 167.247 75.2133 167.695 75.48C168.143 75.736 168.639 75.864 169.183 75.864C169.727 75.864 170.223 75.736 170.671 75.48C171.13 75.2133 171.492 74.8347 171.759 74.344C172.026 73.8427 172.159 73.2613 172.159 72.6ZM177.547 69.656C177.803 69.1547 178.166 68.7653 178.635 68.488C179.115 68.2107 179.697 68.072 180.379 68.072V69.576H179.995C178.363 69.576 177.547 70.4613 177.547 72.232V77H176.091V68.232H177.547V69.656ZM190.06 72.28C190.06 72.5573 190.044 72.8507 190.012 73.16H183.004C183.057 74.024 183.351 74.7013 183.884 75.192C184.428 75.672 185.084 75.912 185.852 75.912C186.481 75.912 187.004 75.768 187.42 75.48C187.847 75.1813 188.145 74.7867 188.316 74.296H189.884C189.649 75.1387 189.18 75.8267 188.476 76.36C187.772 76.8827 186.897 77.144 185.852 77.144C185.02 77.144 184.273 76.9573 183.612 76.584C182.961 76.2107 182.449 75.6827 182.076 75C181.703 74.3067 181.516 73.5067 181.516 72.6C181.516 71.6933 181.697 70.8987 182.06 70.216C182.423 69.5333 182.929 69.0107 183.58 68.648C184.241 68.2747 184.999 68.088 185.852 68.088C186.684 68.088 187.42 68.2693 188.06 68.632C188.7 68.9947 189.191 69.496 189.532 70.136C189.884 70.7653 190.06 71.48 190.06 72.28ZM188.556 71.976C188.556 71.4213 188.433 70.9467 188.188 70.552C187.943 70.1467 187.607 69.8427 187.18 69.64C186.764 69.4267 186.3 69.32 185.788 69.32C185.052 69.32 184.423 69.5547 183.9 70.024C183.388 70.4933 183.095 71.144 183.02 71.976H188.556ZM191.438 72.584C191.438 71.688 191.619 70.904 191.982 70.232C192.345 69.5493 192.841 69.0213 193.47 68.648C194.11 68.2747 194.819 68.088 195.598 68.088C196.366 68.088 197.033 68.2533 197.598 68.584C198.163 68.9147 198.585 69.3307 198.862 69.832V68.232H200.334V77H198.862V75.368C198.574 75.88 198.142 76.3067 197.566 76.648C197.001 76.9787 196.339 77.144 195.582 77.144C194.803 77.144 194.099 76.952 193.47 76.568C192.841 76.184 192.345 75.6453 191.982 74.952C191.619 74.2587 191.438 73.4693 191.438 72.584ZM198.862 72.6C198.862 71.9387 198.729 71.3627 198.462 70.872C198.195 70.3813 197.833 70.008 197.374 69.752C196.926 69.4853 196.43 69.352 195.886 69.352C195.342 69.352 194.846 69.48 194.398 69.736C193.95 69.992 193.593 70.3653 193.326 70.856C193.059 71.3467 192.926 71.9227 192.926 72.584C192.926 73.256 193.059 73.8427 193.326 74.344C193.593 74.8347 193.95 75.2133 194.398 75.48C194.846 75.736 195.342 75.864 195.886 75.864C196.43 75.864 196.926 75.736 197.374 75.48C197.833 75.2133 198.195 74.8347 198.462 74.344C198.729 73.8427 198.862 73.2613 198.862 72.6ZM213.339 68.072C214.021 68.072 214.629 68.216 215.163 68.504C215.696 68.7813 216.117 69.2027 216.427 69.768C216.736 70.3333 216.891 71.0213 216.891 71.832V77H215.451V72.04C215.451 71.1653 215.232 70.4987 214.795 70.04C214.368 69.5707 213.787 69.336 213.051 69.336C212.293 69.336 211.691 69.5813 211.243 70.072C210.795 70.552 210.571 71.2507 210.571 72.168V77H209.131V72.04C209.131 71.1653 208.912 70.4987 208.475 70.04C208.048 69.5707 207.467 69.336 206.731 69.336C205.973 69.336 205.371 69.5813 204.923 70.072C204.475 70.552 204.251 71.2507 204.251 72.168V77H202.795V68.232H204.251V69.496C204.539 69.0373 204.923 68.6853 205.403 68.44C205.893 68.1947 206.432 68.072 207.019 68.072C207.755 68.072 208.405 68.2373 208.971 68.568C209.536 68.8987 209.957 69.384 210.235 70.024C210.48 69.4053 210.885 68.9253 211.451 68.584C212.016 68.2427 212.645 68.072 213.339 68.072ZM220.031 66.808C219.754 66.808 219.519 66.712 219.327 66.52C219.135 66.328 219.039 66.0933 219.039 65.816C219.039 65.5387 219.135 65.304 219.327 65.112C219.519 64.92 219.754 64.824 220.031 64.824C220.298 64.824 220.522 64.92 220.703 65.112C220.895 65.304 220.991 65.5387 220.991 65.816C220.991 66.0933 220.895 66.328 220.703 66.52C220.522 66.712 220.298 66.808 220.031 66.808ZM220.735 68.232V77H219.279V68.232H220.735ZM227.488 68.072C228.555 68.072 229.419 68.3973 230.08 69.048C230.742 69.688 231.072 70.616 231.072 71.832V77H229.632V72.04C229.632 71.1653 229.414 70.4987 228.976 70.04C228.539 69.5707 227.942 69.336 227.184 69.336C226.416 69.336 225.803 69.576 225.344 70.056C224.896 70.536 224.672 71.2347 224.672 72.152V77H223.216V68.232H224.672V69.48C224.96 69.032 225.35 68.6853 225.84 68.44C226.342 68.1947 226.891 68.072 227.488 68.072ZM237.067 68.088C237.824 68.088 238.485 68.2533 239.051 68.584C239.627 68.9147 240.053 69.3307 240.331 69.832V68.232H241.803V77.192C241.803 77.992 241.632 78.7013 241.291 79.32C240.949 79.9493 240.459 80.44 239.819 80.792C239.189 81.144 238.453 81.32 237.611 81.32C236.459 81.32 235.499 81.048 234.731 80.504C233.963 79.96 233.509 79.2187 233.371 78.28H234.811C234.971 78.8133 235.301 79.24 235.803 79.56C236.304 79.8907 236.907 80.056 237.611 80.056C238.411 80.056 239.061 79.8053 239.563 79.304C240.075 78.8027 240.331 78.0987 240.331 77.192V75.352C240.043 75.864 239.616 76.2907 239.051 76.632C238.485 76.9733 237.824 77.144 237.067 77.144C236.288 77.144 235.579 76.952 234.939 76.568C234.309 76.184 233.813 75.6453 233.451 74.952C233.088 74.2587 232.907 73.4693 232.907 72.584C232.907 71.688 233.088 70.904 233.451 70.232C233.813 69.5493 234.309 69.0213 234.939 68.648C235.579 68.2747 236.288 68.088 237.067 68.088ZM240.331 72.6C240.331 71.9387 240.197 71.3627 239.931 70.872C239.664 70.3813 239.301 70.008 238.843 69.752C238.395 69.4853 237.899 69.352 237.355 69.352C236.811 69.352 236.315 69.48 235.867 69.736C235.419 69.992 235.061 70.3653 234.795 70.856C234.528 71.3467 234.395 71.9227 234.395 72.584C234.395 73.256 234.528 73.8427 234.795 74.344C235.061 74.8347 235.419 75.2133 235.867 75.48C236.315 75.736 236.811 75.864 237.355 75.864C237.899 75.864 238.395 75.736 238.843 75.48C239.301 75.2133 239.664 74.8347 239.931 74.344C240.197 73.8427 240.331 73.2613 240.331 72.6ZM15.008 93.432V98.6C15.008 99.0267 15.0987 99.3307 15.28 99.512C15.4613 99.6827 15.776 99.768 16.224 99.768H17.296V101H15.984C15.1733 101 14.5653 100.813 14.16 100.44C13.7547 100.067 13.552 99.4533 13.552 98.6V93.432H12.416V92.232H13.552V90.024H15.008V92.232H17.296V93.432H15.008ZM22.8841 101.144C22.0628 101.144 21.3161 100.957 20.6441 100.584C19.9828 100.211 19.4601 99.6827 19.0761 99C18.7028 98.3067 18.5161 97.5067 18.5161 96.6C18.5161 95.704 18.7081 94.9147 19.0921 94.232C19.4868 93.5387 20.0201 93.0107 20.6921 92.648C21.3641 92.2747 22.1161 92.088 22.9481 92.088C23.7801 92.088 24.5321 92.2747 25.2041 92.648C25.8761 93.0107 26.4041 93.5333 26.7881 94.216C27.1828 94.8987 27.3801 95.6933 27.3801 96.6C27.3801 97.5067 27.1775 98.3067 26.7721 99C26.3775 99.6827 25.8388 100.211 25.1561 100.584C24.4735 100.957 23.7161 101.144 22.8841 101.144ZM22.8841 99.864C23.4068 99.864 23.8975 99.7413 24.3561 99.496C24.8148 99.2507 25.1828 98.8827 25.4601 98.392C25.7481 97.9013 25.8921 97.304 25.8921 96.6C25.8921 95.896 25.7535 95.2987 25.4761 94.808C25.1988 94.3173 24.8361 93.9547 24.3881 93.72C23.9401 93.4747 23.4548 93.352 22.9321 93.352C22.3988 93.352 21.9081 93.4747 21.4601 93.72C21.0228 93.9547 20.6708 94.3173 20.4041 94.808C20.1375 95.2987 20.0041 95.896 20.0041 96.6C20.0041 97.3147 20.1321 97.9173 20.3881 98.408C20.6548 98.8987 21.0068 99.2667 21.4441 99.512C21.8815 99.7467 22.3615 99.864 22.8841 99.864ZM37.9121 92.072C38.5735 92.072 39.1708 92.216 39.7041 92.504C40.2375 92.7813 40.6535 93.2027 40.9521 93.768C41.2615 94.3333 41.4161 95.0213 41.4161 95.832V101H39.9761V96.04C39.9761 95.1653 39.7575 94.4987 39.3201 94.04C38.8828 93.5707 38.2855 93.336 37.5281 93.336C36.7601 93.336 36.1468 93.576 35.6881 94.056C35.2401 94.536 35.0161 95.2347 35.0161 96.152V101H33.5601V89.16H35.0161V93.48C35.3041 93.032 35.6988 92.6853 36.2001 92.44C36.7121 92.1947 37.2828 92.072 37.9121 92.072ZM43.2505 96.584C43.2505 95.688 43.4318 94.904 43.7945 94.232C44.1572 93.5493 44.6532 93.0213 45.2825 92.648C45.9225 92.2747 46.6318 92.088 47.4105 92.088C48.1785 92.088 48.8452 92.2533 49.4105 92.584C49.9758 92.9147 50.3972 93.3307 50.6745 93.832V92.232H52.1465V101H50.6745V99.368C50.3865 99.88 49.9545 100.307 49.3785 100.648C48.8132 100.979 48.1518 101.144 47.3945 101.144C46.6158 101.144 45.9118 100.952 45.2825 100.568C44.6532 100.184 44.1572 99.6453 43.7945 98.952C43.4318 98.2587 43.2505 97.4693 43.2505 96.584ZM50.6745 96.6C50.6745 95.9387 50.5412 95.3627 50.2745 94.872C50.0078 94.3813 49.6452 94.008 49.1865 93.752C48.7385 93.4853 48.2425 93.352 47.6985 93.352C47.1545 93.352 46.6585 93.48 46.2105 93.736C45.7625 93.992 45.4052 94.3653 45.1385 94.856C44.8718 95.3467 44.7385 95.9227 44.7385 96.584C44.7385 97.256 44.8718 97.8427 45.1385 98.344C45.4052 98.8347 45.7625 99.2133 46.2105 99.48C46.6585 99.736 47.1545 99.864 47.6985 99.864C48.2425 99.864 48.7385 99.736 49.1865 99.48C49.6452 99.2133 50.0078 98.8347 50.2745 98.344C50.5412 97.8427 50.6745 97.2613 50.6745 96.6ZM57.871 99.656L60.591 92.232H62.143L58.703 101H57.007L53.567 92.232H55.135L57.871 99.656ZM71.5758 96.28C71.5758 96.5573 71.5598 96.8507 71.5278 97.16H64.5198C64.5731 98.024 64.8664 98.7013 65.3998 99.192C65.9438 99.672 66.5998 99.912 67.3678 99.912C67.9971 99.912 68.5198 99.768 68.9358 99.48C69.3624 99.1813 69.6611 98.7867 69.8318 98.296H71.3998C71.1651 99.1387 70.6958 99.8267 69.9918 100.36C69.2878 100.883 68.4131 101.144 67.3678 101.144C66.5358 101.144 65.7891 100.957 65.1278 100.584C64.4771 100.211 63.9651 99.6827 63.5918 99C63.2184 98.3067 63.0318 97.5067 63.0318 96.6C63.0318 95.6933 63.2131 94.8987 63.5758 94.216C63.9384 93.5333 64.4451 93.0107 65.0958 92.648C65.7571 92.2747 66.5144 92.088 67.3678 92.088C68.1998 92.088 68.9358 92.2693 69.5758 92.632C70.2158 92.9947 70.7064 93.496 71.0478 94.136C71.3998 94.7653 71.5758 95.48 71.5758 96.28ZM70.0718 95.976C70.0718 95.4213 69.9491 94.9467 69.7038 94.552C69.4584 94.1467 69.1224 93.8427 68.6958 93.64C68.2798 93.4267 67.8158 93.32 67.3038 93.32C66.5678 93.32 65.9384 93.5547 65.4158 94.024C64.9038 94.4933 64.6104 95.144 64.5358 95.976H70.0718ZM77.2193 96.584C77.2193 95.688 77.4006 94.904 77.7633 94.232C78.1259 93.5493 78.6219 93.0213 79.2513 92.648C79.8913 92.2747 80.6006 92.088 81.3793 92.088C82.1473 92.088 82.8139 92.2533 83.3793 92.584C83.9446 92.9147 84.3659 93.3307 84.6433 93.832V92.232H86.1153V101H84.6433V99.368C84.3553 99.88 83.9233 100.307 83.3473 100.648C82.7819 100.979 82.1206 101.144 81.3633 101.144C80.5846 101.144 79.8806 100.952 79.2513 100.568C78.6219 100.184 78.1259 99.6453 77.7633 98.952C77.4006 98.2587 77.2193 97.4693 77.2193 96.584ZM84.6433 96.6C84.6433 95.9387 84.5099 95.3627 84.2433 94.872C83.9766 94.3813 83.6139 94.008 83.1553 93.752C82.7073 93.4853 82.2113 93.352 81.6673 93.352C81.1233 93.352 80.6273 93.48 80.1793 93.736C79.7313 93.992 79.3739 94.3653 79.1073 94.856C78.8406 95.3467 78.7073 95.9227 78.7073 96.584C78.7073 97.256 78.8406 97.8427 79.1073 98.344C79.3739 98.8347 79.7313 99.2133 80.1793 99.48C80.6273 99.736 81.1233 99.864 81.6673 99.864C82.2113 99.864 82.7073 99.736 83.1553 99.48C83.6139 99.2133 83.9766 98.8347 84.2433 98.344C84.5099 97.8427 84.6433 97.2613 84.6433 96.6ZM92.2974 96.6C92.2974 95.6933 92.4787 94.904 92.8414 94.232C93.204 93.5493 93.7054 93.0213 94.3454 92.648C94.996 92.2747 95.7374 92.088 96.5694 92.088C97.6467 92.088 98.532 92.3493 99.2254 92.872C99.9294 93.3947 100.393 94.12 100.617 95.048H99.0494C98.9 94.5147 98.6067 94.0933 98.1694 93.784C97.7427 93.4747 97.2094 93.32 96.5694 93.32C95.7374 93.32 95.0654 93.608 94.5534 94.184C94.0414 94.7493 93.7854 95.5547 93.7854 96.6C93.7854 97.656 94.0414 98.472 94.5534 99.048C95.0654 99.624 95.7374 99.912 96.5694 99.912C97.2094 99.912 97.7427 99.7627 98.1694 99.464C98.596 99.1653 98.8894 98.7387 99.0494 98.184H100.617C100.383 99.08 99.9134 99.8 99.2094 100.344C98.5054 100.877 97.6254 101.144 96.5694 101.144C95.7374 101.144 94.996 100.957 94.3454 100.584C93.7054 100.211 93.204 99.6827 92.8414 99C92.4787 98.3173 92.2974 97.5173 92.2974 96.6ZM110.336 92.232V101H108.88V99.704C108.603 100.152 108.213 100.504 107.712 100.76C107.221 101.005 106.677 101.128 106.08 101.128C105.397 101.128 104.784 100.989 104.24 100.712C103.696 100.424 103.264 99.9973 102.944 99.432C102.635 98.8667 102.48 98.1787 102.48 97.368V92.232H103.92V97.176C103.92 98.04 104.139 98.7067 104.576 99.176C105.013 99.6347 105.611 99.864 106.368 99.864C107.147 99.864 107.76 99.624 108.208 99.144C108.656 98.664 108.88 97.9653 108.88 97.048V92.232H110.336ZM115.899 101.144C115.227 101.144 114.624 101.032 114.091 100.808C113.557 100.573 113.136 100.253 112.827 99.848C112.517 99.432 112.347 98.9573 112.315 98.424H113.819C113.861 98.8613 114.064 99.2187 114.427 99.496C114.8 99.7733 115.285 99.912 115.883 99.912C116.437 99.912 116.875 99.7893 117.195 99.544C117.515 99.2987 117.675 98.9893 117.675 98.616C117.675 98.232 117.504 97.9493 117.163 97.768C116.821 97.576 116.293 97.3893 115.579 97.208C114.928 97.0373 114.395 96.8667 113.979 96.696C113.573 96.5147 113.221 96.2533 112.923 95.912C112.635 95.56 112.491 95.1013 112.491 94.536C112.491 94.088 112.624 93.6773 112.891 93.304C113.157 92.9307 113.536 92.6373 114.027 92.424C114.517 92.2 115.077 92.088 115.707 92.088C116.677 92.088 117.461 92.3333 118.059 92.824C118.656 93.3147 118.976 93.9867 119.019 94.84H117.563C117.531 94.3813 117.344 94.0133 117.003 93.736C116.672 93.4587 116.224 93.32 115.659 93.32C115.136 93.32 114.72 93.432 114.411 93.656C114.101 93.88 113.947 94.1733 113.947 94.536C113.947 94.824 114.037 95.064 114.219 95.256C114.411 95.4373 114.645 95.5867 114.923 95.704C115.211 95.8107 115.605 95.9333 116.107 96.072C116.736 96.2427 117.248 96.4133 117.643 96.584C118.037 96.744 118.373 96.9893 118.651 97.32C118.939 97.6507 119.088 98.0827 119.099 98.616C119.099 99.096 118.965 99.528 118.699 99.912C118.432 100.296 118.053 100.6 117.563 100.824C117.083 101.037 116.528 101.144 115.899 101.144ZM122.93 93.432V98.6C122.93 99.0267 123.021 99.3307 123.202 99.512C123.383 99.6827 123.698 99.768 124.146 99.768H125.218V101H123.906C123.095 101 122.487 100.813 122.082 100.44C121.677 100.067 121.474 99.4533 121.474 98.6V93.432H120.338V92.232H121.474V90.024H122.93V92.232H125.218V93.432H122.93ZM130.806 101.144C129.985 101.144 129.238 100.957 128.566 100.584C127.905 100.211 127.382 99.6827 126.998 99C126.625 98.3067 126.438 97.5067 126.438 96.6C126.438 95.704 126.63 94.9147 127.014 94.232C127.409 93.5387 127.942 93.0107 128.614 92.648C129.286 92.2747 130.038 92.088 130.87 92.088C131.702 92.088 132.454 92.2747 133.126 92.648C133.798 93.0107 134.326 93.5333 134.71 94.216C135.105 94.8987 135.302 95.6933 135.302 96.6C135.302 97.5067 135.099 98.3067 134.694 99C134.299 99.6827 133.761 100.211 133.078 100.584C132.395 100.957 131.638 101.144 130.806 101.144ZM130.806 99.864C131.329 99.864 131.819 99.7413 132.278 99.496C132.737 99.2507 133.105 98.8827 133.382 98.392C133.67 97.9013 133.814 97.304 133.814 96.6C133.814 95.896 133.675 95.2987 133.398 94.808C133.121 94.3173 132.758 93.9547 132.31 93.72C131.862 93.4747 131.377 93.352 130.854 93.352C130.321 93.352 129.83 93.4747 129.382 93.72C128.945 93.9547 128.593 94.3173 128.326 94.808C128.059 95.2987 127.926 95.896 127.926 96.6C127.926 97.3147 128.054 97.9173 128.31 98.408C128.577 98.8987 128.929 99.2667 129.366 99.512C129.803 99.7467 130.283 99.864 130.806 99.864ZM147.76 92.072C148.443 92.072 149.051 92.216 149.584 92.504C150.118 92.7813 150.539 93.2027 150.848 93.768C151.158 94.3333 151.312 95.0213 151.312 95.832V101H149.872V96.04C149.872 95.1653 149.654 94.4987 149.216 94.04C148.79 93.5707 148.208 93.336 147.472 93.336C146.715 93.336 146.112 93.5813 145.664 94.072C145.216 94.552 144.992 95.2507 144.992 96.168V101H143.552V96.04C143.552 95.1653 143.334 94.4987 142.896 94.04C142.47 93.5707 141.888 93.336 141.152 93.336C140.395 93.336 139.792 93.5813 139.344 94.072C138.896 94.552 138.672 95.2507 138.672 96.168V101H137.216V92.232H138.672V93.496C138.96 93.0373 139.344 92.6853 139.824 92.44C140.315 92.1947 140.854 92.072 141.44 92.072C142.176 92.072 142.827 92.2373 143.392 92.568C143.958 92.8987 144.379 93.384 144.656 94.024C144.902 93.4053 145.307 92.9253 145.872 92.584C146.438 92.2427 147.067 92.072 147.76 92.072ZM165.422 93.112C165.422 94.04 165.102 94.8133 164.462 95.432C163.833 96.04 162.868 96.344 161.566 96.344H159.422V101H157.966V89.848H161.566C162.825 89.848 163.78 90.152 164.43 90.76C165.092 91.368 165.422 92.152 165.422 93.112ZM161.566 95.144C162.377 95.144 162.974 94.968 163.358 94.616C163.742 94.264 163.934 93.7627 163.934 93.112C163.934 91.736 163.145 91.048 161.566 91.048H159.422V95.144H161.566ZM166.688 95.416C166.688 94.328 166.933 93.352 167.424 92.488C167.915 91.6133 168.581 90.9307 169.424 90.44C170.277 89.9493 171.221 89.704 172.256 89.704C173.472 89.704 174.533 89.9973 175.44 90.584C176.347 91.1707 177.008 92.0027 177.424 93.08H175.68C175.371 92.408 174.923 91.8907 174.336 91.528C173.76 91.1653 173.067 90.984 172.256 90.984C171.477 90.984 170.779 91.1653 170.16 91.528C169.541 91.8907 169.056 92.408 168.704 93.08C168.352 93.7413 168.176 94.52 168.176 95.416C168.176 96.3013 168.352 97.08 168.704 97.752C169.056 98.4133 169.541 98.9253 170.16 99.288C170.779 99.6507 171.477 99.832 172.256 99.832C173.067 99.832 173.76 99.656 174.336 99.304C174.923 98.9413 175.371 98.424 175.68 97.752H177.424C177.008 98.8187 176.347 99.6453 175.44 100.232C174.533 100.808 173.472 101.096 172.256 101.096C171.221 101.096 170.277 100.856 169.424 100.376C168.581 99.8853 167.915 99.208 167.424 98.344C166.933 97.48 166.688 96.504 166.688 95.416ZM183.313 96.584C183.313 95.688 183.494 94.904 183.857 94.232C184.22 93.5493 184.716 93.0213 185.345 92.648C185.985 92.2747 186.694 92.088 187.473 92.088C188.241 92.088 188.908 92.2533 189.473 92.584C190.038 92.9147 190.46 93.3307 190.737 93.832V92.232H192.209V101H190.737V99.368C190.449 99.88 190.017 100.307 189.441 100.648C188.876 100.979 188.214 101.144 187.457 101.144C186.678 101.144 185.974 100.952 185.345 100.568C184.716 100.184 184.22 99.6453 183.857 98.952C183.494 98.2587 183.313 97.4693 183.313 96.584ZM190.737 96.6C190.737 95.9387 190.604 95.3627 190.337 94.872C190.07 94.3813 189.708 94.008 189.249 93.752C188.801 93.4853 188.305 93.352 187.761 93.352C187.217 93.352 186.721 93.48 186.273 93.736C185.825 93.992 185.468 94.3653 185.201 94.856C184.934 95.3467 184.801 95.9227 184.801 96.584C184.801 97.256 184.934 97.8427 185.201 98.344C185.468 98.8347 185.825 99.2133 186.273 99.48C186.721 99.736 187.217 99.864 187.761 99.864C188.305 99.864 188.801 99.736 189.249 99.48C189.708 99.2133 190.07 98.8347 190.337 98.344C190.604 97.8427 190.737 97.2613 190.737 96.6ZM198.942 92.072C200.008 92.072 200.872 92.3973 201.534 93.048C202.195 93.688 202.526 94.616 202.526 95.832V101H201.086V96.04C201.086 95.1653 200.867 94.4987 200.43 94.04C199.992 93.5707 199.395 93.336 198.638 93.336C197.87 93.336 197.256 93.576 196.798 94.056C196.35 94.536 196.126 95.2347 196.126 96.152V101H194.67V92.232H196.126V93.48C196.414 93.032 196.803 92.6853 197.294 92.44C197.795 92.1947 198.344 92.072 198.942 92.072ZM204.36 96.584C204.36 95.688 204.541 94.904 204.904 94.232C205.267 93.5493 205.763 93.0213 206.392 92.648C207.032 92.2747 207.747 92.088 208.536 92.088C209.219 92.088 209.853 92.248 210.44 92.568C211.027 92.8773 211.475 93.288 211.784 93.8V89.16H213.256V101H211.784V99.352C211.496 99.8747 211.069 100.307 210.504 100.648C209.939 100.979 209.277 101.144 208.52 101.144C207.741 101.144 207.032 100.952 206.392 100.568C205.763 100.184 205.267 99.6453 204.904 98.952C204.541 98.2587 204.36 97.4693 204.36 96.584ZM211.784 96.6C211.784 95.9387 211.651 95.3627 211.384 94.872C211.117 94.3813 210.755 94.008 210.296 93.752C209.848 93.4853 209.352 93.352 208.808 93.352C208.264 93.352 207.768 93.48 207.32 93.736C206.872 93.992 206.515 94.3653 206.248 94.856C205.981 95.3467 205.848 95.9227 205.848 96.584C205.848 97.256 205.981 97.8427 206.248 98.344C206.515 98.8347 206.872 99.2133 207.32 99.48C207.768 99.736 208.264 99.864 208.808 99.864C209.352 99.864 209.848 99.736 210.296 99.48C210.755 99.2133 211.117 98.8347 211.384 98.344C211.651 97.8427 211.784 97.2613 211.784 96.6ZM14.688 113.16V125H13.232V113.16H14.688ZM20.9935 125.144C20.1722 125.144 19.4255 124.957 18.7535 124.584C18.0922 124.211 17.5695 123.683 17.1855 123C16.8122 122.307 16.6255 121.507 16.6255 120.6C16.6255 119.704 16.8175 118.915 17.2015 118.232C17.5962 117.539 18.1295 117.011 18.8015 116.648C19.4735 116.275 20.2255 116.088 21.0575 116.088C21.8895 116.088 22.6415 116.275 23.3135 116.648C23.9855 117.011 24.5135 117.533 24.8975 118.216C25.2922 118.899 25.4895 119.693 25.4895 120.6C25.4895 121.507 25.2868 122.307 24.8815 123C24.4868 123.683 23.9482 124.211 23.2655 124.584C22.5828 124.957 21.8255 125.144 20.9935 125.144ZM20.9935 123.864C21.5162 123.864 22.0068 123.741 22.4655 123.496C22.9242 123.251 23.2922 122.883 23.5695 122.392C23.8575 121.901 24.0015 121.304 24.0015 120.6C24.0015 119.896 23.8628 119.299 23.5855 118.808C23.3082 118.317 22.9455 117.955 22.4975 117.72C22.0495 117.475 21.5642 117.352 21.0415 117.352C20.5082 117.352 20.0175 117.475 19.5695 117.72C19.1322 117.955 18.7802 118.317 18.5135 118.808C18.2468 119.299 18.1135 119.896 18.1135 120.6C18.1135 121.315 18.2415 121.917 18.4975 122.408C18.7642 122.899 19.1162 123.267 19.5535 123.512C19.9908 123.747 20.4708 123.864 20.9935 123.864ZM30.6679 123.656L33.3879 116.232H34.9399L31.4999 125H29.8039L26.3639 116.232H27.9319L30.6679 123.656ZM44.3726 120.28C44.3726 120.557 44.3566 120.851 44.3246 121.16H37.3166C37.37 122.024 37.6633 122.701 38.1966 123.192C38.7406 123.672 39.3966 123.912 40.1646 123.912C40.794 123.912 41.3166 123.768 41.7326 123.48C42.1593 123.181 42.458 122.787 42.6286 122.296H44.1966C43.962 123.139 43.4926 123.827 42.7886 124.36C42.0846 124.883 41.21 125.144 40.1646 125.144C39.3326 125.144 38.586 124.957 37.9246 124.584C37.274 124.211 36.762 123.683 36.3886 123C36.0153 122.307 35.8286 121.507 35.8286 120.6C35.8286 119.693 36.01 118.899 36.3726 118.216C36.7353 117.533 37.242 117.011 37.8926 116.648C38.554 116.275 39.3113 116.088 40.1646 116.088C40.9966 116.088 41.7326 116.269 42.3726 116.632C43.0126 116.995 43.5033 117.496 43.8446 118.136C44.1966 118.765 44.3726 119.48 44.3726 120.28ZM42.8686 119.976C42.8686 119.421 42.746 118.947 42.5006 118.552C42.2553 118.147 41.9193 117.843 41.4926 117.64C41.0766 117.427 40.6126 117.32 40.1006 117.32C39.3646 117.32 38.7353 117.555 38.2126 118.024C37.7006 118.493 37.4073 119.144 37.3326 119.976H42.8686ZM50.0161 120.6C50.0161 119.693 50.1975 118.904 50.5601 118.232C50.9228 117.549 51.4241 117.021 52.0641 116.648C52.7148 116.275 53.4561 116.088 54.2881 116.088C55.3655 116.088 56.2508 116.349 56.9441 116.872C57.6481 117.395 58.1121 118.12 58.3361 119.048H56.7681C56.6188 118.515 56.3255 118.093 55.8881 117.784C55.4615 117.475 54.9281 117.32 54.2881 117.32C53.4561 117.32 52.7841 117.608 52.2721 118.184C51.7601 118.749 51.5041 119.555 51.5041 120.6C51.5041 121.656 51.7601 122.472 52.2721 123.048C52.7841 123.624 53.4561 123.912 54.2881 123.912C54.9281 123.912 55.4615 123.763 55.8881 123.464C56.3148 123.165 56.6081 122.739 56.7681 122.184H58.3361C58.1015 123.08 57.6321 123.8 56.9281 124.344C56.2241 124.877 55.3441 125.144 54.2881 125.144C53.4561 125.144 52.7148 124.957 52.0641 124.584C51.4241 124.211 50.9228 123.683 50.5601 123C50.1975 122.317 50.0161 121.517 50.0161 120.6ZM64.1029 125.144C63.2815 125.144 62.5349 124.957 61.8629 124.584C61.2015 124.211 60.6789 123.683 60.2949 123C59.9215 122.307 59.7349 121.507 59.7349 120.6C59.7349 119.704 59.9269 118.915 60.3109 118.232C60.7055 117.539 61.2389 117.011 61.9109 116.648C62.5829 116.275 63.3349 116.088 64.1669 116.088C64.9989 116.088 65.7509 116.275 66.4229 116.648C67.0949 117.011 67.6229 117.533 68.0069 118.216C68.4015 118.899 68.5989 119.693 68.5989 120.6C68.5989 121.507 68.3962 122.307 67.9909 123C67.5962 123.683 67.0575 124.211 66.3749 124.584C65.6922 124.957 64.9349 125.144 64.1029 125.144ZM64.1029 123.864C64.6255 123.864 65.1162 123.741 65.5749 123.496C66.0335 123.251 66.4015 122.883 66.6789 122.392C66.9669 121.901 67.1109 121.304 67.1109 120.6C67.1109 119.896 66.9722 119.299 66.6949 118.808C66.4175 118.317 66.0549 117.955 65.6069 117.72C65.1589 117.475 64.6735 117.352 64.1509 117.352C63.6175 117.352 63.1269 117.475 62.6789 117.72C62.2415 117.955 61.8895 118.317 61.6229 118.808C61.3562 119.299 61.2229 119.896 61.2229 120.6C61.2229 121.315 61.3509 121.917 61.6069 122.408C61.8735 122.899 62.2255 123.267 62.6629 123.512C63.1002 123.747 63.5802 123.864 64.1029 123.864ZM69.9693 120.584C69.9693 119.688 70.1506 118.904 70.5133 118.232C70.8759 117.549 71.3719 117.021 72.0013 116.648C72.6413 116.275 73.3559 116.088 74.1453 116.088C74.8279 116.088 75.4626 116.248 76.0493 116.568C76.6359 116.877 77.0839 117.288 77.3933 117.8V113.16H78.8653V125H77.3933V123.352C77.1053 123.875 76.6786 124.307 76.1133 124.648C75.5479 124.979 74.8866 125.144 74.1293 125.144C73.3506 125.144 72.6413 124.952 72.0013 124.568C71.3719 124.184 70.8759 123.645 70.5133 122.952C70.1506 122.259 69.9693 121.469 69.9693 120.584ZM77.3933 120.6C77.3933 119.939 77.2599 119.363 76.9933 118.872C76.7266 118.381 76.3639 118.008 75.9053 117.752C75.4573 117.485 74.9613 117.352 74.4173 117.352C73.8733 117.352 73.3773 117.48 72.9293 117.736C72.4813 117.992 72.1239 118.365 71.8573 118.856C71.5906 119.347 71.4573 119.923 71.4573 120.584C71.4573 121.256 71.5906 121.843 71.8573 122.344C72.1239 122.835 72.4813 123.213 72.9293 123.48C73.3773 123.736 73.8733 123.864 74.4173 123.864C74.9613 123.864 75.4573 123.736 75.9053 123.48C76.3639 123.213 76.7266 122.835 76.9933 122.344C77.2599 121.843 77.3933 121.261 77.3933 120.6ZM82.0778 114.808C81.8004 114.808 81.5658 114.712 81.3738 114.52C81.1818 114.328 81.0858 114.093 81.0858 113.816C81.0858 113.539 81.1818 113.304 81.3738 113.112C81.5658 112.92 81.8004 112.824 82.0778 112.824C82.3444 112.824 82.5684 112.92 82.7498 113.112C82.9418 113.304 83.0378 113.539 83.0378 113.816C83.0378 114.093 82.9418 114.328 82.7498 114.52C82.5684 114.712 82.3444 114.808 82.0778 114.808ZM82.7818 116.232V125H81.3258V116.232H82.7818ZM89.5353 116.072C90.6019 116.072 91.4659 116.397 92.1273 117.048C92.7886 117.688 93.1193 118.616 93.1193 119.832V125H91.6793V120.04C91.6793 119.165 91.4606 118.499 91.0233 118.04C90.5859 117.571 89.9886 117.336 89.2313 117.336C88.4633 117.336 87.8499 117.576 87.3913 118.056C86.9433 118.536 86.7193 119.235 86.7193 120.152V125H85.2633V116.232H86.7193V117.48C87.0073 117.032 87.3966 116.685 87.8873 116.44C88.3886 116.195 88.9379 116.072 89.5353 116.072ZM99.1136 116.088C99.871 116.088 100.532 116.253 101.098 116.584C101.674 116.915 102.1 117.331 102.378 117.832V116.232H103.85V125.192C103.85 125.992 103.679 126.701 103.338 127.32C102.996 127.949 102.506 128.44 101.866 128.792C101.236 129.144 100.5 129.32 99.6576 129.32C98.5056 129.32 97.5456 129.048 96.7776 128.504C96.0096 127.96 95.5563 127.219 95.4176 126.28H96.8576C97.0176 126.813 97.3483 127.24 97.8496 127.56C98.351 127.891 98.9536 128.056 99.6576 128.056C100.458 128.056 101.108 127.805 101.61 127.304C102.122 126.803 102.378 126.099 102.378 125.192V123.352C102.09 123.864 101.663 124.291 101.098 124.632C100.532 124.973 99.871 125.144 99.1136 125.144C98.335 125.144 97.6256 124.952 96.9856 124.568C96.3563 124.184 95.8603 123.645 95.4976 122.952C95.135 122.259 94.9536 121.469 94.9536 120.584C94.9536 119.688 95.135 118.904 95.4976 118.232C95.8603 117.549 96.3563 117.021 96.9856 116.648C97.6256 116.275 98.335 116.088 99.1136 116.088ZM102.378 120.6C102.378 119.939 102.244 119.363 101.978 118.872C101.711 118.381 101.348 118.008 100.89 117.752C100.442 117.485 99.9456 117.352 99.4016 117.352C98.8576 117.352 98.3616 117.48 97.9136 117.736C97.4656 117.992 97.1083 118.365 96.8416 118.856C96.575 119.347 96.4416 119.923 96.4416 120.584C96.4416 121.256 96.575 121.843 96.8416 122.344C97.1083 122.835 97.4656 123.213 97.9136 123.48C98.3616 123.736 98.8576 123.864 99.4016 123.864C99.9456 123.864 100.442 123.736 100.89 123.48C101.348 123.213 101.711 122.835 101.978 122.344C102.244 121.843 102.378 121.261 102.378 120.6ZM106.774 125.096C106.497 125.096 106.262 125 106.07 124.808C105.878 124.616 105.782 124.381 105.782 124.104C105.782 123.827 105.878 123.592 106.07 123.4C106.262 123.208 106.497 123.112 106.774 123.112C107.041 123.112 107.265 123.208 107.446 123.4C107.638 123.592 107.734 123.827 107.734 124.104C107.734 124.381 107.638 124.616 107.446 124.808C107.265 125 107.041 125.096 106.774 125.096Z" fill="#757575"/>
</g>
<defs>
<clipPath id="clip0">
<rect width="260" height="205" fill="white"/>
</clipPath>
</defs>
</svg>