<svg width="260" height="205" viewBox="0 0 260 205" fill="none" xmlns="http://www.w3.org/2000/svg">
<rect width="260" height="205" rx="10" fill="#070439"/>
<path d="M53.3741 31.0991H57.5428V36.5472C56.8672 36.7676 56.2299 36.9209 55.6309 37.0072C55.0368 37.0982 54.4282 37.1438 53.8053 37.1438C52.2193 37.1438 51.007 36.679 50.1684 35.7494C49.3347 34.815 48.9178 33.4757 48.9178 31.7316C48.9178 30.0353 49.4018 28.7128 50.3697 27.7641C51.3424 26.8153 52.6889 26.3409 54.4091 26.3409C55.4872 26.3409 56.527 26.5566 57.5284 26.9878L56.7881 28.7703C56.0215 28.387 55.2236 28.1953 54.3947 28.1953C53.4316 28.1953 52.6601 28.5187 52.0803 29.1656C51.5005 29.8125 51.2106 30.6822 51.2106 31.7747C51.2106 32.9151 51.443 33.7872 51.9078 34.3909C52.3774 34.9899 53.0578 35.2894 53.9491 35.2894C54.4139 35.2894 54.8858 35.2415 55.365 35.1456V32.9534H53.3741V31.0991ZM63.2066 30.3731C62.7418 30.3731 62.3776 30.5217 62.1141 30.8187C61.8505 31.111 61.6996 31.5279 61.6613 32.0694H64.7375C64.7279 31.5279 64.5866 31.111 64.3134 30.8187C64.0403 30.5217 63.6714 30.3731 63.2066 30.3731ZM63.5156 37.1438C62.2219 37.1438 61.2108 36.7868 60.4825 36.0728C59.7542 35.3589 59.39 34.3478 59.39 33.0397C59.39 31.6932 59.7254 30.6534 60.3963 29.9203C61.0719 29.1824 62.0039 28.8134 63.1922 28.8134C64.3278 28.8134 65.2119 29.1369 65.8444 29.7837C66.4769 30.4306 66.7931 31.3243 66.7931 32.4647V33.5284H61.6109C61.6349 34.1514 61.8194 34.6377 62.1644 34.9875C62.5094 35.3373 62.9933 35.5122 63.6163 35.5122C64.1002 35.5122 64.5578 35.4619 64.9891 35.3612C65.4203 35.2606 65.8707 35.1001 66.3403 34.8797V36.5759C65.957 36.7676 65.5473 36.909 65.1113 37C64.6752 37.0958 64.1433 37.1438 63.5156 37.1438ZM71.9609 35.3972C72.3443 35.3972 72.8043 35.3133 73.3409 35.1456V36.7772C72.7947 37.0216 72.1239 37.1438 71.3284 37.1438C70.4516 37.1438 69.8119 36.9233 69.4094 36.4825C69.0117 36.0369 68.8128 35.3708 68.8128 34.4844V30.6103H67.7634V29.6831L68.9709 28.95L69.6034 27.2537H71.005V28.9644H73.2547V30.6103H71.005V34.4844C71.005 34.7958 71.0913 35.0258 71.2638 35.1744C71.441 35.3229 71.6734 35.3972 71.9609 35.3972ZM82.1241 30.3731C81.6593 30.3731 81.2951 30.5217 81.0316 30.8187C80.768 31.111 80.6171 31.5279 80.5788 32.0694H83.655C83.6454 31.5279 83.5041 31.111 83.2309 30.8187C82.9578 30.5217 82.5889 30.3731 82.1241 30.3731ZM82.4331 37.1438C81.1394 37.1438 80.1283 36.7868 79.4 36.0728C78.6717 35.3589 78.3075 34.3478 78.3075 33.0397C78.3075 31.6932 78.6429 30.6534 79.3138 29.9203C79.9894 29.1824 80.9214 28.8134 82.1097 28.8134C83.2453 28.8134 84.1294 29.1369 84.7619 29.7837C85.3944 30.4306 85.7106 31.3243 85.7106 32.4647V33.5284H80.5284C80.5524 34.1514 80.7369 34.6377 81.0819 34.9875C81.4269 35.3373 81.9108 35.5122 82.5338 35.5122C83.0177 35.5122 83.4753 35.4619 83.9066 35.3612C84.3378 35.2606 84.7882 35.1001 85.2578 34.8797V36.5759C84.8745 36.7676 84.4648 36.909 84.0288 37C83.5927 37.0958 83.0608 37.1438 82.4331 37.1438ZM92.5962 37L92.1722 35.9075H92.1147C91.7457 36.3723 91.3648 36.6957 90.9719 36.8778C90.5837 37.0551 90.0758 37.1438 89.4481 37.1438C88.6767 37.1438 88.0681 36.9233 87.6225 36.4825C87.1817 36.0417 86.9612 35.414 86.9612 34.5994C86.9612 33.7465 87.2583 33.1187 87.8525 32.7162C88.4515 32.309 89.3523 32.0837 90.555 32.0406L91.9494 31.9975V31.6453C91.9494 30.8307 91.5325 30.4234 90.6987 30.4234C90.0567 30.4234 89.302 30.6175 88.4347 31.0056L87.7087 29.525C88.6335 29.041 89.659 28.7991 90.785 28.7991C91.8631 28.7991 92.6897 29.0339 93.2647 29.5034C93.8397 29.973 94.1272 30.687 94.1272 31.6453V37H92.5962ZM91.9494 33.2769L91.1012 33.3056C90.464 33.3248 89.9896 33.4398 89.6781 33.6506C89.3667 33.8615 89.2109 34.1825 89.2109 34.6137C89.2109 35.2319 89.5655 35.5409 90.2747 35.5409C90.7826 35.5409 91.1875 35.3948 91.4894 35.1025C91.796 34.8102 91.9494 34.4221 91.9494 33.9381V33.2769ZM100.876 28.8134C101.173 28.8134 101.42 28.835 101.617 28.8781L101.451 30.9337C101.274 30.8858 101.058 30.8619 100.804 30.8619C100.105 30.8619 99.5585 31.0416 99.1656 31.4009C98.7775 31.7603 98.5834 32.2634 98.5834 32.9103V37H96.3912V28.9644H98.0516L98.375 30.3156H98.4828C98.732 29.8652 99.0674 29.5034 99.4891 29.2303C99.9155 28.9524 100.378 28.8134 100.876 28.8134ZM105.268 37H103.076V25.8162H105.268V37ZM106.425 28.9644H108.826L110.342 33.4853C110.472 33.8782 110.56 34.343 110.608 34.8797H110.651C110.704 34.3861 110.807 33.9214 110.96 33.4853L112.448 28.9644H114.798L111.399 38.0278C111.087 38.8664 110.642 39.4941 110.062 39.9109C109.487 40.3278 108.814 40.5363 108.042 40.5363C107.664 40.5363 107.292 40.4955 106.928 40.4141V38.6747C107.192 38.737 107.479 38.7681 107.791 38.7681C108.179 38.7681 108.517 38.6483 108.804 38.4088C109.096 38.174 109.324 37.817 109.487 37.3378L109.616 36.9425L106.425 28.9644ZM124.883 37L124.458 35.9075H124.401C124.032 36.3723 123.651 36.6957 123.258 36.8778C122.87 37.0551 122.362 37.1438 121.734 37.1438C120.963 37.1438 120.354 36.9233 119.909 36.4825C119.468 36.0417 119.248 35.414 119.248 34.5994C119.248 33.7465 119.545 33.1187 120.139 32.7162C120.738 32.309 121.639 32.0837 122.841 32.0406L124.236 31.9975V31.6453C124.236 30.8307 123.819 30.4234 122.985 30.4234C122.343 30.4234 121.588 30.6175 120.721 31.0056L119.995 29.525C120.92 29.041 121.945 28.7991 123.071 28.7991C124.149 28.7991 124.976 29.0339 125.551 29.5034C126.126 29.973 126.413 30.687 126.413 31.6453V37H124.883ZM124.236 33.2769L123.388 33.3056C122.75 33.3248 122.276 33.4398 121.964 33.6506C121.653 33.8615 121.497 34.1825 121.497 34.6137C121.497 35.2319 121.852 35.5409 122.561 35.5409C123.069 35.5409 123.474 35.3948 123.776 35.1025C124.082 34.8102 124.236 34.4221 124.236 33.9381V33.2769ZM131.941 37.1438C129.439 37.1438 128.189 35.7709 128.189 33.0253C128.189 31.6597 128.529 30.6175 129.209 29.8987C129.89 29.1752 130.865 28.8134 132.135 28.8134C133.064 28.8134 133.898 28.9955 134.636 29.3597L133.989 31.0559C133.644 30.917 133.323 30.8044 133.026 30.7181C132.729 30.6271 132.432 30.5816 132.135 30.5816C130.994 30.5816 130.424 31.3914 130.424 33.0109C130.424 34.5826 130.994 35.3684 132.135 35.3684C132.556 35.3684 132.947 35.3133 133.306 35.2031C133.666 35.0881 134.025 34.9108 134.384 34.6712V36.5472C134.03 36.7724 133.67 36.9281 133.306 37.0144C132.947 37.1006 132.492 37.1438 131.941 37.1438ZM139.516 37.1438C137.015 37.1438 135.764 35.7709 135.764 33.0253C135.764 31.6597 136.105 30.6175 136.785 29.8987C137.465 29.1752 138.441 28.8134 139.71 28.8134C140.64 28.8134 141.474 28.9955 142.212 29.3597L141.565 31.0559C141.22 30.917 140.899 30.8044 140.602 30.7181C140.304 30.6271 140.007 30.5816 139.71 30.5816C138.57 30.5816 138 31.3914 138 33.0109C138 34.5826 138.57 35.3684 139.71 35.3684C140.132 35.3684 140.522 35.3133 140.882 35.2031C141.241 35.0881 141.601 34.9108 141.96 34.6712V36.5472C141.605 36.7724 141.246 36.9281 140.882 37.0144C140.522 37.1006 140.067 37.1438 139.516 37.1438ZM147.157 30.3731C146.692 30.3731 146.328 30.5217 146.064 30.8187C145.801 31.111 145.65 31.5279 145.611 32.0694H148.687C148.678 31.5279 148.537 31.111 148.263 30.8187C147.99 30.5217 147.621 30.3731 147.157 30.3731ZM147.466 37.1438C146.172 37.1438 145.161 36.7868 144.432 36.0728C143.704 35.3589 143.34 34.3478 143.34 33.0397C143.34 31.6932 143.675 30.6534 144.346 29.9203C145.022 29.1824 145.954 28.8134 147.142 28.8134C148.278 28.8134 149.162 29.1369 149.794 29.7837C150.427 30.4306 150.743 31.3243 150.743 32.4647V33.5284H145.561C145.585 34.1514 145.769 34.6377 146.114 34.9875C146.459 35.3373 146.943 35.5122 147.566 35.5122C148.05 35.5122 148.508 35.4619 148.939 35.3612C149.37 35.2606 149.821 35.1001 150.29 34.8797V36.5759C149.907 36.7676 149.497 36.909 149.061 37C148.625 37.0958 148.093 37.1438 147.466 37.1438ZM158.132 34.6137C158.132 35.4379 157.844 36.0656 157.269 36.4969C156.699 36.9281 155.844 37.1438 154.703 37.1438C154.119 37.1438 153.621 37.103 153.208 37.0216C152.796 36.9449 152.411 36.8299 152.051 36.6766V34.8653C152.459 35.057 152.916 35.2175 153.424 35.3469C153.937 35.4762 154.387 35.5409 154.775 35.5409C155.571 35.5409 155.968 35.3109 155.968 34.8509C155.968 34.6784 155.916 34.5395 155.81 34.4341C155.705 34.3239 155.523 34.2017 155.264 34.0675C155.005 33.9285 154.66 33.768 154.229 33.5859C153.611 33.3272 153.156 33.0876 152.863 32.8672C152.576 32.6468 152.365 32.3952 152.231 32.1125C152.102 31.825 152.037 31.4728 152.037 31.0559C152.037 30.342 152.312 29.7909 152.863 29.4028C153.419 29.0099 154.205 28.8134 155.221 28.8134C156.189 28.8134 157.13 29.0243 158.046 29.4459L157.384 31.0272C156.982 30.8547 156.606 30.7133 156.256 30.6031C155.906 30.4929 155.549 30.4378 155.185 30.4378C154.538 30.4378 154.215 30.6127 154.215 30.9625C154.215 31.159 154.318 31.3291 154.524 31.4728C154.735 31.6166 155.192 31.8298 155.897 32.1125C156.524 32.3665 156.984 32.6036 157.277 32.8241C157.569 33.0445 157.784 33.2984 157.923 33.5859C158.062 33.8734 158.132 34.216 158.132 34.6137ZM165.449 34.6137C165.449 35.4379 165.161 36.0656 164.586 36.4969C164.016 36.9281 163.161 37.1438 162.02 37.1438C161.436 37.1438 160.937 37.103 160.525 37.0216C160.113 36.9449 159.728 36.8299 159.368 36.6766V34.8653C159.775 35.057 160.233 35.2175 160.741 35.3469C161.254 35.4762 161.704 35.5409 162.092 35.5409C162.888 35.5409 163.285 35.3109 163.285 34.8509C163.285 34.6784 163.233 34.5395 163.127 34.4341C163.022 34.3239 162.84 34.2017 162.581 34.0675C162.322 33.9285 161.977 33.768 161.546 33.5859C160.928 33.3272 160.473 33.0876 160.18 32.8672C159.893 32.6468 159.682 32.3952 159.548 32.1125C159.418 31.825 159.354 31.4728 159.354 31.0559C159.354 30.342 159.629 29.7909 160.18 29.4028C160.736 29.0099 161.522 28.8134 162.538 28.8134C163.506 28.8134 164.447 29.0243 165.363 29.4459L164.701 31.0272C164.299 30.8547 163.923 30.7133 163.573 30.6031C163.223 30.4929 162.866 30.4378 162.502 30.4378C161.855 30.4378 161.532 30.6127 161.532 30.9625C161.532 31.159 161.635 31.3291 161.841 31.4728C162.051 31.6166 162.509 31.8298 163.213 32.1125C163.841 32.3665 164.301 32.6036 164.593 32.8241C164.886 33.0445 165.101 33.2984 165.24 33.5859C165.379 33.8734 165.449 34.216 165.449 34.6137ZM174.368 35.3972C174.752 35.3972 175.212 35.3133 175.748 35.1456V36.7772C175.202 37.0216 174.531 37.1438 173.736 37.1438C172.859 37.1438 172.219 36.9233 171.817 36.4825C171.419 36.0369 171.22 35.3708 171.22 34.4844V30.6103H170.171V29.6831L171.378 28.95L172.011 27.2537H173.413V28.9644H175.662V30.6103H173.413V34.4844C173.413 34.7958 173.499 35.0258 173.671 35.1744C173.849 35.3229 174.081 35.3972 174.368 35.3972ZM179.127 32.9678C179.127 33.7632 179.256 34.3646 179.515 34.7719C179.778 35.1792 180.205 35.3828 180.794 35.3828C181.379 35.3828 181.798 35.1816 182.052 34.7791C182.311 34.3718 182.44 33.768 182.44 32.9678C182.44 32.1724 182.311 31.5758 182.052 31.1781C181.793 30.7804 181.369 30.5816 180.78 30.5816C180.195 30.5816 179.773 30.7804 179.515 31.1781C179.256 31.571 179.127 32.1676 179.127 32.9678ZM184.682 32.9678C184.682 34.2759 184.337 35.299 183.647 36.0369C182.957 36.7748 181.997 37.1438 180.765 37.1438C179.994 37.1438 179.313 36.976 178.724 36.6406C178.135 36.3004 177.682 35.8141 177.366 35.1816C177.049 34.5491 176.891 33.8111 176.891 32.9678C176.891 31.6549 177.234 30.6343 177.919 29.9059C178.604 29.1776 179.567 28.8134 180.808 28.8134C181.58 28.8134 182.26 28.9811 182.85 29.3166C183.439 29.652 183.892 30.1335 184.208 30.7612C184.524 31.389 184.682 32.1245 184.682 32.9678ZM189.038 37.1438C188.094 37.1438 187.351 36.7772 186.81 36.0441C186.273 35.3109 186.005 34.2951 186.005 32.9966C186.005 31.6789 186.278 30.6534 186.824 29.9203C187.375 29.1824 188.133 28.8134 189.096 28.8134C190.107 28.8134 190.878 29.2064 191.41 29.9922H191.482C191.372 29.3932 191.317 28.859 191.317 28.3894V25.8162H193.516V37H191.834L191.41 35.9578H191.317C190.818 36.7484 190.059 37.1438 189.038 37.1438ZM189.807 35.3972C190.368 35.3972 190.778 35.2343 191.036 34.9084C191.3 34.5826 191.444 34.0292 191.468 33.2481V33.0109C191.468 32.1484 191.333 31.5303 191.065 31.1566C190.801 30.7828 190.37 30.5959 189.771 30.5959C189.283 30.5959 188.902 30.8044 188.628 31.2212C188.36 31.6333 188.226 32.2347 188.226 33.0253C188.226 33.8159 188.363 34.4101 188.636 34.8078C188.909 35.2007 189.299 35.3972 189.807 35.3972ZM200.912 37L200.488 35.9075H200.43C200.061 36.3723 199.68 36.6957 199.288 36.8778C198.899 37.0551 198.391 37.1438 197.764 37.1438C196.992 37.1438 196.384 36.9233 195.938 36.4825C195.497 36.0417 195.277 35.414 195.277 34.5994C195.277 33.7465 195.574 33.1187 196.168 32.7162C196.767 32.309 197.668 32.0837 198.871 32.0406L200.265 31.9975V31.6453C200.265 30.8307 199.848 30.4234 199.014 30.4234C198.372 30.4234 197.618 30.6175 196.75 31.0056L196.024 29.525C196.949 29.041 197.975 28.7991 199.101 28.7991C200.179 28.7991 201.005 29.0339 201.58 29.5034C202.155 29.973 202.443 30.687 202.443 31.6453V37H200.912ZM200.265 33.2769L199.417 33.3056C198.78 33.3248 198.305 33.4398 197.994 33.6506C197.682 33.8615 197.527 34.1825 197.527 34.6137C197.527 35.2319 197.881 35.5409 198.59 35.5409C199.098 35.5409 199.503 35.3948 199.805 35.1025C200.112 34.8102 200.265 34.4221 200.265 33.9381V33.2769ZM203.557 28.9644H205.957L207.474 33.4853C207.603 33.8782 207.692 34.343 207.74 34.8797H207.783C207.836 34.3861 207.939 33.9214 208.092 33.4853L209.58 28.9644H211.93L208.531 38.0278C208.219 38.8664 207.774 39.4941 207.194 39.9109C206.619 40.3278 205.946 40.5363 205.174 40.5363C204.796 40.5363 204.424 40.4955 204.06 40.4141V38.6747C204.324 38.737 204.611 38.7681 204.922 38.7681C205.311 38.7681 205.648 38.6483 205.936 38.4088C206.228 38.174 206.456 37.817 206.619 37.3378L206.748 36.9425L203.557 28.9644Z" fill="white"/>
<path d="M29.7344 63V54.4336H30.7305V63H29.7344ZM35.0137 62.3145C35.1855 62.3145 35.3516 62.3027 35.5117 62.2793C35.6719 62.252 35.7988 62.2246 35.8926 62.1973V62.9414C35.7871 62.9922 35.6309 63.0332 35.4238 63.0645C35.2207 63.0996 35.0371 63.1172 34.873 63.1172C33.6309 63.1172 33.0098 62.4629 33.0098 61.1543V57.334H32.0898V56.8652L33.0098 56.4609L33.4199 55.0898H33.9824V56.5781H35.8457V57.334H33.9824V61.1133C33.9824 61.5 34.0742 61.7969 34.2578 62.0039C34.4414 62.2109 34.6934 62.3145 35.0137 62.3145ZM45.8418 59.7832C45.8418 60.8301 45.5781 61.6484 45.0508 62.2383C44.5234 62.8242 43.7949 63.1172 42.8652 63.1172C42.291 63.1172 41.7812 62.9824 41.3359 62.7129C40.8906 62.4434 40.5469 62.0566 40.3047 61.5527C40.0625 61.0488 39.9414 60.459 39.9414 59.7832C39.9414 58.7363 40.2031 57.9219 40.7266 57.3398C41.25 56.7539 41.9766 56.4609 42.9062 56.4609C43.8047 56.4609 44.5176 56.7598 45.0449 57.3574C45.5762 57.9551 45.8418 58.7637 45.8418 59.7832ZM40.9492 59.7832C40.9492 60.6035 41.1133 61.2285 41.4414 61.6582C41.7695 62.0879 42.252 62.3027 42.8887 62.3027C43.5254 62.3027 44.0078 62.0898 44.3359 61.6641C44.668 61.2344 44.834 60.6074 44.834 59.7832C44.834 58.9668 44.668 58.3477 44.3359 57.9258C44.0078 57.5 43.5215 57.2871 42.877 57.2871C42.2402 57.2871 41.7598 57.4961 41.4355 57.9141C41.1113 58.332 40.9492 58.9551 40.9492 59.7832ZM51.9473 63V58.8457C51.9473 58.3223 51.8281 57.9316 51.5898 57.6738C51.3516 57.416 50.9785 57.2871 50.4707 57.2871C49.7988 57.2871 49.3066 57.4688 48.9941 57.832C48.6816 58.1953 48.5254 58.7949 48.5254 59.6309V63H47.5527V56.5781H48.3438L48.502 57.457H48.5488C48.748 57.1406 49.0273 56.8965 49.3867 56.7246C49.7461 56.5488 50.1465 56.4609 50.5879 56.4609C51.3613 56.4609 51.9434 56.6484 52.334 57.0234C52.7246 57.3945 52.9199 57.9902 52.9199 58.8105V63H51.9473ZM55.8965 63H54.9238V53.8828H55.8965V63ZM56.9395 56.5781H57.9824L59.3887 60.2402C59.6973 61.0762 59.8887 61.6797 59.9629 62.0508H60.0098C60.0605 61.8516 60.166 61.5117 60.3262 61.0312C60.4902 60.5469 61.0215 59.0625 61.9199 56.5781H62.9629L60.2031 63.8906C59.9297 64.6133 59.6094 65.125 59.2422 65.4258C58.8789 65.7305 58.4316 65.8828 57.9004 65.8828C57.6035 65.8828 57.3105 65.8496 57.0215 65.7832V65.0039C57.2363 65.0508 57.4766 65.0742 57.7422 65.0742C58.4102 65.0742 58.8867 64.6992 59.1719 63.9492L59.5293 63.0352L56.9395 56.5781ZM69.1973 62.3145C69.3691 62.3145 69.5352 62.3027 69.6953 62.2793C69.8555 62.252 69.9824 62.2246 70.0762 62.1973V62.9414C69.9707 62.9922 69.8145 63.0332 69.6074 63.0645C69.4043 63.0996 69.2207 63.1172 69.0566 63.1172C67.8145 63.1172 67.1934 62.4629 67.1934 61.1543V57.334H66.2734V56.8652L67.1934 56.4609L67.6035 55.0898H68.166V56.5781H70.0293V57.334H68.166V61.1133C68.166 61.5 68.2578 61.7969 68.4414 62.0039C68.625 62.2109 68.877 62.3145 69.1973 62.3145ZM75.3145 63L75.1211 62.0859H75.0742C74.7539 62.4883 74.4336 62.7617 74.1133 62.9062C73.7969 63.0469 73.4004 63.1172 72.9238 63.1172C72.2871 63.1172 71.7871 62.9531 71.4238 62.625C71.0645 62.2969 70.8848 61.8301 70.8848 61.2246C70.8848 59.9277 71.9219 59.248 73.9961 59.1855L75.0859 59.1504V58.752C75.0859 58.248 74.9766 57.877 74.7578 57.6387C74.543 57.3965 74.1973 57.2754 73.7207 57.2754C73.1855 57.2754 72.5801 57.4395 71.9043 57.7676L71.6055 57.0234C71.9219 56.8516 72.2676 56.7168 72.6426 56.6191C73.0215 56.5215 73.4004 56.4727 73.7793 56.4727C74.5449 56.4727 75.1113 56.6426 75.4785 56.9824C75.8496 57.3223 76.0352 57.8672 76.0352 58.6172V63H75.3145ZM73.1172 62.3145C73.7227 62.3145 74.1973 62.1484 74.541 61.8164C74.8887 61.4844 75.0625 61.0195 75.0625 60.4219V59.8418L74.0898 59.8828C73.3164 59.9102 72.7578 60.0312 72.4141 60.2461C72.0742 60.457 71.9043 60.7871 71.9043 61.2363C71.9043 61.5879 72.0098 61.8555 72.2207 62.0391C72.4355 62.2227 72.7344 62.3145 73.1172 62.3145ZM79.0059 59.7129C79.1738 59.4746 79.4297 59.1621 79.7734 58.7754L81.8477 56.5781H83.002L80.4004 59.3145L83.1836 63H82.0059L79.7383 59.9648L79.0059 60.5977V63H78.0449V53.8828H79.0059V58.7168C79.0059 58.9316 78.9902 59.2637 78.959 59.7129H79.0059ZM87.0625 63.1172C86.1133 63.1172 85.3633 62.8281 84.8125 62.25C84.2656 61.6719 83.9922 60.8691 83.9922 59.8418C83.9922 58.8066 84.2461 57.9844 84.7539 57.375C85.2656 56.7656 85.9512 56.4609 86.8105 56.4609C87.6152 56.4609 88.252 56.7266 88.7207 57.2578C89.1895 57.7852 89.4238 58.4824 89.4238 59.3496V59.9648H85C85.0195 60.7188 85.209 61.291 85.5684 61.6816C85.9316 62.0723 86.4414 62.2676 87.0977 62.2676C87.7891 62.2676 88.4727 62.123 89.1484 61.834V62.7012C88.8047 62.8496 88.4785 62.9551 88.1699 63.0176C87.8652 63.084 87.4961 63.1172 87.0625 63.1172ZM86.7988 57.2754C86.2832 57.2754 85.8711 57.4434 85.5625 57.7793C85.2578 58.1152 85.0781 58.5801 85.0234 59.1738H88.3809C88.3809 58.5605 88.2441 58.0918 87.9707 57.7676C87.6973 57.4395 87.3066 57.2754 86.7988 57.2754ZM95.2305 61.248C95.2305 61.8457 95.0078 62.3066 94.5625 62.6309C94.1172 62.9551 93.4922 63.1172 92.6875 63.1172C91.8359 63.1172 91.1719 62.9824 90.6953 62.7129V61.8105C91.0039 61.9668 91.334 62.0898 91.6855 62.1797C92.041 62.2695 92.3828 62.3145 92.7109 62.3145C93.2188 62.3145 93.6094 62.2344 93.8828 62.0742C94.1562 61.9102 94.293 61.6621 94.293 61.3301C94.293 61.0801 94.1836 60.8672 93.9648 60.6914C93.75 60.5117 93.3281 60.3008 92.6992 60.0586C92.1016 59.8359 91.6758 59.6426 91.4219 59.4785C91.1719 59.3105 90.9844 59.1211 90.8594 58.9102C90.7383 58.6992 90.6777 58.4473 90.6777 58.1543C90.6777 57.6309 90.8906 57.2188 91.3164 56.918C91.7422 56.6133 92.3262 56.4609 93.0684 56.4609C93.7598 56.4609 94.4355 56.6016 95.0957 56.8828L94.75 57.6738C94.1055 57.4082 93.5215 57.2754 92.998 57.2754C92.5371 57.2754 92.1895 57.3477 91.9551 57.4922C91.7207 57.6367 91.6035 57.8359 91.6035 58.0898C91.6035 58.2617 91.6465 58.4082 91.7324 58.5293C91.8223 58.6504 91.9648 58.7656 92.1602 58.875C92.3555 58.9844 92.7305 59.1426 93.2852 59.3496C94.0469 59.627 94.5605 59.9062 94.8262 60.1875C95.0957 60.4688 95.2305 60.8223 95.2305 61.248ZM103.885 63L103.691 62.0859H103.645C103.324 62.4883 103.004 62.7617 102.684 62.9062C102.367 63.0469 101.971 63.1172 101.494 63.1172C100.857 63.1172 100.357 62.9531 99.9941 62.625C99.6348 62.2969 99.4551 61.8301 99.4551 61.2246C99.4551 59.9277 100.492 59.248 102.566 59.1855L103.656 59.1504V58.752C103.656 58.248 103.547 57.877 103.328 57.6387C103.113 57.3965 102.768 57.2754 102.291 57.2754C101.756 57.2754 101.15 57.4395 100.475 57.7676L100.176 57.0234C100.492 56.8516 100.838 56.7168 101.213 56.6191C101.592 56.5215 101.971 56.4727 102.35 56.4727C103.115 56.4727 103.682 56.6426 104.049 56.9824C104.42 57.3223 104.605 57.8672 104.605 58.6172V63H103.885ZM101.688 62.3145C102.293 62.3145 102.768 62.1484 103.111 61.8164C103.459 61.4844 103.633 61.0195 103.633 60.4219V59.8418L102.66 59.8828C101.887 59.9102 101.328 60.0312 100.984 60.2461C100.645 60.457 100.475 60.7871 100.475 61.2363C100.475 61.5879 100.58 61.8555 100.791 62.0391C101.006 62.2227 101.305 62.3145 101.688 62.3145ZM117.918 63V58.8223C117.918 58.3105 117.809 57.9277 117.59 57.6738C117.371 57.416 117.031 57.2871 116.57 57.2871C115.965 57.2871 115.518 57.4609 115.229 57.8086C114.939 58.1562 114.795 58.6914 114.795 59.4141V63H113.822V58.8223C113.822 58.3105 113.713 57.9277 113.494 57.6738C113.275 57.416 112.934 57.2871 112.469 57.2871C111.859 57.2871 111.412 57.4707 111.127 57.8379C110.846 58.2012 110.705 58.7988 110.705 59.6309V63H109.732V56.5781H110.523L110.682 57.457H110.729C110.912 57.1445 111.17 56.9004 111.502 56.7246C111.838 56.5488 112.213 56.4609 112.627 56.4609C113.631 56.4609 114.287 56.8242 114.596 57.5508H114.643C114.834 57.2148 115.111 56.9492 115.475 56.7539C115.838 56.5586 116.252 56.4609 116.717 56.4609C117.443 56.4609 117.986 56.6484 118.346 57.0234C118.709 57.3945 118.891 57.9902 118.891 58.8105V63H117.918ZM121.873 63H120.9V56.5781H121.873V63ZM120.818 54.8379C120.818 54.6152 120.873 54.4531 120.982 54.3516C121.092 54.2461 121.229 54.1934 121.393 54.1934C121.549 54.1934 121.684 54.2461 121.797 54.3516C121.91 54.457 121.967 54.6191 121.967 54.8379C121.967 55.0566 121.91 55.2207 121.797 55.3301C121.684 55.4355 121.549 55.4883 121.393 55.4883C121.229 55.4883 121.092 55.4355 120.982 55.3301C120.873 55.2207 120.818 55.0566 120.818 54.8379ZM128.33 63V58.8457C128.33 58.3223 128.211 57.9316 127.973 57.6738C127.734 57.416 127.361 57.2871 126.854 57.2871C126.182 57.2871 125.689 57.4688 125.377 57.832C125.064 58.1953 124.908 58.7949 124.908 59.6309V63H123.936V56.5781H124.727L124.885 57.457H124.932C125.131 57.1406 125.41 56.8965 125.77 56.7246C126.129 56.5488 126.529 56.4609 126.971 56.4609C127.744 56.4609 128.326 56.6484 128.717 57.0234C129.107 57.3945 129.303 57.9902 129.303 58.8105V63H128.33ZM132.221 56.5781V60.7441C132.221 61.2676 132.34 61.6582 132.578 61.916C132.816 62.1738 133.189 62.3027 133.697 62.3027C134.369 62.3027 134.859 62.1191 135.168 61.752C135.48 61.3848 135.637 60.7852 135.637 59.9531V56.5781H136.609V63H135.807L135.666 62.1387H135.613C135.414 62.4551 135.137 62.6973 134.781 62.8652C134.43 63.0332 134.027 63.1172 133.574 63.1172C132.793 63.1172 132.207 62.9316 131.816 62.5605C131.43 62.1895 131.236 61.5957 131.236 60.7793V56.5781H132.221ZM140.752 62.3145C140.924 62.3145 141.09 62.3027 141.25 62.2793C141.41 62.252 141.537 62.2246 141.631 62.1973V62.9414C141.525 62.9922 141.369 63.0332 141.162 63.0645C140.959 63.0996 140.775 63.1172 140.611 63.1172C139.369 63.1172 138.748 62.4629 138.748 61.1543V57.334H137.828V56.8652L138.748 56.4609L139.158 55.0898H139.721V56.5781H141.584V57.334H139.721V61.1133C139.721 61.5 139.812 61.7969 139.996 62.0039C140.18 62.2109 140.432 62.3145 140.752 62.3145ZM145.633 63.1172C144.684 63.1172 143.934 62.8281 143.383 62.25C142.836 61.6719 142.562 60.8691 142.562 59.8418C142.562 58.8066 142.816 57.9844 143.324 57.375C143.836 56.7656 144.521 56.4609 145.381 56.4609C146.186 56.4609 146.822 56.7266 147.291 57.2578C147.76 57.7852 147.994 58.4824 147.994 59.3496V59.9648H143.57C143.59 60.7188 143.779 61.291 144.139 61.6816C144.502 62.0723 145.012 62.2676 145.668 62.2676C146.359 62.2676 147.043 62.123 147.719 61.834V62.7012C147.375 62.8496 147.049 62.9551 146.74 63.0176C146.436 63.084 146.066 63.1172 145.633 63.1172ZM145.369 57.2754C144.854 57.2754 144.441 57.4434 144.133 57.7793C143.828 58.1152 143.648 58.5801 143.594 59.1738H146.951C146.951 58.5605 146.814 58.0918 146.541 57.7676C146.268 57.4395 145.877 57.2754 145.369 57.2754ZM154.85 62.3145C155.021 62.3145 155.188 62.3027 155.348 62.2793C155.508 62.252 155.635 62.2246 155.729 62.1973V62.9414C155.623 62.9922 155.467 63.0332 155.26 63.0645C155.057 63.0996 154.873 63.1172 154.709 63.1172C153.467 63.1172 152.846 62.4629 152.846 61.1543V57.334H151.926V56.8652L152.846 56.4609L153.256 55.0898H153.818V56.5781H155.682V57.334H153.818V61.1133C153.818 61.5 153.91 61.7969 154.094 62.0039C154.277 62.2109 154.529 62.3145 154.85 62.3145ZM162.561 59.7832C162.561 60.8301 162.297 61.6484 161.77 62.2383C161.242 62.8242 160.514 63.1172 159.584 63.1172C159.01 63.1172 158.5 62.9824 158.055 62.7129C157.609 62.4434 157.266 62.0566 157.023 61.5527C156.781 61.0488 156.66 60.459 156.66 59.7832C156.66 58.7363 156.922 57.9219 157.445 57.3398C157.969 56.7539 158.695 56.4609 159.625 56.4609C160.523 56.4609 161.236 56.7598 161.764 57.3574C162.295 57.9551 162.561 58.7637 162.561 59.7832ZM157.668 59.7832C157.668 60.6035 157.832 61.2285 158.16 61.6582C158.488 62.0879 158.971 62.3027 159.607 62.3027C160.244 62.3027 160.727 62.0898 161.055 61.6641C161.387 61.2344 161.553 60.6074 161.553 59.7832C161.553 58.9668 161.387 58.3477 161.055 57.9258C160.727 57.5 160.24 57.2871 159.596 57.2871C158.959 57.2871 158.479 57.4961 158.154 57.9141C157.83 58.332 157.668 58.9551 157.668 59.7832ZM171.531 61.248C171.531 61.8457 171.309 62.3066 170.863 62.6309C170.418 62.9551 169.793 63.1172 168.988 63.1172C168.137 63.1172 167.473 62.9824 166.996 62.7129V61.8105C167.305 61.9668 167.635 62.0898 167.986 62.1797C168.342 62.2695 168.684 62.3145 169.012 62.3145C169.52 62.3145 169.91 62.2344 170.184 62.0742C170.457 61.9102 170.594 61.6621 170.594 61.3301C170.594 61.0801 170.484 60.8672 170.266 60.6914C170.051 60.5117 169.629 60.3008 169 60.0586C168.402 59.8359 167.977 59.6426 167.723 59.4785C167.473 59.3105 167.285 59.1211 167.16 58.9102C167.039 58.6992 166.979 58.4473 166.979 58.1543C166.979 57.6309 167.191 57.2188 167.617 56.918C168.043 56.6133 168.627 56.4609 169.369 56.4609C170.061 56.4609 170.736 56.6016 171.396 56.8828L171.051 57.6738C170.406 57.4082 169.822 57.2754 169.299 57.2754C168.838 57.2754 168.49 57.3477 168.256 57.4922C168.021 57.6367 167.904 57.8359 167.904 58.0898C167.904 58.2617 167.947 58.4082 168.033 58.5293C168.123 58.6504 168.266 58.7656 168.461 58.875C168.656 58.9844 169.031 59.1426 169.586 59.3496C170.348 59.627 170.861 59.9062 171.127 60.1875C171.396 60.4688 171.531 60.8223 171.531 61.248ZM174.092 63H173.119V56.5781H174.092V63ZM173.037 54.8379C173.037 54.6152 173.092 54.4531 173.201 54.3516C173.311 54.2461 173.447 54.1934 173.611 54.1934C173.768 54.1934 173.902 54.2461 174.016 54.3516C174.129 54.457 174.186 54.6191 174.186 54.8379C174.186 55.0566 174.129 55.2207 174.016 55.3301C173.902 55.4355 173.768 55.4883 173.611 55.4883C173.447 55.4883 173.311 55.4355 173.201 55.3301C173.092 55.2207 173.037 55.0566 173.037 54.8379ZM181.41 56.5781V57.1934L180.221 57.334C180.33 57.4707 180.428 57.6504 180.514 57.873C180.6 58.0918 180.643 58.3398 180.643 58.6172C180.643 59.2461 180.428 59.748 179.998 60.123C179.568 60.498 178.979 60.6855 178.229 60.6855C178.037 60.6855 177.857 60.6699 177.689 60.6387C177.275 60.8574 177.068 61.1328 177.068 61.4648C177.068 61.6406 177.141 61.7715 177.285 61.8574C177.43 61.9395 177.678 61.9805 178.029 61.9805H179.166C179.861 61.9805 180.395 62.127 180.766 62.4199C181.141 62.7129 181.328 63.1387 181.328 63.6973C181.328 64.4082 181.043 64.9492 180.473 65.3203C179.902 65.6953 179.07 65.8828 177.977 65.8828C177.137 65.8828 176.488 65.7266 176.031 65.4141C175.578 65.1016 175.352 64.6602 175.352 64.0898C175.352 63.6992 175.477 63.3613 175.727 63.0762C175.977 62.791 176.328 62.5977 176.781 62.4961C176.617 62.4219 176.479 62.3066 176.365 62.1504C176.256 61.9941 176.201 61.8125 176.201 61.6055C176.201 61.3711 176.264 61.166 176.389 60.9902C176.514 60.8145 176.711 60.6445 176.98 60.4805C176.648 60.3438 176.377 60.1113 176.166 59.7832C175.959 59.4551 175.855 59.0801 175.855 58.6582C175.855 57.9551 176.066 57.4141 176.488 57.0352C176.91 56.6523 177.508 56.4609 178.281 56.4609C178.617 56.4609 178.92 56.5 179.189 56.5781H181.41ZM176.289 64.0781C176.289 64.4258 176.436 64.6895 176.729 64.8691C177.021 65.0488 177.441 65.1387 177.988 65.1387C178.805 65.1387 179.408 65.0156 179.799 64.7695C180.193 64.5273 180.391 64.1973 180.391 63.7793C180.391 63.4316 180.283 63.1895 180.068 63.0527C179.854 62.9199 179.449 62.8535 178.855 62.8535H177.689C177.248 62.8535 176.904 62.959 176.658 63.1699C176.412 63.3809 176.289 63.6836 176.289 64.0781ZM176.816 58.6348C176.816 59.084 176.943 59.4238 177.197 59.6543C177.451 59.8848 177.805 60 178.258 60C179.207 60 179.682 59.5391 179.682 58.6172C179.682 57.6523 179.201 57.1699 178.24 57.1699C177.783 57.1699 177.432 57.293 177.186 57.5391C176.939 57.7852 176.816 58.1504 176.816 58.6348ZM187.123 63V58.8457C187.123 58.3223 187.004 57.9316 186.766 57.6738C186.527 57.416 186.154 57.2871 185.646 57.2871C184.975 57.2871 184.482 57.4688 184.17 57.832C183.857 58.1953 183.701 58.7949 183.701 59.6309V63H182.729V56.5781H183.52L183.678 57.457H183.725C183.924 57.1406 184.203 56.8965 184.562 56.7246C184.922 56.5488 185.322 56.4609 185.764 56.4609C186.537 56.4609 187.119 56.6484 187.51 57.0234C187.9 57.3945 188.096 57.9902 188.096 58.8105V63H187.123ZM194.131 56.5781V60.7441C194.131 61.2676 194.25 61.6582 194.488 61.916C194.727 62.1738 195.1 62.3027 195.607 62.3027C196.279 62.3027 196.77 62.1191 197.078 61.752C197.391 61.3848 197.547 60.7852 197.547 59.9531V56.5781H198.52V63H197.717L197.576 62.1387H197.523C197.324 62.4551 197.047 62.6973 196.691 62.8652C196.34 63.0332 195.938 63.1172 195.484 63.1172C194.703 63.1172 194.117 62.9316 193.727 62.5605C193.34 62.1895 193.146 61.5957 193.146 60.7793V56.5781H194.131ZM203.576 63.1172C203.158 63.1172 202.775 63.041 202.428 62.8887C202.084 62.7324 201.795 62.4941 201.561 62.1738H201.49C201.537 62.5488 201.561 62.9043 201.561 63.2402V65.8828H200.588V56.5781H201.379L201.514 57.457H201.561C201.811 57.1055 202.102 56.8516 202.434 56.6953C202.766 56.5391 203.146 56.4609 203.576 56.4609C204.428 56.4609 205.084 56.752 205.545 57.334C206.01 57.916 206.242 58.7324 206.242 59.7832C206.242 60.8379 206.006 61.6582 205.533 62.2441C205.064 62.8262 204.412 63.1172 203.576 63.1172ZM203.436 57.2871C202.779 57.2871 202.305 57.4688 202.012 57.832C201.719 58.1953 201.568 58.7734 201.561 59.5664V59.7832C201.561 60.6855 201.711 61.332 202.012 61.7227C202.312 62.1094 202.795 62.3027 203.459 62.3027C204.014 62.3027 204.447 62.0781 204.76 61.6289C205.076 61.1797 205.234 60.5605 205.234 59.7715C205.234 58.9707 205.076 58.3574 204.76 57.9316C204.447 57.502 204.006 57.2871 203.436 57.2871ZM215.014 63L214.82 62.0859H214.773C214.453 62.4883 214.133 62.7617 213.812 62.9062C213.496 63.0469 213.1 63.1172 212.623 63.1172C211.986 63.1172 211.486 62.9531 211.123 62.625C210.764 62.2969 210.584 61.8301 210.584 61.2246C210.584 59.9277 211.621 59.248 213.695 59.1855L214.785 59.1504V58.752C214.785 58.248 214.676 57.877 214.457 57.6387C214.242 57.3965 213.896 57.2754 213.42 57.2754C212.885 57.2754 212.279 57.4395 211.604 57.7676L211.305 57.0234C211.621 56.8516 211.967 56.7168 212.342 56.6191C212.721 56.5215 213.1 56.4727 213.479 56.4727C214.244 56.4727 214.811 56.6426 215.178 56.9824C215.549 57.3223 215.734 57.8672 215.734 58.6172V63H215.014ZM212.816 62.3145C213.422 62.3145 213.896 62.1484 214.24 61.8164C214.588 61.4844 214.762 61.0195 214.762 60.4219V59.8418L213.789 59.8828C213.016 59.9102 212.457 60.0312 212.113 60.2461C211.773 60.457 211.604 60.7871 211.604 61.2363C211.604 61.5879 211.709 61.8555 211.92 62.0391C212.135 62.2227 212.434 62.3145 212.816 62.3145ZM222.139 63V58.8457C222.139 58.3223 222.02 57.9316 221.781 57.6738C221.543 57.416 221.17 57.2871 220.662 57.2871C219.99 57.2871 219.498 57.4688 219.186 57.832C218.873 58.1953 218.717 58.7949 218.717 59.6309V63H217.744V56.5781H218.535L218.693 57.457H218.74C218.939 57.1406 219.219 56.8965 219.578 56.7246C219.938 56.5488 220.338 56.4609 220.779 56.4609C221.553 56.4609 222.135 56.6484 222.525 57.0234C222.916 57.3945 223.111 57.9902 223.111 58.8105V63H222.139ZM229.486 62.1387H229.434C228.984 62.791 228.312 63.1172 227.418 63.1172C226.578 63.1172 225.924 62.8301 225.455 62.2559C224.99 61.6816 224.758 60.8652 224.758 59.8066C224.758 58.748 224.992 57.9258 225.461 57.3398C225.93 56.7539 226.582 56.4609 227.418 56.4609C228.289 56.4609 228.957 56.7773 229.422 57.4102H229.498L229.457 56.9473L229.434 56.4961V53.8828H230.406V63H229.615L229.486 62.1387ZM227.541 62.3027C228.205 62.3027 228.686 62.123 228.982 61.7637C229.283 61.4004 229.434 60.8164 229.434 60.0117V59.8066C229.434 58.8965 229.281 58.248 228.977 57.8613C228.676 57.4707 228.193 57.2754 227.529 57.2754C226.959 57.2754 226.521 57.498 226.217 57.9434C225.916 58.3848 225.766 59.0098 225.766 59.8184C225.766 60.6387 225.916 61.2578 226.217 61.6758C226.518 62.0938 226.959 62.3027 227.541 62.3027ZM47.2949 75.7832C47.2949 76.8301 47.0312 77.6484 46.5039 78.2383C45.9766 78.8242 45.248 79.1172 44.3184 79.1172C43.7441 79.1172 43.2344 78.9824 42.7891 78.7129C42.3438 78.4434 42 78.0566 41.7578 77.5527C41.5156 77.0488 41.3945 76.459 41.3945 75.7832C41.3945 74.7363 41.6562 73.9219 42.1797 73.3398C42.7031 72.7539 43.4297 72.4609 44.3594 72.4609C45.2578 72.4609 45.9707 72.7598 46.498 73.3574C47.0293 73.9551 47.2949 74.7637 47.2949 75.7832ZM42.4023 75.7832C42.4023 76.6035 42.5664 77.2285 42.8945 77.6582C43.2227 78.0879 43.7051 78.3027 44.3418 78.3027C44.9785 78.3027 45.4609 78.0898 45.7891 77.6641C46.1211 77.2344 46.2871 76.6074 46.2871 75.7832C46.2871 74.9668 46.1211 74.3477 45.7891 73.9258C45.4609 73.5 44.9746 73.2871 44.3301 73.2871C43.6934 73.2871 43.2129 73.4961 42.8887 73.9141C42.5645 74.332 42.4023 74.9551 42.4023 75.7832ZM49.9199 72.5781V76.7441C49.9199 77.2676 50.0391 77.6582 50.2773 77.916C50.5156 78.1738 50.8887 78.3027 51.3965 78.3027C52.0684 78.3027 52.5586 78.1191 52.8672 77.752C53.1797 77.3848 53.3359 76.7852 53.3359 75.9531V72.5781H54.3086V79H53.5059L53.3652 78.1387H53.3125C53.1133 78.4551 52.8359 78.6973 52.4805 78.8652C52.1289 79.0332 51.7266 79.1172 51.2734 79.1172C50.4922 79.1172 49.9062 78.9316 49.5156 78.5605C49.1289 78.1895 48.9355 77.5957 48.9355 76.7793V72.5781H49.9199ZM59.3066 72.4609C59.5918 72.4609 59.8477 72.4844 60.0742 72.5312L59.9395 73.4336C59.6738 73.375 59.4395 73.3457 59.2363 73.3457C58.7168 73.3457 58.2715 73.5566 57.9004 73.9785C57.5332 74.4004 57.3496 74.9258 57.3496 75.5547V79H56.377V72.5781H57.1797L57.291 73.7676H57.3379C57.5762 73.3496 57.8633 73.0273 58.1992 72.8008C58.5352 72.5742 58.9043 72.4609 59.3066 72.4609ZM67.2871 73.334H65.6523V79H64.6797V73.334H63.5312V72.8945L64.6797 72.543V72.1855C64.6797 70.6074 65.3691 69.8184 66.748 69.8184C67.0879 69.8184 67.4863 69.8867 67.9434 70.0234L67.6914 70.8027C67.3164 70.6816 66.9961 70.6211 66.7305 70.6211C66.3633 70.6211 66.0918 70.7441 65.916 70.9902C65.7402 71.2324 65.6523 71.623 65.6523 72.1621V72.5781H67.2871V73.334ZM71.3887 72.4609C71.6738 72.4609 71.9297 72.4844 72.1562 72.5312L72.0215 73.4336C71.7559 73.375 71.5215 73.3457 71.3184 73.3457C70.7988 73.3457 70.3535 73.5566 69.9824 73.9785C69.6152 74.4004 69.4316 74.9258 69.4316 75.5547V79H68.459V72.5781H69.2617L69.373 73.7676H69.4199C69.6582 73.3496 69.9453 73.0273 70.2812 72.8008C70.6172 72.5742 70.9863 72.4609 71.3887 72.4609ZM76.0703 79.1172C75.1211 79.1172 74.3711 78.8281 73.8203 78.25C73.2734 77.6719 73 76.8691 73 75.8418C73 74.8066 73.2539 73.9844 73.7617 73.375C74.2734 72.7656 74.959 72.4609 75.8184 72.4609C76.623 72.4609 77.2598 72.7266 77.7285 73.2578C78.1973 73.7852 78.4316 74.4824 78.4316 75.3496V75.9648H74.0078C74.0273 76.7188 74.2168 77.291 74.5762 77.6816C74.9395 78.0723 75.4492 78.2676 76.1055 78.2676C76.7969 78.2676 77.4805 78.123 78.1562 77.834V78.7012C77.8125 78.8496 77.4863 78.9551 77.1777 79.0176C76.873 79.084 76.5039 79.1172 76.0703 79.1172ZM75.8066 73.2754C75.291 73.2754 74.8789 73.4434 74.5703 73.7793C74.2656 74.1152 74.0859 74.5801 74.0312 75.1738H77.3887C77.3887 74.5605 77.252 74.0918 76.9785 73.7676C76.7051 73.4395 76.3145 73.2754 75.8066 73.2754ZM82.8086 79.1172C81.8594 79.1172 81.1094 78.8281 80.5586 78.25C80.0117 77.6719 79.7383 76.8691 79.7383 75.8418C79.7383 74.8066 79.9922 73.9844 80.5 73.375C81.0117 72.7656 81.6973 72.4609 82.5566 72.4609C83.3613 72.4609 83.998 72.7266 84.4668 73.2578C84.9355 73.7852 85.1699 74.4824 85.1699 75.3496V75.9648H80.7461C80.7656 76.7188 80.9551 77.291 81.3145 77.6816C81.6777 78.0723 82.1875 78.2676 82.8438 78.2676C83.5352 78.2676 84.2188 78.123 84.8945 77.834V78.7012C84.5508 78.8496 84.2246 78.9551 83.916 79.0176C83.6113 79.084 83.2422 79.1172 82.8086 79.1172ZM82.5449 73.2754C82.0293 73.2754 81.6172 73.4434 81.3086 73.7793C81.0039 74.1152 80.8242 74.5801 80.7695 75.1738H84.127C84.127 74.5605 83.9902 74.0918 83.7168 73.7676C83.4434 73.4395 83.0527 73.2754 82.5449 73.2754ZM94.0938 77.248C94.0938 77.8457 93.8711 78.3066 93.4258 78.6309C92.9805 78.9551 92.3555 79.1172 91.5508 79.1172C90.6992 79.1172 90.0352 78.9824 89.5586 78.7129V77.8105C89.8672 77.9668 90.1973 78.0898 90.5488 78.1797C90.9043 78.2695 91.2461 78.3145 91.5742 78.3145C92.082 78.3145 92.4727 78.2344 92.7461 78.0742C93.0195 77.9102 93.1562 77.6621 93.1562 77.3301C93.1562 77.0801 93.0469 76.8672 92.8281 76.6914C92.6133 76.5117 92.1914 76.3008 91.5625 76.0586C90.9648 75.8359 90.5391 75.6426 90.2852 75.4785C90.0352 75.3105 89.8477 75.1211 89.7227 74.9102C89.6016 74.6992 89.541 74.4473 89.541 74.1543C89.541 73.6309 89.7539 73.2188 90.1797 72.918C90.6055 72.6133 91.1895 72.4609 91.9316 72.4609C92.623 72.4609 93.2988 72.6016 93.959 72.8828L93.6133 73.6738C92.9688 73.4082 92.3848 73.2754 91.8613 73.2754C91.4004 73.2754 91.0527 73.3477 90.8184 73.4922C90.584 73.6367 90.4668 73.8359 90.4668 74.0898C90.4668 74.2617 90.5098 74.4082 90.5957 74.5293C90.6855 74.6504 90.8281 74.7656 91.0234 74.875C91.2188 74.9844 91.5938 75.1426 92.1484 75.3496C92.9102 75.627 93.4238 75.9062 93.6895 76.1875C93.959 76.4688 94.0938 76.8223 94.0938 77.248ZM97.7559 78.3145C97.9277 78.3145 98.0938 78.3027 98.2539 78.2793C98.4141 78.252 98.541 78.2246 98.6348 78.1973V78.9414C98.5293 78.9922 98.373 79.0332 98.166 79.0645C97.9629 79.0996 97.7793 79.1172 97.6152 79.1172C96.373 79.1172 95.752 78.4629 95.752 77.1543V73.334H94.832V72.8652L95.752 72.4609L96.1621 71.0898H96.7246V72.5781H98.5879V73.334H96.7246V77.1133C96.7246 77.5 96.8164 77.7969 97 78.0039C97.1836 78.2109 97.4355 78.3145 97.7559 78.3145ZM103.873 79L103.68 78.0859H103.633C103.312 78.4883 102.992 78.7617 102.672 78.9062C102.355 79.0469 101.959 79.1172 101.482 79.1172C100.846 79.1172 100.346 78.9531 99.9824 78.625C99.623 78.2969 99.4434 77.8301 99.4434 77.2246C99.4434 75.9277 100.48 75.248 102.555 75.1855L103.645 75.1504V74.752C103.645 74.248 103.535 73.877 103.316 73.6387C103.102 73.3965 102.756 73.2754 102.279 73.2754C101.744 73.2754 101.139 73.4395 100.463 73.7676L100.164 73.0234C100.48 72.8516 100.826 72.7168 101.201 72.6191C101.58 72.5215 101.959 72.4727 102.338 72.4727C103.104 72.4727 103.67 72.6426 104.037 72.9824C104.408 73.3223 104.594 73.8672 104.594 74.6172V79H103.873ZM101.676 78.3145C102.281 78.3145 102.756 78.1484 103.1 77.8164C103.447 77.4844 103.621 77.0195 103.621 76.4219V75.8418L102.648 75.8828C101.875 75.9102 101.316 76.0312 100.973 76.2461C100.633 76.457 100.463 76.7871 100.463 77.2363C100.463 77.5879 100.568 77.8555 100.779 78.0391C100.994 78.2227 101.293 78.3145 101.676 78.3145ZM109.533 72.4609C109.818 72.4609 110.074 72.4844 110.301 72.5312L110.166 73.4336C109.9 73.375 109.666 73.3457 109.463 73.3457C108.943 73.3457 108.498 73.5566 108.127 73.9785C107.76 74.4004 107.576 74.9258 107.576 75.5547V79H106.604V72.5781H107.406L107.518 73.7676H107.564C107.803 73.3496 108.09 73.0273 108.426 72.8008C108.762 72.5742 109.131 72.4609 109.533 72.4609ZM113.576 78.3145C113.748 78.3145 113.914 78.3027 114.074 78.2793C114.234 78.252 114.361 78.2246 114.455 78.1973V78.9414C114.35 78.9922 114.193 79.0332 113.986 79.0645C113.783 79.0996 113.6 79.1172 113.436 79.1172C112.193 79.1172 111.572 78.4629 111.572 77.1543V73.334H110.652V72.8652L111.572 72.4609L111.982 71.0898H112.545V72.5781H114.408V73.334H112.545V77.1133C112.545 77.5 112.637 77.7969 112.82 78.0039C113.004 78.2109 113.256 78.3145 113.576 78.3145ZM118.457 79.1172C117.508 79.1172 116.758 78.8281 116.207 78.25C115.66 77.6719 115.387 76.8691 115.387 75.8418C115.387 74.8066 115.641 73.9844 116.148 73.375C116.66 72.7656 117.346 72.4609 118.205 72.4609C119.01 72.4609 119.646 72.7266 120.115 73.2578C120.584 73.7852 120.818 74.4824 120.818 75.3496V75.9648H116.395C116.414 76.7188 116.604 77.291 116.963 77.6816C117.326 78.0723 117.836 78.2676 118.492 78.2676C119.184 78.2676 119.867 78.123 120.543 77.834V78.7012C120.199 78.8496 119.873 78.9551 119.564 79.0176C119.26 79.084 118.891 79.1172 118.457 79.1172ZM118.193 73.2754C117.678 73.2754 117.266 73.4434 116.957 73.7793C116.652 74.1152 116.473 74.5801 116.418 75.1738H119.775C119.775 74.5605 119.639 74.0918 119.365 73.7676C119.092 73.4395 118.701 73.2754 118.193 73.2754ZM125.412 72.4609C125.697 72.4609 125.953 72.4844 126.18 72.5312L126.045 73.4336C125.779 73.375 125.545 73.3457 125.342 73.3457C124.822 73.3457 124.377 73.5566 124.006 73.9785C123.639 74.4004 123.455 74.9258 123.455 75.5547V79H122.482V72.5781H123.285L123.396 73.7676H123.443C123.682 73.3496 123.969 73.0273 124.305 72.8008C124.641 72.5742 125.01 72.4609 125.412 72.4609ZM132.572 78.3145C132.744 78.3145 132.91 78.3027 133.07 78.2793C133.23 78.252 133.357 78.2246 133.451 78.1973V78.9414C133.346 78.9922 133.189 79.0332 132.982 79.0645C132.779 79.0996 132.596 79.1172 132.432 79.1172C131.189 79.1172 130.568 78.4629 130.568 77.1543V73.334H129.648V72.8652L130.568 72.4609L130.979 71.0898H131.541V72.5781H133.404V73.334H131.541V77.1133C131.541 77.5 131.633 77.7969 131.816 78.0039C132 78.2109 132.252 78.3145 132.572 78.3145ZM135.713 79H134.74V72.5781H135.713V79ZM134.658 70.8379C134.658 70.6152 134.713 70.4531 134.822 70.3516C134.932 70.2461 135.068 70.1934 135.232 70.1934C135.389 70.1934 135.523 70.2461 135.637 70.3516C135.75 70.457 135.807 70.6191 135.807 70.8379C135.807 71.0566 135.75 71.2207 135.637 71.3301C135.523 71.4355 135.389 71.4883 135.232 71.4883C135.068 71.4883 134.932 71.4355 134.822 71.3301C134.713 71.2207 134.658 71.0566 134.658 70.8379ZM140.488 79.1172C139.539 79.1172 138.789 78.8281 138.238 78.25C137.691 77.6719 137.418 76.8691 137.418 75.8418C137.418 74.8066 137.672 73.9844 138.18 73.375C138.691 72.7656 139.377 72.4609 140.236 72.4609C141.041 72.4609 141.678 72.7266 142.146 73.2578C142.615 73.7852 142.85 74.4824 142.85 75.3496V75.9648H138.426C138.445 76.7188 138.635 77.291 138.994 77.6816C139.357 78.0723 139.867 78.2676 140.523 78.2676C141.215 78.2676 141.898 78.123 142.574 77.834V78.7012C142.23 78.8496 141.904 78.9551 141.596 79.0176C141.291 79.084 140.922 79.1172 140.488 79.1172ZM140.225 73.2754C139.709 73.2754 139.297 73.4434 138.988 73.7793C138.684 74.1152 138.504 74.5801 138.449 75.1738H141.807C141.807 74.5605 141.67 74.0918 141.396 73.7676C141.123 73.4395 140.732 73.2754 140.225 73.2754ZM147.443 72.4609C147.729 72.4609 147.984 72.4844 148.211 72.5312L148.076 73.4336C147.811 73.375 147.576 73.3457 147.373 73.3457C146.854 73.3457 146.408 73.5566 146.037 73.9785C145.67 74.4004 145.486 74.9258 145.486 75.5547V79H144.514V72.5781H145.316L145.428 73.7676H145.475C145.713 73.3496 146 73.0273 146.336 72.8008C146.672 72.5742 147.041 72.4609 147.443 72.4609ZM153.502 79H152.529V72.5781H153.502V79ZM152.447 70.8379C152.447 70.6152 152.502 70.4531 152.611 70.3516C152.721 70.2461 152.857 70.1934 153.021 70.1934C153.178 70.1934 153.312 70.2461 153.426 70.3516C153.539 70.457 153.596 70.6191 153.596 70.8379C153.596 71.0566 153.539 71.2207 153.426 71.3301C153.312 71.4355 153.178 71.4883 153.021 71.4883C152.857 71.4883 152.721 71.4355 152.611 71.3301C152.502 71.2207 152.447 71.0566 152.447 70.8379ZM159.707 77.248C159.707 77.8457 159.484 78.3066 159.039 78.6309C158.594 78.9551 157.969 79.1172 157.164 79.1172C156.312 79.1172 155.648 78.9824 155.172 78.7129V77.8105C155.48 77.9668 155.811 78.0898 156.162 78.1797C156.518 78.2695 156.859 78.3145 157.188 78.3145C157.695 78.3145 158.086 78.2344 158.359 78.0742C158.633 77.9102 158.77 77.6621 158.77 77.3301C158.77 77.0801 158.66 76.8672 158.441 76.6914C158.227 76.5117 157.805 76.3008 157.176 76.0586C156.578 75.8359 156.152 75.6426 155.898 75.4785C155.648 75.3105 155.461 75.1211 155.336 74.9102C155.215 74.6992 155.154 74.4473 155.154 74.1543C155.154 73.6309 155.367 73.2188 155.793 72.918C156.219 72.6133 156.803 72.4609 157.545 72.4609C158.236 72.4609 158.912 72.6016 159.572 72.8828L159.227 73.6738C158.582 73.4082 157.998 73.2754 157.475 73.2754C157.014 73.2754 156.666 73.3477 156.432 73.4922C156.197 73.6367 156.08 73.8359 156.08 74.0898C156.08 74.2617 156.123 74.4082 156.209 74.5293C156.299 74.6504 156.441 74.7656 156.637 74.875C156.832 74.9844 157.207 75.1426 157.762 75.3496C158.523 75.627 159.037 75.9062 159.303 76.1875C159.572 76.4688 159.707 76.8223 159.707 77.248ZM167.125 79.1172C166.176 79.1172 165.426 78.8281 164.875 78.25C164.328 77.6719 164.055 76.8691 164.055 75.8418C164.055 74.8066 164.309 73.9844 164.816 73.375C165.328 72.7656 166.014 72.4609 166.873 72.4609C167.678 72.4609 168.314 72.7266 168.783 73.2578C169.252 73.7852 169.486 74.4824 169.486 75.3496V75.9648H165.062C165.082 76.7188 165.271 77.291 165.631 77.6816C165.994 78.0723 166.504 78.2676 167.16 78.2676C167.852 78.2676 168.535 78.123 169.211 77.834V78.7012C168.867 78.8496 168.541 78.9551 168.232 79.0176C167.928 79.084 167.559 79.1172 167.125 79.1172ZM166.861 73.2754C166.346 73.2754 165.934 73.4434 165.625 73.7793C165.32 74.1152 165.141 74.5801 165.086 75.1738H168.443C168.443 74.5605 168.307 74.0918 168.033 73.7676C167.76 73.4395 167.369 73.2754 166.861 73.2754ZM172.697 75.7129L170.465 72.5781H171.572L173.266 75.0391L174.953 72.5781H176.049L173.816 75.7129L176.166 79H175.064L173.266 76.3984L171.449 79H170.348L172.697 75.7129ZM179.518 78.3145C179.689 78.3145 179.855 78.3027 180.016 78.2793C180.176 78.252 180.303 78.2246 180.396 78.1973V78.9414C180.291 78.9922 180.135 79.0332 179.928 79.0645C179.725 79.0996 179.541 79.1172 179.377 79.1172C178.135 79.1172 177.514 78.4629 177.514 77.1543V73.334H176.594V72.8652L177.514 72.4609L177.924 71.0898H178.486V72.5781H180.35V73.334H178.486V77.1133C178.486 77.5 178.578 77.7969 178.762 78.0039C178.945 78.2109 179.197 78.3145 179.518 78.3145ZM184.615 72.4609C184.9 72.4609 185.156 72.4844 185.383 72.5312L185.248 73.4336C184.982 73.375 184.748 73.3457 184.545 73.3457C184.025 73.3457 183.58 73.5566 183.209 73.9785C182.842 74.4004 182.658 74.9258 182.658 75.5547V79H181.686V72.5781H182.488L182.6 73.7676H182.646C182.885 73.3496 183.172 73.0273 183.508 72.8008C183.844 72.5742 184.213 72.4609 184.615 72.4609ZM189.297 79.1172C188.348 79.1172 187.598 78.8281 187.047 78.25C186.5 77.6719 186.227 76.8691 186.227 75.8418C186.227 74.8066 186.48 73.9844 186.988 73.375C187.5 72.7656 188.186 72.4609 189.045 72.4609C189.85 72.4609 190.486 72.7266 190.955 73.2578C191.424 73.7852 191.658 74.4824 191.658 75.3496V75.9648H187.234C187.254 76.7188 187.443 77.291 187.803 77.6816C188.166 78.0723 188.676 78.2676 189.332 78.2676C190.023 78.2676 190.707 78.123 191.383 77.834V78.7012C191.039 78.8496 190.713 78.9551 190.404 79.0176C190.1 79.084 189.73 79.1172 189.297 79.1172ZM189.033 73.2754C188.518 73.2754 188.105 73.4434 187.797 73.7793C187.492 74.1152 187.312 74.5801 187.258 75.1738H190.615C190.615 74.5605 190.479 74.0918 190.205 73.7676C189.932 73.4395 189.541 73.2754 189.033 73.2754ZM201.508 79V74.8223C201.508 74.3105 201.398 73.9277 201.18 73.6738C200.961 73.416 200.621 73.2871 200.16 73.2871C199.555 73.2871 199.107 73.4609 198.818 73.8086C198.529 74.1562 198.385 74.6914 198.385 75.4141V79H197.412V74.8223C197.412 74.3105 197.303 73.9277 197.084 73.6738C196.865 73.416 196.523 73.2871 196.059 73.2871C195.449 73.2871 195.002 73.4707 194.717 73.8379C194.436 74.2012 194.295 74.7988 194.295 75.6309V79H193.322V72.5781H194.113L194.271 73.457H194.318C194.502 73.1445 194.76 72.9004 195.092 72.7246C195.428 72.5488 195.803 72.4609 196.217 72.4609C197.221 72.4609 197.877 72.8242 198.186 73.5508H198.232C198.424 73.2148 198.701 72.9492 199.064 72.7539C199.428 72.5586 199.842 72.4609 200.307 72.4609C201.033 72.4609 201.576 72.6484 201.936 73.0234C202.299 73.3945 202.48 73.9902 202.48 74.8105V79H201.508ZM207.203 79.1172C206.254 79.1172 205.504 78.8281 204.953 78.25C204.406 77.6719 204.133 76.8691 204.133 75.8418C204.133 74.8066 204.387 73.9844 204.895 73.375C205.406 72.7656 206.092 72.4609 206.951 72.4609C207.756 72.4609 208.393 72.7266 208.861 73.2578C209.33 73.7852 209.564 74.4824 209.564 75.3496V75.9648H205.141C205.16 76.7188 205.35 77.291 205.709 77.6816C206.072 78.0723 206.582 78.2676 207.238 78.2676C207.93 78.2676 208.613 78.123 209.289 77.834V78.7012C208.945 78.8496 208.619 78.9551 208.311 79.0176C208.006 79.084 207.637 79.1172 207.203 79.1172ZM206.939 73.2754C206.424 73.2754 206.012 73.4434 205.703 73.7793C205.398 74.1152 205.219 74.5801 205.164 75.1738H208.521C208.521 74.5605 208.385 74.0918 208.111 73.7676C207.838 73.4395 207.447 73.2754 206.939 73.2754ZM212.201 79H211.229V69.8828H212.201V79ZM213.244 72.5781H214.287L215.693 76.2402C216.002 77.0762 216.193 77.6797 216.268 78.0508H216.314C216.365 77.8516 216.471 77.5117 216.631 77.0312C216.795 76.5469 217.326 75.0625 218.225 72.5781H219.268L216.508 79.8906C216.234 80.6133 215.914 81.125 215.547 81.4258C215.184 81.7305 214.736 81.8828 214.205 81.8828C213.908 81.8828 213.615 81.8496 213.326 81.7832V81.0039C213.541 81.0508 213.781 81.0742 214.047 81.0742C214.715 81.0742 215.191 80.6992 215.477 79.9492L215.834 79.0352L213.244 72.5781ZM105.15 88.5781V89.1934L103.961 89.334C104.07 89.4707 104.168 89.6504 104.254 89.873C104.34 90.0918 104.383 90.3398 104.383 90.6172C104.383 91.2461 104.168 91.748 103.738 92.123C103.309 92.498 102.719 92.6855 101.969 92.6855C101.777 92.6855 101.598 92.6699 101.43 92.6387C101.016 92.8574 100.809 93.1328 100.809 93.4648C100.809 93.6406 100.881 93.7715 101.025 93.8574C101.17 93.9395 101.418 93.9805 101.77 93.9805H102.906C103.602 93.9805 104.135 94.127 104.506 94.4199C104.881 94.7129 105.068 95.1387 105.068 95.6973C105.068 96.4082 104.783 96.9492 104.213 97.3203C103.643 97.6953 102.811 97.8828 101.717 97.8828C100.877 97.8828 100.229 97.7266 99.7715 97.4141C99.3184 97.1016 99.0918 96.6602 99.0918 96.0898C99.0918 95.6992 99.2168 95.3613 99.4668 95.0762C99.7168 94.791 100.068 94.5977 100.521 94.4961C100.357 94.4219 100.219 94.3066 100.105 94.1504C99.9961 93.9941 99.9414 93.8125 99.9414 93.6055C99.9414 93.3711 100.004 93.166 100.129 92.9902C100.254 92.8145 100.451 92.6445 100.721 92.4805C100.389 92.3438 100.117 92.1113 99.9062 91.7832C99.6992 91.4551 99.5957 91.0801 99.5957 90.6582C99.5957 89.9551 99.8066 89.4141 100.229 89.0352C100.65 88.6523 101.248 88.4609 102.021 88.4609C102.357 88.4609 102.66 88.5 102.93 88.5781H105.15ZM100.029 96.0781C100.029 96.4258 100.176 96.6895 100.469 96.8691C100.762 97.0488 101.182 97.1387 101.729 97.1387C102.545 97.1387 103.148 97.0156 103.539 96.7695C103.934 96.5273 104.131 96.1973 104.131 95.7793C104.131 95.4316 104.023 95.1895 103.809 95.0527C103.594 94.9199 103.189 94.8535 102.596 94.8535H101.43C100.988 94.8535 100.645 94.959 100.398 95.1699C100.152 95.3809 100.029 95.6836 100.029 96.0781ZM100.557 90.6348C100.557 91.084 100.684 91.4238 100.938 91.6543C101.191 91.8848 101.545 92 101.998 92C102.947 92 103.422 91.5391 103.422 90.6172C103.422 89.6523 102.941 89.1699 101.98 89.1699C101.523 89.1699 101.172 89.293 100.926 89.5391C100.68 89.7852 100.557 90.1504 100.557 90.6348ZM109.182 95.1172C108.232 95.1172 107.482 94.8281 106.932 94.25C106.385 93.6719 106.111 92.8691 106.111 91.8418C106.111 90.8066 106.365 89.9844 106.873 89.375C107.385 88.7656 108.07 88.4609 108.93 88.4609C109.734 88.4609 110.371 88.7266 110.84 89.2578C111.309 89.7852 111.543 90.4824 111.543 91.3496V91.9648H107.119C107.139 92.7188 107.328 93.291 107.688 93.6816C108.051 94.0723 108.561 94.2676 109.217 94.2676C109.908 94.2676 110.592 94.123 111.268 93.834V94.7012C110.924 94.8496 110.598 94.9551 110.289 95.0176C109.984 95.084 109.615 95.1172 109.182 95.1172ZM108.918 89.2754C108.402 89.2754 107.99 89.4434 107.682 89.7793C107.377 90.1152 107.197 90.5801 107.143 91.1738H110.5C110.5 90.5605 110.363 90.0918 110.09 89.7676C109.816 89.4395 109.426 89.2754 108.918 89.2754ZM117.602 95V90.8457C117.602 90.3223 117.482 89.9316 117.244 89.6738C117.006 89.416 116.633 89.2871 116.125 89.2871C115.453 89.2871 114.961 89.4688 114.648 89.832C114.336 90.1953 114.18 90.7949 114.18 91.6309V95H113.207V88.5781H113.998L114.156 89.457H114.203C114.402 89.1406 114.682 88.8965 115.041 88.7246C115.4 88.5488 115.801 88.4609 116.242 88.4609C117.016 88.4609 117.598 88.6484 117.988 89.0234C118.379 89.3945 118.574 89.9902 118.574 90.8105V95H117.602ZM123.291 95.1172C122.342 95.1172 121.592 94.8281 121.041 94.25C120.494 93.6719 120.221 92.8691 120.221 91.8418C120.221 90.8066 120.475 89.9844 120.982 89.375C121.494 88.7656 122.18 88.4609 123.039 88.4609C123.844 88.4609 124.48 88.7266 124.949 89.2578C125.418 89.7852 125.652 90.4824 125.652 91.3496V91.9648H121.229C121.248 92.7188 121.438 93.291 121.797 93.6816C122.16 94.0723 122.67 94.2676 123.326 94.2676C124.018 94.2676 124.701 94.123 125.377 93.834V94.7012C125.033 94.8496 124.707 94.9551 124.398 95.0176C124.094 95.084 123.725 95.1172 123.291 95.1172ZM123.027 89.2754C122.512 89.2754 122.1 89.4434 121.791 89.7793C121.486 90.1152 121.307 90.5801 121.252 91.1738H124.609C124.609 90.5605 124.473 90.0918 124.199 89.7676C123.926 89.4395 123.535 89.2754 123.027 89.2754ZM130.246 88.4609C130.531 88.4609 130.787 88.4844 131.014 88.5312L130.879 89.4336C130.613 89.375 130.379 89.3457 130.176 89.3457C129.656 89.3457 129.211 89.5566 128.84 89.9785C128.473 90.4004 128.289 90.9258 128.289 91.5547V95H127.316V88.5781H128.119L128.23 89.7676H128.277C128.516 89.3496 128.803 89.0273 129.139 88.8008C129.475 88.5742 129.844 88.4609 130.246 88.4609ZM137.758 91.7832C137.758 92.8301 137.494 93.6484 136.967 94.2383C136.439 94.8242 135.711 95.1172 134.781 95.1172C134.207 95.1172 133.697 94.9824 133.252 94.7129C132.807 94.4434 132.463 94.0566 132.221 93.5527C131.979 93.0488 131.857 92.459 131.857 91.7832C131.857 90.7363 132.119 89.9219 132.643 89.3398C133.166 88.7539 133.893 88.4609 134.822 88.4609C135.721 88.4609 136.434 88.7598 136.961 89.3574C137.492 89.9551 137.758 90.7637 137.758 91.7832ZM132.865 91.7832C132.865 92.6035 133.029 93.2285 133.357 93.6582C133.686 94.0879 134.168 94.3027 134.805 94.3027C135.441 94.3027 135.924 94.0898 136.252 93.6641C136.584 93.2344 136.75 92.6074 136.75 91.7832C136.75 90.9668 136.584 90.3477 136.252 89.9258C135.924 89.5 135.438 89.2871 134.793 89.2871C134.156 89.2871 133.676 89.4961 133.352 89.9141C133.027 90.332 132.865 90.9551 132.865 91.7832ZM140.383 88.5781V92.7441C140.383 93.2676 140.502 93.6582 140.74 93.916C140.979 94.1738 141.352 94.3027 141.859 94.3027C142.531 94.3027 143.021 94.1191 143.33 93.752C143.643 93.3848 143.799 92.7852 143.799 91.9531V88.5781H144.771V95H143.969L143.828 94.1387H143.775C143.576 94.4551 143.299 94.6973 142.943 94.8652C142.592 95.0332 142.189 95.1172 141.736 95.1172C140.955 95.1172 140.369 94.9316 139.979 94.5605C139.592 94.1895 139.398 93.5957 139.398 92.7793V88.5781H140.383ZM150.982 93.248C150.982 93.8457 150.76 94.3066 150.314 94.6309C149.869 94.9551 149.244 95.1172 148.439 95.1172C147.588 95.1172 146.924 94.9824 146.447 94.7129V93.8105C146.756 93.9668 147.086 94.0898 147.438 94.1797C147.793 94.2695 148.135 94.3145 148.463 94.3145C148.971 94.3145 149.361 94.2344 149.635 94.0742C149.908 93.9102 150.045 93.6621 150.045 93.3301C150.045 93.0801 149.936 92.8672 149.717 92.6914C149.502 92.5117 149.08 92.3008 148.451 92.0586C147.854 91.8359 147.428 91.6426 147.174 91.4785C146.924 91.3105 146.736 91.1211 146.611 90.9102C146.49 90.6992 146.43 90.4473 146.43 90.1543C146.43 89.6309 146.643 89.2188 147.068 88.918C147.494 88.6133 148.078 88.4609 148.82 88.4609C149.512 88.4609 150.188 88.6016 150.848 88.8828L150.502 89.6738C149.857 89.4082 149.273 89.2754 148.75 89.2754C148.289 89.2754 147.941 89.3477 147.707 89.4922C147.473 89.6367 147.355 89.8359 147.355 90.0898C147.355 90.2617 147.398 90.4082 147.484 90.5293C147.574 90.6504 147.717 90.7656 147.912 90.875C148.107 90.9844 148.482 91.1426 149.037 91.3496C149.799 91.627 150.312 91.9062 150.578 92.1875C150.848 92.4688 150.982 92.8223 150.982 93.248ZM152.43 94.3789C152.43 94.1172 152.488 93.9199 152.605 93.7871C152.727 93.6504 152.898 93.582 153.121 93.582C153.348 93.582 153.523 93.6504 153.648 93.7871C153.777 93.9199 153.842 94.1172 153.842 94.3789C153.842 94.6328 153.777 94.8281 153.648 94.9648C153.52 95.1016 153.344 95.1699 153.121 95.1699C152.922 95.1699 152.756 95.1094 152.623 94.9883C152.494 94.8633 152.43 94.6602 152.43 94.3789ZM155.629 94.3789C155.629 94.1172 155.688 93.9199 155.805 93.7871C155.926 93.6504 156.098 93.582 156.32 93.582C156.547 93.582 156.723 93.6504 156.848 93.7871C156.977 93.9199 157.041 94.1172 157.041 94.3789C157.041 94.6328 156.977 94.8281 156.848 94.9648C156.719 95.1016 156.543 95.1699 156.32 95.1699C156.121 95.1699 155.955 95.1094 155.822 94.9883C155.693 94.8633 155.629 94.6602 155.629 94.3789ZM158.828 94.3789C158.828 94.1172 158.887 93.9199 159.004 93.7871C159.125 93.6504 159.297 93.582 159.52 93.582C159.746 93.582 159.922 93.6504 160.047 93.7871C160.176 93.9199 160.24 94.1172 160.24 94.3789C160.24 94.6328 160.176 94.8281 160.047 94.9648C159.918 95.1016 159.742 95.1699 159.52 95.1699C159.32 95.1699 159.154 95.1094 159.021 94.9883C158.893 94.8633 158.828 94.6602 158.828 94.3789Z" fill="white"/>
<g filter="url(#filter0_i)">
<path d="M40 119C40 117.343 41.3431 116 43 116H217C218.657 116 220 117.343 220 119V137C220 138.657 218.657 140 217 140H43C41.3431 140 40 138.657 40 137V119Z" fill="#EFEFEF"/>
</g>
<path d="M40 155C40 153.343 41.3431 152 43 152H217C218.657 152 220 153.343 220 155V173C220 174.657 218.657 176 217 176H43C41.3431 176 40 174.657 40 173V155Z" fill="#3065F8"/>
<path d="M82.5688 163.849H85.3849V167.691C84.9243 167.841 84.4811 167.948 84.0554 168.01C83.6331 168.073 83.176 168.105 82.684 168.105C81.5254 168.105 80.6321 167.763 80.004 167.079C79.3759 166.391 79.0618 165.423 79.0618 164.174C79.0618 162.942 79.416 161.979 80.1244 161.284C80.8328 160.586 81.8081 160.237 83.0504 160.237C83.8495 160.237 84.6067 160.391 85.3221 160.698L84.8824 161.74C84.2613 161.454 83.6401 161.31 83.019 161.31C82.2024 161.31 81.5568 161.567 81.0823 162.08C80.6077 162.593 80.3704 163.294 80.3704 164.184C80.3704 165.119 80.5833 165.831 81.009 166.32C81.4382 166.805 82.0541 167.047 82.8567 167.047C83.2615 167.047 83.6942 166.997 84.1548 166.896V164.922H82.5688V163.849ZM89.6248 168.105C88.7245 168.105 88.0196 167.843 87.5101 167.32C87.0041 166.793 86.7511 166.069 86.7511 165.147C86.7511 164.202 86.9866 163.458 87.4577 162.917C87.9288 162.377 88.5761 162.106 89.3997 162.106C90.1639 162.106 90.7676 162.338 91.2108 162.802C91.654 163.266 91.8755 163.905 91.8755 164.718V165.383H88.0178C88.0353 165.945 88.1871 166.377 88.4732 166.681C88.7593 166.981 89.1624 167.131 89.6823 167.131C90.0243 167.131 90.3419 167.1 90.635 167.037C90.9316 166.971 91.2492 166.862 91.5877 166.712V167.712C91.2876 167.855 90.984 167.956 90.6769 168.016C90.3698 168.075 90.0191 168.105 89.6248 168.105ZM89.3997 163.038C89.0089 163.038 88.6948 163.162 88.4575 163.409C88.2237 163.657 88.0841 164.018 88.0387 164.493H90.6664C90.6594 164.015 90.5443 163.654 90.3209 163.409C90.0976 163.162 89.7905 163.038 89.3997 163.038ZM95.4297 167.11C95.7298 167.11 96.0299 167.063 96.33 166.969V167.895C96.1939 167.955 96.0177 168.003 95.8013 168.042C95.5885 168.084 95.3669 168.105 95.1366 168.105C93.971 168.105 93.3883 167.491 93.3883 166.262V163.142H92.5979V162.598L93.4459 162.148L93.8646 160.923H94.6236V162.211H96.2724V163.142H94.6236V166.241C94.6236 166.538 94.6969 166.758 94.8434 166.901C94.9935 167.04 95.1889 167.11 95.4297 167.11ZM104.82 165.922C104.82 166.602 104.574 167.136 104.082 167.524C103.59 167.911 102.911 168.105 102.046 168.105C101.181 168.105 100.472 167.97 99.9208 167.702V166.519C100.27 166.683 100.64 166.812 101.03 166.906C101.425 167 101.791 167.047 102.13 167.047C102.625 167.047 102.99 166.953 103.224 166.765C103.461 166.576 103.58 166.323 103.58 166.006C103.58 165.72 103.471 165.477 103.255 165.278C103.039 165.079 102.592 164.844 101.915 164.571C101.217 164.289 100.725 163.966 100.439 163.603C100.153 163.24 100.01 162.804 100.01 162.295C100.01 161.656 100.237 161.153 100.69 160.787C101.144 160.421 101.753 160.237 102.517 160.237C103.25 160.237 103.979 160.398 104.705 160.719L104.307 161.74C103.627 161.454 103.02 161.31 102.486 161.31C102.081 161.31 101.774 161.399 101.564 161.577C101.355 161.752 101.25 161.984 101.25 162.274C101.25 162.472 101.292 162.643 101.376 162.787C101.46 162.926 101.598 163.059 101.789 163.184C101.981 163.31 102.327 163.476 102.826 163.682C103.388 163.915 103.799 164.134 104.061 164.336C104.323 164.538 104.515 164.767 104.637 165.022C104.759 165.276 104.82 165.576 104.82 165.922ZM108.327 167.11C108.627 167.11 108.927 167.063 109.228 166.969V167.895C109.091 167.955 108.915 168.003 108.699 168.042C108.486 168.084 108.264 168.105 108.034 168.105C106.869 168.105 106.286 167.491 106.286 166.262V163.142H105.495V162.598L106.343 162.148L106.762 160.923H107.521V162.211H109.17V163.142H107.521V166.241C107.521 166.538 107.594 166.758 107.741 166.901C107.891 167.04 108.086 167.11 108.327 167.11ZM114.012 168L113.766 167.194H113.724C113.445 167.546 113.164 167.787 112.881 167.916C112.598 168.042 112.236 168.105 111.792 168.105C111.224 168.105 110.779 167.951 110.458 167.644C110.14 167.337 109.981 166.903 109.981 166.341C109.981 165.744 110.203 165.294 110.646 164.99C111.089 164.687 111.764 164.521 112.672 164.493L113.671 164.462V164.153C113.671 163.783 113.584 163.507 113.41 163.326C113.239 163.141 112.972 163.048 112.609 163.048C112.312 163.048 112.028 163.092 111.756 163.179C111.484 163.266 111.222 163.369 110.971 163.488L110.573 162.609C110.887 162.445 111.231 162.321 111.604 162.237C111.977 162.15 112.33 162.106 112.661 162.106C113.398 162.106 113.952 162.267 114.326 162.588C114.703 162.909 114.891 163.413 114.891 164.1V168H114.012ZM112.18 167.162C112.626 167.162 112.984 167.039 113.253 166.791C113.525 166.54 113.661 166.189 113.661 165.739V165.236L112.918 165.268C112.338 165.289 111.916 165.386 111.651 165.561C111.389 165.732 111.258 165.995 111.258 166.351C111.258 166.609 111.335 166.81 111.489 166.953C111.642 167.093 111.873 167.162 112.18 167.162ZM119.544 162.106C119.792 162.106 119.996 162.124 120.157 162.158L120.036 163.305C119.862 163.263 119.681 163.242 119.492 163.242C119 163.242 118.601 163.402 118.293 163.724C117.99 164.045 117.838 164.462 117.838 164.975V168H116.608V162.211H117.571L117.733 163.231H117.796C117.988 162.886 118.238 162.612 118.545 162.41C118.855 162.207 119.189 162.106 119.544 162.106ZM123.392 167.11C123.692 167.11 123.992 167.063 124.292 166.969V167.895C124.156 167.955 123.98 168.003 123.763 168.042C123.55 168.084 123.329 168.105 123.099 168.105C121.933 168.105 121.35 167.491 121.35 166.262V163.142H120.56V162.598L121.408 162.148L121.827 160.923H122.586V162.211H124.234V163.142H122.586V166.241C122.586 166.538 122.659 166.758 122.805 166.901C122.956 167.04 123.151 167.11 123.392 167.11ZM127.982 168.105C127.082 168.105 126.377 167.843 125.868 167.32C125.362 166.793 125.109 166.069 125.109 165.147C125.109 164.202 125.344 163.458 125.815 162.917C126.286 162.377 126.934 162.106 127.757 162.106C128.521 162.106 129.125 162.338 129.568 162.802C130.011 163.266 130.233 163.905 130.233 164.718V165.383H126.375C126.393 165.945 126.545 166.377 126.831 166.681C127.117 166.981 127.52 167.131 128.04 167.131C128.382 167.131 128.699 167.1 128.993 167.037C129.289 166.971 129.607 166.862 129.945 166.712V167.712C129.645 167.855 129.341 167.956 129.034 168.016C128.727 168.075 128.377 168.105 127.982 168.105ZM127.757 163.038C127.366 163.038 127.052 163.162 126.815 163.409C126.581 163.657 126.442 164.018 126.396 164.493H129.024C129.017 164.015 128.902 163.654 128.678 163.409C128.455 163.162 128.148 163.038 127.757 163.038ZM133.583 168.105C132.861 168.105 132.297 167.843 131.892 167.32C131.488 166.796 131.285 166.062 131.285 165.116C131.285 164.167 131.489 163.429 131.898 162.902C132.309 162.371 132.878 162.106 133.604 162.106C134.365 162.106 134.944 162.387 135.342 162.949H135.405C135.345 162.534 135.316 162.206 135.316 161.965V159.855H136.551V168H135.588L135.373 167.241H135.316C134.921 167.817 134.344 168.105 133.583 168.105ZM133.913 167.11C134.419 167.11 134.787 166.969 135.017 166.686C135.248 166.4 135.366 165.938 135.373 165.299V165.126C135.373 164.397 135.255 163.879 135.017 163.572C134.78 163.265 134.408 163.111 133.902 163.111C133.47 163.111 133.136 163.287 132.903 163.64C132.669 163.989 132.552 164.488 132.552 165.137C132.552 165.779 132.665 166.269 132.892 166.608C133.119 166.943 133.459 167.11 133.913 167.11ZM142.466 168H141.225V160.347H145.544V161.405H142.466V163.797H145.35V164.859H142.466V168ZM151.935 165.095C151.935 166.041 151.692 166.779 151.207 167.309C150.722 167.839 150.047 168.105 149.181 168.105C148.641 168.105 148.163 167.983 147.747 167.738C147.332 167.494 147.013 167.143 146.789 166.686C146.566 166.229 146.454 165.699 146.454 165.095C146.454 164.156 146.695 163.423 147.177 162.896C147.658 162.37 148.337 162.106 149.213 162.106C150.05 162.106 150.713 162.377 151.202 162.917C151.69 163.455 151.935 164.181 151.935 165.095ZM147.721 165.095C147.721 166.431 148.215 167.1 149.202 167.1C150.18 167.1 150.668 166.431 150.668 165.095C150.668 163.772 150.176 163.111 149.192 163.111C148.675 163.111 148.3 163.282 148.067 163.624C147.836 163.966 147.721 164.456 147.721 165.095ZM156.29 162.106C156.538 162.106 156.742 162.124 156.902 162.158L156.782 163.305C156.607 163.263 156.426 163.242 156.237 163.242C155.745 163.242 155.346 163.402 155.039 163.724C154.735 164.045 154.583 164.462 154.583 164.975V168H153.353V162.211H154.316L154.479 163.231H154.541C154.733 162.886 154.983 162.612 155.29 162.41C155.601 162.207 155.934 162.106 156.29 162.106ZM162.137 168H160.896V160.347H165.214V161.405H162.137V163.797H165.021V164.859H162.137V168ZM169.407 162.106C169.655 162.106 169.859 162.124 170.02 162.158L169.899 163.305C169.725 163.263 169.543 163.242 169.355 163.242C168.863 163.242 168.463 163.402 168.156 163.724C167.852 164.045 167.701 164.462 167.701 164.975V168H166.471V162.211H167.434L167.596 163.231H167.659C167.851 162.886 168.1 162.612 168.407 162.41C168.718 162.207 169.051 162.106 169.407 162.106ZM173.626 168.105C172.726 168.105 172.021 167.843 171.511 167.32C171.005 166.793 170.752 166.069 170.752 165.147C170.752 164.202 170.988 163.458 171.459 162.917C171.93 162.377 172.577 162.106 173.401 162.106C174.165 162.106 174.769 162.338 175.212 162.802C175.655 163.266 175.877 163.905 175.877 164.718V165.383H172.019C172.037 165.945 172.188 166.377 172.474 166.681C172.761 166.981 173.164 167.131 173.684 167.131C174.026 167.131 174.343 167.1 174.636 167.037C174.933 166.971 175.25 166.862 175.589 166.712V167.712C175.289 167.855 174.985 167.956 174.678 168.016C174.371 168.075 174.02 168.105 173.626 168.105ZM173.401 163.038C173.01 163.038 172.696 163.162 172.459 163.409C172.225 163.657 172.085 164.018 172.04 164.493H174.668C174.661 164.015 174.546 163.654 174.322 163.409C174.099 163.162 173.792 163.038 173.401 163.038ZM179.803 168.105C178.902 168.105 178.197 167.843 177.688 167.32C177.182 166.793 176.929 166.069 176.929 165.147C176.929 164.202 177.164 163.458 177.636 162.917C178.107 162.377 178.754 162.106 179.578 162.106C180.342 162.106 180.945 162.338 181.389 162.802C181.832 163.266 182.053 163.905 182.053 164.718V165.383H178.196C178.213 165.945 178.365 166.377 178.651 166.681C178.937 166.981 179.34 167.131 179.86 167.131C180.202 167.131 180.52 167.1 180.813 167.037C181.109 166.971 181.427 166.862 181.765 166.712V167.712C181.465 167.855 181.162 167.956 180.855 168.016C180.548 168.075 180.197 168.105 179.803 168.105ZM179.578 163.038C179.187 163.038 178.873 163.162 178.635 163.409C178.402 163.657 178.262 164.018 178.217 164.493H180.844C180.837 164.015 180.722 163.654 180.499 163.409C180.275 163.162 179.968 163.038 179.578 163.038Z" fill="white"/>
<path d="M57.543 131.078C56.8711 131.078 56.3451 130.883 55.9648 130.492C55.5872 130.099 55.3984 129.559 55.3984 128.871C55.3984 128.165 55.5742 127.611 55.9258 127.207C56.2773 126.803 56.7604 126.602 57.375 126.602C57.9453 126.602 58.3958 126.775 58.7266 127.121C59.0573 127.467 59.2227 127.944 59.2227 128.551V129.047H56.3438C56.3568 129.466 56.4701 129.789 56.6836 130.016C56.8971 130.24 57.1979 130.352 57.5859 130.352C57.8411 130.352 58.0781 130.328 58.2969 130.281C58.5182 130.232 58.7552 130.151 59.0078 130.039V130.785C58.7839 130.892 58.5573 130.967 58.3281 131.012C58.099 131.056 57.8372 131.078 57.543 131.078ZM57.375 127.297C57.0833 127.297 56.849 127.389 56.6719 127.574C56.4974 127.759 56.3932 128.029 56.3594 128.383H58.3203C58.3151 128.026 58.2292 127.757 58.0625 127.574C57.8958 127.389 57.6667 127.297 57.375 127.297ZM63.9062 131H62.9844V128.336C62.9844 128.005 62.9219 127.759 62.7969 127.598C62.6719 127.434 62.4766 127.352 62.2109 127.352C61.8568 127.352 61.5964 127.467 61.4297 127.699C61.2656 127.928 61.1836 128.311 61.1836 128.848V131H60.2656V126.68H60.9844L61.1133 127.246H61.1602C61.2799 127.04 61.4531 126.882 61.6797 126.77C61.9089 126.658 62.1602 126.602 62.4336 126.602C63.0977 126.602 63.5378 126.828 63.7539 127.281H63.8164C63.944 127.068 64.1237 126.901 64.3555 126.781C64.5872 126.661 64.8529 126.602 65.1523 126.602C65.668 126.602 66.043 126.732 66.2773 126.992C66.5143 127.253 66.6328 127.65 66.6328 128.184V131H65.7148V128.336C65.7148 128.005 65.651 127.759 65.5234 127.598C65.3984 127.434 65.2031 127.352 64.9375 127.352C64.5807 127.352 64.319 127.464 64.1523 127.688C63.9883 127.909 63.9062 128.25 63.9062 128.711V131ZM70.6172 131L70.4336 130.398H70.4023C70.194 130.661 69.9844 130.841 69.7734 130.938C69.5625 131.031 69.2917 131.078 68.9609 131.078C68.5365 131.078 68.2044 130.964 67.9648 130.734C67.7279 130.505 67.6094 130.181 67.6094 129.762C67.6094 129.316 67.7747 128.98 68.1055 128.754C68.4362 128.527 68.9401 128.404 69.6172 128.383L70.3633 128.359V128.129C70.3633 127.853 70.2982 127.647 70.168 127.512C70.0404 127.374 69.8411 127.305 69.5703 127.305C69.349 127.305 69.1367 127.337 68.9336 127.402C68.7305 127.467 68.5352 127.544 68.3477 127.633L68.0508 126.977C68.2852 126.854 68.5417 126.762 68.8203 126.699C69.099 126.634 69.362 126.602 69.6094 126.602C70.1589 126.602 70.5729 126.721 70.8516 126.961C71.1328 127.201 71.2734 127.577 71.2734 128.09V131H70.6172ZM69.25 130.375C69.5833 130.375 69.8503 130.283 70.0508 130.098C70.2539 129.91 70.3555 129.648 70.3555 129.312V128.938L69.8008 128.961C69.3685 128.977 69.0534 129.049 68.8555 129.18C68.6602 129.307 68.5625 129.504 68.5625 129.77C68.5625 129.962 68.6198 130.112 68.7344 130.219C68.849 130.323 69.0208 130.375 69.25 130.375ZM73.4727 131H72.5547V126.68H73.4727V131ZM72.5 125.535C72.5 125.371 72.5443 125.245 72.6328 125.156C72.724 125.068 72.8529 125.023 73.0195 125.023C73.181 125.023 73.306 125.068 73.3945 125.156C73.4857 125.245 73.5312 125.371 73.5312 125.535C73.5312 125.691 73.4857 125.815 73.3945 125.906C73.306 125.995 73.181 126.039 73.0195 126.039C72.8529 126.039 72.724 125.995 72.6328 125.906C72.5443 125.815 72.5 125.691 72.5 125.535ZM75.707 131H74.7891V124.922H75.707V131ZM83.1094 128.113C83.1094 128.486 83.0508 128.827 82.9336 129.137C82.8164 129.444 82.651 129.684 82.4375 129.855C82.2266 130.027 81.9818 130.113 81.7031 130.113C81.4974 130.113 81.319 130.059 81.168 129.949C81.0169 129.84 80.9154 129.691 80.8633 129.504H80.8164C80.6888 129.707 80.5312 129.859 80.3438 129.961C80.1562 130.062 79.9453 130.113 79.7109 130.113C79.2865 130.113 78.9518 129.977 78.707 129.703C78.4648 129.43 78.3438 129.06 78.3438 128.594C78.3438 128.057 78.5052 127.622 78.8281 127.289C79.151 126.953 79.5846 126.785 80.1289 126.785C80.3268 126.785 80.5456 126.803 80.7852 126.84C81.0273 126.874 81.2422 126.922 81.4297 126.984L81.3438 128.801V128.895C81.3438 129.311 81.4792 129.52 81.75 129.52C81.9557 129.52 82.1185 129.387 82.2383 129.121C82.3607 128.855 82.4219 128.517 82.4219 128.105C82.4219 127.66 82.3307 127.27 82.1484 126.934C81.9661 126.595 81.707 126.335 81.3711 126.152C81.0352 125.97 80.6497 125.879 80.2148 125.879C79.6602 125.879 79.1771 125.993 78.7656 126.223C78.3568 126.452 78.0443 126.78 77.8281 127.207C77.612 127.632 77.5039 128.125 77.5039 128.688C77.5039 129.443 77.7057 130.023 78.1094 130.43C78.513 130.836 79.0924 131.039 79.8477 131.039C80.4232 131.039 81.0234 130.922 81.6484 130.688V131.328C81.1016 131.552 80.5065 131.664 79.8633 131.664C78.8997 131.664 78.1484 131.405 77.6094 130.887C77.0703 130.366 76.8008 129.641 76.8008 128.711C76.8008 128.031 76.9466 127.427 77.2383 126.898C77.5299 126.367 77.9336 125.961 78.4492 125.68C78.9674 125.398 79.5534 125.258 80.207 125.258C80.7721 125.258 81.2747 125.375 81.7148 125.609C82.1576 125.844 82.5 126.178 82.7422 126.613C82.987 127.046 83.1094 127.546 83.1094 128.113ZM79.0938 128.609C79.0938 129.216 79.332 129.52 79.8086 129.52C80.3112 129.52 80.5859 129.138 80.6328 128.375L80.6797 127.441C80.5156 127.397 80.3398 127.375 80.1523 127.375C79.819 127.375 79.5586 127.486 79.3711 127.707C79.1862 127.928 79.0938 128.229 79.0938 128.609ZM86.0977 131.078C85.4258 131.078 84.8997 130.883 84.5195 130.492C84.1419 130.099 83.9531 129.559 83.9531 128.871C83.9531 128.165 84.1289 127.611 84.4805 127.207C84.832 126.803 85.3151 126.602 85.9297 126.602C86.5 126.602 86.9505 126.775 87.2812 127.121C87.612 127.467 87.7773 127.944 87.7773 128.551V129.047H84.8984C84.9115 129.466 85.0247 129.789 85.2383 130.016C85.4518 130.24 85.7526 130.352 86.1406 130.352C86.3958 130.352 86.6328 130.328 86.8516 130.281C87.0729 130.232 87.3099 130.151 87.5625 130.039V130.785C87.3385 130.892 87.112 130.967 86.8828 131.012C86.6536 131.056 86.3919 131.078 86.0977 131.078ZM85.9297 127.297C85.638 127.297 85.4036 127.389 85.2266 127.574C85.0521 127.759 84.9479 128.029 84.9141 128.383H86.875C86.8698 128.026 86.7839 127.757 86.6172 127.574C86.4505 127.389 86.2214 127.297 85.9297 127.297ZM89.7812 128.793L88.332 126.68H89.3789L90.3633 128.191L91.3555 126.68H92.3945L90.9414 128.793L92.4688 131H91.4297L90.3633 129.383L89.3008 131H88.2617L89.7812 128.793ZM95.9297 131L95.7461 130.398H95.7148C95.5065 130.661 95.2969 130.841 95.0859 130.938C94.875 131.031 94.6042 131.078 94.2734 131.078C93.849 131.078 93.5169 130.964 93.2773 130.734C93.0404 130.505 92.9219 130.181 92.9219 129.762C92.9219 129.316 93.0872 128.98 93.418 128.754C93.7487 128.527 94.2526 128.404 94.9297 128.383L95.6758 128.359V128.129C95.6758 127.853 95.6107 127.647 95.4805 127.512C95.3529 127.374 95.1536 127.305 94.8828 127.305C94.6615 127.305 94.4492 127.337 94.2461 127.402C94.043 127.467 93.8477 127.544 93.6602 127.633L93.3633 126.977C93.5977 126.854 93.8542 126.762 94.1328 126.699C94.4115 126.634 94.6745 126.602 94.9219 126.602C95.4714 126.602 95.8854 126.721 96.1641 126.961C96.4453 127.201 96.5859 127.577 96.5859 128.09V131H95.9297ZM94.5625 130.375C94.8958 130.375 95.1628 130.283 95.3633 130.098C95.5664 129.91 95.668 129.648 95.668 129.312V128.938L95.1133 128.961C94.681 128.977 94.3659 129.049 94.168 129.18C93.9727 129.307 93.875 129.504 93.875 129.77C93.875 129.962 93.9323 130.112 94.0469 130.219C94.1615 130.323 94.3333 130.375 94.5625 130.375ZM101.508 131H100.586V128.336C100.586 128.005 100.523 127.759 100.398 127.598C100.273 127.434 100.078 127.352 99.8125 127.352C99.4583 127.352 99.1979 127.467 99.0312 127.699C98.8672 127.928 98.7852 128.311 98.7852 128.848V131H97.8672V126.68H98.5859L98.7148 127.246H98.7617C98.8815 127.04 99.0547 126.882 99.2812 126.77C99.5104 126.658 99.7617 126.602 100.035 126.602C100.699 126.602 101.139 126.828 101.355 127.281H101.418C101.546 127.068 101.725 126.901 101.957 126.781C102.189 126.661 102.454 126.602 102.754 126.602C103.27 126.602 103.645 126.732 103.879 126.992C104.116 127.253 104.234 127.65 104.234 128.184V131H103.316V128.336C103.316 128.005 103.253 127.759 103.125 127.598C103 127.434 102.805 127.352 102.539 127.352C102.182 127.352 101.921 127.464 101.754 127.688C101.59 127.909 101.508 128.25 101.508 128.711V131ZM107.707 131.078C107.16 131.078 106.736 130.882 106.434 130.488H106.379C106.415 130.853 106.434 131.074 106.434 131.152V132.922H105.516V126.68H106.258C106.279 126.76 106.322 126.953 106.387 127.258H106.434C106.72 126.82 107.15 126.602 107.723 126.602C108.262 126.602 108.681 126.797 108.98 127.188C109.283 127.578 109.434 128.126 109.434 128.832C109.434 129.538 109.28 130.089 108.973 130.484C108.668 130.88 108.246 131.078 107.707 131.078ZM107.484 127.352C107.12 127.352 106.853 127.458 106.684 127.672C106.517 127.885 106.434 128.227 106.434 128.695V128.832C106.434 129.358 106.517 129.74 106.684 129.977C106.85 130.211 107.122 130.328 107.5 130.328C107.818 130.328 108.062 130.198 108.234 129.938C108.406 129.677 108.492 129.306 108.492 128.824C108.492 128.34 108.406 127.974 108.234 127.727C108.065 127.477 107.815 127.352 107.484 127.352ZM111.418 131H110.5V124.922H111.418V131ZM114.621 131.078C113.949 131.078 113.423 130.883 113.043 130.492C112.665 130.099 112.477 129.559 112.477 128.871C112.477 128.165 112.652 127.611 113.004 127.207C113.355 126.803 113.839 126.602 114.453 126.602C115.023 126.602 115.474 126.775 115.805 127.121C116.135 127.467 116.301 127.944 116.301 128.551V129.047H113.422C113.435 129.466 113.548 129.789 113.762 130.016C113.975 130.24 114.276 130.352 114.664 130.352C114.919 130.352 115.156 130.328 115.375 130.281C115.596 130.232 115.833 130.151 116.086 130.039V130.785C115.862 130.892 115.635 130.967 115.406 131.012C115.177 131.056 114.915 131.078 114.621 131.078ZM114.453 127.297C114.161 127.297 113.927 127.389 113.75 127.574C113.576 127.759 113.471 128.029 113.438 128.383H115.398C115.393 128.026 115.307 127.757 115.141 127.574C114.974 127.389 114.745 127.297 114.453 127.297ZM117.207 130.512C117.207 130.322 117.257 130.176 117.355 130.074C117.454 129.973 117.598 129.922 117.785 129.922C117.975 129.922 118.12 129.975 118.219 130.082C118.318 130.186 118.367 130.329 118.367 130.512C118.367 130.697 118.316 130.844 118.215 130.953C118.116 131.06 117.973 131.113 117.785 131.113C117.598 131.113 117.454 131.06 117.355 130.953C117.257 130.846 117.207 130.699 117.207 130.512ZM121.289 131.078C120.635 131.078 120.138 130.888 119.797 130.508C119.458 130.125 119.289 129.577 119.289 128.863C119.289 128.137 119.466 127.578 119.82 127.188C120.177 126.797 120.691 126.602 121.363 126.602C121.819 126.602 122.229 126.686 122.594 126.855L122.316 127.594C121.928 127.443 121.608 127.367 121.355 127.367C120.608 127.367 120.234 127.863 120.234 128.855C120.234 129.34 120.327 129.704 120.512 129.949C120.699 130.191 120.973 130.312 121.332 130.312C121.741 130.312 122.128 130.211 122.492 130.008V130.809C122.328 130.905 122.152 130.974 121.965 131.016C121.78 131.057 121.555 131.078 121.289 131.078ZM127.34 128.832C127.34 129.538 127.159 130.089 126.797 130.484C126.435 130.88 125.931 131.078 125.285 131.078C124.882 131.078 124.525 130.987 124.215 130.805C123.905 130.622 123.667 130.361 123.5 130.02C123.333 129.678 123.25 129.283 123.25 128.832C123.25 128.132 123.43 127.585 123.789 127.191C124.148 126.798 124.655 126.602 125.309 126.602C125.934 126.602 126.428 126.803 126.793 127.207C127.158 127.608 127.34 128.15 127.34 128.832ZM124.195 128.832C124.195 129.829 124.564 130.328 125.301 130.328C126.03 130.328 126.395 129.829 126.395 128.832C126.395 127.845 126.027 127.352 125.293 127.352C124.908 127.352 124.628 127.479 124.453 127.734C124.281 127.99 124.195 128.355 124.195 128.832ZM132.039 131H131.117V128.336C131.117 128.005 131.055 127.759 130.93 127.598C130.805 127.434 130.609 127.352 130.344 127.352C129.99 127.352 129.729 127.467 129.562 127.699C129.398 127.928 129.316 128.311 129.316 128.848V131H128.398V126.68H129.117L129.246 127.246H129.293C129.413 127.04 129.586 126.882 129.812 126.77C130.042 126.658 130.293 126.602 130.566 126.602C131.23 126.602 131.671 126.828 131.887 127.281H131.949C132.077 127.068 132.257 126.901 132.488 126.781C132.72 126.661 132.986 126.602 133.285 126.602C133.801 126.602 134.176 126.732 134.41 126.992C134.647 127.253 134.766 127.65 134.766 128.184V131H133.848V128.336C133.848 128.005 133.784 127.759 133.656 127.598C133.531 127.434 133.336 127.352 133.07 127.352C132.714 127.352 132.452 127.464 132.285 127.688C132.121 127.909 132.039 128.25 132.039 128.711V131Z" fill="#606060"/>
<defs>
<filter id="filter0_i" x="40" y="116" width="180" height="25" filterUnits="userSpaceOnUse" color-interpolation-filters="sRGB">
<feFlood flood-opacity="0" result="BackgroundImageFix"/>
<feBlend mode="normal" in="SourceGraphic" in2="BackgroundImageFix" result="shape"/>
<feColorMatrix in="SourceAlpha" type="matrix" values="0 0 0 0 0 0 0 0 0 0 0 0 0 0 0 0 0 0 127 0" result="hardAlpha"/>
<feOffset dy="1"/>
<feGaussianBlur stdDeviation="2"/>
<feComposite in2="hardAlpha" operator="arithmetic" k2="-1" k3="1"/>
<feColorMatrix type="matrix" values="0 0 0 0 0 0 0 0 0 0 0 0 0 0 0 0 0 0 0.1 0"/>
<feBlend mode="normal" in2="shape" result="effect1_innerShadow"/>
</filter>
</defs>
</svg>
