<svg width="260" height="205" viewBox="0 0 260 205" fill="none" xmlns="http://www.w3.org/2000/svg">
<rect width="260" height="205" rx="10" fill="#0C122C"/>
<path d="M9.7324 38.35L13.2124 44.08L16.7224 38.35H17.8624L13.7374 45.04V49H12.6874V45.01L8.5774 38.35H9.7324ZM21.186 49.15C20.436 49.15 19.766 48.965 19.176 48.595C18.596 48.225 18.141 47.735 17.811 47.125C17.481 46.505 17.316 45.835 17.316 45.115C17.316 44.385 17.481 43.715 17.811 43.105C18.151 42.485 18.611 41.99 19.191 41.62C19.781 41.24 20.446 41.05 21.186 41.05C21.936 41.05 22.601 41.24 23.181 41.62C23.771 41.99 24.231 42.485 24.561 43.105C24.901 43.715 25.071 44.385 25.071 45.115C25.071 45.835 24.906 46.505 24.576 47.125C24.246 47.735 23.786 48.225 23.196 48.595C22.616 48.965 21.946 49.15 21.186 49.15ZM18.351 45.13C18.351 45.71 18.476 46.24 18.726 46.72C18.986 47.19 19.331 47.565 19.761 47.845C20.191 48.115 20.666 48.25 21.186 48.25C21.706 48.25 22.181 48.11 22.611 47.83C23.041 47.55 23.386 47.17 23.646 46.69C23.906 46.21 24.036 45.68 24.036 45.1C24.036 44.52 23.906 43.99 23.646 43.51C23.386 43.03 23.041 42.65 22.611 42.37C22.181 42.09 21.706 41.95 21.186 41.95C20.676 41.95 20.206 42.095 19.776 42.385C19.346 42.665 19.001 43.045 18.741 43.525C18.481 44.005 18.351 44.54 18.351 45.13ZM26.7019 45.775V41.185H27.7219V45.595C27.7219 47.365 28.3269 48.25 29.5369 48.25C30.1369 48.25 30.6969 48.055 31.2169 47.665C31.7469 47.275 32.1269 46.755 32.3569 46.105V41.185H33.3769V47.77C33.3769 48.04 33.4969 48.18 33.7369 48.19V49C33.6169 49.02 33.5219 49.03 33.4519 49.03C33.3919 49.03 33.3269 49.03 33.2569 49.03C33.0469 49.01 32.8669 48.93 32.7169 48.79C32.5769 48.65 32.5069 48.48 32.5069 48.28L32.4769 47.23C32.1369 47.84 31.6719 48.315 31.0819 48.655C30.5019 48.985 29.8719 49.15 29.1919 49.15C27.5319 49.15 26.7019 48.025 26.7019 45.775ZM34.9786 41.185L35.2336 39.58H34.8736V38.05H35.8636V39.58L35.4886 41.185H34.9786ZM39.6048 49L36.4398 41.185H37.5048L40.1748 47.98L42.8598 41.185H43.8648L40.6998 49H39.6048ZM48.3892 49.15C47.6392 49.15 46.9692 48.965 46.3792 48.595C45.7892 48.225 45.3242 47.73 44.9842 47.11C44.6442 46.49 44.4742 45.81 44.4742 45.07C44.4742 44.34 44.6392 43.67 44.9692 43.06C45.3092 42.45 45.7742 41.965 46.3642 41.605C46.9542 41.235 47.6242 41.05 48.3742 41.05C49.1442 41.05 49.8192 41.235 50.3992 41.605C50.9792 41.975 51.4292 42.465 51.7492 43.075C52.0792 43.675 52.2442 44.335 52.2442 45.055C52.2442 45.215 52.2392 45.35 52.2292 45.46H45.5392C45.5892 46.02 45.7492 46.52 46.0192 46.96C46.2892 47.39 46.6342 47.735 47.0542 47.995C47.4742 48.245 47.9342 48.37 48.4342 48.37C48.9442 48.37 49.4242 48.24 49.8742 47.98C50.3242 47.72 50.6442 47.38 50.8342 46.96L51.7192 47.2C51.5592 47.58 51.3092 47.92 50.9692 48.22C50.6392 48.51 50.2542 48.74 49.8142 48.91C49.3742 49.07 48.8992 49.15 48.3892 49.15ZM45.5092 44.725H51.2842C51.2442 44.165 51.0892 43.67 50.8192 43.24C50.5492 42.8 50.2042 42.46 49.7842 42.22C49.3642 41.97 48.8992 41.845 48.3892 41.845C47.8792 41.845 47.4142 41.97 46.9942 42.22C46.5742 42.46 46.2292 42.8 45.9592 43.24C45.6992 43.67 45.5492 44.165 45.5092 44.725ZM57.5661 45.775V41.185H58.5861V45.595C58.5861 47.365 59.1911 48.25 60.4011 48.25C61.0011 48.25 61.5611 48.055 62.0811 47.665C62.6111 47.275 62.9911 46.755 63.2211 46.105V41.185H64.2411V47.77C64.2411 48.04 64.3611 48.18 64.6011 48.19V49C64.4811 49.02 64.3861 49.03 64.3161 49.03C64.2561 49.03 64.1911 49.03 64.1211 49.03C63.9111 49.01 63.7311 48.93 63.5811 48.79C63.4411 48.65 63.3711 48.48 63.3711 48.28L63.3411 47.23C63.0011 47.84 62.5361 48.315 61.9461 48.655C61.3661 48.985 60.7361 49.15 60.0561 49.15C58.3961 49.15 57.5661 48.025 57.5661 45.775ZM69.1124 49.15C68.4724 49.15 67.8774 49.045 67.3274 48.835C66.7874 48.615 66.3124 48.295 65.9024 47.875L66.3224 47.155C66.7624 47.565 67.2024 47.865 67.6424 48.055C68.0924 48.235 68.5674 48.325 69.0674 48.325C69.6674 48.325 70.1574 48.205 70.5374 47.965C70.9274 47.715 71.1224 47.36 71.1224 46.9C71.1224 46.59 71.0274 46.355 70.8374 46.195C70.6574 46.025 70.3924 45.89 70.0424 45.79C69.7024 45.69 69.2924 45.575 68.8124 45.445C68.2724 45.295 67.8174 45.14 67.4474 44.98C67.0874 44.81 66.8124 44.6 66.6224 44.35C66.4424 44.09 66.3524 43.755 66.3524 43.345C66.3524 42.845 66.4774 42.425 66.7274 42.085C66.9874 41.745 67.3374 41.49 67.7774 41.32C68.2274 41.14 68.7274 41.05 69.2774 41.05C69.8774 41.05 70.4074 41.145 70.8674 41.335C71.3274 41.525 71.7024 41.79 71.9924 42.13L71.4974 42.82C71.2274 42.5 70.8924 42.265 70.4924 42.115C70.1024 41.955 69.6774 41.875 69.2174 41.875C68.8974 41.875 68.5924 41.92 68.3024 42.01C68.0124 42.09 67.7724 42.23 67.5824 42.43C67.4024 42.62 67.3124 42.885 67.3124 43.225C67.3124 43.645 67.4674 43.935 67.7774 44.095C68.0874 44.255 68.5574 44.425 69.1874 44.605C69.7774 44.765 70.2924 44.925 70.7324 45.085C71.1724 45.245 71.5124 45.46 71.7524 45.73C71.9924 45.99 72.1124 46.355 72.1124 46.825C72.1124 47.555 71.8374 48.125 71.2874 48.535C70.7374 48.945 70.0124 49.15 69.1124 49.15ZM77.1733 49.15C76.4233 49.15 75.7533 48.965 75.1633 48.595C74.5733 48.225 74.1083 47.73 73.7683 47.11C73.4283 46.49 73.2583 45.81 73.2583 45.07C73.2583 44.34 73.4233 43.67 73.7533 43.06C74.0933 42.45 74.5583 41.965 75.1483 41.605C75.7383 41.235 76.4083 41.05 77.1583 41.05C77.9283 41.05 78.6033 41.235 79.1833 41.605C79.7633 41.975 80.2133 42.465 80.5333 43.075C80.8633 43.675 81.0283 44.335 81.0283 45.055C81.0283 45.215 81.0233 45.35 81.0133 45.46H74.3233C74.3733 46.02 74.5333 46.52 74.8033 46.96C75.0733 47.39 75.4183 47.735 75.8383 47.995C76.2583 48.245 76.7183 48.37 77.2183 48.37C77.7283 48.37 78.2083 48.24 78.6583 47.98C79.1083 47.72 79.4283 47.38 79.6183 46.96L80.5033 47.2C80.3433 47.58 80.0933 47.92 79.7533 48.22C79.4233 48.51 79.0383 48.74 78.5983 48.91C78.1583 49.07 77.6833 49.15 77.1733 49.15ZM74.2933 44.725H80.0683C80.0283 44.165 79.8733 43.67 79.6033 43.24C79.3333 42.8 78.9883 42.46 78.5683 42.22C78.1483 41.97 77.6833 41.845 77.1733 41.845C76.6633 41.845 76.1983 41.97 75.7783 42.22C75.3583 42.46 75.0133 42.8 74.7433 43.24C74.4833 43.67 74.3333 44.165 74.2933 44.725ZM82.0771 45.115C82.0771 44.375 82.2271 43.7 82.5271 43.09C82.8371 42.47 83.2621 41.975 83.8021 41.605C84.3421 41.235 84.9571 41.05 85.6471 41.05C86.2971 41.05 86.8771 41.225 87.3871 41.575C87.9071 41.915 88.3121 42.33 88.6021 42.82V38.05H89.6221V47.77C89.6221 48.04 89.7421 48.18 89.9821 48.19V49C89.7821 49.03 89.6271 49.04 89.5171 49.03C89.2971 49.02 89.1071 48.94 88.9471 48.79C88.7971 48.63 88.7221 48.45 88.7221 48.25V47.485C88.4121 47.995 87.9921 48.4 87.4621 48.7C86.9321 49 86.3821 49.15 85.8121 49.15C85.2721 49.15 84.7721 49.04 84.3121 48.82C83.8521 48.6 83.4521 48.3 83.1121 47.92C82.7821 47.54 82.5271 47.11 82.3471 46.63C82.1671 46.14 82.0771 45.635 82.0771 45.115ZM88.6021 46.315V43.9C88.4721 43.54 88.2621 43.215 87.9721 42.925C87.6821 42.625 87.3521 42.39 86.9821 42.22C86.6221 42.04 86.2621 41.95 85.9021 41.95C85.3421 41.95 84.8521 42.105 84.4321 42.415C84.0221 42.715 83.7021 43.11 83.4721 43.6C83.2421 44.08 83.1271 44.585 83.1271 45.115C83.1271 45.675 83.2521 46.195 83.5021 46.675C83.7621 47.155 84.1121 47.54 84.5521 47.83C84.9921 48.11 85.4871 48.25 86.0371 48.25C86.3771 48.25 86.7321 48.165 87.1021 47.995C87.4821 47.815 87.8121 47.58 88.0921 47.29C88.3821 47 88.5521 46.675 88.6021 46.315ZM103.031 45.85C103.031 46.51 102.851 47.09 102.491 47.59C102.141 48.08 101.671 48.46 101.081 48.73C100.491 49 99.8463 49.135 99.1463 49.135C98.4363 49.135 97.7863 48.995 97.1963 48.715C96.6163 48.425 96.1513 48.03 95.8013 47.53C95.4613 47.02 95.2913 46.435 95.2913 45.775C95.2913 45.375 95.3763 45.015 95.5463 44.695C95.7163 44.365 95.9263 44.085 96.1763 43.855C96.4363 43.625 96.6963 43.44 96.9563 43.3C96.5863 43.12 96.2713 42.85 96.0113 42.49C95.7513 42.13 95.6213 41.735 95.6213 41.305C95.6213 40.825 95.7263 40.405 95.9363 40.045C96.1463 39.675 96.4263 39.365 96.7763 39.115C97.1263 38.865 97.5063 38.675 97.9163 38.545C98.3363 38.415 98.7513 38.35 99.1613 38.35C99.5613 38.35 99.9713 38.415 100.391 38.545C100.811 38.665 101.196 38.85 101.546 39.1C101.896 39.35 102.176 39.66 102.386 40.03C102.606 40.39 102.716 40.81 102.716 41.29C102.716 41.72 102.581 42.12 102.311 42.49C102.041 42.86 101.716 43.13 101.336 43.3C101.776 43.52 102.166 43.85 102.506 44.29C102.856 44.72 103.031 45.24 103.031 45.85ZM97.6613 41.365C97.6613 41.635 97.7363 41.865 97.8863 42.055C98.0363 42.245 98.2263 42.39 98.4563 42.49C98.6863 42.58 98.9213 42.625 99.1613 42.625C99.3913 42.625 99.6213 42.58 99.8513 42.49C100.081 42.39 100.271 42.245 100.421 42.055C100.581 41.865 100.661 41.63 100.661 41.35C100.661 40.98 100.511 40.685 100.211 40.465C99.9113 40.245 99.5563 40.135 99.1463 40.135C98.7463 40.135 98.3963 40.25 98.0963 40.48C97.8063 40.7 97.6613 40.995 97.6613 41.365ZM100.991 45.73C100.991 45.39 100.901 45.105 100.721 44.875C100.541 44.635 100.311 44.455 100.031 44.335C99.7513 44.205 99.4563 44.14 99.1463 44.14C98.8263 44.14 98.5263 44.205 98.2463 44.335C97.9763 44.465 97.7563 44.65 97.5863 44.89C97.4163 45.13 97.3313 45.41 97.3313 45.73C97.3313 46.05 97.4213 46.33 97.6013 46.57C97.7813 46.8 98.0113 46.985 98.2913 47.125C98.5713 47.255 98.8613 47.32 99.1613 47.32C99.4813 47.32 99.7763 47.25 100.046 47.11C100.326 46.97 100.551 46.785 100.721 46.555C100.901 46.315 100.991 46.04 100.991 45.73ZM110.734 47.185V49H104.644V47.185H106.774V42.64C106.654 42.79 106.449 42.95 106.159 43.12C105.879 43.29 105.569 43.435 105.229 43.555C104.899 43.675 104.604 43.735 104.344 43.735V41.86C104.524 41.86 104.739 41.805 104.989 41.695C105.249 41.575 105.504 41.435 105.754 41.275C106.014 41.115 106.234 40.96 106.414 40.81C106.604 40.65 106.724 40.525 106.774 40.435H108.829V47.185H110.734ZM115.026 51.235C114.256 51.235 113.561 51.07 112.941 50.74C112.321 50.41 111.851 49.96 111.531 49.39L112.686 48.19C112.966 48.58 113.316 48.89 113.736 49.12C114.156 49.35 114.591 49.465 115.041 49.465C115.581 49.465 116.021 49.3 116.361 48.97C116.711 48.64 116.886 48.21 116.886 47.68C116.886 47.16 116.721 46.74 116.391 46.42C116.061 46.1 115.651 45.94 115.161 45.94C114.831 45.94 114.521 46.015 114.231 46.165C113.951 46.305 113.726 46.51 113.556 46.78H111.801L113.031 40.435H118.281V42.265H114.486L114.051 44.65C114.171 44.53 114.346 44.43 114.576 44.35C114.816 44.26 115.106 44.215 115.446 44.215C116.116 44.215 116.711 44.36 117.231 44.65C117.761 44.94 118.176 45.345 118.476 45.865C118.786 46.375 118.941 46.965 118.941 47.635C118.941 48.355 118.771 48.985 118.431 49.525C118.091 50.065 117.626 50.485 117.036 50.785C116.446 51.085 115.776 51.235 115.026 51.235ZM128.54 49.075C127.84 49.075 127.185 48.935 126.575 48.655C125.965 48.375 125.425 47.99 124.955 47.5C124.495 47 124.135 46.42 123.875 45.76C123.615 45.1 123.485 44.385 123.485 43.615C123.485 42.885 123.615 42.2 123.875 41.56C124.135 40.91 124.5 40.34 124.97 39.85C125.44 39.36 125.99 38.975 126.62 38.695C127.25 38.415 127.935 38.275 128.675 38.275C129.665 38.275 130.52 38.49 131.24 38.92C131.96 39.34 132.5 39.9 132.86 40.6L131.315 41.74C131.045 41.22 130.665 40.82 130.175 40.54C129.695 40.25 129.17 40.105 128.6 40.105C128 40.105 127.47 40.27 127.01 40.6C126.56 40.93 126.205 41.365 125.945 41.905C125.695 42.445 125.57 43.035 125.57 43.675C125.57 44.345 125.705 44.95 125.975 45.49C126.245 46.03 126.615 46.46 127.085 46.78C127.565 47.09 128.11 47.245 128.72 47.245C129.75 47.245 130.68 46.76 131.51 45.79V45.04H129.365V43.525H133.22V49H131.51V47.8C130.65 48.65 129.66 49.075 128.54 49.075ZM143.565 46.255C143.565 46.855 143.41 47.36 143.1 47.77C142.79 48.17 142.37 48.475 141.84 48.685C141.32 48.895 140.75 49 140.13 49H134.985V38.35H140.685C141.185 38.35 141.615 38.485 141.975 38.755C142.335 39.015 142.615 39.355 142.815 39.775C143.015 40.195 143.115 40.625 143.115 41.065C143.115 41.585 142.985 42.075 142.725 42.535C142.465 42.985 142.085 43.32 141.585 43.54C142.195 43.72 142.675 44.045 143.025 44.515C143.385 44.985 143.565 45.565 143.565 46.255ZM137.055 40.12V42.805H139.815C140.155 42.805 140.45 42.685 140.7 42.445C140.95 42.205 141.075 41.875 141.075 41.455C141.075 41.055 140.96 40.735 140.73 40.495C140.51 40.245 140.235 40.12 139.905 40.12H137.055ZM141.48 45.865C141.48 45.475 141.36 45.14 141.12 44.86C140.88 44.58 140.585 44.44 140.235 44.44H137.055V47.245H140.13C140.51 47.245 140.83 47.11 141.09 46.84C141.35 46.57 141.48 46.245 141.48 45.865ZM152.348 49.15C151.598 49.15 150.928 48.965 150.338 48.595C149.758 48.225 149.303 47.735 148.973 47.125C148.643 46.505 148.478 45.835 148.478 45.115C148.478 44.385 148.643 43.715 148.973 43.105C149.313 42.485 149.773 41.99 150.353 41.62C150.943 41.24 151.608 41.05 152.348 41.05C153.098 41.05 153.763 41.24 154.343 41.62C154.933 41.99 155.393 42.485 155.723 43.105C156.063 43.715 156.233 44.385 156.233 45.115C156.233 45.835 156.068 46.505 155.738 47.125C155.408 47.735 154.948 48.225 154.358 48.595C153.778 48.965 153.108 49.15 152.348 49.15ZM149.513 45.13C149.513 45.71 149.638 46.24 149.888 46.72C150.148 47.19 150.493 47.565 150.923 47.845C151.353 48.115 151.828 48.25 152.348 48.25C152.868 48.25 153.343 48.11 153.773 47.83C154.203 47.55 154.548 47.17 154.808 46.69C155.068 46.21 155.198 45.68 155.198 45.1C155.198 44.52 155.068 43.99 154.808 43.51C154.548 43.03 154.203 42.65 153.773 42.37C153.343 42.09 152.868 41.95 152.348 41.95C151.838 41.95 151.368 42.095 150.938 42.385C150.508 42.665 150.163 43.045 149.903 43.525C149.643 44.005 149.513 44.54 149.513 45.13ZM158.182 49V41.995H157.102V41.185H158.182V40.975C158.182 40.015 158.387 39.265 158.797 38.725C159.217 38.175 159.777 37.9 160.477 37.9C160.777 37.9 161.072 37.945 161.362 38.035C161.662 38.125 161.917 38.245 162.127 38.395L161.812 39.13C161.512 38.9 161.132 38.785 160.672 38.785C160.202 38.785 159.837 38.97 159.577 39.34C159.327 39.71 159.202 40.245 159.202 40.945V41.185H161.362V41.995H159.202V49H158.182ZM166.284 51.4C166.424 51.41 166.559 51.415 166.689 51.415C166.819 51.425 166.914 51.42 166.974 51.4C167.094 51.39 167.204 51.32 167.304 51.19C167.414 51.07 167.544 50.84 167.694 50.5C167.854 50.17 168.069 49.67 168.339 49L164.934 41.185H166.014L168.879 47.95L171.519 41.185H172.539L168.489 51.265C168.379 51.555 168.194 51.805 167.934 52.015C167.674 52.225 167.329 52.335 166.899 52.345C166.809 52.355 166.714 52.355 166.614 52.345C166.514 52.345 166.404 52.335 166.284 52.315V51.4ZM177.016 49.15C176.266 49.15 175.596 48.965 175.006 48.595C174.426 48.225 173.971 47.735 173.641 47.125C173.311 46.505 173.146 45.835 173.146 45.115C173.146 44.385 173.311 43.715 173.641 43.105C173.981 42.485 174.441 41.99 175.021 41.62C175.611 41.24 176.276 41.05 177.016 41.05C177.766 41.05 178.431 41.24 179.011 41.62C179.601 41.99 180.061 42.485 180.391 43.105C180.731 43.715 180.901 44.385 180.901 45.115C180.901 45.835 180.736 46.505 180.406 47.125C180.076 47.735 179.616 48.225 179.026 48.595C178.446 48.965 177.776 49.15 177.016 49.15ZM174.181 45.13C174.181 45.71 174.306 46.24 174.556 46.72C174.816 47.19 175.161 47.565 175.591 47.845C176.021 48.115 176.496 48.25 177.016 48.25C177.536 48.25 178.011 48.11 178.441 47.83C178.871 47.55 179.216 47.17 179.476 46.69C179.736 46.21 179.866 45.68 179.866 45.1C179.866 44.52 179.736 43.99 179.476 43.51C179.216 43.03 178.871 42.65 178.441 42.37C178.011 42.09 177.536 41.95 177.016 41.95C176.506 41.95 176.036 42.095 175.606 42.385C175.176 42.665 174.831 43.045 174.571 43.525C174.311 44.005 174.181 44.54 174.181 45.13ZM182.532 45.775V41.185H183.552V45.595C183.552 47.365 184.157 48.25 185.367 48.25C185.967 48.25 186.527 48.055 187.047 47.665C187.577 47.275 187.957 46.755 188.187 46.105V41.185H189.207V47.77C189.207 48.04 189.327 48.18 189.567 48.19V49C189.447 49.02 189.352 49.03 189.282 49.03C189.222 49.03 189.157 49.03 189.087 49.03C188.877 49.01 188.697 48.93 188.547 48.79C188.407 48.65 188.337 48.48 188.337 48.28L188.307 47.23C187.967 47.84 187.502 48.315 186.912 48.655C186.332 48.985 185.702 49.15 185.022 49.15C183.362 49.15 182.532 48.025 182.532 45.775ZM195.413 42.085C194.733 42.105 194.133 42.295 193.613 42.655C193.103 43.015 192.743 43.51 192.533 44.14V49H191.513V41.185H192.473V43.06C192.743 42.51 193.098 42.065 193.538 41.725C193.988 41.385 194.463 41.195 194.963 41.155C195.063 41.145 195.148 41.14 195.218 41.14C195.288 41.14 195.353 41.145 195.413 41.155V42.085ZM202.809 49.15C202.169 49.15 201.574 49.045 201.024 48.835C200.484 48.615 200.009 48.295 199.599 47.875L200.019 47.155C200.459 47.565 200.899 47.865 201.339 48.055C201.789 48.235 202.264 48.325 202.764 48.325C203.364 48.325 203.854 48.205 204.234 47.965C204.624 47.715 204.819 47.36 204.819 46.9C204.819 46.59 204.724 46.355 204.534 46.195C204.354 46.025 204.089 45.89 203.739 45.79C203.399 45.69 202.989 45.575 202.509 45.445C201.969 45.295 201.514 45.14 201.144 44.98C200.784 44.81 200.509 44.6 200.319 44.35C200.139 44.09 200.049 43.755 200.049 43.345C200.049 42.845 200.174 42.425 200.424 42.085C200.684 41.745 201.034 41.49 201.474 41.32C201.924 41.14 202.424 41.05 202.974 41.05C203.574 41.05 204.104 41.145 204.564 41.335C205.024 41.525 205.399 41.79 205.689 42.13L205.194 42.82C204.924 42.5 204.589 42.265 204.189 42.115C203.799 41.955 203.374 41.875 202.914 41.875C202.594 41.875 202.289 41.92 201.999 42.01C201.709 42.09 201.469 42.23 201.279 42.43C201.099 42.62 201.009 42.885 201.009 43.225C201.009 43.645 201.164 43.935 201.474 44.095C201.784 44.255 202.254 44.425 202.884 44.605C203.474 44.765 203.989 44.925 204.429 45.085C204.869 45.245 205.209 45.46 205.449 45.73C205.689 45.99 205.809 46.355 205.809 46.825C205.809 47.555 205.534 48.125 204.984 48.535C204.434 48.945 203.709 49.15 202.809 49.15ZM211.245 48.625C211.125 48.675 210.905 48.765 210.585 48.895C210.265 49.025 209.895 49.09 209.475 49.09C209.035 49.09 208.65 48.965 208.32 48.715C207.99 48.465 207.825 48.09 207.825 47.59V41.995H206.745V41.185H207.825V38.545H208.845V41.185H210.645V41.995H208.845V47.305C208.865 47.595 208.965 47.81 209.145 47.95C209.335 48.08 209.55 48.145 209.79 48.145C210.07 48.145 210.32 48.1 210.54 48.01C210.77 47.91 210.915 47.84 210.975 47.8L211.245 48.625ZM215.717 49.15C214.967 49.15 214.297 48.965 213.707 48.595C213.127 48.225 212.672 47.735 212.342 47.125C212.012 46.505 211.847 45.835 211.847 45.115C211.847 44.385 212.012 43.715 212.342 43.105C212.682 42.485 213.142 41.99 213.722 41.62C214.312 41.24 214.977 41.05 215.717 41.05C216.467 41.05 217.132 41.24 217.712 41.62C218.302 41.99 218.762 42.485 219.092 43.105C219.432 43.715 219.602 44.385 219.602 45.115C219.602 45.835 219.437 46.505 219.107 47.125C218.777 47.735 218.317 48.225 217.727 48.595C217.147 48.965 216.477 49.15 215.717 49.15ZM212.882 45.13C212.882 45.71 213.007 46.24 213.257 46.72C213.517 47.19 213.862 47.565 214.292 47.845C214.722 48.115 215.197 48.25 215.717 48.25C216.237 48.25 216.712 48.11 217.142 47.83C217.572 47.55 217.917 47.17 218.177 46.69C218.437 46.21 218.567 45.68 218.567 45.1C218.567 44.52 218.437 43.99 218.177 43.51C217.917 43.03 217.572 42.65 217.142 42.37C216.712 42.09 216.237 41.95 215.717 41.95C215.207 41.95 214.737 42.095 214.307 42.385C213.877 42.665 213.532 43.045 213.272 43.525C213.012 44.005 212.882 44.54 212.882 45.13ZM225.208 42.085C224.528 42.105 223.928 42.295 223.408 42.655C222.898 43.015 222.538 43.51 222.328 44.14V49H221.308V41.185H222.268V43.06C222.538 42.51 222.893 42.065 223.333 41.725C223.783 41.385 224.258 41.195 224.758 41.155C224.858 41.145 224.943 41.14 225.013 41.14C225.083 41.14 225.148 41.145 225.208 41.155V42.085ZM225.908 46.75C225.908 46.27 226.048 45.855 226.328 45.505C226.608 45.145 226.993 44.865 227.483 44.665C227.983 44.465 228.558 44.365 229.208 44.365C229.588 44.365 229.983 44.4 230.393 44.47C230.803 44.53 231.168 44.615 231.488 44.725V44.065C231.488 43.405 231.293 42.88 230.903 42.49C230.513 42.1 229.973 41.905 229.283 41.905C228.873 41.905 228.463 41.985 228.053 42.145C227.643 42.295 227.218 42.52 226.778 42.82L226.388 42.1C226.898 41.75 227.398 41.49 227.888 41.32C228.378 41.14 228.878 41.05 229.388 41.05C230.348 41.05 231.108 41.325 231.668 41.875C232.228 42.425 232.508 43.185 232.508 44.155V47.77C232.508 48.04 232.633 48.18 232.883 48.19V49C232.663 49.03 232.508 49.04 232.418 49.03C232.168 49.02 231.978 48.94 231.848 48.79C231.718 48.64 231.648 48.48 231.638 48.31L231.623 47.74C231.273 48.19 230.818 48.54 230.258 48.79C229.698 49.03 229.128 49.15 228.548 49.15C228.038 49.15 227.583 49.045 227.183 48.835C226.783 48.615 226.468 48.325 226.238 47.965C226.018 47.595 225.908 47.19 225.908 46.75ZM231.143 47.35C231.373 47.08 231.488 46.83 231.488 46.6V45.46C230.798 45.19 230.078 45.055 229.328 45.055C228.598 45.055 228.008 45.2 227.558 45.49C227.108 45.78 226.883 46.175 226.883 46.675C226.883 47.105 227.048 47.495 227.378 47.845C227.718 48.195 228.188 48.37 228.788 48.37C229.278 48.37 229.733 48.275 230.153 48.085C230.583 47.895 230.913 47.65 231.143 47.35ZM237.846 49.105C237.306 49.105 236.811 48.995 236.361 48.775C235.921 48.555 235.536 48.26 235.206 47.89C234.886 47.51 234.636 47.08 234.456 46.6C234.276 46.12 234.186 45.625 234.186 45.115C234.186 44.385 234.341 43.715 234.651 43.105C234.961 42.485 235.386 41.99 235.926 41.62C236.476 41.24 237.106 41.05 237.816 41.05C238.486 41.05 239.066 41.22 239.556 41.56C240.056 41.9 240.476 42.32 240.816 42.82V41.185H241.731V49.03C241.731 49.76 241.556 50.37 241.206 50.86C240.856 51.35 240.391 51.72 239.811 51.97C239.231 52.22 238.596 52.345 237.906 52.345C237.006 52.345 236.281 52.185 235.731 51.865C235.191 51.545 234.746 51.115 234.396 50.575L235.026 50.08C235.336 50.57 235.746 50.935 236.256 51.175C236.776 51.415 237.326 51.535 237.906 51.535C238.416 51.535 238.881 51.44 239.301 51.25C239.731 51.07 240.071 50.795 240.321 50.425C240.581 50.055 240.711 49.59 240.711 49.03V47.485C240.411 47.975 240.001 48.37 239.481 48.67C238.961 48.96 238.416 49.105 237.846 49.105ZM238.131 48.25C238.541 48.25 238.931 48.155 239.301 47.965C239.671 47.775 239.981 47.535 240.231 47.245C240.491 46.945 240.651 46.635 240.711 46.315V43.9C240.561 43.52 240.346 43.185 240.066 42.895C239.786 42.595 239.466 42.365 239.106 42.205C238.746 42.035 238.381 41.95 238.011 41.95C237.431 41.95 236.931 42.11 236.511 42.43C236.101 42.74 235.781 43.14 235.551 43.63C235.331 44.11 235.221 44.61 235.221 45.13C235.221 45.69 235.351 46.21 235.611 46.69C235.871 47.16 236.221 47.54 236.661 47.83C237.101 48.11 237.591 48.25 238.131 48.25ZM247.359 49.15C246.609 49.15 245.939 48.965 245.349 48.595C244.759 48.225 244.294 47.73 243.954 47.11C243.614 46.49 243.444 45.81 243.444 45.07C243.444 44.34 243.609 43.67 243.939 43.06C244.279 42.45 244.744 41.965 245.334 41.605C245.924 41.235 246.594 41.05 247.344 41.05C248.114 41.05 248.789 41.235 249.369 41.605C249.949 41.975 250.399 42.465 250.719 43.075C251.049 43.675 251.214 44.335 251.214 45.055C251.214 45.215 251.209 45.35 251.199 45.46H244.509C244.559 46.02 244.719 46.52 244.989 46.96C245.259 47.39 245.604 47.735 246.024 47.995C246.444 48.245 246.904 48.37 247.404 48.37C247.914 48.37 248.394 48.24 248.844 47.98C249.294 47.72 249.614 47.38 249.804 46.96L250.689 47.2C250.529 47.58 250.279 47.92 249.939 48.22C249.609 48.51 249.224 48.74 248.784 48.91C248.344 49.07 247.869 49.15 247.359 49.15ZM244.479 44.725H250.254C250.214 44.165 250.059 43.67 249.789 43.24C249.519 42.8 249.174 42.46 248.754 42.22C248.334 41.97 247.869 41.845 247.359 41.845C246.849 41.845 246.384 41.97 245.964 42.22C245.544 42.46 245.199 42.8 244.929 43.24C244.669 43.67 244.519 44.165 244.479 44.725Z" fill="white"/>
<rect x="18" y="70" width="225" height="20" rx="10" fill="#C4C4C4"/>
<rect x="22" y="73" width="173" height="14" rx="7" fill="url(#paint0_linear)"/>
<circle cx="188" cy="80" r="6" fill="white"/>
<path d="M30.5341 106.605C30.5341 107.485 30.3641 108.27 30.0241 108.96C29.6941 109.64 29.2341 110.175 28.6441 110.565C28.0641 110.955 27.4041 111.15 26.6641 111.15C25.9241 111.15 25.2591 110.955 24.6691 110.565C24.0891 110.175 23.6291 109.64 23.2891 108.96C22.9591 108.27 22.7941 107.485 22.7941 106.605C22.7941 105.725 22.9591 104.945 23.2891 104.265C23.6291 103.575 24.0891 103.035 24.6691 102.645C25.2591 102.245 25.9241 102.045 26.6641 102.045C27.4041 102.045 28.0641 102.245 28.6441 102.645C29.2341 103.035 29.6941 103.575 30.0241 104.265C30.3641 104.945 30.5341 105.725 30.5341 106.605ZM28.5091 106.605C28.5091 105.805 28.3341 105.155 27.9841 104.655C27.6441 104.145 27.2041 103.89 26.6641 103.89C26.1041 103.89 25.6541 104.145 25.3141 104.655C24.9741 105.155 24.8041 105.805 24.8041 106.605C24.8041 107.405 24.9741 108.055 25.3141 108.555C25.6541 109.055 26.1041 109.305 26.6641 109.305C27.2041 109.305 27.6441 109.055 27.9841 108.555C28.3341 108.055 28.5091 107.405 28.5091 106.605ZM40.4115 111.075C39.7115 111.075 39.0565 110.935 38.4465 110.655C37.8365 110.375 37.2965 109.99 36.8265 109.5C36.3665 109 36.0065 108.42 35.7465 107.76C35.4865 107.1 35.3565 106.385 35.3565 105.615C35.3565 104.885 35.4865 104.2 35.7465 103.56C36.0065 102.91 36.3715 102.34 36.8415 101.85C37.3115 101.36 37.8615 100.975 38.4915 100.695C39.1215 100.415 39.8065 100.275 40.5465 100.275C41.5365 100.275 42.3915 100.49 43.1115 100.92C43.8315 101.34 44.3715 101.9 44.7315 102.6L43.1865 103.74C42.9165 103.22 42.5365 102.82 42.0465 102.54C41.5665 102.25 41.0415 102.105 40.4715 102.105C39.8715 102.105 39.3415 102.27 38.8815 102.6C38.4315 102.93 38.0765 103.365 37.8165 103.905C37.5665 104.445 37.4415 105.035 37.4415 105.675C37.4415 106.345 37.5765 106.95 37.8465 107.49C38.1165 108.03 38.4865 108.46 38.9565 108.78C39.4365 109.09 39.9815 109.245 40.5915 109.245C41.6215 109.245 42.5515 108.76 43.3815 107.79V107.04H41.2365V105.525H45.0915V111H43.3815V109.8C42.5215 110.65 41.5315 111.075 40.4115 111.075ZM55.4356 108.255C55.4356 108.855 55.2806 109.36 54.9706 109.77C54.6606 110.17 54.2406 110.475 53.7106 110.685C53.1906 110.895 52.6206 111 52.0006 111H46.8556V100.35H52.5556C53.0556 100.35 53.4856 100.485 53.8456 100.755C54.2056 101.015 54.4856 101.355 54.6856 101.775C54.8856 102.195 54.9856 102.625 54.9856 103.065C54.9856 103.585 54.8556 104.075 54.5956 104.535C54.3356 104.985 53.9556 105.32 53.4556 105.54C54.0656 105.72 54.5456 106.045 54.8956 106.515C55.2556 106.985 55.4356 107.565 55.4356 108.255ZM48.9256 102.12V104.805H51.6856C52.0256 104.805 52.3206 104.685 52.5706 104.445C52.8206 104.205 52.9456 103.875 52.9456 103.455C52.9456 103.055 52.8306 102.735 52.6006 102.495C52.3806 102.245 52.1056 102.12 51.7756 102.12H48.9256ZM53.3506 107.865C53.3506 107.475 53.2306 107.14 52.9906 106.86C52.7506 106.58 52.4556 106.44 52.1056 106.44H48.9256V109.245H52.0006C52.3806 109.245 52.7006 109.11 52.9606 108.84C53.2206 108.57 53.3506 108.245 53.3506 107.865Z" fill="white"/>
<path d="M189.689 109.185V111H183.599V109.185H185.729V104.64C185.609 104.79 185.404 104.95 185.114 105.12C184.834 105.29 184.524 105.435 184.184 105.555C183.854 105.675 183.559 105.735 183.299 105.735V103.86C183.479 103.86 183.694 103.805 183.944 103.695C184.204 103.575 184.459 103.435 184.709 103.275C184.969 103.115 185.189 102.96 185.369 102.81C185.559 102.65 185.679 102.525 185.729 102.435H187.784V109.185H189.689ZM198.526 106.605C198.526 107.485 198.356 108.27 198.016 108.96C197.686 109.64 197.226 110.175 196.636 110.565C196.056 110.955 195.396 111.15 194.656 111.15C193.916 111.15 193.251 110.955 192.661 110.565C192.081 110.175 191.621 109.64 191.281 108.96C190.951 108.27 190.786 107.485 190.786 106.605C190.786 105.725 190.951 104.945 191.281 104.265C191.621 103.575 192.081 103.035 192.661 102.645C193.251 102.245 193.916 102.045 194.656 102.045C195.396 102.045 196.056 102.245 196.636 102.645C197.226 103.035 197.686 103.575 198.016 104.265C198.356 104.945 198.526 105.725 198.526 106.605ZM196.501 106.605C196.501 105.805 196.326 105.155 195.976 104.655C195.636 104.145 195.196 103.89 194.656 103.89C194.096 103.89 193.646 104.145 193.306 104.655C192.966 105.155 192.796 105.805 192.796 106.605C192.796 107.405 192.966 108.055 193.306 108.555C193.646 109.055 194.096 109.305 194.656 109.305C195.196 109.305 195.636 109.055 195.976 108.555C196.326 108.055 196.501 107.405 196.501 106.605ZM207.74 106.605C207.74 107.485 207.57 108.27 207.23 108.96C206.9 109.64 206.44 110.175 205.85 110.565C205.27 110.955 204.61 111.15 203.87 111.15C203.13 111.15 202.465 110.955 201.875 110.565C201.295 110.175 200.835 109.64 200.495 108.96C200.165 108.27 200 107.485 200 106.605C200 105.725 200.165 104.945 200.495 104.265C200.835 103.575 201.295 103.035 201.875 102.645C202.465 102.245 203.13 102.045 203.87 102.045C204.61 102.045 205.27 102.245 205.85 102.645C206.44 103.035 206.9 103.575 207.23 104.265C207.57 104.945 207.74 105.725 207.74 106.605ZM205.715 106.605C205.715 105.805 205.54 105.155 205.19 104.655C204.85 104.145 204.41 103.89 203.87 103.89C203.31 103.89 202.86 104.145 202.52 104.655C202.18 105.155 202.01 105.805 202.01 106.605C202.01 107.405 202.18 108.055 202.52 108.555C202.86 109.055 203.31 109.305 203.87 109.305C204.41 109.305 204.85 109.055 205.19 108.555C205.54 108.055 205.715 107.405 205.715 106.605ZM216.954 106.605C216.954 107.485 216.784 108.27 216.444 108.96C216.114 109.64 215.654 110.175 215.064 110.565C214.484 110.955 213.824 111.15 213.084 111.15C212.344 111.15 211.679 110.955 211.089 110.565C210.509 110.175 210.049 109.64 209.709 108.96C209.379 108.27 209.214 107.485 209.214 106.605C209.214 105.725 209.379 104.945 209.709 104.265C210.049 103.575 210.509 103.035 211.089 102.645C211.679 102.245 212.344 102.045 213.084 102.045C213.824 102.045 214.484 102.245 215.064 102.645C215.654 103.035 216.114 103.575 216.444 104.265C216.784 104.945 216.954 105.725 216.954 106.605ZM214.929 106.605C214.929 105.805 214.754 105.155 214.404 104.655C214.064 104.145 213.624 103.89 213.084 103.89C212.524 103.89 212.074 104.145 211.734 104.655C211.394 105.155 211.224 105.805 211.224 106.605C211.224 107.405 211.394 108.055 211.734 108.555C212.074 109.055 212.524 109.305 213.084 109.305C213.624 109.305 214.064 109.055 214.404 108.555C214.754 108.055 214.929 107.405 214.929 106.605ZM226.831 111.075C226.131 111.075 225.476 110.935 224.866 110.655C224.256 110.375 223.716 109.99 223.246 109.5C222.786 109 222.426 108.42 222.166 107.76C221.906 107.1 221.776 106.385 221.776 105.615C221.776 104.885 221.906 104.2 222.166 103.56C222.426 102.91 222.791 102.34 223.261 101.85C223.731 101.36 224.281 100.975 224.911 100.695C225.541 100.415 226.226 100.275 226.966 100.275C227.956 100.275 228.811 100.49 229.531 100.92C230.251 101.34 230.791 101.9 231.151 102.6L229.606 103.74C229.336 103.22 228.956 102.82 228.466 102.54C227.986 102.25 227.461 102.105 226.891 102.105C226.291 102.105 225.761 102.27 225.301 102.6C224.851 102.93 224.496 103.365 224.236 103.905C223.986 104.445 223.861 105.035 223.861 105.675C223.861 106.345 223.996 106.95 224.266 107.49C224.536 108.03 224.906 108.46 225.376 108.78C225.856 109.09 226.401 109.245 227.011 109.245C228.041 109.245 228.971 108.76 229.801 107.79V107.04H227.656V105.525H231.511V111H229.801V109.8C228.941 110.65 227.951 111.075 226.831 111.075ZM241.856 108.255C241.856 108.855 241.701 109.36 241.391 109.77C241.081 110.17 240.661 110.475 240.131 110.685C239.611 110.895 239.041 111 238.421 111H233.276V100.35H238.976C239.476 100.35 239.906 100.485 240.266 100.755C240.626 101.015 240.906 101.355 241.106 101.775C241.306 102.195 241.406 102.625 241.406 103.065C241.406 103.585 241.276 104.075 241.016 104.535C240.756 104.985 240.376 105.32 239.876 105.54C240.486 105.72 240.966 106.045 241.316 106.515C241.676 106.985 241.856 107.565 241.856 108.255ZM235.346 102.12V104.805H238.106C238.446 104.805 238.741 104.685 238.991 104.445C239.241 104.205 239.366 103.875 239.366 103.455C239.366 103.055 239.251 102.735 239.021 102.495C238.801 102.245 238.526 102.12 238.196 102.12H235.346ZM239.771 107.865C239.771 107.475 239.651 107.14 239.411 106.86C239.171 106.58 238.876 106.44 238.526 106.44H235.346V109.245H238.421C238.801 109.245 239.121 109.11 239.381 108.84C239.641 108.57 239.771 108.245 239.771 107.865Z" fill="white"/>
<rect x="69" y="131" width="123" height="52" rx="8" fill="white"/>
<path d="M90.8295 163.37V167H78.6495V163.37H82.9095V154.28C82.6695 154.58 82.2595 154.9 81.6795 155.24C81.1195 155.58 80.4995 155.87 79.8195 156.11C79.1595 156.35 78.5695 156.47 78.0495 156.47V152.72C78.4095 152.72 78.8395 152.61 79.3395 152.39C79.8595 152.15 80.3695 151.87 80.8695 151.55C81.3895 151.23 81.8295 150.92 82.1895 150.62C82.5695 150.3 82.8095 150.05 82.9095 149.87H87.0195V163.37H90.8295ZM108.354 160.7C108.354 162.02 107.994 163.18 107.274 164.18C106.574 165.16 105.634 165.92 104.454 166.46C103.274 167 101.984 167.27 100.584 167.27C99.1637 167.27 97.8637 166.99 96.6837 166.43C95.5237 165.85 94.5937 165.06 93.8937 164.06C93.2137 163.04 92.8737 161.87 92.8737 160.55C92.8737 159.75 93.0437 159.03 93.3837 158.39C93.7237 157.73 94.1437 157.17 94.6437 156.71C95.1637 156.25 95.6837 155.88 96.2037 155.6C95.4637 155.24 94.8337 154.7 94.3137 153.98C93.7937 153.26 93.5337 152.47 93.5337 151.61C93.5337 150.65 93.7437 149.81 94.1637 149.09C94.5837 148.35 95.1437 147.73 95.8437 147.23C96.5437 146.73 97.3037 146.35 98.1237 146.09C98.9637 145.83 99.7937 145.7 100.614 145.7C101.414 145.7 102.234 145.83 103.074 146.09C103.914 146.33 104.684 146.7 105.384 147.2C106.084 147.7 106.644 148.32 107.064 149.06C107.504 149.78 107.724 150.62 107.724 151.58C107.724 152.44 107.454 153.24 106.914 153.98C106.374 154.72 105.724 155.26 104.964 155.6C105.844 156.04 106.624 156.7 107.304 157.58C108.004 158.44 108.354 159.48 108.354 160.7ZM97.6137 151.73C97.6137 152.27 97.7637 152.73 98.0637 153.11C98.3637 153.49 98.7437 153.78 99.2037 153.98C99.6637 154.16 100.134 154.25 100.614 154.25C101.074 154.25 101.534 154.16 101.994 153.98C102.454 153.78 102.834 153.49 103.134 153.11C103.454 152.73 103.614 152.26 103.614 151.7C103.614 150.96 103.314 150.37 102.714 149.93C102.114 149.49 101.404 149.27 100.584 149.27C99.7837 149.27 99.0837 149.5 98.4837 149.96C97.9037 150.4 97.6137 150.99 97.6137 151.73ZM104.274 160.46C104.274 159.78 104.094 159.21 103.734 158.75C103.374 158.27 102.914 157.91 102.354 157.67C101.794 157.41 101.204 157.28 100.584 157.28C99.9437 157.28 99.3437 157.41 98.7837 157.67C98.2437 157.93 97.8037 158.3 97.4637 158.78C97.1237 159.26 96.9537 159.82 96.9537 160.46C96.9537 161.1 97.1337 161.66 97.4937 162.14C97.8537 162.6 98.3137 162.97 98.8737 163.25C99.4337 163.51 100.014 163.64 100.614 163.64C101.254 163.64 101.844 163.5 102.384 163.22C102.944 162.94 103.394 162.57 103.734 162.11C104.094 161.63 104.274 161.08 104.274 160.46ZM117.519 171.47C115.979 171.47 114.589 171.14 113.349 170.48C112.109 169.82 111.169 168.92 110.529 167.78L112.839 165.38C113.399 166.16 114.099 166.78 114.939 167.24C115.779 167.7 116.649 167.93 117.549 167.93C118.629 167.93 119.509 167.6 120.189 166.94C120.889 166.28 121.239 165.42 121.239 164.36C121.239 163.32 120.909 162.48 120.249 161.84C119.589 161.2 118.769 160.88 117.789 160.88C117.129 160.88 116.509 161.03 115.929 161.33C115.369 161.61 114.919 162.02 114.579 162.56H111.069L113.529 149.87H124.029V153.53H116.439L115.569 158.3C115.809 158.06 116.159 157.86 116.619 157.7C117.099 157.52 117.679 157.43 118.359 157.43C119.699 157.43 120.889 157.72 121.929 158.3C122.989 158.88 123.819 159.69 124.419 160.73C125.039 161.75 125.349 162.93 125.349 164.27C125.349 165.71 125.009 166.97 124.329 168.05C123.649 169.13 122.719 169.97 121.539 170.57C120.359 171.17 119.019 171.47 117.519 171.47Z" fill="black"/>
<path d="M137.793 161.06C137.233 161.06 136.709 160.948 136.221 160.724C135.733 160.5 135.301 160.192 134.925 159.8C134.557 159.4 134.269 158.936 134.061 158.408C133.853 157.88 133.749 157.308 133.749 156.692C133.749 156.108 133.853 155.56 134.061 155.048C134.269 154.528 134.561 154.072 134.937 153.68C135.313 153.288 135.753 152.98 136.257 152.756C136.761 152.532 137.309 152.42 137.901 152.42C138.693 152.42 139.377 152.592 139.953 152.936C140.529 153.272 140.961 153.72 141.249 154.28L140.013 155.192C139.797 154.776 139.493 154.456 139.101 154.232C138.717 154 138.297 153.884 137.841 153.884C137.361 153.884 136.937 154.016 136.569 154.28C136.209 154.544 135.925 154.892 135.717 155.324C135.517 155.756 135.417 156.228 135.417 156.74C135.417 157.276 135.525 157.76 135.741 158.192C135.957 158.624 136.253 158.968 136.629 159.224C137.013 159.472 137.449 159.596 137.937 159.596C138.761 159.596 139.505 159.208 140.169 158.432V157.832H138.453V156.62H141.537V161H140.169V160.04C139.481 160.72 138.689 161.06 137.793 161.06ZM149.813 158.804C149.813 159.284 149.689 159.688 149.441 160.016C149.193 160.336 148.857 160.58 148.433 160.748C148.017 160.916 147.561 161 147.065 161H142.949V152.48H147.509C147.909 152.48 148.253 152.588 148.541 152.804C148.829 153.012 149.053 153.284 149.213 153.62C149.373 153.956 149.453 154.3 149.453 154.652C149.453 155.068 149.349 155.46 149.141 155.828C148.933 156.188 148.629 156.456 148.229 156.632C148.717 156.776 149.101 157.036 149.381 157.412C149.669 157.788 149.813 158.252 149.813 158.804ZM144.605 153.896V156.044H146.813C147.085 156.044 147.321 155.948 147.521 155.756C147.721 155.564 147.821 155.3 147.821 154.964C147.821 154.644 147.729 154.388 147.545 154.196C147.369 153.996 147.149 153.896 146.885 153.896H144.605ZM148.145 158.492C148.145 158.18 148.049 157.912 147.857 157.688C147.665 157.464 147.429 157.352 147.149 157.352H144.605V159.596H147.065C147.369 159.596 147.625 159.488 147.833 159.272C148.041 159.056 148.145 158.796 148.145 158.492ZM153.988 161V152.48H155.644V159.548H159.988V161H153.988ZM166.911 159.548V161H160.995V152.48H166.803V153.932H162.651V155.984H166.239V157.328H162.651V159.548H166.911ZM168.202 161V152.48H173.926V153.932H169.858V156.128H173.242V157.472H169.858V161H168.202ZM181.465 153.932H178.741V161H177.097V153.932H174.373V152.48H181.465V153.932Z" fill="#848798"/>
<defs>
<linearGradient id="paint0_linear" x1="22" y1="80" x2="195" y2="80" gradientUnits="userSpaceOnUse">
<stop stop-color="#FFA399"/>
<stop offset="1" stop-color="#FF4D97"/>
</linearGradient>
</defs>
</svg>
