<svg width="260" height="205" viewBox="0 0 260 205" fill="none" xmlns="http://www.w3.org/2000/svg">
<rect width="260" height="205" rx="10" fill="#674BB1"/>
<g clip-path="url(#clip0)">
<g clip-path="url(#clip1)">
<path fill-rule="evenodd" clip-rule="evenodd" d="M164.05 0H83.6332L1.05892e-05 95.88V135.872L164.05 0Z" fill="url(#paint0_linear)"/>
<path fill-rule="evenodd" clip-rule="evenodd" d="M207.77 204.255L81.777 204.22L2.02831e-05 126.149V93.585L207.77 204.255Z" fill="url(#paint1_linear)"/>
<path d="M138.343 156.06C143.661 156.06 147.972 150.466 147.972 143.565C147.972 136.664 143.661 131.07 138.343 131.07C133.025 131.07 128.714 136.664 128.714 143.565C128.714 150.466 133.025 156.06 138.343 156.06Z" stroke="url(#paint2_linear)" stroke-width="17"/>
<path opacity="0.558" d="M222.571 180.221L218.124 174.451C217.894 174.152 217.521 174.152 217.29 174.451L212.844 180.221C212.614 180.52 212.614 181.004 212.844 181.303L217.29 187.073C217.521 187.372 217.894 187.372 218.124 187.073L222.571 181.303C222.801 181.004 222.801 180.52 222.571 180.221Z" fill="url(#paint3_linear)"/>
<path opacity="0.503" d="M258.818 25.8766L251.87 16.8609C251.64 16.5622 251.267 16.5622 251.037 16.8609L244.089 25.8766C243.859 26.1753 243.859 26.6597 244.089 26.9584L251.037 35.974C251.267 36.2728 251.64 36.2728 251.87 35.974L258.818 26.9584C259.048 26.6597 259.048 26.1753 258.818 25.8766Z" fill="url(#paint4_linear)"/>
<path opacity="0.558" d="M187.693 15.684L184.08 10.9958C183.85 10.6971 183.477 10.6971 183.247 10.9958L179.634 15.684C179.404 15.9827 179.404 16.4671 179.634 16.7658L183.247 21.4539C183.477 21.7527 183.85 21.7527 184.08 21.4539L187.693 16.7658C187.923 16.4671 187.923 15.9827 187.693 15.684Z" fill="url(#paint5_linear)"/>
<path opacity="0.558" d="M142.299 47.049L138.686 42.3608C138.456 42.0621 138.083 42.0621 137.853 42.3608L134.24 47.049C134.01 47.3477 134.01 47.8321 134.24 48.1308L137.853 52.8189C138.083 53.1177 138.456 53.1177 138.686 52.8189L142.299 48.1308C142.529 47.8321 142.529 47.3477 142.299 47.049Z" fill="url(#paint6_linear)"/>
<path opacity="0.387" d="M245.31 154.355L243.226 151.65C243.149 151.551 243.024 151.551 242.948 151.65L240.863 154.355C240.787 154.455 240.787 154.616 240.863 154.716L242.948 157.42C243.024 157.52 243.149 157.52 243.226 157.42L245.31 154.716C245.387 154.616 245.387 154.455 245.31 154.355Z" fill="url(#paint7_linear)"/>
<path opacity="0.211" fill-rule="evenodd" clip-rule="evenodd" d="M18.9587 188.039L21.2515 185.063C21.4357 184.824 21.6857 184.69 21.9462 184.69C22.2068 184.69 22.4567 184.824 22.641 185.063C22.8253 185.302 22.9288 185.627 22.9288 185.965C22.9288 186.303 22.8253 186.627 22.641 186.866L20.3483 189.842L22.641 192.817C22.8253 193.056 22.9288 193.38 22.9288 193.718C22.9288 194.056 22.8253 194.381 22.641 194.62C22.4567 194.859 22.2068 194.993 21.9462 194.993C21.6857 194.993 21.4357 194.859 21.2515 194.62L18.9587 191.645L16.666 194.62C16.4817 194.859 16.2318 194.993 15.9712 194.993C15.7107 194.993 15.4607 194.859 15.2765 194.62C15.0922 194.381 14.9887 194.056 14.9887 193.718C14.9887 193.38 15.0922 193.056 15.2765 192.817L17.5692 189.842L15.2765 186.866C15.0922 186.627 14.9887 186.303 14.9887 185.965C14.9887 185.627 15.0922 185.302 15.2765 185.063C15.4607 184.824 15.7107 184.69 15.9712 184.69C16.2318 184.69 16.4817 184.824 16.666 185.063L18.9587 188.039Z" fill="url(#paint8_linear)"/>
</g>
<g filter="url(#filter0_d)">
<path d="M237.789 2.83597H7.56215C4.79795 2.83597 2.55713 5.32114 2.55713 8.38677V163.729C2.55713 166.795 4.79795 169.28 7.56215 169.28H237.789C240.554 169.28 242.794 166.795 242.794 163.729V8.38677C242.794 5.32114 240.554 2.83597 237.789 2.83597Z" fill="black"/>
</g>
<path d="M237.789 2.83597H7.56215C4.79795 2.83597 2.55713 5.32114 2.55713 8.38677V163.729C2.55713 166.795 4.79795 169.28 7.56215 169.28H237.789C240.554 169.28 242.794 166.795 242.794 163.729V8.38677C242.794 5.32114 240.554 2.83597 237.789 2.83597Z" fill="white"/>
<g filter="url(#filter1_d)">
<path d="M7.56178 2.83597H237.789C240.554 2.83597 242.794 5.32108 242.794 8.38636V20.5899H2.55713V8.38677C2.55713 5.32108 4.7979 2.83597 7.56178 2.83597Z" fill="black"/>
</g>
<path d="M7.56178 2.83597H237.789C240.554 2.83597 242.794 5.32108 242.794 8.38636V20.5899H2.55713V8.38677C2.55713 5.32108 4.7979 2.83597 7.56178 2.83597Z" fill="#00252E"/>
<path d="M69.3732 8.38393H21.8261C21.1351 8.38393 20.575 9.00518 20.575 9.77153V13.654C20.575 14.4203 21.1351 15.0416 21.8261 15.0416H69.3732C70.0642 15.0416 70.6244 14.4203 70.6244 13.654V9.77153C70.6244 9.00518 70.0642 8.38393 69.3732 8.38393Z" fill="#E1E8EE"/>
<path d="M226.278 8.93897H219.271C218.995 8.93897 218.771 9.18729 218.771 9.49361V9.49401C218.771 9.80033 218.995 10.0486 219.271 10.0486H226.278C226.555 10.0486 226.778 9.80033 226.778 9.49401V9.49361C226.778 9.18729 226.555 8.93897 226.278 8.93897Z" fill="#D8D8D8"/>
<path d="M226.278 11.1583H219.271C218.995 11.1583 218.771 11.4066 218.771 11.713V11.7134C218.771 12.0197 218.995 12.268 219.271 12.268H226.278C226.555 12.268 226.778 12.0197 226.778 11.7134V11.713C226.778 11.4066 226.555 11.1583 226.278 11.1583Z" fill="#D8D8D8"/>
<path d="M226.278 13.3777H219.271C218.995 13.3777 218.771 13.626 218.771 13.9323V13.9327C218.771 14.239 218.995 14.4873 219.271 14.4873H226.278C226.555 14.4873 226.778 14.239 226.778 13.9327V13.9323C226.778 13.626 226.555 13.3777 226.278 13.3777Z" fill="#D8D8D8"/>
<path d="M32.5869 67.7497C39.2208 67.7497 44.5988 61.788 44.5988 54.434C44.5988 47.0799 39.2208 41.1183 32.5869 41.1183C25.9529 41.1183 20.575 47.0799 20.575 54.434C20.575 61.788 25.9529 67.7497 32.5869 67.7497Z" fill="url(#paint9_linear)"/>
<path d="M86.6404 44.4473H59.3632C58.9486 44.4473 58.6125 44.8201 58.6125 45.2799V48.0535C58.6125 48.5133 58.9486 48.886 59.3632 48.886H86.6404C87.055 48.886 87.3911 48.5133 87.3911 48.0535V45.2799C87.3911 44.8201 87.055 44.4473 86.6404 44.4473Z" fill="#E1E8EE"/>
<path d="M157.961 53.3243H59.3632C58.9486 53.3243 58.6125 53.6971 58.6125 54.1569V54.7111C58.6125 55.1709 58.9486 55.5437 59.3632 55.5437H157.961C158.375 55.5437 158.712 55.1709 158.712 54.7111V54.1569C158.712 53.6971 158.375 53.3243 157.961 53.3243Z" fill="#E1E8EE"/>
<path d="M149.619 57.763H59.3632C58.9486 57.763 58.6125 58.1358 58.6125 58.5956V59.1498C58.6125 59.6096 58.9486 59.9824 59.3632 59.9824H149.619C150.034 59.9824 150.37 59.6096 150.37 59.1498V58.5956C150.37 58.1358 150.034 57.763 149.619 57.763Z" fill="#E1E8EE"/>
<path d="M141.277 62.2013H59.3632C58.9486 62.2013 58.6125 62.574 58.6125 63.0338V63.5881C58.6125 64.0479 58.9486 64.4206 59.3632 64.4206H141.277C141.692 64.4206 142.028 64.0479 142.028 63.5881V63.0338C142.028 62.574 141.692 62.2013 141.277 62.2013Z" fill="#E1E8EE"/>
<path d="M173.726 57.763C175.384 57.763 176.729 56.2726 176.729 54.434C176.729 52.5954 175.384 51.105 173.726 51.105C172.068 51.105 170.723 52.5954 170.723 54.434C170.723 56.2726 172.068 57.763 173.726 57.763Z" fill="#A7B9C8"/>
<path d="M189.742 57.763C191.4 57.763 192.745 56.2726 192.745 54.434C192.745 52.5954 191.4 51.105 189.742 51.105C188.084 51.105 186.739 52.5954 186.739 54.434C186.739 56.2726 188.084 57.763 189.742 57.763Z" fill="#A7B9C8"/>
<path d="M181.734 57.763C183.393 57.763 184.737 56.2726 184.737 54.434C184.737 52.5954 183.393 51.105 181.734 51.105C180.076 51.105 178.731 52.5954 178.731 54.434C178.731 56.2726 180.076 57.763 181.734 57.763Z" fill="#A7B9C8"/>
<path d="M197.75 57.763C199.408 57.763 200.753 56.2726 200.753 54.434C200.753 52.5954 199.408 51.105 197.75 51.105C196.091 51.105 194.747 52.5954 194.747 54.434C194.747 56.2726 196.091 57.763 197.75 57.763Z" fill="#A7B9C8"/>
<path d="M205.758 57.763C207.416 57.763 208.761 56.2726 208.761 54.434C208.761 52.5954 207.416 51.105 205.758 51.105C204.1 51.105 202.755 52.5954 202.755 54.434C202.755 56.2726 204.1 57.763 205.758 57.763Z" fill="#A7B9C8"/>
<path d="M31.8362 103.813C38.0555 103.813 43.0973 98.2236 43.0973 91.3291C43.0973 84.4347 38.0555 78.8456 31.8362 78.8456C25.6168 78.8456 20.575 84.4347 20.575 91.3291C20.575 98.2236 25.6168 103.813 31.8362 103.813Z" fill="url(#paint10_linear)"/>
<path d="M85.8895 81.3421H58.6123C58.1977 81.3421 57.8616 81.7148 57.8616 82.1746V84.9482C57.8616 85.408 58.1977 85.7807 58.6123 85.7807H85.8895C86.3041 85.7807 86.6402 85.408 86.6402 84.9482V82.1746C86.6402 81.7148 86.3041 81.3421 85.8895 81.3421Z" fill="#E1E8EE"/>
<path d="M157.21 90.219H58.6123C58.1977 90.219 57.8616 90.5918 57.8616 91.0516V91.6058C57.8616 92.0656 58.1977 92.4384 58.6123 92.4384H157.21C157.624 92.4384 157.96 92.0656 157.96 91.6058V91.0516C157.96 90.5918 157.624 90.219 157.21 90.219Z" fill="#E1E8EE"/>
<path d="M148.868 94.6577H58.6123C58.1977 94.6577 57.8616 95.0305 57.8616 95.4903V96.0445C57.8616 96.5043 58.1977 96.8771 58.6123 96.8771H148.868C149.283 96.8771 149.619 96.5043 149.619 96.0445V95.4903C149.619 95.0305 149.283 94.6577 148.868 94.6577Z" fill="#E1E8EE"/>
<path d="M140.526 99.096H58.6123C58.1977 99.096 57.8616 99.4688 57.8616 99.9286V100.483C57.8616 100.943 58.1977 101.315 58.6123 101.315H140.526C140.941 101.315 141.277 100.943 141.277 100.483V99.9286C141.277 99.4688 140.941 99.096 140.526 99.096Z" fill="#E1E8EE"/>
<path d="M172.975 94.6581C174.634 94.6581 175.978 93.1677 175.978 91.3291C175.978 89.4906 174.634 88.0001 172.975 88.0001C171.317 88.0001 169.973 89.4906 169.973 91.3291C169.973 93.1677 171.317 94.6581 172.975 94.6581Z" fill="#A7B9C8"/>
<path d="M188.991 94.6581C190.65 94.6581 191.994 93.1677 191.994 91.3291C191.994 89.4906 190.65 88.0001 188.991 88.0001C187.333 88.0001 185.989 89.4906 185.989 91.3291C185.989 93.1677 187.333 94.6581 188.991 94.6581Z" fill="#A7B9C8"/>
<path d="M180.984 94.6581C182.642 94.6581 183.986 93.1677 183.986 91.3291C183.986 89.4906 182.642 88.0001 180.984 88.0001C179.325 88.0001 177.981 89.4906 177.981 91.3291C177.981 93.1677 179.325 94.6581 180.984 94.6581Z" fill="#A7B9C8"/>
<path d="M31.8362 143.482C38.0555 143.482 43.0973 137.893 43.0973 130.999C43.0973 124.104 38.0555 118.515 31.8362 118.515C25.6168 118.515 20.575 124.104 20.575 130.999C20.575 137.893 25.6168 143.482 31.8362 143.482Z" fill="url(#paint11_linear)"/>
<path d="M85.8895 121.012H58.6123C58.1977 121.012 57.8616 121.384 57.8616 121.844V124.618C57.8616 125.078 58.1977 125.45 58.6123 125.45H85.8895C86.3041 125.45 86.6402 125.078 86.6402 124.618V121.844C86.6402 121.384 86.3041 121.012 85.8895 121.012Z" fill="#E1E8EE"/>
<path d="M157.21 129.889H58.6123C58.1977 129.889 57.8616 130.261 57.8616 130.721V131.275C57.8616 131.735 58.1977 132.108 58.6123 132.108H157.21C157.624 132.108 157.96 131.735 157.96 131.275V130.721C157.96 130.261 157.624 129.889 157.21 129.889Z" fill="#E1E8EE"/>
<path d="M148.868 134.327H58.6123C58.1977 134.327 57.8616 134.7 57.8616 135.16V135.714C57.8616 136.174 58.1977 136.547 58.6123 136.547H148.868C149.283 136.547 149.619 136.174 149.619 135.714V135.16C149.619 134.7 149.283 134.327 148.868 134.327Z" fill="#E1E8EE"/>
<path d="M140.526 138.766H58.6123C58.1977 138.766 57.8616 139.138 57.8616 139.598V140.152C57.8616 140.612 58.1977 140.985 58.6123 140.985H140.526C140.941 140.985 141.277 140.612 141.277 140.152V139.598C141.277 139.138 140.941 138.766 140.526 138.766Z" fill="#E1E8EE"/>
<path d="M172.975 134.328C174.634 134.328 175.978 132.837 175.978 130.999C175.978 129.16 174.634 127.67 172.975 127.67C171.317 127.67 169.973 129.16 169.973 130.999C169.973 132.837 171.317 134.328 172.975 134.328Z" fill="#A7B9C8"/>
<path d="M188.991 134.328C190.65 134.328 191.994 132.837 191.994 130.999C191.994 129.16 190.65 127.67 188.991 127.67C187.333 127.67 185.989 129.16 185.989 130.999C185.989 132.837 187.333 134.328 188.991 134.328Z" fill="#A7B9C8"/>
<path d="M180.984 134.328C182.642 134.328 183.986 132.837 183.986 130.999C183.986 129.16 182.642 127.67 180.984 127.67C179.325 127.67 177.981 129.16 177.981 130.999C177.981 132.837 179.325 134.328 180.984 134.328Z" fill="#A7B9C8"/>
<path d="M196.999 134.328C198.658 134.328 200.002 132.837 200.002 130.999C200.002 129.16 198.658 127.67 196.999 127.67C195.341 127.67 193.996 129.16 193.996 130.999C193.996 132.837 195.341 134.328 196.999 134.328Z" fill="#A7B9C8"/>
<g filter="url(#filter2_d)">
<path d="M181 60.5366H252.537C254.896 60.5366 256.808 62.6571 256.808 65.2731V197.832C256.808 200.448 254.896 202.569 252.537 202.569H181C178.641 202.569 176.729 200.448 176.729 197.832V65.2731C176.729 62.6571 178.641 60.5366 181 60.5366Z" fill="black"/>
</g>
<path d="M181 60.5366H252.537C254.896 60.5366 256.808 62.6571 256.808 65.2731V197.832C256.808 200.448 254.896 202.569 252.537 202.569H181C178.641 202.569 176.729 200.448 176.729 197.832V65.2731C176.729 62.6571 178.641 60.5366 181 60.5366Z" fill="white"/>
<g filter="url(#filter3_d)">
<path d="M181 60.5366H252.537C254.896 60.5366 256.808 62.6571 256.808 65.2731V75.6867H176.729V65.2731C176.729 62.6571 178.641 60.5366 181 60.5366Z" fill="black"/>
</g>
<path d="M181 60.5366H252.537C254.896 60.5366 256.808 62.6571 256.808 65.2731V75.6867H176.729V65.2731C176.729 62.6571 178.641 60.5366 181 60.5366Z" fill="#00252E"/>
<path d="M209.728 65.7446H185.838C185.248 65.7446 184.77 66.2748 184.77 66.9289V70.2417C184.77 70.8957 185.248 71.4259 185.838 71.4259H209.728C210.318 71.4259 210.796 70.8957 210.796 70.2417V66.9289C210.796 66.2748 210.318 65.7446 209.728 65.7446Z" fill="#E1E8EE"/>
<path d="M247.839 66.2182H241.86C241.624 66.2182 241.433 66.4302 241.433 66.6916C241.433 66.9531 241.624 67.165 241.86 67.165H247.839C248.075 67.165 248.266 66.9531 248.266 66.6916C248.266 66.4302 248.075 66.2182 247.839 66.2182Z" fill="#D8D8D8"/>
<path d="M247.839 68.1118H241.86C241.624 68.1118 241.433 68.3238 241.433 68.5853C241.433 68.8467 241.624 69.0587 241.86 69.0587H247.839C248.075 69.0587 248.266 68.8467 248.266 68.5853C248.266 68.3238 248.075 68.1118 247.839 68.1118Z" fill="#D8D8D8"/>
<path d="M247.839 70.0059H241.86C241.624 70.0059 241.433 70.2178 241.433 70.4793C241.433 70.7407 241.624 70.9527 241.86 70.9527H247.839C248.075 70.9527 248.266 70.7407 248.266 70.4793C248.266 70.2178 248.075 70.0059 247.839 70.0059Z" fill="#D8D8D8"/>
<path d="M188.491 98.8189C190.564 98.8189 192.245 96.9559 192.245 94.6577C192.245 92.3596 190.564 90.4966 188.491 90.4966C186.418 90.4966 184.737 92.3596 184.737 94.6577C184.737 96.9559 186.418 98.8189 188.491 98.8189Z" fill="url(#paint12_linear)"/>
<path d="M210.408 91.3287H196.479C196.352 91.3287 196.249 91.443 196.249 91.584V92.553C196.249 92.694 196.352 92.8083 196.479 92.8083H210.408C210.535 92.8083 210.638 92.694 210.638 92.553V91.584C210.638 91.443 210.535 91.3287 210.408 91.3287Z" fill="#E1E8EE"/>
<path d="M246.068 94.2878H196.479C196.352 94.2878 196.249 94.4021 196.249 94.5431V94.7724C196.249 94.9134 196.352 95.0276 196.479 95.0276H246.068C246.195 95.0276 246.298 94.9134 246.298 94.7724V94.5431C246.298 94.4021 246.195 94.2878 246.068 94.2878Z" fill="#E1E8EE"/>
<path d="M241.897 95.7674H196.479C196.352 95.7674 196.249 95.8817 196.249 96.0226V96.252C196.249 96.3929 196.352 96.5072 196.479 96.5072H241.897C242.024 96.5072 242.127 96.3929 242.127 96.252V96.0226C242.127 95.8817 242.024 95.7674 241.897 95.7674Z" fill="#E1E8EE"/>
<path d="M237.726 97.2466H196.479C196.352 97.2466 196.249 97.3608 196.249 97.5018V97.7311C196.249 97.8721 196.352 97.9863 196.479 97.9863H237.726C237.853 97.9863 237.956 97.8721 237.956 97.7311V97.5018C237.956 97.3608 237.853 97.2466 237.726 97.2466Z" fill="#E1E8EE"/>
<path d="M188.491 137.101C190.564 137.101 192.245 135.238 192.245 132.94C192.245 130.642 190.564 128.779 188.491 128.779C186.418 128.779 184.737 130.642 184.737 132.94C184.737 135.238 186.418 137.101 188.491 137.101Z" fill="url(#paint13_linear)"/>
<path d="M210.408 129.611H196.479C196.352 129.611 196.249 129.725 196.249 129.866V130.835C196.249 130.976 196.352 131.091 196.479 131.091H210.408C210.535 131.091 210.638 130.976 210.638 130.835V129.866C210.638 129.725 210.535 129.611 210.408 129.611Z" fill="#E1E8EE"/>
<path d="M246.068 132.57H196.479C196.352 132.57 196.249 132.684 196.249 132.825V133.055C196.249 133.196 196.352 133.31 196.479 133.31H246.068C246.195 133.31 246.298 133.196 246.298 133.055V132.825C246.298 132.684 246.195 132.57 246.068 132.57Z" fill="#E1E8EE"/>
<path d="M241.897 134.05H196.479C196.352 134.05 196.249 134.164 196.249 134.305V134.534C196.249 134.675 196.352 134.79 196.479 134.79H241.897C242.024 134.79 242.127 134.675 242.127 134.534V134.305C242.127 134.164 242.024 134.05 241.897 134.05Z" fill="#E1E8EE"/>
<path d="M237.726 135.529H196.479C196.352 135.529 196.249 135.643 196.249 135.784V136.013C196.249 136.154 196.352 136.269 196.479 136.269H237.726C237.853 136.269 237.956 136.154 237.956 136.013V135.784C237.956 135.643 237.853 135.529 237.726 135.529Z" fill="#E1E8EE"/>
<path d="M210.408 104.09H196.479C196.352 104.09 196.249 104.204 196.249 104.345V105.314C196.249 105.455 196.352 105.569 196.479 105.569H210.408C210.535 105.569 210.638 105.455 210.638 105.314V104.345C210.638 104.204 210.535 104.09 210.408 104.09Z" fill="#E1E8EE"/>
<path d="M246.068 107.049H196.479C196.352 107.049 196.249 107.163 196.249 107.304V107.533C196.249 107.674 196.352 107.789 196.479 107.789H246.068C246.195 107.789 246.298 107.674 246.298 107.533V107.304C246.298 107.163 246.195 107.049 246.068 107.049Z" fill="#E1E8EE"/>
<path d="M241.897 108.528H196.479C196.352 108.528 196.249 108.643 196.249 108.784V109.013C196.249 109.154 196.352 109.268 196.479 109.268H241.897C242.024 109.268 242.127 109.154 242.127 109.013V108.784C242.127 108.643 242.024 108.528 241.897 108.528Z" fill="#E1E8EE"/>
<path d="M237.726 110.008H196.479C196.352 110.008 196.249 110.122 196.249 110.263V110.492C196.249 110.633 196.352 110.747 196.479 110.747H237.726C237.853 110.747 237.956 110.633 237.956 110.492V110.263C237.956 110.122 237.853 110.008 237.726 110.008Z" fill="#E1E8EE"/>
<path d="M188.491 111.58C190.564 111.58 192.245 109.717 192.245 107.419C192.245 105.121 190.564 103.258 188.491 103.258C186.418 103.258 184.737 105.121 184.737 107.419C184.737 109.717 186.418 111.58 188.491 111.58Z" fill="url(#paint14_linear)"/>
<path d="M210.408 142.372H196.479C196.352 142.372 196.249 142.486 196.249 142.627V143.596C196.249 143.737 196.352 143.851 196.479 143.851H210.408C210.535 143.851 210.638 143.737 210.638 143.596V142.627C210.638 142.486 210.535 142.372 210.408 142.372Z" fill="#E1E8EE"/>
<path d="M246.068 145.331H196.479C196.352 145.331 196.249 145.445 196.249 145.586V145.815C196.249 145.956 196.352 146.071 196.479 146.071H246.068C246.195 146.071 246.298 145.956 246.298 145.815V145.586C246.298 145.445 246.195 145.331 246.068 145.331Z" fill="#E1E8EE"/>
<path d="M241.897 146.81H196.479C196.352 146.81 196.249 146.925 196.249 147.066V147.295C196.249 147.436 196.352 147.55 196.479 147.55H241.897C242.024 147.55 242.127 147.436 242.127 147.295V147.066C242.127 146.925 242.024 146.81 241.897 146.81Z" fill="#E1E8EE"/>
<path d="M237.726 148.29H196.479C196.352 148.29 196.249 148.404 196.249 148.545V148.774C196.249 148.915 196.352 149.029 196.479 149.029H237.726C237.853 149.029 237.956 148.915 237.956 148.774V148.545C237.956 148.404 237.853 148.29 237.726 148.29Z" fill="#E1E8EE"/>
<path d="M188.491 149.862C190.564 149.862 192.245 147.999 192.245 145.701C192.245 143.403 190.564 141.54 188.491 141.54C186.418 141.54 184.737 143.403 184.737 145.701C184.737 147.999 186.418 149.862 188.491 149.862Z" fill="url(#paint15_linear)"/>
<path d="M210.408 116.85H196.479C196.352 116.85 196.249 116.965 196.249 117.106V118.075C196.249 118.216 196.352 118.33 196.479 118.33H210.408C210.535 118.33 210.638 118.216 210.638 118.075V117.106C210.638 116.965 210.535 116.85 210.408 116.85Z" fill="#E1E8EE"/>
<path d="M246.068 119.81H196.479C196.352 119.81 196.249 119.924 196.249 120.065V120.294C196.249 120.435 196.352 120.549 196.479 120.549H246.068C246.195 120.549 246.298 120.435 246.298 120.294V120.065C246.298 119.924 246.195 119.81 246.068 119.81Z" fill="#E1E8EE"/>
<path d="M241.897 121.289H196.479C196.352 121.289 196.249 121.403 196.249 121.544V121.774C196.249 121.915 196.352 122.029 196.479 122.029H241.897C242.024 122.029 242.127 121.915 242.127 121.774V121.544C242.127 121.403 242.024 121.289 241.897 121.289Z" fill="#E1E8EE"/>
<path d="M237.726 122.768H196.479C196.352 122.768 196.249 122.883 196.249 123.024V123.253C196.249 123.394 196.352 123.508 196.479 123.508H237.726C237.853 123.508 237.956 123.394 237.956 123.253V123.024C237.956 122.883 237.853 122.768 237.726 122.768Z" fill="#E1E8EE"/>
<path d="M188.491 124.341C190.564 124.341 192.245 122.478 192.245 120.179C192.245 117.881 190.564 116.018 188.491 116.018C186.418 116.018 184.737 117.881 184.737 120.179C184.737 122.478 186.418 124.341 188.491 124.341Z" fill="url(#paint16_linear)"/>
<path d="M210.408 155.132H196.479C196.352 155.132 196.249 155.247 196.249 155.388V156.357C196.249 156.498 196.352 156.612 196.479 156.612H210.408C210.535 156.612 210.638 156.498 210.638 156.357V155.388C210.638 155.247 210.535 155.132 210.408 155.132Z" fill="#E1E8EE"/>
<path d="M246.068 158.091H196.479C196.352 158.091 196.249 158.206 196.249 158.347V158.576C196.249 158.717 196.352 158.831 196.479 158.831H246.068C246.195 158.831 246.298 158.717 246.298 158.576V158.347C246.298 158.206 246.195 158.091 246.068 158.091Z" fill="#E1E8EE"/>
<path d="M241.897 159.571H196.479C196.352 159.571 196.249 159.685 196.249 159.826V160.056C196.249 160.197 196.352 160.311 196.479 160.311H241.897C242.024 160.311 242.127 160.197 242.127 160.056V159.826C242.127 159.685 242.024 159.571 241.897 159.571Z" fill="#E1E8EE"/>
<path d="M237.726 161.05H196.479C196.352 161.05 196.249 161.164 196.249 161.305V161.535C196.249 161.676 196.352 161.79 196.479 161.79H237.726C237.853 161.79 237.956 161.676 237.956 161.535V161.305C237.956 161.164 237.853 161.05 237.726 161.05Z" fill="#E1E8EE"/>
<path d="M188.491 162.623C190.564 162.623 192.245 160.759 192.245 158.461C192.245 156.163 190.564 154.3 188.491 154.3C186.418 154.3 184.737 156.163 184.737 158.461C184.737 160.759 186.418 162.623 188.491 162.623Z" fill="url(#paint17_linear)"/>
<path d="M188.491 175.384C190.564 175.384 192.245 173.521 192.245 171.222C192.245 168.924 190.564 167.061 188.491 167.061C186.418 167.061 184.737 168.924 184.737 171.222C184.737 173.521 186.418 175.384 188.491 175.384Z" fill="url(#paint18_linear)"/>
<path d="M210.408 167.893H196.479C196.352 167.893 196.249 168.008 196.249 168.149V169.118C196.249 169.259 196.352 169.373 196.479 169.373H210.408C210.535 169.373 210.638 169.259 210.638 169.118V168.149C210.638 168.008 210.535 167.893 210.408 167.893Z" fill="#E1E8EE"/>
<path d="M246.068 170.852H196.479C196.352 170.852 196.249 170.967 196.249 171.108V171.337C196.249 171.478 196.352 171.592 196.479 171.592H246.068C246.195 171.592 246.298 171.478 246.298 171.337V171.108C246.298 170.967 246.195 170.852 246.068 170.852Z" fill="#E1E8EE"/>
<path d="M241.897 172.332H196.479C196.352 172.332 196.249 172.446 196.249 172.587V172.817C196.249 172.958 196.352 173.072 196.479 173.072H241.897C242.024 173.072 242.127 172.958 242.127 172.817V172.587C242.127 172.446 242.024 172.332 241.897 172.332Z" fill="#E1E8EE"/>
<path d="M237.726 173.811H196.479C196.352 173.811 196.249 173.926 196.249 174.066V174.296C196.249 174.437 196.352 174.551 196.479 174.551H237.726C237.853 174.551 237.956 174.437 237.956 174.296V174.066C237.956 173.926 237.853 173.811 237.726 173.811Z" fill="#E1E8EE"/>
<path d="M210.408 180.654H196.479C196.352 180.654 196.249 180.768 196.249 180.909V181.878C196.249 182.019 196.352 182.134 196.479 182.134H210.408C210.535 182.134 210.638 182.019 210.638 181.878V180.909C210.638 180.768 210.535 180.654 210.408 180.654Z" fill="#E1E8EE"/>
<path d="M246.068 183.613H196.479C196.352 183.613 196.249 183.727 196.249 183.868V184.098C196.249 184.239 196.352 184.353 196.479 184.353H246.068C246.195 184.353 246.298 184.239 246.298 184.098V183.868C246.298 183.727 246.195 183.613 246.068 183.613Z" fill="#E1E8EE"/>
<path d="M241.897 185.093H196.479C196.352 185.093 196.249 185.207 196.249 185.348V185.577C196.249 185.718 196.352 185.832 196.479 185.832H241.897C242.024 185.832 242.127 185.718 242.127 185.577V185.348C242.127 185.207 242.024 185.093 241.897 185.093Z" fill="#E1E8EE"/>
<path d="M237.726 186.572H196.479C196.352 186.572 196.249 186.686 196.249 186.827V187.056C196.249 187.197 196.352 187.312 196.479 187.312H237.726C237.853 187.312 237.956 187.197 237.956 187.056V186.827C237.956 186.686 237.853 186.572 237.726 186.572Z" fill="#E1E8EE"/>
<path d="M188.491 188.144C190.564 188.144 192.245 186.281 192.245 183.983C192.245 181.685 190.564 179.822 188.491 179.822C186.418 179.822 184.737 181.685 184.737 183.983C184.737 186.281 186.418 188.144 188.491 188.144Z" fill="url(#paint19_linear)"/>
</g>
<defs>
<filter id="filter0_d" x="-4.44287" y="-4.16403" width="254.237" height="180.444" filterUnits="userSpaceOnUse" color-interpolation-filters="sRGB">
<feFlood flood-opacity="0" result="BackgroundImageFix"/>
<feColorMatrix in="SourceAlpha" type="matrix" values="0 0 0 0 0 0 0 0 0 0 0 0 0 0 0 0 0 0 127 0"/>
<feOffset/>
<feGaussianBlur stdDeviation="3.5"/>
<feColorMatrix type="matrix" values="0 0 0 0 0 0 0 0 0 0.145098 0 0 0 0 0.180392 0 0 0 0.181839 0"/>
<feBlend mode="normal" in2="BackgroundImageFix" result="effect1_dropShadow"/>
<feBlend mode="normal" in="SourceGraphic" in2="effect1_dropShadow" result="shape"/>
</filter>
<filter id="filter1_d" x="-4.44287" y="-4.16403" width="254.237" height="31.754" filterUnits="userSpaceOnUse" color-interpolation-filters="sRGB">
<feFlood flood-opacity="0" result="BackgroundImageFix"/>
<feColorMatrix in="SourceAlpha" type="matrix" values="0 0 0 0 0 0 0 0 0 0 0 0 0 0 0 0 0 0 127 0"/>
<feOffset/>
<feGaussianBlur stdDeviation="3.5"/>
<feColorMatrix type="matrix" values="0 0 0 0 0 0 0 0 0 0.145098 0 0 0 0 0.180392 0 0 0 0.181839 0"/>
<feBlend mode="normal" in2="BackgroundImageFix" result="effect1_dropShadow"/>
<feBlend mode="normal" in="SourceGraphic" in2="effect1_dropShadow" result="shape"/>
</filter>
<filter id="filter2_d" x="170.729" y="54.5366" width="92.0792" height="154.033" filterUnits="userSpaceOnUse" color-interpolation-filters="sRGB">
<feFlood flood-opacity="0" result="BackgroundImageFix"/>
<feColorMatrix in="SourceAlpha" type="matrix" values="0 0 0 0 0 0 0 0 0 0 0 0 0 0 0 0 0 0 127 0"/>
<feOffset/>
<feGaussianBlur stdDeviation="3"/>
<feColorMatrix type="matrix" values="0 0 0 0 0 0 0 0 0 0.145098 0 0 0 0 0.180392 0 0 0 0.181839 0"/>
<feBlend mode="normal" in2="BackgroundImageFix" result="effect1_dropShadow"/>
<feBlend mode="normal" in="SourceGraphic" in2="effect1_dropShadow" result="shape"/>
</filter>
<filter id="filter3_d" x="170.729" y="54.5366" width="92.0792" height="27.1502" filterUnits="userSpaceOnUse" color-interpolation-filters="sRGB">
<feFlood flood-opacity="0" result="BackgroundImageFix"/>
<feColorMatrix in="SourceAlpha" type="matrix" values="0 0 0 0 0 0 0 0 0 0 0 0 0 0 0 0 0 0 127 0"/>
<feOffset/>
<feGaussianBlur stdDeviation="3"/>
<feColorMatrix type="matrix" values="0 0 0 0 0 0 0 0 0 0.145098 0 0 0 0 0.180392 0 0 0 0.181839 0"/>
<feBlend mode="normal" in2="BackgroundImageFix" result="effect1_dropShadow"/>
<feBlend mode="normal" in="SourceGraphic" in2="effect1_dropShadow" result="shape"/>
</filter>
<linearGradient id="paint0_linear" x1="238.282" y1="-119.672" x2="56.3832" y2="169.103" gradientUnits="userSpaceOnUse">
<stop stop-color="#FF52C1"/>
<stop offset="0.0409" stop-color="#F952C5"/>
<stop offset="1" stop-color="#9952FF" stop-opacity="0"/>
</linearGradient>
<linearGradient id="paint1_linear" x1="340.867" y1="339.168" x2="213.872" y2="12.2808" gradientUnits="userSpaceOnUse">
<stop stop-color="#FF52C1"/>
<stop offset="0.0409" stop-color="#F952C5"/>
<stop offset="1" stop-color="#9952FF" stop-opacity="0"/>
</linearGradient>
<linearGradient id="paint2_linear" x1="147.972" y1="158.902" x2="115.472" y2="125.507" gradientUnits="userSpaceOnUse">
<stop stop-color="#FF52C1"/>
<stop offset="1" stop-color="#9952FF"/>
</linearGradient>
<linearGradient id="paint3_linear" x1="218.588" y1="175.739" x2="217.133" y2="193.833" gradientUnits="userSpaceOnUse">
<stop stop-color="#FF52C1"/>
<stop offset="1" stop-color="#9952FF"/>
</linearGradient>
<linearGradient id="paint4_linear" x1="252.751" y1="19.0147" x2="250.607" y2="45.6796" gradientUnits="userSpaceOnUse">
<stop stop-color="#FF52C1"/>
<stop offset="1" stop-color="#9952FF"/>
</linearGradient>
<linearGradient id="paint5_linear" x1="184.405" y1="11.9947" x2="183.18" y2="27.2318" gradientUnits="userSpaceOnUse">
<stop stop-color="#FF52C1"/>
<stop offset="1" stop-color="#9952FF"/>
</linearGradient>
<linearGradient id="paint6_linear" x1="139.011" y1="43.3597" x2="137.786" y2="58.5968" gradientUnits="userSpaceOnUse">
<stop stop-color="#FF52C1"/>
<stop offset="1" stop-color="#9952FF"/>
</linearGradient>
<linearGradient id="paint7_linear" x1="243.481" y1="152.288" x2="242.83" y2="160.383" gradientUnits="userSpaceOnUse">
<stop stop-color="#FF52C1"/>
<stop offset="1" stop-color="#9952FF"/>
</linearGradient>
<linearGradient id="paint8_linear" x1="20.5473" y1="179.442" x2="16.2279" y2="198.774" gradientUnits="userSpaceOnUse">
<stop stop-color="#FF52C1"/>
<stop offset="1" stop-color="#9952FF"/>
</linearGradient>
<linearGradient id="paint9_linear" x1="24.1331" y1="35.163" x2="41.5695" y2="71.6081" gradientUnits="userSpaceOnUse">
<stop stop-color="#FAD961"/>
<stop offset="1" stop-color="#FF52C1"/>
</linearGradient>
<linearGradient id="paint10_linear" x1="31.8362" y1="78.8456" x2="31.8362" y2="103.813" gradientUnits="userSpaceOnUse">
<stop stop-color="#00C7FA"/>
<stop offset="1" stop-color="#007DFA"/>
</linearGradient>
<linearGradient id="paint11_linear" x1="27.1004" y1="118.515" x2="43.1901" y2="144.886" gradientUnits="userSpaceOnUse">
<stop stop-color="#FF52C1"/>
<stop offset="1" stop-color="#9952FF"/>
</linearGradient>
<linearGradient id="paint12_linear" x1="185.849" y1="88.6355" x2="191.298" y2="100.025" gradientUnits="userSpaceOnUse">
<stop stop-color="#FAD961"/>
<stop offset="1" stop-color="#FF52C1"/>
</linearGradient>
<linearGradient id="paint13_linear" x1="185.849" y1="126.918" x2="191.298" y2="138.307" gradientUnits="userSpaceOnUse">
<stop stop-color="#FAD961"/>
<stop offset="1" stop-color="#FF52C1"/>
</linearGradient>
<linearGradient id="paint14_linear" x1="188.491" y1="103.258" x2="188.491" y2="111.58" gradientUnits="userSpaceOnUse">
<stop stop-color="#00C7FA"/>
<stop offset="1" stop-color="#007DFA"/>
</linearGradient>
<linearGradient id="paint15_linear" x1="188.491" y1="141.54" x2="188.491" y2="149.862" gradientUnits="userSpaceOnUse">
<stop stop-color="#00C7FA"/>
<stop offset="1" stop-color="#007DFA"/>
</linearGradient>
<linearGradient id="paint16_linear" x1="186.912" y1="116.018" x2="192.275" y2="124.809" gradientUnits="userSpaceOnUse">
<stop stop-color="#FF52C1"/>
<stop offset="1" stop-color="#9952FF"/>
</linearGradient>
<linearGradient id="paint17_linear" x1="186.912" y1="154.3" x2="192.275" y2="163.091" gradientUnits="userSpaceOnUse">
<stop stop-color="#FF52C1"/>
<stop offset="1" stop-color="#9952FF"/>
</linearGradient>
<linearGradient id="paint18_linear" x1="185.849" y1="165.2" x2="191.298" y2="176.589" gradientUnits="userSpaceOnUse">
<stop stop-color="#FAD961"/>
<stop offset="1" stop-color="#FF52C1"/>
</linearGradient>
<linearGradient id="paint19_linear" x1="188.491" y1="179.822" x2="188.491" y2="188.144" gradientUnits="userSpaceOnUse">
<stop stop-color="#00C7FA"/>
<stop offset="1" stop-color="#007DFA"/>
</linearGradient>
<clipPath id="clip0">
<rect width="259" height="205" fill="white"/>
</clipPath>
<clipPath id="clip1">
<rect width="259" height="204" fill="white"/>
</clipPath>
</defs>
</svg>
