<svg width="260" height="205" viewBox="0 0 260 205" fill="none" xmlns="http://www.w3.org/2000/svg">
<rect width="260" height="205" fill="#E5E5E5"/>
<rect width="260" height="205" fill="#00B3C0"/>
<path d="M24.9046 24.8507L28.2368 32.0766L31.569 24.8507H34.6203V37H32.3926V27.771L28.9482 35.6709H27.5067L23.9499 27.509V37H21.741V24.8507H24.9046ZM41.6782 27.6587C42.2897 27.6587 42.8638 27.7586 43.4004 27.9582C43.9371 28.1454 44.3988 28.4387 44.7857 28.8381C45.6468 29.7117 46.0774 30.9222 46.0774 32.4698C46.0774 33.9923 45.6468 35.1904 44.7857 36.064C44.012 36.8627 42.9761 37.2621 41.6782 37.2621C40.3803 37.2621 39.332 36.8627 38.5332 36.064C37.6721 35.2029 37.2416 34.0048 37.2416 32.4698C37.2416 30.9098 37.6721 29.6992 38.5332 28.8381C39.3195 28.0518 40.3678 27.6587 41.6782 27.6587ZM43.8684 32.451C43.8684 31.4901 43.6812 30.7725 43.3068 30.2982C42.9324 29.8115 42.4083 29.5682 41.7344 29.5682C41.0729 29.5682 40.53 29.8115 40.1057 30.2982C39.6814 30.7725 39.4692 31.4901 39.4692 32.451C39.4692 33.412 39.6564 34.1358 40.0308 34.6226C40.4177 35.0968 40.9419 35.3339 41.6033 35.3339C42.2648 35.3339 42.8076 35.0968 43.232 34.6226C43.6563 34.1358 43.8684 33.412 43.8684 32.451ZM50.8773 29.4746C51.4764 28.264 52.4373 27.6587 53.7602 27.6587C54.8834 27.6587 55.7258 28.0269 56.2874 28.7632C56.8615 29.4995 57.1485 30.473 57.1485 31.6835V37H54.9396V31.6835C54.9396 31.0096 54.7773 30.5042 54.4528 30.1672C54.1284 29.8178 53.6728 29.643 53.0863 29.643C52.4997 29.643 51.9943 29.9051 51.57 30.4293C51.1581 30.9534 50.9397 31.7397 50.9148 32.788V37H48.7058V27.9021H50.634L50.8773 29.4746ZM65.4985 36.7754C64.6748 37.0998 64.0259 37.2621 63.5516 37.2621C63.0774 37.2621 62.6593 37.2059 62.2974 37.0936C61.948 36.9813 61.636 36.8128 61.3614 36.5882C60.7873 36.0765 60.5003 35.3714 60.5003 34.4728V29.381H59.2273V27.9021H60.5003V25.5059H62.7092V27.9021H65.1803V29.381H62.7092V34.3979C62.7092 35.1467 63.0649 35.5211 63.7763 35.5211C64.1382 35.5211 64.6062 35.4213 65.1803 35.2216L65.4985 36.7754ZM67.7549 24.1581H69.9638V37H67.7549V24.1581ZM74.5635 27.9021L76.7538 34.4541L78.6632 27.9021H80.9096L77.4277 38.6474C77.0658 39.7331 76.6227 40.5131 76.0986 40.9874C75.5869 41.4616 74.9317 41.6987 74.133 41.6987C73.3218 41.6987 72.5106 41.499 71.6994 41.0997V39.1528C72.3483 39.5646 73.0035 39.7706 73.665 39.7706C74.1018 39.7706 74.4575 39.5958 74.732 39.2464C75.0191 38.897 75.2499 38.4414 75.4247 37.8798L75.7055 37L72.0551 27.9021H74.5635ZM93.9918 28.2016C93.7921 27.1408 93.0433 26.6104 91.7454 26.6104C91.1089 26.6104 90.6097 26.7414 90.2478 27.0035C89.8984 27.2531 89.7237 27.5589 89.7237 27.9208C89.7237 28.2827 89.836 28.5698 90.0606 28.7819C90.2977 28.9816 90.6597 29.1688 91.1464 29.3435L93.7859 30.3731C94.6845 30.7226 95.3771 31.1656 95.8638 31.7022C96.3505 32.2264 96.5939 32.8878 96.5939 33.6866C96.5939 34.7848 96.1821 35.6584 95.3584 36.3074C94.5347 36.9438 93.3616 37.2621 91.839 37.2621C90.4912 37.2621 89.3992 36.9314 88.563 36.2699C87.627 35.5461 87.1341 34.5227 87.0841 33.1998H89.2744C89.2744 34.1982 89.7923 34.8285 90.8281 35.0906C91.1401 35.1779 91.552 35.2216 92.0637 35.2216C92.5753 35.2216 93.0496 35.0968 93.4864 34.8472C93.9232 34.5851 94.1416 34.2419 94.1416 33.8176C94.1416 33.3808 94.023 33.0501 93.7859 32.8254C93.5488 32.5883 93.1619 32.3699 92.6253 32.1702L90.2104 31.2155C89.2744 30.8536 88.5568 30.4293 88.0576 29.9426C87.5584 29.4558 87.3088 28.7819 87.3088 27.9208C87.3088 26.9099 87.7019 26.1112 88.4881 25.5246C89.2869 24.9131 90.3664 24.6074 91.7267 24.6074C93.0995 24.6074 94.1541 24.9256 94.8904 25.5621C95.6392 26.1861 96.0697 27.0659 96.1821 28.2016H93.9918ZM105.593 35.3526C105.018 36.5632 104.095 37.1685 102.822 37.1685C101.212 37.1685 100.151 36.5382 99.6396 35.2778C99.4524 34.841 99.3588 34.3106 99.3588 33.6866V27.8834H101.568V33.4619C101.568 34.061 101.711 34.5102 101.998 34.8098C102.285 35.0968 102.635 35.2403 103.047 35.2403C103.471 35.2403 103.827 35.1842 104.114 35.0718C104.401 34.947 104.65 34.7661 104.862 34.529C105.324 33.9923 105.568 33.2747 105.593 32.3762V27.8834H107.801V37H105.593V35.3526ZM118.92 28.9691C119.694 29.8427 120.081 30.9909 120.081 32.4136C120.081 33.8363 119.675 35.0094 118.864 35.933C118.078 36.819 117.098 37.2621 115.925 37.2621C115.363 37.2621 114.846 37.1123 114.371 36.8128C113.91 36.5133 113.541 36.0515 113.267 35.4275L112.724 37H111.283V24.1581H113.491V29.044C114.066 28.1205 114.92 27.6587 116.056 27.6587C117.204 27.6587 118.159 28.0955 118.92 28.9691ZM113.491 31.8894V33.0875C113.516 33.724 113.747 34.2482 114.184 34.66C114.596 35.0594 115.095 35.259 115.682 35.259C116.281 35.259 116.792 35.0032 117.217 34.4915C117.641 33.9674 117.853 33.281 117.853 32.4323C117.853 31.5837 117.641 30.9098 117.217 30.4106C116.805 29.8989 116.287 29.643 115.663 29.643C115.039 29.643 114.521 29.849 114.109 30.2608C113.697 30.6726 113.491 31.2155 113.491 31.8894ZM124.017 34.2294C124.042 35.0906 124.672 35.5211 125.908 35.5211C126.382 35.5211 126.769 35.4213 127.068 35.2216C127.38 35.0094 127.536 34.7661 127.536 34.4915C127.536 34.217 127.443 34.0048 127.256 33.855C127.068 33.7053 126.775 33.568 126.376 33.4432L124.391 32.7318C122.919 32.2202 122.182 31.384 122.182 30.2234C122.182 29.4496 122.526 28.8318 123.212 28.3701C123.911 27.8958 124.841 27.6587 126.001 27.6587C127.174 27.6587 128.073 27.9146 128.697 28.4262C129.333 28.9379 129.664 29.5806 129.689 30.3544H127.611C127.586 30.0549 127.443 29.8178 127.181 29.643C126.919 29.4683 126.544 29.381 126.057 29.381C125.571 29.381 125.19 29.4808 124.916 29.6805C124.653 29.8677 124.522 30.0861 124.522 30.3357C124.522 30.7725 124.891 31.097 125.627 31.3091L127.78 32.1141C128.491 32.3512 129.034 32.657 129.408 33.0314C129.795 33.3933 129.989 33.8675 129.989 34.4541C129.989 35.2029 129.633 35.8518 128.922 36.401C128.185 36.975 127.212 37.2621 126.001 37.2621C124.791 37.2621 123.817 37 123.081 36.4758C122.345 35.9392 121.97 35.1904 121.958 34.2294H124.017ZM136.116 27.6587C136.691 27.6587 137.202 27.7586 137.652 27.9582C138.113 28.1454 138.5 28.395 138.812 28.707C139.436 29.3061 139.804 30.0611 139.917 30.9722L137.689 31.0283C137.589 30.629 137.402 30.2982 137.127 30.0362C136.865 29.7741 136.56 29.643 136.21 29.643C135.861 29.643 135.561 29.6992 135.312 29.8115C135.062 29.9114 134.844 30.0736 134.656 30.2982C134.232 30.8224 134.02 31.5462 134.02 32.4698C134.02 33.3933 134.22 34.0922 134.619 34.5664C135.018 35.0282 135.499 35.259 136.06 35.259C136.634 35.259 137.046 35.128 137.296 34.8659C137.558 34.5914 137.689 34.2232 137.689 33.7614H139.917C139.917 34.7598 139.586 35.5898 138.924 36.2512C138.251 36.9251 137.308 37.2621 136.098 37.2621C134.9 37.2621 133.895 36.8253 133.084 35.9517C132.223 35.0157 131.792 33.8488 131.792 32.451C131.792 30.9784 132.223 29.799 133.084 28.913C133.895 28.0768 134.906 27.6587 136.116 27.6587ZM144.789 29.6992C145.338 28.3888 146.162 27.7336 147.26 27.7336C147.472 27.7336 147.74 27.7773 148.065 27.8646L148.028 30.0736C147.678 29.9987 147.335 29.9613 146.998 29.9613C145.525 29.9613 144.789 30.9784 144.789 33.0126V37H142.58V27.8834H144.789V29.6992ZM150.555 27.8834H152.764V37H150.555V27.8834ZM150.293 24.963C150.293 24.5637 150.412 24.2517 150.649 24.027C150.886 23.7899 151.223 23.6714 151.66 23.6714C152.084 23.6714 152.415 23.7899 152.652 24.027C152.901 24.2517 153.026 24.5637 153.026 24.963C153.026 25.3624 152.901 25.6806 152.652 25.9178C152.415 26.1424 152.084 26.2547 151.66 26.2547C151.223 26.2547 150.886 26.1424 150.649 25.9178C150.412 25.6806 150.293 25.3624 150.293 24.963ZM158.532 29.1376C159.106 28.1517 159.98 27.6587 161.153 27.6587C162.276 27.6587 163.237 28.083 164.036 28.9317C164.884 29.8302 165.309 31.0034 165.309 32.451C165.309 33.9112 164.878 35.0906 164.017 35.9891C163.218 36.8378 162.264 37.2621 161.153 37.2621C160.042 37.2621 159.231 36.9314 158.719 36.2699V41.4366H156.51V27.9021H158.326L158.532 29.1376ZM160.76 35.259C161.022 35.259 161.29 35.2029 161.565 35.0906C161.852 34.9782 162.108 34.8035 162.332 34.5664C162.831 34.0422 163.081 33.3434 163.081 32.4698C163.081 31.5837 162.863 30.891 162.426 30.3918C162.002 29.8926 161.477 29.643 160.853 29.643C160.242 29.643 159.736 29.824 159.337 30.1859C158.95 30.5354 158.744 31.0408 158.719 31.7022V33.3309C158.719 33.9174 158.925 34.3917 159.337 34.7536C159.724 35.0906 160.198 35.259 160.76 35.259ZM173.065 36.7754C172.242 37.0998 171.593 37.2621 171.119 37.2621C170.644 37.2621 170.226 37.2059 169.864 37.0936C169.515 36.9813 169.203 36.8128 168.928 36.5882C168.354 36.0765 168.067 35.3714 168.067 34.4728V29.381H166.794V27.9021H168.067V25.5059H170.276V27.9021H172.747V29.381H170.276V34.3979C170.276 35.1467 170.632 35.5211 171.343 35.5211C171.705 35.5211 172.173 35.4213 172.747 35.2216L173.065 36.7754ZM175.509 27.8834H177.718V37H175.509V27.8834ZM175.247 24.963C175.247 24.5637 175.365 24.2517 175.603 24.027C175.84 23.7899 176.177 23.6714 176.613 23.6714C177.038 23.6714 177.368 23.7899 177.606 24.027C177.855 24.2517 177.98 24.5637 177.98 24.963C177.98 25.3624 177.855 25.6806 177.606 25.9178C177.368 26.1424 177.038 26.2547 176.613 26.2547C176.177 26.2547 175.84 26.1424 175.603 25.9178C175.365 25.6806 175.247 25.3624 175.247 24.963ZM185.04 27.6587C185.651 27.6587 186.225 27.7586 186.762 27.9582C187.299 28.1454 187.76 28.4387 188.147 28.8381C189.008 29.7117 189.439 30.9222 189.439 32.4698C189.439 33.9923 189.008 35.1904 188.147 36.064C187.374 36.8627 186.338 37.2621 185.04 37.2621C183.742 37.2621 182.694 36.8627 181.895 36.064C181.034 35.2029 180.603 34.0048 180.603 32.4698C180.603 30.9098 181.034 29.6992 181.895 28.8381C182.681 28.0518 183.729 27.6587 185.04 27.6587ZM187.23 32.451C187.23 31.4901 187.043 30.7725 186.668 30.2982C186.294 29.8115 185.77 29.5682 185.096 29.5682C184.434 29.5682 183.892 29.8115 183.467 30.2982C183.043 30.7725 182.831 31.4901 182.831 32.451C182.831 33.412 183.018 34.1358 183.392 34.6226C183.779 35.0968 184.303 35.3339 184.965 35.3339C185.626 35.3339 186.169 35.0968 186.594 34.6226C187.018 34.1358 187.23 33.412 187.23 32.451ZM194.239 29.4746C194.838 28.264 195.799 27.6587 197.122 27.6587C198.245 27.6587 199.087 28.0269 199.649 28.7632C200.223 29.4995 200.51 30.473 200.51 31.6835V37H198.301V31.6835C198.301 31.0096 198.139 30.5042 197.814 30.1672C197.49 29.8178 197.034 29.643 196.448 29.643C195.861 29.643 195.356 29.9051 194.932 30.4293C194.52 30.9534 194.301 31.7397 194.276 32.788V37H192.067V27.9021H193.996L194.239 29.4746Z" fill="white"/>
<path d="M34.25 72.71C35.75 73.23 36.87 73.89 37.61 74.69C38.35 75.47 38.72 76.51 38.72 77.81C38.72 79.23 38.14 80.46 36.98 81.5C35.7 82.6 33.91 83.23 31.61 83.39V86.03H29.09V83.33C27.01 83.13 25.32 82.51 24.02 81.47C22.64 80.35 21.95 78.83 21.95 76.91H25.46C25.46 77.87 25.77 78.6 26.39 79.1C27.01 79.6 27.91 79.92 29.09 80.06V74.24L27.59 73.73C25.91 73.17 24.61 72.5 23.69 71.72C22.77 70.92 22.31 69.81 22.31 68.39C22.31 66.97 22.88 65.79 24.02 64.85C25.18 63.89 26.87 63.33 29.09 63.17V60.89H31.61V63.2C33.55 63.4 35.03 64 36.05 65C37.07 66 37.72 67.3 38 68.9H34.49C34.39 68.3 34.09 67.77 33.59 67.31C33.11 66.83 32.45 66.5 31.61 66.32V71.78L34.25 72.71ZM31.61 80.12C32.69 80.02 33.48 79.75 33.98 79.31C34.48 78.87 34.73 78.35 34.73 77.75C34.73 76.61 34.01 75.77 32.57 75.23L31.61 74.87V80.12ZM29.09 66.23C28.13 66.35 27.4 66.62 26.9 67.04C26.42 67.46 26.18 67.95 26.18 68.51C26.18 69.07 26.34 69.52 26.66 69.86C26.98 70.18 27.49 70.46 28.19 70.7L29.09 71.06V66.23ZM47.2536 71.15C48.3336 70.97 49.3636 70.88 50.3436 70.88C52.3636 70.88 53.9736 71.37 55.1736 72.35C56.3736 73.31 56.9736 74.7 56.9736 76.52C56.9736 78.5 56.3036 80.13 54.9636 81.41C53.5436 82.75 51.7536 83.42 49.5936 83.42C47.4536 83.42 45.7436 82.88 44.4636 81.8C43.1236 80.68 42.4336 79.14 42.3936 77.18H46.0236C46.0236 78.2 46.3636 78.95 47.0436 79.43C47.7236 79.91 48.5936 80.15 49.6536 80.15C50.7136 80.15 51.5836 79.81 52.2636 79.13C52.9636 78.43 53.3136 77.56 53.3136 76.52C53.3136 74.54 51.9736 73.55 49.2936 73.55H43.3536L44.2536 63.53H55.9236V66.77H47.6736L47.2536 71.15Z" fill="white"/>
<path d="M70.1 72.14C70.476 71.46 71.036 71.12 71.78 71.12C72.532 71.12 73.156 71.396 73.652 71.948C74.156 72.5 74.408 73.228 74.408 74.132C74.408 75.036 74.156 75.764 73.652 76.316C73.148 76.86 72.528 77.132 71.792 77.132C71.056 77.132 70.512 76.856 70.16 76.304V79.82H69.212V71.264H69.992L70.1 72.14ZM71.744 76.292C72.192 76.292 72.584 76.1 72.92 75.716C73.264 75.332 73.436 74.808 73.436 74.144C73.436 73.472 73.272 72.94 72.944 72.548C72.624 72.156 72.232 71.96 71.768 71.96C71.304 71.96 70.924 72.108 70.628 72.404C70.332 72.692 70.176 73.084 70.16 73.58V74.672C70.16 75.176 70.312 75.572 70.616 75.86C70.92 76.148 71.296 76.292 71.744 76.292ZM78.317 76.364C79.109 76.364 79.561 76.016 79.673 75.32H80.645C80.557 75.896 80.301 76.344 79.877 76.664C79.461 76.976 78.941 77.132 78.317 77.132C77.549 77.132 76.925 76.86 76.445 76.316C75.965 75.764 75.725 75.032 75.725 74.12C75.725 73.208 75.965 72.48 76.445 71.936C76.933 71.392 77.577 71.12 78.377 71.12C79.185 71.12 79.785 71.432 80.177 72.056C80.577 72.68 80.717 73.44 80.597 74.336H76.673C76.673 74.928 76.817 75.416 77.105 75.8C77.393 76.176 77.797 76.364 78.317 76.364ZM79.013 72.02C78.829 71.924 78.605 71.876 78.341 71.876C77.853 71.876 77.465 72.044 77.177 72.38C76.897 72.708 76.733 73.12 76.685 73.616H79.745C79.745 72.816 79.501 72.284 79.013 72.02ZM84.8528 72.068C83.9488 72.068 83.4808 72.78 83.4488 74.204V77H82.5008V71.252H83.4488V72.356C83.7368 71.556 84.2448 71.156 84.9728 71.156C85.2048 71.156 85.4248 71.192 85.6328 71.264L85.5848 72.188C85.3448 72.108 85.1008 72.068 84.8528 72.068ZM90.8545 72.368C91.2305 71.536 91.8745 71.12 92.7865 71.12C93.2825 71.12 93.6985 71.244 94.0345 71.492C94.3705 71.732 94.6145 72.068 94.7665 72.5C95.1265 71.58 95.7945 71.12 96.7705 71.12C97.4585 71.12 97.9905 71.344 98.3665 71.792C98.7425 72.24 98.9305 72.852 98.9305 73.628V77H97.9945V73.628C97.9945 73.076 97.8625 72.66 97.5985 72.38C97.3425 72.1 96.9705 71.96 96.4825 71.96C95.9945 71.96 95.6145 72.16 95.3425 72.56C95.0785 72.96 94.9465 73.512 94.9465 74.216V77H94.0105V73.628C94.0105 73.076 93.8785 72.66 93.6145 72.38C93.3585 72.1 92.9905 71.96 92.5105 71.96C92.0305 71.96 91.6425 72.156 91.3465 72.548C91.0505 72.94 90.8945 73.484 90.8785 74.18V77H89.9305V71.264H90.7465L90.8545 72.368ZM103.221 71.12C104.021 71.12 104.665 71.38 105.153 71.9C105.649 72.42 105.897 73.164 105.897 74.132C105.897 75.092 105.649 75.832 105.153 76.352C104.665 76.872 104.021 77.132 103.221 77.132C102.421 77.132 101.773 76.872 101.277 76.352C100.789 75.832 100.545 75.092 100.545 74.132C100.545 73.164 100.789 72.42 101.277 71.9C101.773 71.38 102.421 71.12 103.221 71.12ZM104.937 74.132C104.937 73.444 104.793 72.908 104.505 72.524C104.217 72.132 103.793 71.936 103.233 71.936C102.681 71.936 102.257 72.132 101.961 72.524C101.665 72.908 101.517 73.444 101.517 74.132C101.517 74.812 101.657 75.348 101.937 75.74C102.217 76.124 102.633 76.316 103.185 76.316C103.745 76.316 104.177 76.124 104.481 75.74C104.785 75.348 104.937 74.812 104.937 74.132ZM108.62 72.368C108.996 71.536 109.64 71.12 110.552 71.12C111.232 71.12 111.76 71.344 112.136 71.792C112.52 72.24 112.712 72.852 112.712 73.628V77H111.776V73.628C111.776 73.076 111.644 72.66 111.38 72.38C111.124 72.1 110.756 71.96 110.276 71.96C109.796 71.96 109.408 72.156 109.112 72.548C108.816 72.94 108.66 73.484 108.644 74.18V77H107.696V71.264H108.512L108.62 72.368ZM117.939 76.832C117.251 77.152 116.623 77.22 116.055 77.036C115.647 76.908 115.359 76.64 115.191 76.232C115.103 76.032 115.059 75.792 115.059 75.512V71.984H114.135V71.264H115.059V69.668H115.995V71.264H117.795V71.984H115.995V75.5C115.995 76.084 116.267 76.376 116.811 76.376C117.107 76.376 117.439 76.304 117.807 76.16L117.939 76.832ZM120.398 72.32C120.782 71.52 121.418 71.12 122.306 71.12C122.986 71.12 123.514 71.344 123.89 71.792C124.274 72.24 124.466 72.852 124.466 73.628V77H123.53V73.628C123.53 73.076 123.398 72.66 123.134 72.38C122.878 72.1 122.506 71.96 122.018 71.96C121.53 71.96 121.138 72.168 120.842 72.584C120.546 72.992 120.398 73.56 120.398 74.288V77H119.45V68.828H120.398V72.32Z" fill="#E7E7E7"/>
<path d="M21.616 93.936H27.728V95.024H22.88V98.368H27.392V99.456H22.88V104H21.616V93.936ZM34.816 102.48C34.2933 103.589 33.4453 104.144 32.272 104.144C31.408 104.144 30.7093 103.904 30.176 103.424C29.6533 102.944 29.392 102.203 29.392 101.2V96.336H30.656V101.104C30.656 102.395 31.2533 103.04 32.448 103.04C33.1413 103.04 33.7013 102.773 34.128 102.24C34.5653 101.707 34.7947 101.024 34.816 100.192V96.336H36.08V104H34.816V102.48ZM39.3191 93.104H40.5831V104H39.3191V93.104ZM43.8035 93.104H45.0675V104H43.8035V93.104ZM56.8364 99.04C56.8364 98.3467 56.6924 97.8507 56.4044 97.552C56.1164 97.2533 55.695 97.104 55.1404 97.104C54.5964 97.104 54.1537 97.216 53.8124 97.44C53.4817 97.6533 53.3164 97.9947 53.3164 98.464H51.9244C51.9244 97.2907 52.5537 96.5653 53.8124 96.288C54.1964 96.2027 54.6124 96.16 55.0604 96.16C56.0097 96.16 56.751 96.4 57.2844 96.88C57.8177 97.36 58.0844 98.0907 58.0844 99.072V104H56.9964L56.8684 102.72C56.399 103.691 55.551 104.176 54.3244 104.176C53.503 104.176 52.8417 103.947 52.3404 103.488C51.8497 103.029 51.6044 102.459 51.6044 101.776C51.6044 101.093 51.8764 100.56 52.4204 100.176C52.975 99.792 53.663 99.6 54.4844 99.6C55.3057 99.6 56.0897 99.7387 56.8364 100.016V99.04ZM56.8364 100.816C56.079 100.603 55.4177 100.496 54.8524 100.496C54.287 100.496 53.8284 100.597 53.4764 100.8C53.1244 101.003 52.9484 101.323 52.9484 101.76C52.9484 102.72 53.4924 103.2 54.5804 103.2C55.199 103.2 55.727 102.981 56.1644 102.544C56.6124 102.096 56.8364 101.52 56.8364 100.816ZM63.5975 96.16C64.5042 96.16 65.2242 96.3947 65.7575 96.864C66.2908 97.3227 66.6375 97.8987 66.7975 98.592L65.5175 98.704C65.3788 98.256 65.1548 97.9093 64.8455 97.664C64.5362 97.408 64.1948 97.28 63.8215 97.28C63.1388 97.28 62.5842 97.536 62.1575 98.048C61.7415 98.56 61.5335 99.2587 61.5335 100.144C61.5335 101.019 61.7362 101.723 62.1415 102.256C62.5575 102.789 63.0695 103.056 63.6775 103.056C64.2962 103.056 64.7548 102.917 65.0535 102.64C65.3628 102.352 65.5175 101.947 65.5175 101.424H66.8135C66.8135 102.245 66.5255 102.912 65.9495 103.424C65.3842 103.925 64.6428 104.176 63.7255 104.176C62.7548 104.176 61.9282 103.808 61.2455 103.072C60.5735 102.336 60.2375 101.36 60.2375 100.144C60.2375 98.9173 60.5735 97.9467 61.2455 97.232C61.9175 96.5173 62.7015 96.16 63.5975 96.16ZM71.9279 103.152C72.9839 103.152 73.5865 102.688 73.7359 101.76H75.0319C74.9145 102.528 74.5732 103.125 74.0079 103.552C73.4532 103.968 72.7599 104.176 71.9279 104.176C70.9039 104.176 70.0719 103.813 69.4319 103.088C68.7919 102.352 68.4719 101.376 68.4719 100.16C68.4719 98.944 68.7919 97.9733 69.4319 97.248C70.0825 96.5227 70.9412 96.16 72.0079 96.16C73.0852 96.16 73.8852 96.576 74.4079 97.408C74.9412 98.24 75.1279 99.2533 74.9679 100.448H69.7359C69.7359 101.237 69.9279 101.888 70.3119 102.4C70.6959 102.901 71.2345 103.152 71.9279 103.152ZM72.8559 97.36C72.6105 97.232 72.3119 97.168 71.9599 97.168C71.3092 97.168 70.7919 97.392 70.4079 97.84C70.0345 98.2773 69.8159 98.8267 69.7519 99.488H73.8319C73.8319 98.4213 73.5065 97.712 72.8559 97.36ZM77.1223 98.224C77.1223 97.5947 77.3889 97.0933 77.9223 96.72C78.4663 96.3467 79.1969 96.16 80.1143 96.16C81.0316 96.16 81.7463 96.352 82.2583 96.736C82.7809 97.12 83.0529 97.6053 83.0743 98.192H81.8423C81.7463 97.4987 81.1596 97.152 80.0823 97.152C79.5596 97.152 79.1543 97.2693 78.8663 97.504C78.5889 97.7387 78.4503 97.9947 78.4503 98.272C78.4503 98.5387 78.5569 98.768 78.7703 98.96C78.9836 99.1413 79.3249 99.3013 79.7943 99.44L81.3303 99.952C81.9809 100.155 82.4769 100.416 82.8183 100.736C83.1703 101.045 83.3463 101.477 83.3463 102.032C83.3463 102.576 83.0636 103.072 82.4983 103.52C81.9329 103.957 81.1436 104.176 80.1302 104.176C79.1169 104.176 78.3276 103.952 77.7623 103.504C77.1969 103.045 76.8983 102.459 76.8663 101.744H78.0823C78.1036 102.224 78.2956 102.587 78.6583 102.832C79.0316 103.067 79.4956 103.184 80.0503 103.184C80.6049 103.184 81.0636 103.067 81.4263 102.832C81.7889 102.597 81.9703 102.32 81.9703 102C81.9703 101.669 81.8636 101.419 81.6503 101.248C81.4369 101.077 81.0903 100.928 80.6102 100.8L79.1223 100.304C77.7889 99.9093 77.1223 99.216 77.1223 98.224ZM85.5441 98.224C85.5441 97.5947 85.8108 97.0933 86.3441 96.72C86.8881 96.3467 87.6188 96.16 88.5361 96.16C89.4535 96.16 90.1681 96.352 90.6801 96.736C91.2028 97.12 91.4748 97.6053 91.4961 98.192H90.2641C90.1681 97.4987 89.5815 97.152 88.5041 97.152C87.9815 97.152 87.5761 97.2693 87.2881 97.504C87.0108 97.7387 86.8721 97.9947 86.8721 98.272C86.8721 98.5387 86.9788 98.768 87.1921 98.96C87.4055 99.1413 87.7468 99.3013 88.2161 99.44L89.7521 99.952C90.4028 100.155 90.8988 100.416 91.2401 100.736C91.5921 101.045 91.7681 101.477 91.7681 102.032C91.7681 102.576 91.4855 103.072 90.9201 103.52C90.3548 103.957 89.5655 104.176 88.5521 104.176C87.5388 104.176 86.7495 103.952 86.1841 103.504C85.6188 103.045 85.3201 102.459 85.2881 101.744H86.5041C86.5255 102.224 86.7175 102.587 87.0801 102.832C87.4535 103.067 87.9175 103.184 88.4721 103.184C89.0268 103.184 89.4855 103.067 89.8481 102.832C90.2108 102.597 90.3921 102.32 90.3921 102C90.3921 101.669 90.2855 101.419 90.0721 101.248C89.8588 101.077 89.5121 100.928 89.0321 100.8L87.5441 100.304C86.2108 99.9093 85.5441 99.216 85.5441 98.224ZM101.891 94.176C101.539 94.0373 101.261 93.968 101.059 93.968C100.685 93.968 100.392 94.0587 100.179 94.24C99.9652 94.4213 99.8585 94.7413 99.8585 95.2V96.352H101.443V97.216H99.8585V104H98.6105V97.216H97.3465V96.352H98.6105V95.184C98.6105 94.4267 98.8185 93.872 99.2345 93.52C99.6505 93.1573 100.131 92.976 100.674 92.976C101.219 92.976 101.699 93.0453 102.115 93.184L101.891 94.176ZM106.415 96.16C107.482 96.16 108.34 96.5067 108.991 97.2C109.652 97.8933 109.983 98.8853 109.983 100.176C109.983 101.456 109.652 102.443 108.991 103.136C108.34 103.829 107.482 104.176 106.415 104.176C105.348 104.176 104.484 103.829 103.823 103.136C103.172 102.443 102.847 101.456 102.847 100.176C102.847 98.8853 103.172 97.8933 103.823 97.2C104.484 96.5067 105.348 96.16 106.415 96.16ZM108.703 100.176C108.703 99.2587 108.511 98.544 108.127 98.032C107.743 97.5093 107.178 97.248 106.431 97.248C105.695 97.248 105.13 97.5093 104.735 98.032C104.34 98.544 104.143 99.2587 104.143 100.176C104.143 101.083 104.33 101.797 104.703 102.32C105.076 102.832 105.631 103.088 106.367 103.088C107.114 103.088 107.69 102.832 108.095 102.32C108.5 101.797 108.703 101.083 108.703 100.176ZM115.517 97.424C114.312 97.424 113.688 98.3733 113.645 100.272V104H112.381V96.336H113.645V97.808C114.029 96.7413 114.707 96.208 115.677 96.208C115.987 96.208 116.28 96.256 116.557 96.352L116.493 97.584C116.173 97.4773 115.848 97.424 115.517 97.424ZM127.04 99.04C127.04 98.3467 126.896 97.8507 126.608 97.552C126.32 97.2533 125.898 97.104 125.344 97.104C124.8 97.104 124.357 97.216 124.016 97.44C123.685 97.6533 123.52 97.9947 123.52 98.464H122.128C122.128 97.2907 122.757 96.5653 124.016 96.288C124.4 96.2027 124.816 96.16 125.264 96.16C126.213 96.16 126.954 96.4 127.488 96.88C128.021 97.36 128.288 98.0907 128.288 99.072V104H127.2L127.072 102.72C126.602 103.691 125.754 104.176 124.528 104.176C123.706 104.176 123.045 103.947 122.544 103.488C122.053 103.029 121.808 102.459 121.808 101.776C121.808 101.093 122.08 100.56 122.624 100.176C123.178 99.792 123.866 99.6 124.688 99.6C125.509 99.6 126.293 99.7387 127.04 100.016V99.04ZM127.04 100.816C126.282 100.603 125.621 100.496 125.056 100.496C124.49 100.496 124.032 100.597 123.68 100.8C123.328 101.003 123.152 101.323 123.152 101.76C123.152 102.72 123.696 103.2 124.784 103.2C125.402 103.2 125.93 102.981 126.368 102.544C126.816 102.096 127.04 101.52 127.04 100.816ZM136.253 97.52C136.754 96.6133 137.501 96.16 138.493 96.16C139.496 96.16 140.328 96.528 140.989 97.264C141.661 98 141.997 98.9707 141.997 100.176C141.997 101.381 141.661 102.352 140.989 103.088C140.317 103.813 139.49 104.176 138.509 104.176C137.528 104.176 136.802 103.808 136.333 103.072V107.76H135.069V96.352H136.109L136.253 97.52ZM138.445 103.056C139.042 103.056 139.565 102.8 140.013 102.288C140.472 101.776 140.701 101.077 140.701 100.192C140.701 99.296 140.482 98.5867 140.045 98.064C139.618 97.5413 139.096 97.28 138.477 97.28C137.858 97.28 137.352 97.4773 136.957 97.872C136.562 98.256 136.354 98.7787 136.333 99.44V100.896C136.333 101.568 136.536 102.096 136.941 102.48C137.346 102.864 137.848 103.056 138.445 103.056ZM147.689 97.424C146.484 97.424 145.86 98.3733 145.817 100.272V104H144.553V96.336H145.817V97.808C146.201 96.7413 146.878 96.208 147.849 96.208C148.158 96.208 148.452 96.256 148.729 96.352L148.665 97.584C148.345 97.4773 148.02 97.424 147.689 97.424ZM150.743 96.336H152.007V104H150.743V96.336ZM151.367 94.544C151.111 94.544 150.908 94.4747 150.759 94.336C150.62 94.1867 150.551 93.9947 150.551 93.76C150.551 93.5147 150.62 93.3227 150.759 93.184C150.908 93.0347 151.111 92.96 151.367 92.96C151.623 92.96 151.826 93.0347 151.975 93.184C152.135 93.3227 152.215 93.5147 152.215 93.76C152.215 93.9947 152.135 94.1867 151.975 94.336C151.826 94.4747 151.623 94.544 151.367 94.544ZM157.988 96.16C158.895 96.16 159.615 96.3947 160.148 96.864C160.681 97.3227 161.028 97.8987 161.188 98.592L159.908 98.704C159.769 98.256 159.545 97.9093 159.236 97.664C158.927 97.408 158.585 97.28 158.212 97.28C157.529 97.28 156.975 97.536 156.548 98.048C156.132 98.56 155.924 99.2587 155.924 100.144C155.924 101.019 156.127 101.723 156.532 102.256C156.948 102.789 157.46 103.056 158.068 103.056C158.687 103.056 159.145 102.917 159.444 102.64C159.753 102.352 159.908 101.947 159.908 101.424H161.204C161.204 102.245 160.916 102.912 160.34 103.424C159.775 103.925 159.033 104.176 158.116 104.176C157.145 104.176 156.319 103.808 155.636 103.072C154.964 102.336 154.628 101.36 154.628 100.144C154.628 98.9173 154.964 97.9467 155.636 97.232C156.308 96.5173 157.092 96.16 157.988 96.16ZM166.319 103.152C167.375 103.152 167.977 102.688 168.127 101.76H169.423C169.305 102.528 168.964 103.125 168.399 103.552C167.844 103.968 167.151 104.176 166.319 104.176C165.295 104.176 164.463 103.813 163.823 103.088C163.183 102.352 162.863 101.376 162.863 100.16C162.863 98.944 163.183 97.9733 163.823 97.248C164.473 96.5227 165.332 96.16 166.399 96.16C167.476 96.16 168.276 96.576 168.799 97.408C169.332 98.24 169.519 99.2533 169.359 100.448H164.127C164.127 101.237 164.319 101.888 164.703 102.4C165.087 102.901 165.625 103.152 166.319 103.152ZM167.247 97.36C167.001 97.232 166.703 97.168 166.351 97.168C165.7 97.168 165.183 97.392 164.799 97.84C164.425 98.2773 164.207 98.8267 164.143 99.488H168.223C168.223 98.4213 167.897 97.712 167.247 97.36ZM178.477 96.16C179.544 96.16 180.403 96.5067 181.053 97.2C181.715 97.8933 182.045 98.8853 182.045 100.176C182.045 101.456 181.715 102.443 181.053 103.136C180.403 103.829 179.544 104.176 178.477 104.176C177.411 104.176 176.547 103.829 175.885 103.136C175.235 102.443 174.909 101.456 174.909 100.176C174.909 98.8853 175.235 97.8933 175.885 97.2C176.547 96.5067 177.411 96.16 178.477 96.16ZM180.765 100.176C180.765 99.2587 180.573 98.544 180.189 98.032C179.805 97.5093 179.24 97.248 178.493 97.248C177.757 97.248 177.192 97.5093 176.797 98.032C176.403 98.544 176.205 99.2587 176.205 100.176C176.205 101.083 176.392 101.797 176.765 102.32C177.139 102.832 177.693 103.088 178.429 103.088C179.176 103.088 179.752 102.832 180.157 102.32C180.563 101.797 180.765 101.083 180.765 100.176ZM188.172 94.176C187.82 94.0373 187.542 93.968 187.34 93.968C186.966 93.968 186.673 94.0587 186.46 94.24C186.246 94.4213 186.14 94.7413 186.14 95.2V96.352H187.724V97.216H186.14V104H184.892V97.216H183.628V96.352H184.892V95.184C184.892 94.4267 185.1 93.872 185.516 93.52C185.932 93.1573 186.412 92.976 186.956 92.976C187.5 92.976 187.98 93.0453 188.396 93.184L188.172 94.176ZM196.301 96.16C197.207 96.16 197.927 96.3947 198.461 96.864C198.994 97.3227 199.341 97.8987 199.501 98.592L198.221 98.704C198.082 98.256 197.858 97.9093 197.549 97.664C197.239 97.408 196.898 97.28 196.525 97.28C195.842 97.28 195.287 97.536 194.861 98.048C194.445 98.56 194.237 99.2587 194.237 100.144C194.237 101.019 194.439 101.723 194.845 102.256C195.261 102.789 195.773 103.056 196.381 103.056C196.999 103.056 197.458 102.917 197.757 102.64C198.066 102.352 198.221 101.947 198.221 101.424H199.517C199.517 102.245 199.229 102.912 198.653 103.424C198.087 103.925 197.346 104.176 196.429 104.176C195.458 104.176 194.631 103.808 193.949 103.072C193.277 102.336 192.941 101.36 192.941 100.144C192.941 98.9173 193.277 97.9467 193.949 97.232C194.621 96.5173 195.405 96.16 196.301 96.16ZM204.743 96.16C205.81 96.16 206.668 96.5067 207.319 97.2C207.98 97.8933 208.311 98.8853 208.311 100.176C208.311 101.456 207.98 102.443 207.319 103.136C206.668 103.829 205.81 104.176 204.743 104.176C203.676 104.176 202.812 103.829 202.151 103.136C201.5 102.443 201.175 101.456 201.175 100.176C201.175 98.8853 201.5 97.8933 202.151 97.2C202.812 96.5067 203.676 96.16 204.743 96.16ZM207.031 100.176C207.031 99.2587 206.839 98.544 206.455 98.032C206.071 97.5093 205.506 97.248 204.759 97.248C204.023 97.248 203.458 97.5093 203.063 98.032C202.668 98.544 202.471 99.2587 202.471 100.176C202.471 101.083 202.658 101.797 203.031 102.32C203.404 102.832 203.959 103.088 204.695 103.088C205.442 103.088 206.018 102.832 206.423 102.32C206.828 101.797 207.031 101.083 207.031 100.176ZM214.437 94.176C214.085 94.0373 213.808 93.968 213.605 93.968C213.232 93.968 212.939 94.0587 212.725 94.24C212.512 94.4213 212.405 94.7413 212.405 95.2V96.352H213.989V97.216H212.405V104H211.157V97.216H209.893V96.352H211.157V95.184C211.157 94.4267 211.365 93.872 211.781 93.52C212.197 93.1573 212.677 92.976 213.221 92.976C213.765 92.976 214.245 93.0453 214.661 93.184L214.437 94.176ZM219.922 94.176C219.57 94.0373 219.292 93.968 219.09 93.968C218.716 93.968 218.423 94.0587 218.21 94.24C217.996 94.4213 217.89 94.7413 217.89 95.2V96.352H219.474V97.216H217.89V104H216.642V97.216H215.378V96.352H216.642V95.184C216.642 94.4267 216.85 93.872 217.266 93.52C217.682 93.1573 218.162 92.976 218.706 92.976C219.25 92.976 219.73 93.0453 220.146 93.184L219.922 94.176ZM224.334 103.152C225.39 103.152 225.993 102.688 226.142 101.76H227.438C227.321 102.528 226.979 103.125 226.414 103.552C225.859 103.968 225.166 104.176 224.334 104.176C223.31 104.176 222.478 103.813 221.838 103.088C221.198 102.352 220.878 101.376 220.878 100.16C220.878 98.944 221.198 97.9733 221.838 97.248C222.489 96.5227 223.347 96.16 224.414 96.16C225.491 96.16 226.291 96.576 226.814 97.408C227.347 98.24 227.534 99.2533 227.374 100.448H222.142C222.142 101.237 222.334 101.888 222.718 102.4C223.102 102.901 223.641 103.152 224.334 103.152ZM225.262 97.36C225.017 97.232 224.718 97.168 224.366 97.168C223.715 97.168 223.198 97.392 222.814 97.84C222.441 98.2773 222.222 98.8267 222.158 99.488H226.238C226.238 98.4213 225.913 97.712 225.262 97.36ZM232.569 103.152C233.625 103.152 234.227 102.688 234.377 101.76H235.673C235.555 102.528 235.214 103.125 234.649 103.552C234.094 103.968 233.401 104.176 232.569 104.176C231.545 104.176 230.713 103.813 230.073 103.088C229.433 102.352 229.113 101.376 229.113 100.16C229.113 98.944 229.433 97.9733 230.073 97.248C230.723 96.5227 231.582 96.16 232.649 96.16C233.726 96.16 234.526 96.576 235.049 97.408C235.582 98.24 235.769 99.2533 235.609 100.448H230.377C230.377 101.237 230.569 101.888 230.953 102.4C231.337 102.901 231.875 103.152 232.569 103.152ZM233.497 97.36C233.251 97.232 232.953 97.168 232.601 97.168C231.95 97.168 231.433 97.392 231.049 97.84C230.675 98.2773 230.457 98.8267 230.393 99.488H234.473C234.473 98.4213 234.147 97.712 233.497 97.36Z" fill="white"/>
<g filter="url(#filter0_d)">
<rect x="20" y="133" width="220" height="40" rx="5" fill="#CFFF20"/>
</g>
<path d="M98.3424 150.48C98.1718 149.573 97.5318 149.12 96.4224 149.12C95.8784 149.12 95.4518 149.232 95.1424 149.456C94.8438 149.669 94.6944 149.931 94.6944 150.24C94.6944 150.549 94.7904 150.795 94.9824 150.976C95.1851 151.147 95.4944 151.307 95.9104 151.456L98.1664 152.336C98.9344 152.635 99.5264 153.013 99.9424 153.472C100.358 153.92 100.566 154.485 100.566 155.168C100.566 156.107 100.214 156.853 99.5104 157.408C98.8064 157.952 97.8038 158.224 96.5024 158.224C95.3504 158.224 94.4171 157.941 93.7024 157.376C92.9024 156.757 92.4811 155.883 92.4384 154.752H94.3104C94.3104 155.605 94.7531 156.144 95.6384 156.368C95.9051 156.443 96.2571 156.48 96.6944 156.48C97.1318 156.48 97.5371 156.373 97.9104 156.16C98.2838 155.936 98.4704 155.643 98.4704 155.28C98.4704 154.907 98.3691 154.624 98.1664 154.432C97.9638 154.229 97.6331 154.043 97.1744 153.872L95.1104 153.056C94.3104 152.747 93.6971 152.384 93.2704 151.968C92.8438 151.552 92.6304 150.976 92.6304 150.24C92.6304 149.376 92.9664 148.693 93.6384 148.192C94.3211 147.669 95.2438 147.408 96.4064 147.408C97.5798 147.408 98.4811 147.68 99.1104 148.224C99.7504 148.757 100.118 149.509 100.214 150.48H98.3424ZM108.258 156.592C107.767 157.627 106.978 158.144 105.89 158.144C104.514 158.144 103.607 157.605 103.17 156.528C103.01 156.155 102.93 155.701 102.93 155.168V150.208H104.818V154.976C104.818 155.488 104.94 155.872 105.186 156.128C105.431 156.373 105.73 156.496 106.082 156.496C106.444 156.496 106.748 156.448 106.994 156.352C107.239 156.245 107.452 156.091 107.634 155.888C108.028 155.429 108.236 154.816 108.258 154.048V150.208H110.146V158H108.258V156.592ZM119.649 151.136C120.31 151.883 120.641 152.864 120.641 154.08C120.641 155.296 120.294 156.299 119.601 157.088C118.929 157.845 118.091 158.224 117.089 158.224C116.609 158.224 116.166 158.096 115.761 157.84C115.366 157.584 115.051 157.189 114.817 156.656L114.353 158H113.121V147.024H115.009V151.2C115.499 150.411 116.23 150.016 117.201 150.016C118.182 150.016 118.998 150.389 119.649 151.136ZM115.009 153.632V154.656C115.03 155.2 115.227 155.648 115.601 156C115.953 156.341 116.379 156.512 116.881 156.512C117.393 156.512 117.83 156.293 118.193 155.856C118.555 155.408 118.737 154.821 118.737 154.096C118.737 153.371 118.555 152.795 118.193 152.368C117.841 151.931 117.398 151.712 116.865 151.712C116.331 151.712 115.889 151.888 115.537 152.24C115.185 152.592 115.009 153.056 115.009 153.632ZM124.005 155.632C124.026 156.368 124.565 156.736 125.621 156.736C126.026 156.736 126.357 156.651 126.613 156.48C126.88 156.299 127.013 156.091 127.013 155.856C127.013 155.621 126.933 155.44 126.773 155.312C126.613 155.184 126.362 155.067 126.021 154.96L124.325 154.352C123.066 153.915 122.437 153.2 122.437 152.208C122.437 151.547 122.73 151.019 123.317 150.624C123.914 150.219 124.709 150.016 125.701 150.016C126.704 150.016 127.472 150.235 128.005 150.672C128.549 151.109 128.832 151.659 128.853 152.32H127.077C127.056 152.064 126.933 151.861 126.709 151.712C126.485 151.563 126.165 151.488 125.749 151.488C125.333 151.488 125.008 151.573 124.773 151.744C124.549 151.904 124.437 152.091 124.437 152.304C124.437 152.677 124.752 152.955 125.381 153.136L127.221 153.824C127.829 154.027 128.293 154.288 128.613 154.608C128.944 154.917 129.109 155.323 129.109 155.824C129.109 156.464 128.805 157.019 128.197 157.488C127.568 157.979 126.736 158.224 125.701 158.224C124.666 158.224 123.834 158 123.205 157.552C122.576 157.093 122.256 156.453 122.245 155.632H124.005ZM134.346 150.016C134.837 150.016 135.274 150.101 135.658 150.272C136.053 150.432 136.384 150.645 136.65 150.912C137.184 151.424 137.498 152.069 137.594 152.848L135.69 152.896C135.605 152.555 135.445 152.272 135.21 152.048C134.986 151.824 134.725 151.712 134.426 151.712C134.128 151.712 133.872 151.76 133.658 151.856C133.445 151.941 133.258 152.08 133.098 152.272C132.736 152.72 132.554 153.339 132.554 154.128C132.554 154.917 132.725 155.515 133.066 155.92C133.408 156.315 133.818 156.512 134.298 156.512C134.789 156.512 135.141 156.4 135.354 156.176C135.578 155.941 135.69 155.627 135.69 155.232H137.594C137.594 156.085 137.312 156.795 136.746 157.36C136.17 157.936 135.365 158.224 134.33 158.224C133.306 158.224 132.448 157.851 131.754 157.104C131.018 156.304 130.65 155.307 130.65 154.112C130.65 152.853 131.018 151.845 131.754 151.088C132.448 150.373 133.312 150.016 134.346 150.016ZM141.759 151.76C142.228 150.64 142.932 150.08 143.871 150.08C144.052 150.08 144.281 150.117 144.559 150.192L144.527 152.08C144.228 152.016 143.935 151.984 143.647 151.984C142.388 151.984 141.759 152.853 141.759 154.592V158H139.871V150.208H141.759V151.76ZM146.687 150.208H148.575V158H146.687V150.208ZM146.463 147.712C146.463 147.371 146.564 147.104 146.767 146.912C146.97 146.709 147.258 146.608 147.631 146.608C147.994 146.608 148.276 146.709 148.479 146.912C148.692 147.104 148.799 147.371 148.799 147.712C148.799 148.053 148.692 148.325 148.479 148.528C148.276 148.72 147.994 148.816 147.631 148.816C147.258 148.816 146.97 148.72 146.767 148.528C146.564 148.325 146.463 148.053 146.463 147.712ZM158.305 151.136C158.966 151.883 159.297 152.864 159.297 154.08C159.297 155.296 158.95 156.299 158.257 157.088C157.585 157.845 156.748 158.224 155.745 158.224C155.265 158.224 154.822 158.096 154.417 157.84C154.022 157.584 153.708 157.189 153.473 156.656L153.009 158H151.777V147.024H153.665V151.2C154.156 150.411 154.886 150.016 155.857 150.016C156.838 150.016 157.654 150.389 158.305 151.136ZM153.665 153.632V154.656C153.686 155.2 153.884 155.648 154.257 156C154.609 156.341 155.036 156.512 155.537 156.512C156.049 156.512 156.486 156.293 156.849 155.856C157.212 155.408 157.393 154.821 157.393 154.096C157.393 153.371 157.212 152.795 156.849 152.368C156.497 151.931 156.054 151.712 155.521 151.712C154.988 151.712 154.545 151.888 154.193 152.24C153.841 152.592 153.665 153.056 153.665 153.632ZM167.029 151.152C167.296 151.493 167.493 151.888 167.621 152.336C167.76 152.784 167.829 153.195 167.829 153.568C167.829 153.941 167.808 154.277 167.765 154.576H162.741C162.763 155.205 162.917 155.717 163.205 156.112C163.493 156.507 163.931 156.704 164.517 156.704C165.296 156.704 165.76 156.363 165.909 155.68H167.813C167.685 156.459 167.328 157.072 166.741 157.52C166.133 157.989 165.392 158.224 164.517 158.224C163.493 158.224 162.635 157.851 161.941 157.104C161.227 156.325 160.869 155.328 160.869 154.112C160.869 152.864 161.227 151.861 161.941 151.104C162.624 150.379 163.483 150.016 164.517 150.016C165.595 150.016 166.432 150.395 167.029 151.152ZM164.533 151.52C164 151.52 163.584 151.696 163.285 152.048C162.987 152.389 162.811 152.832 162.757 153.376H166.069C166.069 152.533 165.803 151.968 165.269 151.68C165.067 151.573 164.821 151.52 164.533 151.52Z" fill="white"/>
<defs>
<filter id="filter0_d" x="16" y="133" width="228" height="48" filterUnits="userSpaceOnUse" color-interpolation-filters="sRGB">
<feFlood flood-opacity="0" result="BackgroundImageFix"/>
<feColorMatrix in="SourceAlpha" type="matrix" values="0 0 0 0 0 0 0 0 0 0 0 0 0 0 0 0 0 0 127 0"/>
<feOffset dy="4"/>
<feGaussianBlur stdDeviation="2"/>
<feColorMatrix type="matrix" values="0 0 0 0 0 0 0 0 0 0 0 0 0 0 0 0 0 0 0.25 0"/>
<feBlend mode="normal" in2="BackgroundImageFix" result="effect1_dropShadow"/>
<feBlend mode="normal" in="SourceGraphic" in2="effect1_dropShadow" result="shape"/>
</filter>
</defs>
</svg>