<svg width="335" height="431" viewBox="0 0 335 431" fill="none" xmlns="http://www.w3.org/2000/svg">
<rect y="0.981689" width="334.21" height="54.1121" rx="27.056" fill="white"/>
<path d="M33.24 37.701C38.5548 37.701 42.9033 33.3526 42.9033 28.0378C42.9033 22.723 38.5548 18.3745 33.24 18.3745C27.9253 18.3745 23.5768 22.723 23.5768 28.0378C23.5768 33.3526 27.9253 37.701 33.24 37.701Z" stroke="#F9614C" stroke-width="1.56448" stroke-linecap="round" stroke-linejoin="round"/>
<path d="M30.5052 30.7724L35.9746 25.303" stroke="#F9614C" stroke-width="1.56448" stroke-linecap="round" stroke-linejoin="round"/>
<path d="M35.9746 30.7724L30.5052 25.303" stroke="#F9614C" stroke-width="1.56448" stroke-linecap="round" stroke-linejoin="round"/>
<path d="M61.9515 30.7818C61.9515 29.2341 60.9587 28.3872 59.119 28.0222L57.3231 27.6572C56.5638 27.5112 55.9068 27.2046 55.9068 26.4891C55.9068 25.7591 56.52 25.1459 57.6005 25.1459C58.7101 25.1459 59.4694 25.8905 59.5424 26.9856H61.7909C61.6449 24.7954 59.922 23.423 57.5713 23.423C55.3082 23.423 53.6583 24.7662 53.6583 26.6351C53.6583 28.3726 54.8847 29.2341 56.4762 29.5407L58.1991 29.8765C59.0898 30.0517 59.6008 30.4459 59.6008 31.103C59.6008 31.9498 58.7977 32.4462 57.6735 32.4462C56.3156 32.4462 55.571 31.7016 55.5126 30.5481H53.264C53.4247 32.7675 55.0745 34.1837 57.7173 34.1837C60.3454 34.1837 61.9515 32.7821 61.9515 30.7818ZM66.8586 34.1837C69.1217 34.1837 70.8154 32.4024 70.8154 30.1393C70.8154 27.8616 69.1217 26.0949 66.8586 26.0949C64.5955 26.0949 62.9018 27.8616 62.9018 30.1393C62.9018 32.4024 64.5955 34.1837 66.8586 34.1837ZM66.8586 32.3878C65.8512 32.3878 64.9897 31.5848 64.9897 30.1393C64.9897 28.6938 65.8512 27.9054 66.8586 27.9054C67.8661 27.9054 68.7275 28.6938 68.7275 30.1393C68.7275 31.5848 67.8661 32.3878 66.8586 32.3878ZM74.1401 34.0377V29.6867C74.1401 28.5186 74.7825 27.8908 75.6001 27.8908C76.4908 27.8908 76.958 28.5478 76.958 29.6429V34.0377H78.9729V29.6867C78.9729 28.5186 79.6299 27.8908 80.433 27.8908C81.3236 27.8908 81.7909 28.5478 81.7909 29.6429V34.0377H83.8058V29.0005C83.8058 27.1316 82.7399 26.0949 81.163 26.0949C79.995 26.0949 79.2065 26.6205 78.5933 27.482C78.1991 26.5913 77.3814 26.0949 76.3156 26.0949C75.2789 26.0949 74.5489 26.5621 73.9794 27.3506V26.2409H72.1106V34.0377H74.1401ZM88.9295 34.1691C90.8276 34.1691 92.1855 33.1617 92.6235 31.395H90.6086C90.375 32.1688 89.7763 32.6068 88.8857 32.6068C87.849 32.6068 87.2358 31.906 87.1044 30.6357H92.6381C93.0031 28.0952 91.3678 26.0949 88.9003 26.0949C86.6518 26.0949 85.0311 27.7886 85.0311 30.1101C85.0311 32.5484 86.5934 34.1691 88.9295 34.1691ZM88.8565 27.5842C89.8201 27.5842 90.4334 28.2704 90.4918 29.3509H87.1336C87.3088 28.1974 87.9074 27.5842 88.8565 27.5842ZM101.692 34.0377H103.342V29.1319C103.342 27.2192 102.144 26.0949 100.1 26.0949C98.2168 26.0949 96.9174 27.263 96.8005 29.0589H98.6256C98.6986 28.1828 99.2243 27.6718 100.1 27.6718C100.947 27.6718 101.444 28.1828 101.444 29.0589V29.5261C100.962 29.4677 100.582 29.4385 100.144 29.4385C97.8664 29.4385 96.6399 30.2561 96.6399 31.7746C96.6399 33.2347 97.7204 34.1837 99.3411 34.1837C100.407 34.1837 101.181 33.8041 101.692 33.0741V34.0377ZM98.5526 31.7162C98.5526 31.0154 99.1221 30.6503 100.276 30.6503C100.626 30.6503 100.962 30.6795 101.444 30.7525V31.3074C101.444 32.2126 100.816 32.7821 99.7791 32.7821C99.0199 32.7821 98.5526 32.3732 98.5526 31.7162ZM107.12 30.2561C107.12 28.5332 108.274 28.1244 109.996 28.2558V26.1533C108.741 26.1533 107.529 26.7519 106.959 27.7448V26.2409H105.091V34.0377H107.12V30.2561ZM114.381 34.1691C116.279 34.1691 117.637 33.1617 118.075 31.395H116.06C115.826 32.1688 115.228 32.6068 114.337 32.6068C113.301 32.6068 112.687 31.906 112.556 30.6357H118.09C118.455 28.0952 116.819 26.0949 114.352 26.0949C112.103 26.0949 110.483 27.7886 110.483 30.1101C110.483 32.5484 112.045 34.1691 114.381 34.1691ZM114.308 27.5842C115.272 27.5842 115.885 28.2704 115.943 29.3509H112.585C112.76 28.1974 113.359 27.5842 114.308 27.5842Z" fill="black"/>
<path d="M125.946 34.1837C128.209 34.1837 129.903 32.4024 129.903 30.1393C129.903 27.8616 128.209 26.0949 125.946 26.0949C123.683 26.0949 121.989 27.8616 121.989 30.1393C121.989 32.4024 123.683 34.1837 125.946 34.1837ZM125.946 32.3878C124.939 32.3878 124.077 31.5848 124.077 30.1393C124.077 28.6938 124.939 27.9054 125.946 27.9054C126.954 27.9054 127.815 28.6938 127.815 30.1393C127.815 31.5848 126.954 32.3878 125.946 32.3878ZM133.228 29.7889C133.228 28.5332 133.914 27.8908 134.717 27.8908C135.637 27.8908 136.089 28.5332 136.089 29.6867V34.0377H138.104V29.0005C138.104 27.117 137.024 26.0949 135.461 26.0949C134.439 26.0949 133.636 26.5767 133.067 27.3506V26.2409H131.198V34.0377H133.228V29.7889ZM141.897 34.0377V23.5544H139.853V34.0377H141.897ZM150.74 26.2409H148.71L146.929 31.5848L144.973 26.2409H142.783L145.849 33.9501L144.739 36.8557H146.944L150.74 26.2409ZM162.464 30.1393C162.464 27.847 161.106 26.0949 159.004 26.0949C158.011 26.0949 157.149 26.5475 156.551 27.3798V26.2409H154.682V36.8557H156.711V33.0303C157.295 33.7895 158.084 34.1837 159.004 34.1837C161.106 34.1837 162.464 32.4462 162.464 30.1393ZM160.376 30.1393C160.376 31.6286 159.544 32.3732 158.551 32.3732C157.558 32.3732 156.726 31.614 156.726 30.1393C156.726 28.6646 157.558 27.8908 158.551 27.8908C159.544 27.8908 160.376 28.6792 160.376 30.1393ZM165.809 34.0377V23.5544H163.765V34.0377H165.809ZM172.272 34.0377H173.922V29.1319C173.922 27.2192 172.724 26.0949 170.68 26.0949C168.797 26.0949 167.497 27.263 167.38 29.0589H169.205C169.278 28.1828 169.804 27.6718 170.68 27.6718C171.527 27.6718 172.023 28.1828 172.023 29.0589V29.5261C171.542 29.4677 171.162 29.4385 170.724 29.4385C168.446 29.4385 167.22 30.2561 167.22 31.7746C167.22 33.2347 168.3 34.1837 169.921 34.1837C170.987 34.1837 171.761 33.8041 172.272 33.0741V34.0377ZM169.132 31.7162C169.132 31.0154 169.702 30.6503 170.855 30.6503C171.206 30.6503 171.542 30.6795 172.023 30.7525V31.3074C172.023 32.2126 171.396 32.7821 170.359 32.7821C169.6 32.7821 169.132 32.3732 169.132 31.7162ZM180.404 32.0666C180.112 32.2272 179.761 32.3148 179.382 32.3148C178.652 32.3148 178.243 31.9498 178.243 31.0446V27.9784H180.477V26.2409H178.243V23.934H176.228V26.2409H174.651V27.9784H176.228V31.5118C176.228 33.2639 177.235 34.1837 178.842 34.1837C179.44 34.1837 179.907 34.0815 180.404 33.8333V32.0666ZM184.604 34.0377V27.9784H186.633V26.2409H184.604V25.8613C184.604 25.3211 184.969 25.1021 185.524 25.1021C185.787 25.1021 186.079 25.1459 186.298 25.2335V23.6274C185.962 23.4814 185.538 23.3938 185.042 23.3938C183.421 23.3938 182.589 24.2698 182.589 25.8175V26.2409H181.012V27.9784H182.589V34.0377H184.604ZM190.908 34.1837C193.171 34.1837 194.865 32.4024 194.865 30.1393C194.865 27.8616 193.171 26.0949 190.908 26.0949C188.645 26.0949 186.951 27.8616 186.951 30.1393C186.951 32.4024 188.645 34.1837 190.908 34.1837ZM190.908 32.3878C189.901 32.3878 189.039 31.5848 189.039 30.1393C189.039 28.6938 189.901 27.9054 190.908 27.9054C191.915 27.9054 192.777 28.6938 192.777 30.1393C192.777 31.5848 191.915 32.3878 190.908 32.3878ZM198.189 30.2561C198.189 28.5332 199.343 28.1244 201.066 28.2558V26.1533C199.81 26.1533 198.598 26.7519 198.029 27.7448V26.2409H196.16V34.0377H198.189V30.2561ZM204.15 34.0377V29.6867C204.15 28.5186 204.792 27.8908 205.61 27.8908C206.5 27.8908 206.968 28.5478 206.968 29.6429V34.0377H208.982V29.6867C208.982 28.5186 209.639 27.8908 210.442 27.8908C211.333 27.8908 211.8 28.5478 211.8 29.6429V34.0377H213.815V29.0005C213.815 27.1316 212.749 26.0949 211.173 26.0949C210.004 26.0949 209.216 26.6205 208.603 27.482C208.209 26.5913 207.391 26.0949 206.325 26.0949C205.288 26.0949 204.558 26.5621 203.989 27.3506V26.2409H202.12V34.0377H204.15ZM225.188 31.541C225.188 30.4167 224.414 29.7159 222.896 29.4239L221.392 29.1465C220.691 29.0151 220.37 28.8252 220.37 28.358C220.37 27.8616 220.866 27.5842 221.611 27.5842C222.472 27.5842 223.042 28.0514 223.115 28.8106H225.056C224.91 27.1316 223.567 26.0949 221.611 26.0949C219.669 26.0949 218.428 27.1024 218.428 28.5478C218.428 29.7597 219.275 30.5335 220.676 30.7818L222.078 31.0446C222.823 31.1906 223.144 31.395 223.144 31.8914C223.144 32.4462 222.545 32.6944 221.757 32.6944C220.749 32.6944 220.063 32.1834 220.048 31.3804H218.107C218.267 33.1179 219.508 34.1837 221.728 34.1837C223.947 34.1837 225.188 33.1763 225.188 31.541ZM234.356 30.1393C234.356 27.847 232.998 26.0949 230.895 26.0949C229.902 26.0949 229.041 26.5475 228.442 27.3798V26.2409H226.573V36.8557H228.603V33.0303C229.187 33.7895 229.975 34.1837 230.895 34.1837C232.998 34.1837 234.356 32.4462 234.356 30.1393ZM232.268 30.1393C232.268 31.6286 231.436 32.3732 230.443 32.3732C229.45 32.3732 228.618 31.614 228.618 30.1393C228.618 28.6646 229.45 27.8908 230.443 27.8908C231.436 27.8908 232.268 28.6792 232.268 30.1393ZM239.044 34.1691C240.942 34.1691 242.3 33.1617 242.738 31.395H240.723C240.489 32.1688 239.89 32.6068 239 32.6068C237.963 32.6068 237.35 31.906 237.218 30.6357H242.752C243.117 28.0952 241.482 26.0949 239.014 26.0949C236.766 26.0949 235.145 27.7886 235.145 30.1101C235.145 32.5484 236.707 34.1691 239.044 34.1691ZM238.971 27.5842C239.934 27.5842 240.547 28.2704 240.606 29.3509H237.248C237.423 28.1974 238.021 27.5842 238.971 27.5842ZM247.254 34.1837C249.342 34.1837 250.802 32.8551 251.036 30.7087H248.904C248.787 31.7746 248.189 32.3878 247.254 32.3878C246.188 32.3878 245.531 31.541 245.531 30.1393C245.531 28.7522 246.203 27.8908 247.254 27.8908C248.174 27.8908 248.802 28.5332 248.904 29.5699H251.036C250.787 27.4674 249.284 26.0949 247.254 26.0949C245.064 26.0949 243.458 27.8032 243.458 30.1393C243.458 32.5192 245.006 34.1837 247.254 34.1837ZM254.689 24.4304C254.689 23.715 254.135 23.204 253.332 23.204C252.543 23.204 251.988 23.715 251.988 24.4304C251.988 25.1167 252.543 25.6277 253.332 25.6277C254.135 25.6277 254.689 25.1167 254.689 24.4304ZM254.368 34.0377V26.2409H252.339V34.0377H254.368ZM264.351 24.4304C264.351 23.715 263.796 23.204 262.993 23.204C262.19 23.204 261.635 23.715 261.635 24.4304C261.635 25.1167 262.19 25.6277 262.993 25.6277C263.796 25.6277 264.351 25.1167 264.351 24.4304ZM258.934 34.0377V27.9784H260.963V26.2409H258.934V25.8613C258.934 25.3211 259.299 25.1021 259.854 25.1021C260.116 25.1021 260.408 25.1459 260.627 25.2335V23.6274C260.292 23.4814 259.868 23.3938 259.372 23.3938C257.751 23.3938 256.919 24.2698 256.919 25.8175V26.2409H255.342V27.9784H256.919V34.0377H258.934ZM264.015 34.0377V26.2409H262V34.0377H264.015ZM269.127 34.1837C271.215 34.1837 272.675 32.8551 272.908 30.7087H270.777C270.66 31.7746 270.061 32.3878 269.127 32.3878C268.061 32.3878 267.404 31.541 267.404 30.1393C267.404 28.7522 268.075 27.8908 269.127 27.8908C270.047 27.8908 270.674 28.5332 270.777 29.5699H272.908C272.66 27.4674 271.156 26.0949 269.127 26.0949C266.937 26.0949 265.33 27.8032 265.33 30.1393C265.33 32.5192 266.878 34.1837 269.127 34.1837Z" fill="#F9614C"/>
<rect y="75.965" width="334.21" height="54.1121" rx="27.056" fill="white"/>
<path d="M33.24 112.684C38.5548 112.684 42.9033 108.336 42.9033 103.021C42.9033 97.7061 38.5548 93.3577 33.24 93.3577C27.9253 93.3577 23.5768 97.7061 23.5768 103.021C23.5768 108.336 27.9253 112.684 33.24 112.684Z" stroke="#F9614C" stroke-width="1.56448" stroke-linecap="round" stroke-linejoin="round"/>
<path d="M30.5052 105.756L35.9746 100.286" stroke="#F9614C" stroke-width="1.56448" stroke-linecap="round" stroke-linejoin="round"/>
<path d="M35.9746 105.756L30.5052 100.286" stroke="#F9614C" stroke-width="1.56448" stroke-linecap="round" stroke-linejoin="round"/>
<path d="M62.0242 105.765C62.0242 104.217 61.0314 103.371 59.1917 103.005L57.3958 102.64C56.6365 102.494 55.9795 102.188 55.9795 101.472C55.9795 100.742 56.5927 100.129 57.6732 100.129C58.7828 100.129 59.5421 100.874 59.6151 101.969H61.8636C61.7176 99.7787 59.9947 98.4062 57.644 98.4062C55.3809 98.4062 53.731 99.7495 53.731 101.618C53.731 103.356 54.9574 104.217 56.5489 104.524L58.2718 104.86C59.1625 105.035 59.6735 105.429 59.6735 106.086C59.6735 106.933 58.8705 107.43 57.7462 107.43C56.3883 107.43 55.6437 106.685 55.5853 105.531H53.3368C53.4974 107.751 55.1473 109.167 57.79 109.167C60.4181 109.167 62.0242 107.765 62.0242 105.765ZM66.9313 109.167C69.1944 109.167 70.8881 107.386 70.8881 105.123C70.8881 102.845 69.1944 101.078 66.9313 101.078C64.6682 101.078 62.9745 102.845 62.9745 105.123C62.9745 107.386 64.6682 109.167 66.9313 109.167ZM66.9313 107.371C65.9239 107.371 65.0624 106.568 65.0624 105.123C65.0624 103.677 65.9239 102.889 66.9313 102.889C67.9388 102.889 68.8002 103.677 68.8002 105.123C68.8002 106.568 67.9388 107.371 66.9313 107.371ZM74.2128 109.021V104.67C74.2128 103.502 74.8552 102.874 75.6728 102.874C76.5635 102.874 77.0307 103.531 77.0307 104.626V109.021H79.0456V104.67C79.0456 103.502 79.7027 102.874 80.5057 102.874C81.3963 102.874 81.8636 103.531 81.8636 104.626V109.021H83.8785V103.984C83.8785 102.115 82.8126 101.078 81.2357 101.078C80.0677 101.078 79.2792 101.604 78.666 102.465C78.2718 101.575 77.4541 101.078 76.3883 101.078C75.3516 101.078 74.6216 101.545 74.0522 102.334V101.224H72.1833V109.021H74.2128ZM89.0022 109.152C90.9003 109.152 92.2582 108.145 92.6962 106.378H90.6813C90.4477 107.152 89.849 107.59 88.9584 107.59C87.9217 107.59 87.3085 106.889 87.1771 105.619H92.7108C93.0758 103.078 91.4405 101.078 88.973 101.078C86.7245 101.078 85.1038 102.772 85.1038 105.093C85.1038 107.532 86.6661 109.152 89.0022 109.152ZM88.9292 102.567C89.8928 102.567 90.5061 103.254 90.5645 104.334H87.2063C87.3815 103.181 87.9801 102.567 88.9292 102.567ZM101.765 109.021H103.414V104.115C103.414 102.202 102.217 101.078 100.173 101.078C98.2895 101.078 96.9901 102.246 96.8733 104.042H98.6984C98.7714 103.166 99.297 102.655 100.173 102.655C101.02 102.655 101.516 103.166 101.516 104.042V104.509C101.034 104.451 100.655 104.422 100.217 104.422C97.9391 104.422 96.7127 105.239 96.7127 106.758C96.7127 108.218 97.7931 109.167 99.4138 109.167C100.48 109.167 101.253 108.787 101.765 108.057V109.021ZM98.6254 106.699C98.6254 105.999 99.1948 105.634 100.348 105.634C100.699 105.634 101.034 105.663 101.516 105.736V106.291C101.516 107.196 100.888 107.765 99.8518 107.765C99.0926 107.765 98.6254 107.357 98.6254 106.699ZM107.193 105.239C107.193 103.517 108.346 103.108 110.069 103.239V101.137C108.813 101.137 107.602 101.735 107.032 102.728V101.224H105.163V109.021H107.193V105.239ZM114.454 109.152C116.352 109.152 117.71 108.145 118.148 106.378H116.133C115.899 107.152 115.301 107.59 114.41 107.59C113.373 107.59 112.76 106.889 112.629 105.619H118.162C118.527 103.078 116.892 101.078 114.425 101.078C112.176 101.078 110.555 102.772 110.555 105.093C110.555 107.532 112.118 109.152 114.454 109.152ZM114.381 102.567C115.344 102.567 115.958 103.254 116.016 104.334H112.658C112.833 103.181 113.432 102.567 114.381 102.567Z" fill="black"/>
<path d="M124.603 104.772C124.603 103.517 125.289 102.874 126.092 102.874C127.012 102.874 127.464 103.517 127.464 104.67V109.021H129.479V103.984C129.479 102.1 128.399 101.078 126.836 101.078C125.814 101.078 125.011 101.56 124.442 102.334V101.224H122.573V109.021H124.603V104.772ZM134.674 109.167C136.937 109.167 138.631 107.386 138.631 105.123C138.631 102.845 136.937 101.078 134.674 101.078C132.411 101.078 130.717 102.845 130.717 105.123C130.717 107.386 132.411 109.167 134.674 109.167ZM134.674 107.371C133.666 107.371 132.805 106.568 132.805 105.123C132.805 103.677 133.666 102.889 134.674 102.889C135.681 102.889 136.543 103.677 136.543 105.123C136.543 106.568 135.681 107.371 134.674 107.371ZM144.631 107.05C144.339 107.211 143.988 107.298 143.608 107.298C142.878 107.298 142.47 106.933 142.47 106.028V102.962H144.704V101.224H142.47V98.9173H140.455V101.224H138.878V102.962H140.455V106.495C140.455 108.247 141.462 109.167 143.068 109.167C143.667 109.167 144.134 109.065 144.631 108.817V107.05ZM153.739 105.736C153.739 106.787 153.039 107.371 152.308 107.371C151.491 107.371 150.951 106.889 150.951 105.794V101.224H148.921V106.188C148.921 108.218 150.06 109.167 151.622 109.167C152.615 109.167 153.477 108.685 153.9 107.999V109.021H155.754V101.224H153.739V105.736ZM164.163 106.524C164.163 105.4 163.389 104.699 161.87 104.407L160.366 104.13C159.666 103.998 159.344 103.809 159.344 103.341C159.344 102.845 159.841 102.567 160.586 102.567C161.447 102.567 162.016 103.035 162.089 103.794H164.031C163.885 102.115 162.542 101.078 160.586 101.078C158.644 101.078 157.403 102.086 157.403 103.531C157.403 104.743 158.249 105.517 159.651 105.765L161.053 106.028C161.797 106.174 162.119 106.378 162.119 106.875C162.119 107.43 161.52 107.678 160.732 107.678C159.724 107.678 159.038 107.167 159.023 106.364H157.081C157.242 108.101 158.483 109.167 160.702 109.167C162.922 109.167 164.163 108.16 164.163 106.524ZM167.899 99.4137C167.899 98.6983 167.344 98.1872 166.541 98.1872C165.753 98.1872 165.198 98.6983 165.198 99.4137C165.198 100.1 165.753 100.611 166.541 100.611C167.344 100.611 167.899 100.1 167.899 99.4137ZM167.578 109.021V101.224H165.548V109.021H167.578ZM171.413 104.772C171.413 103.517 172.1 102.874 172.903 102.874C173.822 102.874 174.275 103.517 174.275 104.67V109.021H176.29V103.984C176.29 102.1 175.21 101.078 173.647 101.078C172.625 101.078 171.822 101.56 171.253 102.334V101.224H169.384V109.021H171.413V104.772ZM181.353 111.985C183.66 111.985 185.062 110.729 185.062 108.656V101.224H183.207V102.29C182.638 101.487 181.85 101.078 180.798 101.078C178.871 101.078 177.528 102.64 177.528 104.904C177.528 107.108 178.959 108.729 180.871 108.729C181.82 108.729 182.623 108.291 183.047 107.546V108.685C183.047 109.809 182.463 110.408 181.339 110.408C180.375 110.408 179.805 109.941 179.718 109.05H177.761C177.849 110.846 179.251 111.985 181.353 111.985ZM179.557 104.904C179.557 103.633 180.229 102.83 181.266 102.83C182.331 102.83 183.032 103.648 183.032 104.918C183.032 106.145 182.331 106.977 181.266 106.977C180.214 106.977 179.557 106.174 179.557 104.904ZM194.88 109.021H196.734L199.508 101.998V109.021H201.523V98.5376H198.866L195.814 106.305L192.777 98.5376H190.12V109.021H192.135V102.056L194.88 109.021ZM208.133 109.021H209.783V104.115C209.783 102.202 208.586 101.078 206.542 101.078C204.658 101.078 203.359 102.246 203.242 104.042H205.067C205.14 103.166 205.666 102.655 206.542 102.655C207.389 102.655 207.885 103.166 207.885 104.042V104.509C207.403 104.451 207.024 104.422 206.586 104.422C204.308 104.422 203.081 105.239 203.081 106.758C203.081 108.218 204.162 109.167 205.783 109.167C206.848 109.167 207.622 108.787 208.133 108.057V109.021ZM204.994 106.699C204.994 105.999 205.564 105.634 206.717 105.634C207.067 105.634 207.403 105.663 207.885 105.736V106.291C207.885 107.196 207.257 107.765 206.221 107.765C205.461 107.765 204.994 107.357 204.994 106.699ZM214.817 109.167C216.905 109.167 218.365 107.838 218.599 105.692H216.467C216.35 106.758 215.752 107.371 214.817 107.371C213.751 107.371 213.094 106.524 213.094 105.123C213.094 103.736 213.766 102.874 214.817 102.874C215.737 102.874 216.365 103.517 216.467 104.553H218.599C218.351 102.451 216.847 101.078 214.817 101.078C212.627 101.078 211.021 102.786 211.021 105.123C211.021 107.503 212.569 109.167 214.817 109.167ZM221.931 104.772C221.931 103.517 222.618 102.874 223.421 102.874C224.341 102.874 224.793 103.517 224.793 104.67V109.021H226.808V103.984C226.808 102.1 225.728 101.078 224.165 101.078C223.143 101.078 222.472 101.531 221.931 102.246V98.5376H219.902V109.021H221.931V104.772ZM230.908 99.4137C230.908 98.6983 230.353 98.1872 229.55 98.1872C228.761 98.1872 228.206 98.6983 228.206 99.4137C228.206 100.1 228.761 100.611 229.55 100.611C230.353 100.611 230.908 100.1 230.908 99.4137ZM230.586 109.021V101.224H228.557V109.021H230.586ZM234.422 104.772C234.422 103.517 235.108 102.874 235.911 102.874C236.831 102.874 237.284 103.517 237.284 104.67V109.021H239.299V103.984C239.299 102.1 238.218 101.078 236.656 101.078C235.634 101.078 234.831 101.56 234.261 102.334V101.224H232.392V109.021H234.422V104.772ZM244.435 109.152C246.333 109.152 247.691 108.145 248.129 106.378H246.114C245.88 107.152 245.282 107.59 244.391 107.59C243.354 107.59 242.741 106.889 242.61 105.619H248.143C248.508 103.078 246.873 101.078 244.405 101.078C242.157 101.078 240.536 102.772 240.536 105.093C240.536 107.532 242.099 109.152 244.435 109.152ZM244.362 102.567C245.325 102.567 245.939 103.254 245.997 104.334H242.639C242.814 103.181 243.413 102.567 244.362 102.567ZM259.504 109.021V107.021H254.948V98.5376H252.729V109.021H259.504ZM264.069 109.152C265.967 109.152 267.325 108.145 267.763 106.378H265.748C265.514 107.152 264.916 107.59 264.025 107.59C262.988 107.59 262.375 106.889 262.244 105.619H267.777C268.142 103.078 266.507 101.078 264.04 101.078C261.791 101.078 260.17 102.772 260.17 105.093C260.17 107.532 261.733 109.152 264.069 109.152ZM263.996 102.567C264.959 102.567 265.573 103.254 265.631 104.334H262.273C262.448 103.181 263.047 102.567 263.996 102.567ZM273.78 109.021H275.43V104.115C275.43 102.202 274.232 101.078 272.188 101.078C270.305 101.078 269.005 102.246 268.888 104.042H270.714C270.787 103.166 271.312 102.655 272.188 102.655C273.035 102.655 273.532 103.166 273.532 104.042V104.509C273.05 104.451 272.67 104.422 272.232 104.422C269.954 104.422 268.728 105.239 268.728 106.758C268.728 108.218 269.808 109.167 271.429 109.167C272.495 109.167 273.269 108.787 273.78 108.057V109.021ZM270.641 106.699C270.641 105.999 271.21 105.634 272.363 105.634C272.714 105.634 273.05 105.663 273.532 105.736V106.291C273.532 107.196 272.904 107.765 271.867 107.765C271.108 107.765 270.641 107.357 270.641 106.699ZM279.208 105.239C279.208 103.517 280.361 103.108 282.084 103.239V101.137C280.829 101.137 279.617 101.735 279.047 102.728V101.224H277.179V109.021H279.208V105.239ZM285.168 104.772C285.168 103.517 285.854 102.874 286.657 102.874C287.577 102.874 288.03 103.517 288.03 104.67V109.021H290.045V103.984C290.045 102.1 288.964 101.078 287.402 101.078C286.38 101.078 285.577 101.56 285.007 102.334V101.224H283.139V109.021H285.168V104.772ZM294.144 99.4137C294.144 98.6983 293.589 98.1872 292.786 98.1872C291.998 98.1872 291.443 98.6983 291.443 99.4137C291.443 100.1 291.998 100.611 292.786 100.611C293.589 100.611 294.144 100.1 294.144 99.4137ZM293.823 109.021V101.224H291.794V109.021H293.823ZM297.659 104.772C297.659 103.517 298.345 102.874 299.148 102.874C300.068 102.874 300.52 103.517 300.52 104.67V109.021H302.535V103.984C302.535 102.1 301.455 101.078 299.892 101.078C298.87 101.078 298.067 101.56 297.498 102.334V101.224H295.629V109.021H297.659V104.772ZM307.598 111.985C309.905 111.985 311.307 110.729 311.307 108.656V101.224H309.453V102.29C308.883 101.487 308.095 101.078 307.044 101.078C305.116 101.078 303.773 102.64 303.773 104.904C303.773 107.108 305.204 108.729 307.117 108.729C308.066 108.729 308.869 108.291 309.292 107.546V108.685C309.292 109.809 308.708 110.408 307.584 110.408C306.62 110.408 306.051 109.941 305.963 109.05H304.007C304.094 110.846 305.496 111.985 307.598 111.985ZM305.802 104.904C305.802 103.633 306.474 102.83 307.511 102.83C308.577 102.83 309.277 103.648 309.277 104.918C309.277 106.145 308.577 106.977 307.511 106.977C306.46 106.977 305.802 106.174 305.802 104.904Z" fill="#F9614C"/>
<rect y="150.948" width="334.21" height="54.1121" rx="27.056" fill="white"/>
<path d="M33.24 187.667C38.5548 187.667 42.9033 183.319 42.9033 178.004C42.9033 172.689 38.5548 168.341 33.24 168.341C27.9253 168.341 23.5768 172.689 23.5768 178.004C23.5768 183.319 27.9253 187.667 33.24 187.667Z" stroke="#F9614C" stroke-width="1.56448" stroke-linecap="round" stroke-linejoin="round"/>
<path d="M30.5052 180.739L35.9746 175.269" stroke="#F9614C" stroke-width="1.56448" stroke-linecap="round" stroke-linejoin="round"/>
<path d="M35.9746 180.739L30.5052 175.269" stroke="#F9614C" stroke-width="1.56448" stroke-linecap="round" stroke-linejoin="round"/>
<path d="M62.1264 180.748C62.1264 179.201 61.1336 178.354 59.2939 177.989L57.498 177.624C56.7387 177.478 56.0817 177.171 56.0817 176.456C56.0817 175.726 56.6949 175.112 57.7754 175.112C58.885 175.112 59.6443 175.857 59.7173 176.952H61.9658C61.8198 174.762 60.0969 173.389 57.7462 173.389C55.4831 173.389 53.8332 174.733 53.8332 176.602C53.8332 178.339 55.0596 179.201 56.6511 179.507L58.374 179.843C59.2647 180.018 59.7757 180.412 59.7757 181.069C59.7757 181.916 58.9726 182.413 57.8484 182.413C56.4905 182.413 55.7459 181.668 55.6875 180.515H53.439C53.5996 182.734 55.2495 184.15 57.8922 184.15C60.5203 184.15 62.1264 182.748 62.1264 180.748ZM67.0335 184.15C69.2966 184.15 70.9903 182.369 70.9903 180.106C70.9903 177.828 69.2966 176.061 67.0335 176.061C64.7704 176.061 63.0767 177.828 63.0767 180.106C63.0767 182.369 64.7704 184.15 67.0335 184.15ZM67.0335 182.354C66.0261 182.354 65.1646 181.551 65.1646 180.106C65.1646 178.66 66.0261 177.872 67.0335 177.872C68.041 177.872 68.9024 178.66 68.9024 180.106C68.9024 181.551 68.041 182.354 67.0335 182.354ZM74.315 184.004V179.653C74.315 178.485 74.9574 177.857 75.775 177.857C76.6657 177.857 77.1329 178.514 77.1329 179.609V184.004H79.1478V179.653C79.1478 178.485 79.8049 177.857 80.6079 177.857C81.4985 177.857 81.9658 178.514 81.9658 179.609V184.004H83.9807V178.967C83.9807 177.098 82.9148 176.061 81.3379 176.061C80.1699 176.061 79.3814 176.587 78.7682 177.448C78.374 176.558 77.5563 176.061 76.4905 176.061C75.4538 176.061 74.7238 176.529 74.1544 177.317V176.207H72.2855V184.004H74.315ZM89.1044 184.136C91.0025 184.136 92.3604 183.128 92.7984 181.361H90.7835C90.5499 182.135 89.9512 182.573 89.0606 182.573C88.0239 182.573 87.4107 181.872 87.2793 180.602H92.813C93.178 178.062 91.5427 176.061 89.0752 176.061C86.8267 176.061 85.206 177.755 85.206 180.077C85.206 182.515 86.7683 184.136 89.1044 184.136ZM89.0314 177.551C89.995 177.551 90.6083 178.237 90.6667 179.317H87.3085C87.4837 178.164 88.0823 177.551 89.0314 177.551ZM101.867 184.004H103.517V179.098C103.517 177.186 102.319 176.061 100.275 176.061C98.3917 176.061 97.0923 177.229 96.9755 179.025H98.8006C98.8736 178.149 99.3992 177.638 100.275 177.638C101.122 177.638 101.619 178.149 101.619 179.025V179.493C101.137 179.434 100.757 179.405 100.319 179.405C98.0413 179.405 96.8149 180.223 96.8149 181.741C96.8149 183.201 97.8953 184.15 99.516 184.15C100.582 184.15 101.356 183.771 101.867 183.041V184.004ZM98.7275 181.683C98.7275 180.982 99.297 180.617 100.45 180.617C100.801 180.617 101.137 180.646 101.619 180.719V181.274C101.619 182.179 100.991 182.748 99.954 182.748C99.1948 182.748 98.7275 182.34 98.7275 181.683ZM107.295 180.223C107.295 178.5 108.448 178.091 110.171 178.222V176.12C108.916 176.12 107.704 176.718 107.134 177.711V176.207H105.265V184.004H107.295V180.223ZM114.556 184.136C116.454 184.136 117.812 183.128 118.25 181.361H116.235C116.001 182.135 115.403 182.573 114.512 182.573C113.475 182.573 112.862 181.872 112.731 180.602H118.265C118.63 178.062 116.994 176.061 114.527 176.061C112.278 176.061 110.658 177.755 110.658 180.077C110.658 182.515 112.22 184.136 114.556 184.136ZM114.483 177.551C115.447 177.551 116.06 178.237 116.118 179.317H112.76C112.935 178.164 113.534 177.551 114.483 177.551Z" fill="black"/>
<path d="M124.719 184.004V173.521H122.675V184.004H124.719ZM131.182 184.004H132.832V179.098C132.832 177.186 131.635 176.061 129.591 176.061C127.707 176.061 126.408 177.229 126.291 179.025H128.116C128.189 178.149 128.715 177.638 129.591 177.638C130.438 177.638 130.934 178.149 130.934 179.025V179.493C130.452 179.434 130.073 179.405 129.635 179.405C127.357 179.405 126.13 180.223 126.13 181.741C126.13 183.201 127.211 184.15 128.832 184.15C129.897 184.15 130.671 183.771 131.182 183.041V184.004ZM128.043 181.683C128.043 180.982 128.613 180.617 129.766 180.617C130.116 180.617 130.452 180.646 130.934 180.719V181.274C130.934 182.179 130.306 182.748 129.27 182.748C128.51 182.748 128.043 182.34 128.043 181.683ZM137.866 184.15C139.954 184.15 141.414 182.821 141.648 180.675H139.516C139.399 181.741 138.801 182.354 137.866 182.354C136.8 182.354 136.143 181.507 136.143 180.106C136.143 178.719 136.815 177.857 137.866 177.857C138.786 177.857 139.414 178.5 139.516 179.536H141.648C141.4 177.434 139.896 176.061 137.866 176.061C135.676 176.061 134.07 177.77 134.07 180.106C134.07 182.486 135.618 184.15 137.866 184.15ZM144.98 184.004V180.383L147.959 184.004H150.543L146.937 179.945L150.164 176.207H147.828L144.98 179.507V173.521H142.951V184.004H144.98ZM153.828 174.397C153.828 173.681 153.273 173.17 152.47 173.17C151.682 173.17 151.127 173.681 151.127 174.397C151.127 175.083 151.682 175.594 152.47 175.594C153.273 175.594 153.828 175.083 153.828 174.397ZM153.507 184.004V176.207H151.477V184.004H153.507ZM157.343 179.755C157.343 178.5 158.029 177.857 158.832 177.857C159.752 177.857 160.204 178.5 160.204 179.653V184.004H162.219V178.967C162.219 177.083 161.139 176.061 159.576 176.061C158.554 176.061 157.751 176.543 157.182 177.317V176.207H155.313V184.004H157.343V179.755ZM167.282 186.968C169.589 186.968 170.991 185.712 170.991 183.639V176.207H169.137V177.273C168.567 176.47 167.779 176.061 166.728 176.061C164.8 176.061 163.457 177.624 163.457 179.887C163.457 182.091 164.888 183.712 166.801 183.712C167.75 183.712 168.553 183.274 168.976 182.529V183.668C168.976 184.793 168.392 185.391 167.268 185.391C166.304 185.391 165.735 184.924 165.647 184.033H163.691C163.778 185.829 165.18 186.968 167.282 186.968ZM165.486 179.887C165.486 178.616 166.158 177.813 167.195 177.813C168.261 177.813 168.961 178.631 168.961 179.901C168.961 181.128 168.261 181.96 167.195 181.96C166.143 181.96 165.486 181.157 165.486 179.887ZM179.188 186.968C181.495 186.968 182.897 185.712 182.897 183.639V176.207H181.043V177.273C180.473 176.47 179.685 176.061 178.633 176.061C176.706 176.061 175.363 177.624 175.363 179.887C175.363 182.091 176.794 183.712 178.706 183.712C179.655 183.712 180.458 183.274 180.882 182.529V183.668C180.882 184.793 180.298 185.391 179.174 185.391C178.21 185.391 177.641 184.924 177.553 184.033H175.596C175.684 185.829 177.086 186.968 179.188 186.968ZM177.392 179.887C177.392 178.616 178.064 177.813 179.101 177.813C180.166 177.813 180.867 178.631 180.867 179.901C180.867 181.128 180.166 181.96 179.101 181.96C178.049 181.96 177.392 181.157 177.392 179.887ZM188.174 184.15C190.437 184.15 192.131 182.369 192.131 180.106C192.131 177.828 190.437 176.061 188.174 176.061C185.911 176.061 184.217 177.828 184.217 180.106C184.217 182.369 185.911 184.15 188.174 184.15ZM188.174 182.354C187.167 182.354 186.305 181.551 186.305 180.106C186.305 178.66 187.167 177.872 188.174 177.872C189.182 177.872 190.043 178.66 190.043 180.106C190.043 181.551 189.182 182.354 188.174 182.354ZM196.872 184.15C199.135 184.15 200.829 182.369 200.829 180.106C200.829 177.828 199.135 176.061 196.872 176.061C194.609 176.061 192.915 177.828 192.915 180.106C192.915 182.369 194.609 184.15 196.872 184.15ZM196.872 182.354C195.864 182.354 195.003 181.551 195.003 180.106C195.003 178.66 195.864 177.872 196.872 177.872C197.879 177.872 198.741 178.66 198.741 180.106C198.741 181.551 197.879 182.354 196.872 182.354ZM201.613 180.106C201.613 182.383 202.971 184.15 205.073 184.15C206.081 184.15 206.927 183.698 207.541 182.88V184.004H209.395V173.521H207.38V177.215C206.796 176.47 206.008 176.061 205.073 176.061C202.971 176.061 201.613 177.799 201.613 180.106ZM203.701 180.106C203.701 178.616 204.533 177.857 205.526 177.857C206.519 177.857 207.366 178.602 207.366 180.077C207.366 181.551 206.533 182.34 205.526 182.34C204.533 182.34 203.701 181.566 203.701 180.106ZM216.609 174.397C216.609 173.681 216.054 173.17 215.251 173.17C214.462 173.17 213.907 173.681 213.907 174.397C213.907 175.083 214.462 175.594 215.251 175.594C216.054 175.594 216.609 175.083 216.609 174.397ZM216.287 184.004V176.207H214.258V184.004H216.287ZM220.123 179.755C220.123 178.5 220.809 177.857 221.612 177.857C222.532 177.857 222.985 178.5 222.985 179.653V184.004H225V178.967C225 177.083 223.919 176.061 222.357 176.061C221.335 176.061 220.532 176.543 219.962 177.317V176.207H218.093V184.004H220.123V179.755ZM231.539 182.033C231.247 182.194 230.896 182.281 230.517 182.281C229.787 182.281 229.378 181.916 229.378 181.011V177.945H231.612V176.207H229.378V173.9H227.363V176.207H225.786V177.945H227.363V181.478C227.363 183.23 228.37 184.15 229.977 184.15C230.575 184.15 231.042 184.048 231.539 183.8V182.033ZM236.067 184.136C237.965 184.136 239.323 183.128 239.761 181.361H237.746C237.513 182.135 236.914 182.573 236.024 182.573C234.987 182.573 234.374 181.872 234.242 180.602H239.776C240.141 178.062 238.506 176.061 236.038 176.061C233.79 176.061 232.169 177.755 232.169 180.077C232.169 182.515 233.731 184.136 236.067 184.136ZM235.994 177.551C236.958 177.551 237.571 178.237 237.63 179.317H234.271C234.447 178.164 235.045 177.551 235.994 177.551ZM243.165 180.223C243.165 178.5 244.318 178.091 246.041 178.222V176.12C244.785 176.12 243.574 176.718 243.004 177.711V176.207H241.135V184.004H243.165V180.223ZM250.297 184.004V177.945H252.326V176.207H250.297V175.828C250.297 175.287 250.662 175.068 251.217 175.068C251.48 175.068 251.772 175.112 251.991 175.2V173.594C251.655 173.448 251.231 173.36 250.735 173.36C249.114 173.36 248.282 174.236 248.282 175.784V176.207H246.705V177.945H248.282V184.004H250.297ZM257.841 184.004H259.491V179.098C259.491 177.186 258.294 176.061 256.25 176.061C254.366 176.061 253.067 177.229 252.95 179.025H254.775C254.848 178.149 255.374 177.638 256.25 177.638C257.096 177.638 257.593 178.149 257.593 179.025V179.493C257.111 179.434 256.731 179.405 256.293 179.405C254.016 179.405 252.789 180.223 252.789 181.741C252.789 183.201 253.87 184.15 255.49 184.15C256.556 184.15 257.33 183.771 257.841 183.041V184.004ZM254.702 181.683C254.702 180.982 255.271 180.617 256.425 180.617C256.775 180.617 257.111 180.646 257.593 180.719V181.274C257.593 182.179 256.965 182.748 255.928 182.748C255.169 182.748 254.702 182.34 254.702 181.683ZM264.525 184.15C266.613 184.15 268.073 182.821 268.307 180.675H266.175C266.058 181.741 265.459 182.354 264.525 182.354C263.459 182.354 262.802 181.507 262.802 180.106C262.802 178.719 263.474 177.857 264.525 177.857C265.445 177.857 266.073 178.5 266.175 179.536H268.307C268.058 177.434 266.554 176.061 264.525 176.061C262.335 176.061 260.729 177.77 260.729 180.106C260.729 182.486 262.276 184.15 264.525 184.15ZM272.968 184.136C274.867 184.136 276.224 183.128 276.662 181.361H274.648C274.414 182.135 273.815 182.573 272.925 182.573C271.888 182.573 271.275 181.872 271.143 180.602H276.677C277.042 178.062 275.407 176.061 272.939 176.061C270.691 176.061 269.07 177.755 269.07 180.077C269.07 182.515 270.632 184.136 272.968 184.136ZM272.895 177.551C273.859 177.551 274.472 178.237 274.531 179.317H271.173C271.348 178.164 271.946 177.551 272.895 177.551Z" fill="#F9614C"/>
<rect y="225.931" width="334.21" height="54.1121" rx="27.056" fill="white"/>
<path d="M33.24 262.651C38.5548 262.651 42.9033 258.302 42.9033 252.987C42.9033 247.673 38.5548 243.324 33.24 243.324C27.9253 243.324 23.5768 247.673 23.5768 252.987C23.5768 258.302 27.9253 262.651 33.24 262.651Z" stroke="#F9614C" stroke-width="1.56448" stroke-linecap="round" stroke-linejoin="round"/>
<path d="M30.5052 255.722L35.9746 250.253" stroke="#F9614C" stroke-width="1.56448" stroke-linecap="round" stroke-linejoin="round"/>
<path d="M35.9746 255.722L30.5052 250.253" stroke="#F9614C" stroke-width="1.56448" stroke-linecap="round" stroke-linejoin="round"/>
<path d="M61.8455 255.731C61.8455 254.184 60.8527 253.337 59.013 252.972L57.2171 252.607C56.4578 252.461 55.8008 252.154 55.8008 251.439C55.8008 250.709 56.414 250.096 57.4945 250.096C58.6041 250.096 59.3634 250.84 59.4364 251.935H61.6849C61.5389 249.745 59.816 248.373 57.4653 248.373C55.2022 248.373 53.5523 249.716 53.5523 251.585C53.5523 253.322 54.7787 254.184 56.3702 254.49L58.0931 254.826C58.9838 255.001 59.4948 255.396 59.4948 256.053C59.4948 256.9 58.6918 257.396 57.5675 257.396C56.2096 257.396 55.465 256.651 55.4066 255.498H53.1581C53.3187 257.717 54.9686 259.133 57.6113 259.133C60.2394 259.133 61.8455 257.732 61.8455 255.731ZM66.7526 259.133C69.0157 259.133 70.7094 257.352 70.7094 255.089C70.7094 252.811 69.0157 251.045 66.7526 251.045C64.4895 251.045 62.7958 252.811 62.7958 255.089C62.7958 257.352 64.4895 259.133 66.7526 259.133ZM66.7526 257.338C65.7452 257.338 64.8837 256.534 64.8837 255.089C64.8837 253.644 65.7452 252.855 66.7526 252.855C67.7601 252.855 68.6215 253.644 68.6215 255.089C68.6215 256.534 67.7601 257.338 66.7526 257.338ZM74.0341 258.987V254.636C74.0341 253.468 74.6765 252.841 75.4941 252.841C76.3848 252.841 76.852 253.498 76.852 254.593V258.987H78.8669V254.636C78.8669 253.468 79.524 252.841 80.327 252.841C81.2176 252.841 81.6849 253.498 81.6849 254.593V258.987H83.6998V253.95C83.6998 252.081 82.6339 251.045 81.057 251.045C79.889 251.045 79.1005 251.57 78.4873 252.432C78.0931 251.541 77.2754 251.045 76.2096 251.045C75.1729 251.045 74.4429 251.512 73.8735 252.3V251.191H72.0046V258.987H74.0341ZM88.8235 259.119C90.7216 259.119 92.0795 258.111 92.5175 256.345H90.5026C90.269 257.119 89.6703 257.557 88.7797 257.557C87.743 257.557 87.1298 256.856 86.9984 255.585H92.5321C92.8971 253.045 91.2618 251.045 88.7943 251.045C86.5458 251.045 84.9251 252.738 84.9251 255.06C84.9251 257.498 86.4874 259.119 88.8235 259.119ZM88.7505 252.534C89.7141 252.534 90.3274 253.22 90.3858 254.301H87.0276C87.2028 253.147 87.8014 252.534 88.7505 252.534ZM101.586 258.987H103.236V254.082C103.236 252.169 102.038 251.045 99.9943 251.045C98.1108 251.045 96.8114 252.213 96.6946 254.009H98.5197C98.5927 253.133 99.1183 252.621 99.9943 252.621C100.841 252.621 101.338 253.133 101.338 254.009V254.476C100.856 254.417 100.476 254.388 100.038 254.388C97.7604 254.388 96.534 255.206 96.534 256.724C96.534 258.184 97.6144 259.133 99.2351 259.133C100.301 259.133 101.075 258.754 101.586 258.024V258.987ZM98.4467 256.666C98.4467 255.965 99.0161 255.6 100.17 255.6C100.52 255.6 100.856 255.629 101.338 255.702V256.257C101.338 257.162 100.71 257.732 99.6731 257.732C98.9139 257.732 98.4467 257.323 98.4467 256.666ZM107.014 255.206C107.014 253.483 108.168 253.074 109.89 253.206V251.103C108.635 251.103 107.423 251.702 106.853 252.694V251.191H104.985V258.987H107.014V255.206ZM114.275 259.119C116.173 259.119 117.531 258.111 117.969 256.345H115.954C115.72 257.119 115.122 257.557 114.231 257.557C113.195 257.557 112.581 256.856 112.45 255.585H117.984C118.349 253.045 116.713 251.045 114.246 251.045C111.997 251.045 110.377 252.738 110.377 255.06C110.377 257.498 111.939 259.119 114.275 259.119ZM114.202 252.534C115.166 252.534 115.779 253.22 115.837 254.301H112.479C112.654 253.147 113.253 252.534 114.202 252.534Z" fill="black"/>
<path d="M124.438 258.987V248.504H122.394V258.987H124.438ZM130.901 258.987H132.551V254.082C132.551 252.169 131.354 251.045 129.31 251.045C127.426 251.045 126.127 252.213 126.01 254.009H127.835C127.908 253.133 128.434 252.621 129.31 252.621C130.157 252.621 130.653 253.133 130.653 254.009V254.476C130.171 254.417 129.792 254.388 129.354 254.388C127.076 254.388 125.85 255.206 125.85 256.724C125.85 258.184 126.93 259.133 128.551 259.133C129.617 259.133 130.39 258.754 130.901 258.024V258.987ZM127.762 256.666C127.762 255.965 128.332 255.6 129.485 255.6C129.836 255.6 130.171 255.629 130.653 255.702V256.257C130.653 257.162 130.025 257.732 128.989 257.732C128.229 257.732 127.762 257.323 127.762 256.666ZM137.585 259.133C139.673 259.133 141.133 257.805 141.367 255.658H139.235C139.118 256.724 138.52 257.338 137.585 257.338C136.519 257.338 135.862 256.491 135.862 255.089C135.862 253.702 136.534 252.841 137.585 252.841C138.505 252.841 139.133 253.483 139.235 254.52H141.367C141.119 252.417 139.615 251.045 137.585 251.045C135.395 251.045 133.789 252.753 133.789 255.089C133.789 257.469 135.337 259.133 137.585 259.133ZM144.699 258.987V255.366L147.678 258.987H150.262L146.656 254.928L149.883 251.191H147.547L144.699 254.49V248.504H142.67V258.987H144.699ZM153.547 249.38C153.547 248.665 152.992 248.154 152.189 248.154C151.401 248.154 150.846 248.665 150.846 249.38C150.846 250.066 151.401 250.577 152.189 250.577C152.992 250.577 153.547 250.066 153.547 249.38ZM153.226 258.987V251.191H151.197V258.987H153.226ZM157.062 254.739C157.062 253.483 157.748 252.841 158.551 252.841C159.471 252.841 159.923 253.483 159.923 254.636V258.987H161.938V253.95C161.938 252.067 160.858 251.045 159.296 251.045C158.273 251.045 157.47 251.526 156.901 252.3V251.191H155.032V258.987H157.062V254.739ZM167.001 261.951C169.308 261.951 170.71 260.696 170.71 258.622V251.191H168.856V252.256C168.286 251.453 167.498 251.045 166.447 251.045C164.519 251.045 163.176 252.607 163.176 254.87C163.176 257.075 164.607 258.695 166.52 258.695C167.469 258.695 168.272 258.257 168.695 257.513V258.652C168.695 259.776 168.111 260.374 166.987 260.374C166.023 260.374 165.454 259.907 165.366 259.017H163.41C163.497 260.813 164.899 261.951 167.001 261.951ZM165.206 254.87C165.206 253.6 165.877 252.797 166.914 252.797C167.98 252.797 168.681 253.614 168.681 254.885C168.681 256.111 167.98 256.943 166.914 256.943C165.863 256.943 165.206 256.14 165.206 254.87ZM178.878 259.133C180.966 259.133 182.426 257.805 182.66 255.658H180.528C180.411 256.724 179.813 257.338 178.878 257.338C177.812 257.338 177.155 256.491 177.155 255.089C177.155 253.702 177.827 252.841 178.878 252.841C179.798 252.841 180.426 253.483 180.528 254.52H182.66C182.412 252.417 180.908 251.045 178.878 251.045C176.688 251.045 175.082 252.753 175.082 255.089C175.082 257.469 176.63 259.133 178.878 259.133ZM188.708 255.702C188.708 256.754 188.007 257.338 187.277 257.338C186.459 257.338 185.919 256.856 185.919 255.761V251.191H183.89V256.155C183.89 258.184 185.029 259.133 186.591 259.133C187.584 259.133 188.445 258.652 188.869 257.965V258.987H190.723V251.191H188.708V255.702ZM199.131 256.491C199.131 255.366 198.357 254.666 196.839 254.374L195.335 254.096C194.634 253.965 194.313 253.775 194.313 253.308C194.313 252.811 194.81 252.534 195.554 252.534C196.416 252.534 196.985 253.001 197.058 253.76H199C198.854 252.081 197.511 251.045 195.554 251.045C193.612 251.045 192.371 252.052 192.371 253.498C192.371 254.709 193.218 255.483 194.62 255.731L196.021 255.994C196.766 256.14 197.087 256.345 197.087 256.841C197.087 257.396 196.489 257.644 195.7 257.644C194.693 257.644 194.006 257.133 193.992 256.33H192.05C192.211 258.068 193.452 259.133 195.671 259.133C197.89 259.133 199.131 258.126 199.131 256.491ZM205.208 257.016C204.915 257.177 204.565 257.265 204.185 257.265C203.455 257.265 203.047 256.9 203.047 255.994V252.928H205.281V251.191H203.047V248.884H201.032V251.191H199.455V252.928H201.032V256.461C201.032 258.214 202.039 259.133 203.645 259.133C204.244 259.133 204.711 259.031 205.208 258.783V257.016ZM209.794 259.133C212.058 259.133 213.751 257.352 213.751 255.089C213.751 252.811 212.058 251.045 209.794 251.045C207.531 251.045 205.838 252.811 205.838 255.089C205.838 257.352 207.531 259.133 209.794 259.133ZM209.794 257.338C208.787 257.338 207.926 256.534 207.926 255.089C207.926 253.644 208.787 252.855 209.794 252.855C210.802 252.855 211.663 253.644 211.663 255.089C211.663 256.534 210.802 257.338 209.794 257.338ZM217.076 258.987V254.636C217.076 253.468 217.718 252.841 218.536 252.841C219.427 252.841 219.894 253.498 219.894 254.593V258.987H221.909V254.636C221.909 253.468 222.566 252.841 223.369 252.841C224.259 252.841 224.727 253.498 224.727 254.593V258.987H226.742V253.95C226.742 252.081 225.676 251.045 224.099 251.045C222.931 251.045 222.142 251.57 221.529 252.432C221.135 251.541 220.317 251.045 219.251 251.045C218.215 251.045 217.485 251.512 216.915 252.3V251.191H215.046V258.987H217.076ZM230.829 249.38C230.829 248.665 230.274 248.154 229.471 248.154C228.682 248.154 228.128 248.665 228.128 249.38C228.128 250.066 228.682 250.577 229.471 250.577C230.274 250.577 230.829 250.066 230.829 249.38ZM230.507 258.987V251.191H228.478V258.987H230.507ZM238.621 258.987V257.221H234.474L238.504 252.855V251.191H231.963V252.943H235.993L231.978 257.352V258.987H238.621ZM244.685 258.987H246.335V254.082C246.335 252.169 245.137 251.045 243.093 251.045C241.21 251.045 239.91 252.213 239.793 254.009H241.619C241.692 253.133 242.217 252.621 243.093 252.621C243.94 252.621 244.436 253.133 244.436 254.009V254.476C243.955 254.417 243.575 254.388 243.137 254.388C240.859 254.388 239.633 255.206 239.633 256.724C239.633 258.184 240.713 259.133 242.334 259.133C243.4 259.133 244.174 258.754 244.685 258.024V258.987ZM241.546 256.666C241.546 255.965 242.115 255.6 243.268 255.6C243.619 255.6 243.955 255.629 244.436 255.702V256.257C244.436 257.162 243.809 257.732 242.772 257.732C242.013 257.732 241.546 257.323 241.546 256.666ZM252.817 257.016C252.525 257.177 252.174 257.265 251.795 257.265C251.065 257.265 250.656 256.9 250.656 255.994V252.928H252.89V251.191H250.656V248.884H248.641V251.191H247.064V252.928H248.641V256.461C248.641 258.214 249.648 259.133 251.255 259.133C251.853 259.133 252.32 259.031 252.817 258.783V257.016ZM256.48 249.38C256.48 248.665 255.925 248.154 255.122 248.154C254.333 248.154 253.779 248.665 253.779 249.38C253.779 250.066 254.333 250.577 255.122 250.577C255.925 250.577 256.48 250.066 256.48 249.38ZM256.159 258.987V251.191H254.129V258.987H256.159ZM261.41 259.133C263.674 259.133 265.367 257.352 265.367 255.089C265.367 252.811 263.674 251.045 261.41 251.045C259.147 251.045 257.454 252.811 257.454 255.089C257.454 257.352 259.147 259.133 261.41 259.133ZM261.41 257.338C260.403 257.338 259.542 256.534 259.542 255.089C259.542 253.644 260.403 252.855 261.41 252.855C262.418 252.855 263.279 253.644 263.279 255.089C263.279 256.534 262.418 257.338 261.41 257.338ZM268.692 254.739C268.692 253.483 269.378 252.841 270.181 252.841C271.101 252.841 271.554 253.483 271.554 254.636V258.987H273.568V253.95C273.568 252.067 272.488 251.045 270.926 251.045C269.904 251.045 269.101 251.526 268.531 252.3V251.191H266.662V258.987H268.692V254.739Z" fill="#F9614C"/>
<rect y="300.915" width="334.21" height="54.1121" rx="27.056" fill="white"/>
<path d="M33.24 337.634C38.5548 337.634 42.9033 333.285 42.9033 327.971C42.9033 322.656 38.5548 318.307 33.24 318.307C27.9253 318.307 23.5768 322.656 23.5768 327.971C23.5768 333.285 27.9253 337.634 33.24 337.634Z" stroke="#F9614C" stroke-width="1.56448" stroke-linecap="round" stroke-linejoin="round"/>
<path d="M30.5052 330.705L35.9746 325.236" stroke="#F9614C" stroke-width="1.56448" stroke-linecap="round" stroke-linejoin="round"/>
<path d="M35.9746 330.705L30.5052 325.236" stroke="#F9614C" stroke-width="1.56448" stroke-linecap="round" stroke-linejoin="round"/>
<path d="M62.1264 330.715C62.1264 329.167 61.1336 328.32 59.2939 327.955L57.498 327.59C56.7387 327.444 56.0817 327.138 56.0817 326.422C56.0817 325.692 56.6949 325.079 57.7754 325.079C58.885 325.079 59.6443 325.823 59.7173 326.919H61.9658C61.8198 324.728 60.0969 323.356 57.7462 323.356C55.4831 323.356 53.8332 324.699 53.8332 326.568C53.8332 328.306 55.0596 329.167 56.6511 329.474L58.374 329.809C59.2647 329.985 59.7757 330.379 59.7757 331.036C59.7757 331.883 58.9726 332.379 57.8484 332.379C56.4905 332.379 55.7459 331.635 55.6875 330.481H53.439C53.5996 332.7 55.2495 334.117 57.8922 334.117C60.5203 334.117 62.1264 332.715 62.1264 330.715ZM67.0335 334.117C69.2966 334.117 70.9903 332.335 70.9903 330.072C70.9903 327.795 69.2966 326.028 67.0335 326.028C64.7704 326.028 63.0767 327.795 63.0767 330.072C63.0767 332.335 64.7704 334.117 67.0335 334.117ZM67.0335 332.321C66.0261 332.321 65.1646 331.518 65.1646 330.072C65.1646 328.627 66.0261 327.838 67.0335 327.838C68.041 327.838 68.9024 328.627 68.9024 330.072C68.9024 331.518 68.041 332.321 67.0335 332.321ZM74.315 333.971V329.62C74.315 328.452 74.9574 327.824 75.775 327.824C76.6657 327.824 77.1329 328.481 77.1329 329.576V333.971H79.1478V329.62C79.1478 328.452 79.8049 327.824 80.6079 327.824C81.4985 327.824 81.9658 328.481 81.9658 329.576V333.971H83.9807V328.933C83.9807 327.065 82.9148 326.028 81.3379 326.028C80.1699 326.028 79.3814 326.554 78.7682 327.415C78.374 326.524 77.5563 326.028 76.4905 326.028C75.4538 326.028 74.7238 326.495 74.1544 327.284V326.174H72.2855V333.971H74.315ZM89.1044 334.102C91.0025 334.102 92.3604 333.095 92.7984 331.328H90.7835C90.5499 332.102 89.9512 332.54 89.0606 332.54C88.0239 332.54 87.4107 331.839 87.2793 330.569H92.813C93.178 328.028 91.5427 326.028 89.0752 326.028C86.8267 326.028 85.206 327.722 85.206 330.043C85.206 332.481 86.7683 334.102 89.1044 334.102ZM89.0314 327.517C89.995 327.517 90.6083 328.203 90.6667 329.284H87.3085C87.4837 328.13 88.0823 327.517 89.0314 327.517ZM101.867 333.971H103.517V329.065C103.517 327.152 102.319 326.028 100.275 326.028C98.3917 326.028 97.0923 327.196 96.9755 328.992H98.8006C98.8736 328.116 99.3992 327.605 100.275 327.605C101.122 327.605 101.619 328.116 101.619 328.992V329.459C101.137 329.401 100.757 329.371 100.319 329.371C98.0413 329.371 96.8149 330.189 96.8149 331.708C96.8149 333.168 97.8953 334.117 99.516 334.117C100.582 334.117 101.356 333.737 101.867 333.007V333.971ZM98.7275 331.649C98.7275 330.948 99.297 330.583 100.45 330.583C100.801 330.583 101.137 330.613 101.619 330.686V331.24C101.619 332.146 100.991 332.715 99.954 332.715C99.1948 332.715 98.7275 332.306 98.7275 331.649ZM107.295 330.189C107.295 328.466 108.448 328.057 110.171 328.189V326.086C108.916 326.086 107.704 326.685 107.134 327.678V326.174H105.265V333.971H107.295V330.189ZM114.556 334.102C116.454 334.102 117.812 333.095 118.25 331.328H116.235C116.001 332.102 115.403 332.54 114.512 332.54C113.475 332.54 112.862 331.839 112.731 330.569H118.265C118.63 328.028 116.994 326.028 114.527 326.028C112.278 326.028 110.658 327.722 110.658 330.043C110.658 332.481 112.22 334.102 114.556 334.102ZM114.483 327.517C115.447 327.517 116.06 328.203 116.118 329.284H112.76C112.935 328.13 113.534 327.517 114.483 327.517Z" fill="black"/>
<path d="M124.719 333.971V323.487H122.675V333.971H124.719ZM131.182 333.971H132.832V329.065C132.832 327.152 131.635 326.028 129.591 326.028C127.707 326.028 126.408 327.196 126.291 328.992H128.116C128.189 328.116 128.715 327.605 129.591 327.605C130.438 327.605 130.934 328.116 130.934 328.992V329.459C130.452 329.401 130.073 329.371 129.635 329.371C127.357 329.371 126.13 330.189 126.13 331.708C126.13 333.168 127.211 334.117 128.832 334.117C129.897 334.117 130.671 333.737 131.182 333.007V333.971ZM128.043 331.649C128.043 330.948 128.613 330.583 129.766 330.583C130.116 330.583 130.452 330.613 130.934 330.686V331.24C130.934 332.146 130.306 332.715 129.27 332.715C128.51 332.715 128.043 332.306 128.043 331.649ZM137.866 334.117C139.954 334.117 141.414 332.788 141.648 330.642H139.516C139.399 331.708 138.801 332.321 137.866 332.321C136.8 332.321 136.143 331.474 136.143 330.072C136.143 328.685 136.815 327.824 137.866 327.824C138.786 327.824 139.414 328.466 139.516 329.503H141.648C141.4 327.4 139.896 326.028 137.866 326.028C135.676 326.028 134.07 327.736 134.07 330.072C134.07 332.452 135.618 334.117 137.866 334.117ZM144.98 333.971V330.35L147.959 333.971H150.543L146.937 329.912L150.164 326.174H147.828L144.98 329.474V323.487H142.951V333.971H144.98ZM153.828 324.363C153.828 323.648 153.273 323.137 152.47 323.137C151.682 323.137 151.127 323.648 151.127 324.363C151.127 325.05 151.682 325.561 152.47 325.561C153.273 325.561 153.828 325.05 153.828 324.363ZM153.507 333.971V326.174H151.477V333.971H153.507ZM157.343 329.722C157.343 328.466 158.029 327.824 158.832 327.824C159.752 327.824 160.204 328.466 160.204 329.62V333.971H162.219V328.933C162.219 327.05 161.139 326.028 159.576 326.028C158.554 326.028 157.751 326.51 157.182 327.284V326.174H155.313V333.971H157.343V329.722ZM167.282 336.935C169.589 336.935 170.991 335.679 170.991 333.606V326.174H169.137V327.24C168.567 326.437 167.779 326.028 166.728 326.028C164.8 326.028 163.457 327.59 163.457 329.853C163.457 332.058 164.888 333.679 166.801 333.679C167.75 333.679 168.553 333.241 168.976 332.496V333.635C168.976 334.759 168.392 335.358 167.268 335.358C166.304 335.358 165.735 334.891 165.647 334H163.691C163.778 335.796 165.18 336.935 167.282 336.935ZM165.486 329.853C165.486 328.583 166.158 327.78 167.195 327.78C168.261 327.78 168.961 328.598 168.961 329.868C168.961 331.094 168.261 331.927 167.195 331.927C166.143 331.927 165.486 331.124 165.486 329.853ZM179.188 336.935C181.495 336.935 182.897 335.679 182.897 333.606V326.174H181.043V327.24C180.473 326.437 179.685 326.028 178.633 326.028C176.706 326.028 175.363 327.59 175.363 329.853C175.363 332.058 176.794 333.679 178.706 333.679C179.655 333.679 180.458 333.241 180.882 332.496V333.635C180.882 334.759 180.298 335.358 179.174 335.358C178.21 335.358 177.641 334.891 177.553 334H175.596C175.684 335.796 177.086 336.935 179.188 336.935ZM177.392 329.853C177.392 328.583 178.064 327.78 179.101 327.78C180.166 327.78 180.867 328.598 180.867 329.868C180.867 331.094 180.166 331.927 179.101 331.927C178.049 331.927 177.392 331.124 177.392 329.853ZM188.174 334.117C190.437 334.117 192.131 332.335 192.131 330.072C192.131 327.795 190.437 326.028 188.174 326.028C185.911 326.028 184.217 327.795 184.217 330.072C184.217 332.335 185.911 334.117 188.174 334.117ZM188.174 332.321C187.167 332.321 186.305 331.518 186.305 330.072C186.305 328.627 187.167 327.838 188.174 327.838C189.182 327.838 190.043 328.627 190.043 330.072C190.043 331.518 189.182 332.321 188.174 332.321ZM196.872 334.117C199.135 334.117 200.829 332.335 200.829 330.072C200.829 327.795 199.135 326.028 196.872 326.028C194.609 326.028 192.915 327.795 192.915 330.072C192.915 332.335 194.609 334.117 196.872 334.117ZM196.872 332.321C195.864 332.321 195.003 331.518 195.003 330.072C195.003 328.627 195.864 327.838 196.872 327.838C197.879 327.838 198.741 328.627 198.741 330.072C198.741 331.518 197.879 332.321 196.872 332.321ZM201.613 330.072C201.613 332.35 202.971 334.117 205.073 334.117C206.081 334.117 206.927 333.664 207.541 332.846V333.971H209.395V323.487H207.38V327.181C206.796 326.437 206.008 326.028 205.073 326.028C202.971 326.028 201.613 327.765 201.613 330.072ZM203.701 330.072C203.701 328.583 204.533 327.824 205.526 327.824C206.519 327.824 207.366 328.568 207.366 330.043C207.366 331.518 206.533 332.306 205.526 332.306C204.533 332.306 203.701 331.532 203.701 330.072ZM216.609 324.363C216.609 323.648 216.054 323.137 215.251 323.137C214.462 323.137 213.907 323.648 213.907 324.363C213.907 325.05 214.462 325.561 215.251 325.561C216.054 325.561 216.609 325.05 216.609 324.363ZM216.287 333.971V326.174H214.258V333.971H216.287ZM220.123 329.722C220.123 328.466 220.809 327.824 221.612 327.824C222.532 327.824 222.985 328.466 222.985 329.62V333.971H225V328.933C225 327.05 223.919 326.028 222.357 326.028C221.335 326.028 220.532 326.51 219.962 327.284V326.174H218.093V333.971H220.123V329.722ZM231.539 332C231.247 332.16 230.896 332.248 230.517 332.248C229.787 332.248 229.378 331.883 229.378 330.978V327.911H231.612V326.174H229.378V323.867H227.363V326.174H225.786V327.911H227.363V331.445C227.363 333.197 228.37 334.117 229.977 334.117C230.575 334.117 231.042 334.015 231.539 333.766V332ZM236.067 334.102C237.965 334.102 239.323 333.095 239.761 331.328H237.746C237.513 332.102 236.914 332.54 236.024 332.54C234.987 332.54 234.374 331.839 234.242 330.569H239.776C240.141 328.028 238.506 326.028 236.038 326.028C233.79 326.028 232.169 327.722 232.169 330.043C232.169 332.481 233.731 334.102 236.067 334.102ZM235.994 327.517C236.958 327.517 237.571 328.203 237.63 329.284H234.271C234.447 328.13 235.045 327.517 235.994 327.517ZM243.165 330.189C243.165 328.466 244.318 328.057 246.041 328.189V326.086C244.785 326.086 243.574 326.685 243.004 327.678V326.174H241.135V333.971H243.165V330.189ZM250.297 333.971V327.911H252.326V326.174H250.297V325.794C250.297 325.254 250.662 325.035 251.217 325.035C251.48 325.035 251.772 325.079 251.991 325.166V323.56C251.655 323.414 251.231 323.327 250.735 323.327C249.114 323.327 248.282 324.203 248.282 325.75V326.174H246.705V327.911H248.282V333.971H250.297ZM257.841 333.971H259.491V329.065C259.491 327.152 258.294 326.028 256.25 326.028C254.366 326.028 253.067 327.196 252.95 328.992H254.775C254.848 328.116 255.374 327.605 256.25 327.605C257.096 327.605 257.593 328.116 257.593 328.992V329.459C257.111 329.401 256.731 329.371 256.293 329.371C254.016 329.371 252.789 330.189 252.789 331.708C252.789 333.168 253.87 334.117 255.49 334.117C256.556 334.117 257.33 333.737 257.841 333.007V333.971ZM254.702 331.649C254.702 330.948 255.271 330.583 256.425 330.583C256.775 330.583 257.111 330.613 257.593 330.686V331.24C257.593 332.146 256.965 332.715 255.928 332.715C255.169 332.715 254.702 332.306 254.702 331.649ZM264.525 334.117C266.613 334.117 268.073 332.788 268.307 330.642H266.175C266.058 331.708 265.459 332.321 264.525 332.321C263.459 332.321 262.802 331.474 262.802 330.072C262.802 328.685 263.474 327.824 264.525 327.824C265.445 327.824 266.073 328.466 266.175 329.503H268.307C268.058 327.4 266.554 326.028 264.525 326.028C262.335 326.028 260.729 327.736 260.729 330.072C260.729 332.452 262.276 334.117 264.525 334.117ZM272.968 334.102C274.867 334.102 276.224 333.095 276.662 331.328H274.648C274.414 332.102 273.815 332.54 272.925 332.54C271.888 332.54 271.275 331.839 271.143 330.569H276.677C277.042 328.028 275.407 326.028 272.939 326.028C270.691 326.028 269.07 327.722 269.07 330.043C269.07 332.481 270.632 334.102 272.968 334.102ZM272.895 327.517C273.859 327.517 274.472 328.203 274.531 329.284H271.173C271.348 328.13 271.946 327.517 272.895 327.517Z" fill="#F9614C"/>
<rect y="375.898" width="334.21" height="54.1121" rx="27.056" fill="white"/>
<path d="M33.24 412.617C38.5548 412.617 42.9033 408.269 42.9033 402.954C42.9033 397.639 38.5548 393.291 33.24 393.291C27.9253 393.291 23.5768 397.639 23.5768 402.954C23.5768 408.269 27.9253 412.617 33.24 412.617Z" stroke="#F9614C" stroke-width="1.56448" stroke-linecap="round" stroke-linejoin="round"/>
<path d="M30.5052 405.689L35.9746 400.219" stroke="#F9614C" stroke-width="1.56448" stroke-linecap="round" stroke-linejoin="round"/>
<path d="M35.9746 405.689L30.5052 400.219" stroke="#F9614C" stroke-width="1.56448" stroke-linecap="round" stroke-linejoin="round"/>
<path d="M61.9515 405.698C61.9515 404.15 60.9587 403.303 59.119 402.938L57.3231 402.573C56.5638 402.427 55.9068 402.121 55.9068 401.405C55.9068 400.675 56.52 400.062 57.6005 400.062C58.7101 400.062 59.4694 400.807 59.5424 401.902H61.7909C61.6449 399.712 59.922 398.339 57.5713 398.339C55.3082 398.339 53.6583 399.682 53.6583 401.551C53.6583 403.289 54.8847 404.15 56.4762 404.457L58.1991 404.793C59.0898 404.968 59.6008 405.362 59.6008 406.019C59.6008 406.866 58.7977 407.362 57.6735 407.362C56.3156 407.362 55.571 406.618 55.5126 405.464H53.264C53.4247 407.684 55.0745 409.1 57.7173 409.1C60.3454 409.1 61.9515 407.698 61.9515 405.698ZM66.8586 409.1C69.1217 409.1 70.8154 407.319 70.8154 405.056C70.8154 402.778 69.1217 401.011 66.8586 401.011C64.5955 401.011 62.9018 402.778 62.9018 405.056C62.9018 407.319 64.5955 409.1 66.8586 409.1ZM66.8586 407.304C65.8512 407.304 64.9897 406.501 64.9897 405.056C64.9897 403.61 65.8512 402.822 66.8586 402.822C67.8661 402.822 68.7275 403.61 68.7275 405.056C68.7275 406.501 67.8661 407.304 66.8586 407.304ZM74.1401 408.954V404.603C74.1401 403.435 74.7825 402.807 75.6001 402.807C76.4908 402.807 76.958 403.464 76.958 404.559V408.954H78.9729V404.603C78.9729 403.435 79.6299 402.807 80.433 402.807C81.3236 402.807 81.7909 403.464 81.7909 404.559V408.954H83.8058V403.917C83.8058 402.048 82.7399 401.011 81.163 401.011C79.995 401.011 79.2065 401.537 78.5933 402.398C78.1991 401.508 77.3814 401.011 76.3156 401.011C75.2789 401.011 74.5489 401.478 73.9794 402.267V401.157H72.1106V408.954H74.1401ZM88.9295 409.085C90.8276 409.085 92.1855 408.078 92.6235 406.311H90.6086C90.375 407.085 89.7763 407.523 88.8857 407.523C87.849 407.523 87.2358 406.822 87.1044 405.552H92.6381C93.0031 403.011 91.3678 401.011 88.9003 401.011C86.6518 401.011 85.0311 402.705 85.0311 405.026C85.0311 407.465 86.5934 409.085 88.9295 409.085ZM88.8565 402.5C89.8201 402.5 90.4334 403.187 90.4918 404.267H87.1336C87.3088 403.114 87.9074 402.5 88.8565 402.5ZM101.692 408.954H103.342V404.048C103.342 402.135 102.144 401.011 100.1 401.011C98.2168 401.011 96.9174 402.179 96.8005 403.975H98.6256C98.6986 403.099 99.2243 402.588 100.1 402.588C100.947 402.588 101.444 403.099 101.444 403.975V404.442C100.962 404.384 100.582 404.355 100.144 404.355C97.8664 404.355 96.6399 405.172 96.6399 406.691C96.6399 408.151 97.7204 409.1 99.3411 409.1C100.407 409.1 101.181 408.72 101.692 407.99V408.954ZM98.5526 406.632C98.5526 405.932 99.1221 405.567 100.276 405.567C100.626 405.567 100.962 405.596 101.444 405.669V406.224C101.444 407.129 100.816 407.698 99.7791 407.698C99.0199 407.698 98.5526 407.289 98.5526 406.632ZM107.12 405.172C107.12 403.449 108.274 403.041 109.996 403.172V401.07C108.741 401.07 107.529 401.668 106.959 402.661V401.157H105.091V408.954H107.12V405.172ZM114.381 409.085C116.279 409.085 117.637 408.078 118.075 406.311H116.06C115.826 407.085 115.228 407.523 114.337 407.523C113.301 407.523 112.687 406.822 112.556 405.552H118.09C118.455 403.011 116.819 401.011 114.352 401.011C112.103 401.011 110.483 402.705 110.483 405.026C110.483 407.465 112.045 409.085 114.381 409.085ZM114.308 402.5C115.272 402.5 115.885 403.187 115.943 404.267H112.585C112.76 403.114 113.359 402.5 114.308 402.5Z" fill="black"/>
<path d="M125.946 409.1C128.209 409.1 129.903 407.319 129.903 405.056C129.903 402.778 128.209 401.011 125.946 401.011C123.683 401.011 121.989 402.778 121.989 405.056C121.989 407.319 123.683 409.1 125.946 409.1ZM125.946 407.304C124.939 407.304 124.077 406.501 124.077 405.056C124.077 403.61 124.939 402.822 125.946 402.822C126.954 402.822 127.815 403.61 127.815 405.056C127.815 406.501 126.954 407.304 125.946 407.304ZM133.228 404.705C133.228 403.449 133.914 402.807 134.717 402.807C135.637 402.807 136.089 403.449 136.089 404.603V408.954H138.104V403.917C138.104 402.033 137.024 401.011 135.461 401.011C134.439 401.011 133.636 401.493 133.067 402.267V401.157H131.198V408.954H133.228V404.705ZM141.897 408.954V398.471H139.853V408.954H141.897ZM150.74 401.157H148.71L146.929 406.501L144.973 401.157H142.783L145.849 408.866L144.739 411.772H146.944L150.74 401.157ZM162.464 405.056C162.464 402.763 161.106 401.011 159.004 401.011C158.011 401.011 157.149 401.464 156.551 402.296V401.157H154.682V411.772H156.711V407.947C157.295 408.706 158.084 409.1 159.004 409.1C161.106 409.1 162.464 407.362 162.464 405.056ZM160.376 405.056C160.376 406.545 159.544 407.289 158.551 407.289C157.558 407.289 156.726 406.53 156.726 405.056C156.726 403.581 157.558 402.807 158.551 402.807C159.544 402.807 160.376 403.596 160.376 405.056ZM165.809 408.954V398.471H163.765V408.954H165.809ZM172.272 408.954H173.922V404.048C173.922 402.135 172.724 401.011 170.68 401.011C168.797 401.011 167.497 402.179 167.38 403.975H169.205C169.278 403.099 169.804 402.588 170.68 402.588C171.527 402.588 172.023 403.099 172.023 403.975V404.442C171.542 404.384 171.162 404.355 170.724 404.355C168.446 404.355 167.22 405.172 167.22 406.691C167.22 408.151 168.3 409.1 169.921 409.1C170.987 409.1 171.761 408.72 172.272 407.99V408.954ZM169.132 406.632C169.132 405.932 169.702 405.567 170.855 405.567C171.206 405.567 171.542 405.596 172.023 405.669V406.224C172.023 407.129 171.396 407.698 170.359 407.698C169.6 407.698 169.132 407.289 169.132 406.632ZM180.404 406.983C180.112 407.143 179.761 407.231 179.382 407.231C178.652 407.231 178.243 406.866 178.243 405.961V402.895H180.477V401.157H178.243V398.85H176.228V401.157H174.651V402.895H176.228V406.428C176.228 408.18 177.235 409.1 178.842 409.1C179.44 409.1 179.907 408.998 180.404 408.75V406.983ZM184.604 408.954V402.895H186.633V401.157H184.604V400.778C184.604 400.237 184.969 400.018 185.524 400.018C185.787 400.018 186.079 400.062 186.298 400.15V398.544C185.962 398.398 185.538 398.31 185.042 398.31C183.421 398.31 182.589 399.186 182.589 400.734V401.157H181.012V402.895H182.589V408.954H184.604ZM190.908 409.1C193.171 409.1 194.865 407.319 194.865 405.056C194.865 402.778 193.171 401.011 190.908 401.011C188.645 401.011 186.951 402.778 186.951 405.056C186.951 407.319 188.645 409.1 190.908 409.1ZM190.908 407.304C189.901 407.304 189.039 406.501 189.039 405.056C189.039 403.61 189.901 402.822 190.908 402.822C191.915 402.822 192.777 403.61 192.777 405.056C192.777 406.501 191.915 407.304 190.908 407.304ZM198.189 405.172C198.189 403.449 199.343 403.041 201.066 403.172V401.07C199.81 401.07 198.598 401.668 198.029 402.661V401.157H196.16V408.954H198.189V405.172ZM204.15 408.954V404.603C204.15 403.435 204.792 402.807 205.61 402.807C206.5 402.807 206.968 403.464 206.968 404.559V408.954H208.982V404.603C208.982 403.435 209.639 402.807 210.442 402.807C211.333 402.807 211.8 403.464 211.8 404.559V408.954H213.815V403.917C213.815 402.048 212.749 401.011 211.173 401.011C210.004 401.011 209.216 401.537 208.603 402.398C208.209 401.508 207.391 401.011 206.325 401.011C205.288 401.011 204.558 401.478 203.989 402.267V401.157H202.12V408.954H204.15ZM225.188 406.457C225.188 405.333 224.414 404.632 222.896 404.34L221.392 404.063C220.691 403.931 220.37 403.742 220.37 403.274C220.37 402.778 220.866 402.5 221.611 402.5C222.472 402.5 223.042 402.968 223.115 403.727H225.056C224.91 402.048 223.567 401.011 221.611 401.011C219.669 401.011 218.428 402.019 218.428 403.464C218.428 404.676 219.275 405.45 220.676 405.698L222.078 405.961C222.823 406.107 223.144 406.311 223.144 406.808C223.144 407.362 222.545 407.611 221.757 407.611C220.749 407.611 220.063 407.1 220.048 406.297H218.107C218.267 408.034 219.508 409.1 221.728 409.1C223.947 409.1 225.188 408.093 225.188 406.457ZM234.356 405.056C234.356 402.763 232.998 401.011 230.895 401.011C229.902 401.011 229.041 401.464 228.442 402.296V401.157H226.573V411.772H228.603V407.947C229.187 408.706 229.975 409.1 230.895 409.1C232.998 409.1 234.356 407.362 234.356 405.056ZM232.268 405.056C232.268 406.545 231.436 407.289 230.443 407.289C229.45 407.289 228.618 406.53 228.618 405.056C228.618 403.581 229.45 402.807 230.443 402.807C231.436 402.807 232.268 403.596 232.268 405.056ZM239.044 409.085C240.942 409.085 242.3 408.078 242.738 406.311H240.723C240.489 407.085 239.89 407.523 239 407.523C237.963 407.523 237.35 406.822 237.218 405.552H242.752C243.117 403.011 241.482 401.011 239.014 401.011C236.766 401.011 235.145 402.705 235.145 405.026C235.145 407.465 236.707 409.085 239.044 409.085ZM238.971 402.5C239.934 402.5 240.547 403.187 240.606 404.267H237.248C237.423 403.114 238.021 402.5 238.971 402.5ZM247.254 409.1C249.342 409.1 250.802 407.771 251.036 405.625H248.904C248.787 406.691 248.189 407.304 247.254 407.304C246.188 407.304 245.531 406.457 245.531 405.056C245.531 403.669 246.203 402.807 247.254 402.807C248.174 402.807 248.802 403.449 248.904 404.486H251.036C250.787 402.384 249.284 401.011 247.254 401.011C245.064 401.011 243.458 402.719 243.458 405.056C243.458 407.436 245.006 409.1 247.254 409.1ZM254.689 399.347C254.689 398.631 254.135 398.12 253.332 398.12C252.543 398.12 251.988 398.631 251.988 399.347C251.988 400.033 252.543 400.544 253.332 400.544C254.135 400.544 254.689 400.033 254.689 399.347ZM254.368 408.954V401.157H252.339V408.954H254.368ZM264.351 399.347C264.351 398.631 263.796 398.12 262.993 398.12C262.19 398.12 261.635 398.631 261.635 399.347C261.635 400.033 262.19 400.544 262.993 400.544C263.796 400.544 264.351 400.033 264.351 399.347ZM258.934 408.954V402.895H260.963V401.157H258.934V400.778C258.934 400.237 259.299 400.018 259.854 400.018C260.116 400.018 260.408 400.062 260.627 400.15V398.544C260.292 398.398 259.868 398.31 259.372 398.31C257.751 398.31 256.919 399.186 256.919 400.734V401.157H255.342V402.895H256.919V408.954H258.934ZM264.015 408.954V401.157H262V408.954H264.015ZM269.127 409.1C271.215 409.1 272.675 407.771 272.908 405.625H270.777C270.66 406.691 270.061 407.304 269.127 407.304C268.061 407.304 267.404 406.457 267.404 405.056C267.404 403.669 268.075 402.807 269.127 402.807C270.047 402.807 270.674 403.449 270.777 404.486H272.908C272.66 402.384 271.156 401.011 269.127 401.011C266.937 401.011 265.33 402.719 265.33 405.056C265.33 407.436 266.878 409.1 269.127 409.1Z" fill="#F9614C"/>
</svg>
