<svg width="1440" height="711" viewBox="0 0 1440 711" fill="none" xmlns="http://www.w3.org/2000/svg">
<path d="M943 496C943 487.163 950.163 480 959 480H1194C1196.21 480 1198 481.791 1198 484V571C1198 579.837 1190.84 587 1182 587H959C950.163 587 943 579.837 943 571V496Z" fill="white"/>
<path d="M960.264 508.888C960.264 511.56 961.96 513.192 964.696 513.192C967.416 513.192 969.112 511.544 969.112 508.888V501.432H967.528V508.792C967.528 510.632 966.52 511.672 964.696 511.672C962.856 511.672 961.832 510.648 961.832 508.792V501.432H960.264V508.888ZM970.281 510.728C970.281 512.216 971.449 513.192 973.289 513.192C975.145 513.192 976.425 512.248 976.425 510.76C976.425 509.592 975.769 508.984 974.441 508.664L973.065 508.328C972.297 508.136 971.913 507.784 971.913 507.256C971.913 506.536 972.441 506.12 973.385 506.12C974.297 506.12 974.825 506.616 974.857 507.4H976.297C976.265 505.912 975.145 504.952 973.433 504.952C971.705 504.952 970.489 505.864 970.489 507.304C970.489 508.456 971.145 509.144 972.537 509.48L973.913 509.8C974.729 510.008 974.985 510.328 974.985 510.856C974.985 511.576 974.377 512.008 973.321 512.008C972.329 512.008 971.721 511.528 971.721 510.728H970.281ZM978.348 503.32C978.892 503.32 979.34 502.872 979.34 502.328C979.34 501.768 978.892 501.336 978.348 501.336C977.804 501.336 977.356 501.768 977.356 502.328C977.356 502.872 977.804 503.32 978.348 503.32ZM977.612 513H979.116V505.176H977.612V513ZM982.324 513V508.856C982.324 507.336 983.14 506.328 984.548 506.328C985.7 506.328 986.436 506.968 986.436 508.552V513H987.94V508.216C987.94 506.216 986.996 504.952 984.932 504.952C983.828 504.952 982.836 505.48 982.34 506.376L982.18 505.176H980.82V513H982.324ZM989.047 508.888C989.047 511.08 990.455 512.792 992.679 512.792C993.911 512.792 994.935 512.248 995.447 511.336V512.904C995.447 514.392 994.487 515.352 993.015 515.352C991.703 515.352 990.839 514.68 990.647 513.528H989.143C989.431 515.512 990.887 516.712 993.015 516.712C995.415 516.712 996.935 515.144 996.935 512.68V505.176H995.591L995.479 506.504C994.983 505.528 994.007 504.952 992.743 504.952C990.471 504.952 989.047 506.68 989.047 508.888ZM990.551 508.856C990.551 507.416 991.447 506.264 992.951 506.264C994.487 506.264 995.383 507.352 995.383 508.856C995.383 510.392 994.455 511.48 992.935 511.48C991.463 511.48 990.551 510.328 990.551 508.856ZM1007.58 513.176C1010.18 513.176 1012.25 511.64 1012.74 509.336H1011.08C1010.65 510.76 1009.3 511.672 1007.61 511.672C1005.27 511.672 1003.74 509.912 1003.74 507.208C1003.74 504.504 1005.27 502.744 1007.61 502.744C1009.29 502.744 1010.58 503.656 1011.02 505.16H1012.7C1012.26 502.792 1010.26 501.24 1007.66 501.24C1004.34 501.24 1002.09 503.656 1002.09 507.224C1002.09 510.808 1004.28 513.176 1007.58 513.176ZM1013.42 509.08C1013.42 511.496 1015.15 513.192 1017.5 513.192C1019.84 513.192 1021.56 511.496 1021.56 509.08C1021.56 506.664 1019.84 504.968 1017.5 504.968C1015.15 504.968 1013.42 506.664 1013.42 509.08ZM1014.94 509.08C1014.94 507.448 1015.98 506.312 1017.5 506.312C1019 506.312 1020.06 507.448 1020.06 509.08C1020.06 510.712 1019 511.848 1017.5 511.848C1015.98 511.848 1014.94 510.712 1014.94 509.08ZM1024.25 513V508.856C1024.25 507.336 1025.07 506.328 1026.48 506.328C1027.63 506.328 1028.36 506.968 1028.36 508.552V513H1029.87V508.216C1029.87 506.216 1028.92 504.952 1026.86 504.952C1025.76 504.952 1024.76 505.48 1024.27 506.376L1024.11 505.176H1022.75V513H1024.25ZM1032.98 513V508.856C1032.98 507.336 1033.79 506.328 1035.2 506.328C1036.35 506.328 1037.09 506.968 1037.09 508.552V513H1038.59V508.216C1038.59 506.216 1037.65 504.952 1035.58 504.952C1034.48 504.952 1033.49 505.48 1032.99 506.376L1032.83 505.176H1031.47V513H1032.98ZM1043.57 513.192C1045.51 513.192 1046.82 512.248 1047.2 510.568H1045.79C1045.54 511.464 1044.77 511.944 1043.6 511.944C1042.11 511.944 1041.25 511.032 1041.14 509.384L1047.19 509.368V508.808C1047.19 506.488 1045.73 504.952 1043.51 504.952C1041.23 504.952 1039.68 506.648 1039.68 509.096C1039.68 511.528 1041.27 513.192 1043.57 513.192ZM1043.51 506.216C1044.83 506.216 1045.68 507.08 1045.68 508.376H1041.17C1041.36 507 1042.19 506.216 1043.51 506.216ZM1047.87 509.096C1047.87 511.56 1049.39 513.192 1051.7 513.192C1053.59 513.192 1055.04 512.056 1055.35 510.36H1053.84C1053.57 511.288 1052.77 511.848 1051.7 511.848C1050.27 511.848 1049.36 510.76 1049.36 509.08C1049.36 507.384 1050.34 506.296 1051.76 506.296C1052.77 506.296 1053.57 506.824 1053.83 507.816H1055.33C1055.06 506.072 1053.68 504.952 1051.71 504.952C1049.43 504.952 1047.87 506.648 1047.87 509.096ZM1058.66 513V506.44H1060.2V505.176H1058.66V502.728H1057.16V505.176H1055.62V506.44H1057.16V513H1058.66ZM1062.84 512.376C1062.84 511.496 1062.29 510.936 1061.62 510.936C1060.98 510.936 1060.55 511.4 1060.55 512.04C1060.55 512.632 1061 513.016 1061.53 513.016C1061.72 513.016 1061.85 512.984 1061.96 512.92C1061.96 513.416 1061.49 513.848 1060.84 513.96V514.632C1061.97 514.488 1062.84 513.528 1062.84 512.376ZM1070.21 513V508.056C1070.21 506.44 1070.18 505.256 1070.1 504.696L1073.46 513H1074.93L1078.31 504.664C1078.23 505.48 1078.21 506.264 1078.21 508.424V513H1079.75V501.432H1078.18L1074.2 511.16L1070.21 501.432H1068.68V513H1070.21ZM1080.95 516.504C1081.35 516.6 1081.77 516.664 1082.26 516.664C1083.46 516.664 1084.25 516.104 1084.78 514.76L1088.47 505.176H1086.92L1084.6 511.48L1082.33 505.176H1080.74L1083.9 513.416L1083.62 514.168C1083.26 515.16 1082.68 515.272 1081.96 515.272H1080.95V516.504ZM1094.91 513V508.424H1097.87L1100.03 513H1101.78L1099.42 508.12C1100.86 507.656 1101.66 506.504 1101.66 504.904C1101.66 502.744 1100.19 501.432 1097.71 501.432H1093.34V513H1094.91ZM1094.91 502.84H1097.71C1099.15 502.84 1100.02 503.576 1100.02 504.92C1100.02 506.248 1099.18 507.032 1097.73 507.032H1094.91V502.84ZM1105.89 513.192C1107.83 513.192 1109.14 512.248 1109.52 510.568H1108.11C1107.86 511.464 1107.09 511.944 1105.92 511.944C1104.43 511.944 1103.57 511.032 1103.46 509.384L1109.51 509.368V508.808C1109.51 506.488 1108.05 504.952 1105.83 504.952C1103.55 504.952 1102 506.648 1102 509.096C1102 511.528 1103.59 513.192 1105.89 513.192ZM1105.83 506.216C1107.15 506.216 1108 507.08 1108 508.376H1103.49C1103.68 507 1104.51 506.216 1105.83 506.216ZM1112.63 513H1114.12L1117.39 505.176H1115.82L1114.07 509.544C1113.8 510.232 1113.55 510.904 1113.42 511.416C1113.29 510.936 1113.07 510.28 1112.79 509.544L1111.08 505.176H1109.48L1112.63 513ZM1118.84 503.32C1119.38 503.32 1119.83 502.872 1119.83 502.328C1119.83 501.768 1119.38 501.336 1118.84 501.336C1118.29 501.336 1117.85 501.768 1117.85 502.328C1117.85 502.872 1118.29 503.32 1118.84 503.32ZM1118.1 513H1119.61V505.176H1118.1V513ZM1124.69 513.192C1126.62 513.192 1127.93 512.248 1128.32 510.568H1126.91C1126.65 511.464 1125.89 511.944 1124.72 511.944C1123.23 511.944 1122.37 511.032 1122.25 509.384L1128.3 509.368V508.808C1128.3 506.488 1126.85 504.952 1124.62 504.952C1122.35 504.952 1120.8 506.648 1120.8 509.096C1120.8 511.528 1122.38 513.192 1124.69 513.192ZM1124.62 506.216C1125.95 506.216 1126.8 507.08 1126.8 508.376H1122.29C1122.48 507 1123.31 506.216 1124.62 506.216ZM1130.92 513H1132.4L1133.76 508.824C1134.05 507.88 1134.2 507.368 1134.28 506.984C1134.36 507.416 1134.52 508.024 1134.77 508.808L1136.13 513H1137.56L1140.23 505.176H1138.66L1137.35 509.24C1137.12 509.928 1136.98 510.472 1136.85 511.096C1136.72 510.536 1136.47 509.624 1136.34 509.24L1135.04 505.176H1133.51L1132.2 509.24C1132.02 509.752 1131.81 510.408 1131.68 511.096C1131.54 510.408 1131.38 509.816 1131.2 509.24L1129.91 505.176H1128.36L1130.92 513ZM1140.29 510.728C1140.29 512.216 1141.46 513.192 1143.3 513.192C1145.15 513.192 1146.43 512.248 1146.43 510.76C1146.43 509.592 1145.78 508.984 1144.45 508.664L1143.07 508.328C1142.3 508.136 1141.92 507.784 1141.92 507.256C1141.92 506.536 1142.45 506.12 1143.39 506.12C1144.3 506.12 1144.83 506.616 1144.86 507.4H1146.3C1146.27 505.912 1145.15 504.952 1143.44 504.952C1141.71 504.952 1140.5 505.864 1140.5 507.304C1140.5 508.456 1141.15 509.144 1142.54 509.48L1143.92 509.8C1144.74 510.008 1144.99 510.328 1144.99 510.856C1144.99 511.576 1144.38 512.008 1143.33 512.008C1142.34 512.008 1141.73 511.528 1141.73 510.728H1140.29ZM1153.34 513V507.864H1159.07V513H1160.63V501.432H1159.07V506.408H1153.34V501.432H1151.77V513H1153.34ZM1164.87 513.192C1166.13 513.192 1167.21 512.632 1167.61 511.736L1167.77 513H1169.05V508.088C1169.05 505.976 1167.73 504.952 1165.8 504.952C1163.78 504.952 1162.44 506.024 1162.44 507.656H1163.75C1163.75 506.712 1164.47 506.152 1165.73 506.152C1166.79 506.152 1167.57 506.616 1167.57 507.928V508.152L1165.11 508.344C1163.27 508.488 1162.2 509.384 1162.2 510.824C1162.2 512.248 1163.19 513.192 1164.87 513.192ZM1165.3 512.024C1164.33 512.024 1163.72 511.608 1163.72 510.776C1163.72 510.008 1164.26 509.496 1165.59 509.368L1167.59 509.208V509.624C1167.59 511.096 1166.73 512.024 1165.3 512.024ZM1170.01 510.728C1170.01 512.216 1171.18 513.192 1173.02 513.192C1174.87 513.192 1176.15 512.248 1176.15 510.76C1176.15 509.592 1175.5 508.984 1174.17 508.664L1172.79 508.328C1172.02 508.136 1171.64 507.784 1171.64 507.256C1171.64 506.536 1172.17 506.12 1173.11 506.12C1174.02 506.12 1174.55 506.616 1174.58 507.4H1176.02C1175.99 505.912 1174.87 504.952 1173.16 504.952C1171.43 504.952 1170.22 505.864 1170.22 507.304C1170.22 508.456 1170.87 509.144 1172.26 509.48L1173.64 509.8C1174.46 510.008 1174.71 510.328 1174.71 510.856C1174.71 511.576 1174.1 512.008 1173.05 512.008C1172.06 512.008 1171.45 511.528 1171.45 510.728H1170.01ZM961.912 523.432H960.344V535H961.912V523.432ZM965.378 535V530.856C965.378 529.336 966.194 528.328 967.602 528.328C968.754 528.328 969.49 528.968 969.49 530.552V535H970.994V530.216C970.994 528.216 970.05 526.952 967.986 526.952C966.882 526.952 965.89 527.48 965.394 528.376L965.234 527.176H963.874V535H965.378ZM972.085 531.096C972.085 533.56 973.605 535.192 975.909 535.192C977.797 535.192 979.253 534.056 979.557 532.36H978.053C977.781 533.288 976.981 533.848 975.909 533.848C974.485 533.848 973.573 532.76 973.573 531.08C973.573 529.384 974.549 528.296 975.973 528.296C976.981 528.296 977.781 528.824 978.037 529.816H979.541C979.269 528.072 977.893 526.952 975.925 526.952C973.637 526.952 972.085 528.648 972.085 531.096ZM985.144 527.112C984.84 527.048 984.616 527.016 984.344 527.016C983.272 527.016 982.488 527.56 982.168 528.376L982.072 527.192H980.664V535H982.168V530.856C982.168 529.352 983.048 528.488 984.472 528.488H985.144V527.112ZM989.169 535.192C991.105 535.192 992.417 534.248 992.801 532.568H991.393C991.137 533.464 990.369 533.944 989.201 533.944C987.713 533.944 986.849 533.032 986.737 531.384L992.785 531.368V530.808C992.785 528.488 991.329 526.952 989.105 526.952C986.833 526.952 985.281 528.648 985.281 531.096C985.281 533.528 986.865 535.192 989.169 535.192ZM989.105 528.216C990.433 528.216 991.281 529.08 991.281 530.376H986.769C986.961 529 987.793 528.216 989.105 528.216ZM996.195 535.192C997.459 535.192 998.531 534.632 998.931 533.736L999.091 535H1000.37V530.088C1000.37 527.976 999.059 526.952 997.123 526.952C995.107 526.952 993.763 528.024 993.763 529.656H995.075C995.075 528.712 995.795 528.152 997.059 528.152C998.115 528.152 998.899 528.616 998.899 529.928V530.152L996.435 530.344C994.595 530.488 993.523 531.384 993.523 532.824C993.523 534.248 994.515 535.192 996.195 535.192ZM996.627 534.024C995.651 534.024 995.043 533.608 995.043 532.776C995.043 532.008 995.587 531.496 996.915 531.368L998.915 531.208V531.624C998.915 533.096 998.051 534.024 996.627 534.024ZM1001.33 532.728C1001.33 534.216 1002.5 535.192 1004.34 535.192C1006.2 535.192 1007.48 534.248 1007.48 532.76C1007.48 531.592 1006.82 530.984 1005.49 530.664L1004.12 530.328C1003.35 530.136 1002.97 529.784 1002.97 529.256C1002.97 528.536 1003.49 528.12 1004.44 528.12C1005.35 528.12 1005.88 528.616 1005.91 529.4H1007.35C1007.32 527.912 1006.2 526.952 1004.49 526.952C1002.76 526.952 1001.54 527.864 1001.54 529.304C1001.54 530.456 1002.2 531.144 1003.59 531.48L1004.97 531.8C1005.78 532.008 1006.04 532.328 1006.04 532.856C1006.04 533.576 1005.43 534.008 1004.37 534.008C1003.38 534.008 1002.77 533.528 1002.77 532.728H1001.33ZM1012.04 535.192C1013.98 535.192 1015.29 534.248 1015.67 532.568H1014.27C1014.01 533.464 1013.24 533.944 1012.07 533.944C1010.59 533.944 1009.72 533.032 1009.61 531.384L1015.66 531.368V530.808C1015.66 528.488 1014.2 526.952 1011.98 526.952C1009.71 526.952 1008.15 528.648 1008.15 531.096C1008.15 533.528 1009.74 535.192 1012.04 535.192ZM1011.98 528.216C1013.31 528.216 1014.15 529.08 1014.15 530.376H1009.64C1009.83 529 1010.67 528.216 1011.98 528.216ZM1019.99 535.192C1021.24 535.192 1022.3 534.648 1022.81 533.576L1022.94 535H1024.28V523.224H1022.79V528.44C1022.27 527.48 1021.26 526.952 1020.06 526.952C1017.74 526.952 1016.35 528.712 1016.35 531.112C1016.35 533.496 1017.72 535.192 1019.99 535.192ZM1020.3 533.832C1018.76 533.832 1017.87 532.68 1017.87 531.064C1017.87 529.464 1018.76 528.312 1020.3 528.312C1021.83 528.312 1022.78 529.464 1022.78 531.064C1022.78 532.696 1021.83 533.832 1020.3 533.832ZM1030.12 535H1034.7C1036.99 535 1038.38 533.832 1038.38 531.912C1038.38 530.536 1037.72 529.608 1036.44 529.192C1037.59 528.712 1038.17 527.816 1038.17 526.488C1038.17 524.584 1036.79 523.432 1034.54 523.432H1030.12V535ZM1034.44 524.824C1035.8 524.824 1036.57 525.48 1036.57 526.632C1036.57 527.832 1035.83 528.536 1034.54 528.536H1031.69V524.824H1034.44ZM1034.67 529.896C1035.99 529.896 1036.76 530.568 1036.76 531.72C1036.76 532.92 1036.01 533.608 1034.67 533.608H1031.69V529.896H1034.67ZM1038.7 538.504C1039.1 538.6 1039.51 538.664 1040.01 538.664C1041.21 538.664 1041.99 538.104 1042.52 536.76L1046.22 527.176H1044.66L1042.34 533.48L1040.07 527.176H1038.49L1041.64 535.416L1041.37 536.168C1041 537.16 1040.42 537.272 1039.7 537.272H1038.7V538.504ZM1052.74 524.84V535H1054.24V523.432H1050.3V524.84H1052.74ZM1063.64 534.984V533.528H1058.29L1060.69 531.448C1062.74 529.672 1063.56 528.504 1063.56 526.856C1063.56 524.632 1062.07 523.224 1059.75 523.224C1057.4 523.224 1055.83 524.84 1055.78 527.32H1057.35C1057.38 525.672 1058.31 524.632 1059.73 524.632C1061.12 524.632 1061.96 525.496 1061.96 526.952C1061.96 528.184 1061.43 528.968 1059.56 530.584L1055.83 533.8V535L1063.64 534.984ZM1064.6 529.224C1064.6 532.824 1066.38 535.208 1069.37 535.208C1072.34 535.208 1074.12 532.824 1074.12 529.224C1074.12 525.64 1072.26 523.208 1069.37 523.208C1066.46 523.208 1064.6 525.64 1064.6 529.224ZM1066.15 529.224C1066.15 526.344 1067.34 524.616 1069.37 524.616C1071.4 524.616 1072.57 526.344 1072.57 529.224C1072.57 532.072 1071.4 533.8 1069.37 533.8C1067.34 533.8 1066.15 532.072 1066.15 529.224ZM1080.94 526.168C1080.94 524.44 1079.73 523.208 1078.01 523.208C1076.32 523.208 1075.1 524.44 1075.1 526.168C1075.1 527.88 1076.32 529.112 1078.01 529.112C1079.73 529.112 1080.94 527.88 1080.94 526.168ZM1087.04 523.448H1085.5L1076.72 535H1078.25L1087.04 523.448ZM1079.71 526.168C1079.71 527.192 1079.01 527.912 1078.01 527.912C1077.02 527.912 1076.33 527.192 1076.33 526.168C1076.33 525.128 1077.02 524.408 1078.01 524.408C1079.02 524.408 1079.71 525.128 1079.71 526.168ZM1088.69 532.264C1088.69 530.536 1087.45 529.32 1085.76 529.32C1084.06 529.32 1082.83 530.536 1082.83 532.264C1082.83 533.976 1084.06 535.208 1085.76 535.208C1087.45 535.208 1088.69 533.976 1088.69 532.264ZM1087.44 532.264C1087.44 533.288 1086.75 534.008 1085.76 534.008C1084.77 534.008 1084.08 533.288 1084.08 532.264C1084.08 531.224 1084.77 530.504 1085.76 530.504C1086.77 530.504 1087.44 531.224 1087.44 532.264ZM1095.66 523.432H1094.09V535H1095.66V523.432ZM1099.13 535V530.856C1099.13 529.336 1099.94 528.328 1101.35 528.328C1102.5 528.328 1103.24 528.968 1103.24 530.552V535H1104.74V530.216C1104.74 528.216 1103.8 526.952 1101.74 526.952C1100.63 526.952 1099.64 527.48 1099.14 528.376L1098.98 527.176H1097.62V535H1099.13ZM1117.7 534.984V533.528H1112.35L1114.75 531.448C1116.8 529.672 1117.62 528.504 1117.62 526.856C1117.62 524.632 1116.13 523.224 1113.81 523.224C1111.46 523.224 1109.89 524.84 1109.84 527.32H1111.41C1111.44 525.672 1112.37 524.632 1113.79 524.632C1115.19 524.632 1116.02 525.496 1116.02 526.952C1116.02 528.184 1115.49 528.968 1113.62 530.584L1109.89 533.8V535L1117.7 534.984ZM1124.65 535V530.056C1124.65 528.44 1124.62 527.256 1124.54 526.696L1127.9 535H1129.37L1132.75 526.664C1132.67 527.48 1132.65 528.264 1132.65 530.424V535H1134.19V523.432H1132.62L1128.64 533.16L1124.65 523.432H1123.12V535H1124.65ZM1135.63 531.08C1135.63 533.496 1137.36 535.192 1139.71 535.192C1142.05 535.192 1143.78 533.496 1143.78 531.08C1143.78 528.664 1142.05 526.968 1139.71 526.968C1137.36 526.968 1135.63 528.664 1135.63 531.08ZM1137.15 531.08C1137.15 529.448 1138.19 528.312 1139.71 528.312C1141.22 528.312 1142.27 529.448 1142.27 531.08C1142.27 532.712 1141.22 533.848 1139.71 533.848C1138.19 533.848 1137.15 532.712 1137.15 531.08ZM1146.47 535V530.856C1146.47 529.336 1147.28 528.328 1148.69 528.328C1149.84 528.328 1150.58 528.968 1150.58 530.552V535H1152.08V530.216C1152.08 528.216 1151.14 526.952 1149.08 526.952C1147.97 526.952 1146.98 527.48 1146.48 528.376L1146.32 527.176H1144.96V535H1146.47ZM1155.89 535V528.44H1157.43V527.176H1155.89V524.728H1154.39V527.176H1152.85V528.44H1154.39V535H1155.89ZM1159.8 534.984V530.728C1159.8 529.384 1160.59 528.328 1162.04 528.328C1163.16 528.328 1163.92 528.968 1163.92 530.552V535H1165.42V530.216C1165.42 528.216 1164.46 526.952 1162.46 526.952C1161.24 526.952 1160.3 527.528 1159.8 528.376V523.224H1158.3V534.984H1159.8ZM1166.29 532.728C1166.29 534.216 1167.46 535.192 1169.3 535.192C1171.15 535.192 1172.43 534.248 1172.43 532.76C1172.43 531.592 1171.78 530.984 1170.45 530.664L1169.07 530.328C1168.31 530.136 1167.92 529.784 1167.92 529.256C1167.92 528.536 1168.45 528.12 1169.39 528.12C1170.31 528.12 1170.83 528.616 1170.87 529.4H1172.31C1172.27 527.912 1171.15 526.952 1169.44 526.952C1167.71 526.952 1166.5 527.864 1166.5 529.304C1166.5 530.456 1167.15 531.144 1168.55 531.48L1169.92 531.8C1170.74 532.008 1170.99 532.328 1170.99 532.856C1170.99 533.576 1170.39 534.008 1169.33 534.008C1168.34 534.008 1167.73 533.528 1167.73 532.728H1166.29Z" fill="black"/>
<path opacity="0.5" d="M960.218 567L961.198 564.34H965.818L966.798 567H967.848L964.124 556.976H962.878L959.196 567H960.218ZM963.368 558.39C963.424 558.25 963.48 558.068 963.494 557.984C963.508 558.082 963.578 558.25 963.62 558.39L965.496 563.458H961.506L963.368 558.39ZM969.619 567V556.794H968.653V567H969.619ZM971.73 558.362C972.122 558.362 972.458 558.04 972.458 557.648C972.458 557.256 972.122 556.92 971.73 556.92C971.338 556.92 971.016 557.256 971.016 557.648C971.016 558.04 971.338 558.362 971.73 558.362ZM971.254 567H972.22V560.224H971.254V567ZM973.128 569.954C973.436 570.024 973.744 570.052 974.15 570.052C975.116 570.052 975.774 569.618 976.166 568.554L979.274 560.224H978.28L976.138 566.132L973.954 560.224H972.932L975.676 567.406L975.382 568.204C975.046 569.114 974.458 569.156 973.87 569.156H973.128V569.954ZM981.629 567.168C982.777 567.168 983.701 566.664 984.121 565.81L984.247 567H985.059V562.618C985.059 560.826 983.911 560.042 982.343 560.042C980.677 560.042 979.557 560.924 979.557 562.296H980.439C980.439 561.386 981.139 560.854 982.315 560.854C983.309 560.854 984.107 561.274 984.107 562.604V562.828L981.867 563.01C980.285 563.136 979.333 563.92 979.333 565.166C979.333 566.356 980.187 567.168 981.629 567.168ZM981.853 566.384C980.929 566.384 980.313 565.964 980.313 565.138C980.313 564.382 980.831 563.822 982.105 563.71L984.107 563.556V563.92C984.107 565.39 983.281 566.384 981.853 566.384ZM991.259 556.976H990.251V567H991.259V564.508L993.233 562.058L996.173 567H997.349L993.891 561.218L997.293 556.976H996.089L991.259 563.01V556.976ZM999.214 566.986V563.304C999.214 562.002 999.97 560.924 1001.43 560.924C1002.48 560.924 1003.22 561.484 1003.22 563.066V567H1004.18V562.856C1004.18 561.148 1003.39 560.042 1001.61 560.042C1000.47 560.042 999.648 560.588 999.214 561.4V556.794H998.248V566.986H999.214ZM1007.64 567.168C1008.78 567.168 1009.71 566.664 1010.13 565.81L1010.25 567H1011.07V562.618C1011.07 560.826 1009.92 560.042 1008.35 560.042C1006.68 560.042 1005.56 560.924 1005.56 562.296H1006.45C1006.45 561.386 1007.15 560.854 1008.32 560.854C1009.32 560.854 1010.11 561.274 1010.11 562.604V562.828L1007.87 563.01C1006.29 563.136 1005.34 563.92 1005.34 565.166C1005.34 566.356 1006.19 567.168 1007.64 567.168ZM1007.86 566.384C1006.94 566.384 1006.32 565.964 1006.32 565.138C1006.32 564.382 1006.84 563.822 1008.11 563.71L1010.11 563.556V563.92C1010.11 565.39 1009.29 566.384 1007.86 566.384ZM1013.55 567V563.458C1013.55 561.932 1014.33 560.924 1015.72 560.924C1016.84 560.924 1017.55 561.484 1017.55 563.066V567H1018.52V562.856C1018.52 561.148 1017.75 560.042 1015.89 560.042C1014.91 560.042 1014.01 560.532 1013.56 561.4L1013.42 560.224H1012.58V567H1013.55Z" fill="black"/>
<path d="M1046.53 555.359C1046.68 554.911 1047.32 554.911 1047.47 555.359L1048.53 558.406C1048.6 558.604 1048.78 558.738 1048.99 558.742L1052.22 558.808C1052.69 558.817 1052.89 559.42 1052.51 559.706L1049.94 561.655C1049.77 561.781 1049.7 561.998 1049.76 562.198L1050.7 565.286C1050.84 565.74 1050.32 566.112 1049.93 565.842L1047.29 563.999C1047.11 563.879 1046.89 563.879 1046.71 563.999L1044.07 565.842C1043.68 566.112 1043.16 565.74 1043.3 565.286L1044.24 562.198C1044.3 561.998 1044.23 561.781 1044.06 561.655L1041.49 559.706C1041.11 559.42 1041.31 558.817 1041.78 558.808L1045.01 558.742C1045.22 558.738 1045.4 558.604 1045.47 558.406L1046.53 555.359Z" fill="#F2B72C"/>
<path d="M1063.35 555.359C1063.5 554.911 1064.14 554.911 1064.29 555.359L1065.35 558.406C1065.42 558.604 1065.6 558.738 1065.81 558.742L1069.04 558.808C1069.51 558.817 1069.71 559.42 1069.33 559.706L1066.76 561.655C1066.59 561.781 1066.52 561.998 1066.58 562.198L1067.52 565.286C1067.66 565.74 1067.14 566.112 1066.75 565.842L1064.11 563.999C1063.93 563.879 1063.71 563.879 1063.53 563.999L1060.89 565.842C1060.5 566.112 1059.99 565.74 1060.12 565.286L1061.06 562.198C1061.12 561.998 1061.05 561.781 1060.88 561.655L1058.31 559.706C1057.93 559.42 1058.13 558.817 1058.6 558.808L1061.83 558.742C1062.04 558.738 1062.22 558.604 1062.29 558.406L1063.35 555.359Z" fill="#F2B72C"/>
<path d="M1080.17 555.359C1080.32 554.911 1080.96 554.911 1081.11 555.359L1082.17 558.406C1082.24 558.604 1082.43 558.738 1082.63 558.742L1085.86 558.808C1086.33 558.817 1086.53 559.42 1086.15 559.706L1083.58 561.655C1083.41 561.781 1083.34 561.998 1083.4 562.198L1084.34 565.286C1084.48 565.74 1083.96 566.112 1083.57 565.842L1080.93 563.999C1080.75 563.879 1080.53 563.879 1080.36 563.999L1077.71 565.842C1077.32 566.112 1076.81 565.74 1076.94 565.286L1077.88 562.198C1077.94 561.998 1077.87 561.781 1077.7 561.655L1075.13 559.706C1074.75 559.42 1074.95 558.817 1075.42 558.808L1078.65 558.742C1078.86 558.738 1079.04 558.604 1079.11 558.406L1080.17 555.359Z" fill="#F2B72C"/>
<path d="M1096.99 555.359C1097.14 554.911 1097.78 554.911 1097.93 555.359L1098.99 558.406C1099.06 558.604 1099.24 558.738 1099.45 558.742L1102.68 558.808C1103.15 558.817 1103.35 559.42 1102.97 559.706L1100.4 561.655C1100.23 561.781 1100.16 561.998 1100.22 562.198L1101.16 565.286C1101.3 565.74 1100.78 566.112 1100.39 565.842L1097.75 563.999C1097.57 563.879 1097.35 563.879 1097.17 563.999L1094.53 565.842C1094.14 566.112 1093.62 565.74 1093.76 565.286L1094.7 562.198C1094.76 561.998 1094.69 561.781 1094.52 561.655L1091.95 559.706C1091.57 559.42 1091.77 558.817 1092.24 558.808L1095.47 558.742C1095.68 558.738 1095.86 558.604 1095.93 558.406L1096.99 555.359Z" fill="#F2B72C"/>
<path d="M1113.81 555.359C1113.96 554.911 1114.6 554.911 1114.75 555.359L1115.81 558.406C1115.88 558.604 1116.06 558.738 1116.27 558.742L1119.5 558.808C1119.97 558.817 1120.17 559.42 1119.79 559.706L1117.22 561.655C1117.05 561.781 1116.98 561.998 1117.04 562.198L1117.98 565.286C1118.12 565.74 1117.6 566.112 1117.21 565.842L1114.57 563.999C1114.39 563.879 1114.17 563.879 1113.99 563.999L1111.35 565.842C1110.96 566.112 1110.45 565.74 1110.58 565.286L1111.52 562.198C1111.58 561.998 1111.51 561.781 1111.34 561.655L1108.77 559.706C1108.39 559.42 1108.59 558.817 1109.06 558.808L1112.29 558.742C1112.5 558.738 1112.68 558.604 1112.75 558.406L1113.81 555.359Z" fill="#F2B72C"/>
</svg>
