<svg width="255" height="107" viewBox="0 0 255 107" fill="none" xmlns="http://www.w3.org/2000/svg">
<path d="M0 16C0 7.16345 7.16345 0 16 0H251C253.209 0 255 1.79086 255 4V91C255 99.8366 247.837 107 239 107H16C7.16344 107 0 99.8366 0 91V16Z" fill="white"/>
<path d="M17.264 28.888C17.264 31.56 18.96 33.192 21.696 33.192C24.416 33.192 26.112 31.544 26.112 28.888V21.432H24.528V28.792C24.528 30.632 23.52 31.672 21.696 31.672C19.856 31.672 18.832 30.648 18.832 28.792V21.432H17.264V28.888ZM27.2805 30.728C27.2805 32.216 28.4485 33.192 30.2885 33.192C32.1445 33.192 33.4245 32.248 33.4245 30.76C33.4245 29.592 32.7685 28.984 31.4405 28.664L30.0645 28.328C29.2965 28.136 28.9125 27.784 28.9125 27.256C28.9125 26.536 29.4405 26.12 30.3845 26.12C31.2965 26.12 31.8245 26.616 31.8565 27.4H33.2965C33.2645 25.912 32.1445 24.952 30.4325 24.952C28.7045 24.952 27.4885 25.864 27.4885 27.304C27.4885 28.456 28.1445 29.144 29.5365 29.48L30.9125 29.8C31.7285 30.008 31.9845 30.328 31.9845 30.856C31.9845 31.576 31.3765 32.008 30.3205 32.008C29.3285 32.008 28.7205 31.528 28.7205 30.728H27.2805ZM35.3484 23.32C35.8924 23.32 36.3404 22.872 36.3404 22.328C36.3404 21.768 35.8924 21.336 35.3484 21.336C34.8044 21.336 34.3564 21.768 34.3564 22.328C34.3564 22.872 34.8044 23.32 35.3484 23.32ZM34.6124 33H36.1164V25.176H34.6124V33ZM39.3239 33V28.856C39.3239 27.336 40.1399 26.328 41.5479 26.328C42.6999 26.328 43.4359 26.968 43.4359 28.552V33H44.9399V28.216C44.9399 26.216 43.9959 24.952 41.9319 24.952C40.8279 24.952 39.8359 25.48 39.3399 26.376L39.1799 25.176H37.8199V33H39.3239ZM46.047 28.888C46.047 31.08 47.455 32.792 49.679 32.792C50.911 32.792 51.935 32.248 52.447 31.336V32.904C52.447 34.392 51.487 35.352 50.015 35.352C48.703 35.352 47.839 34.68 47.647 33.528H46.143C46.431 35.512 47.887 36.712 50.015 36.712C52.415 36.712 53.935 35.144 53.935 32.68V25.176H52.591L52.479 26.504C51.983 25.528 51.007 24.952 49.743 24.952C47.471 24.952 46.047 26.68 46.047 28.888ZM47.551 28.856C47.551 27.416 48.447 26.264 49.951 26.264C51.487 26.264 52.383 27.352 52.383 28.856C52.383 30.392 51.455 31.48 49.935 31.48C48.463 31.48 47.551 30.328 47.551 28.856ZM64.5765 33.176C67.1845 33.176 69.2485 31.64 69.7445 29.336H68.0805C67.6485 30.76 66.3045 31.672 64.6085 31.672C62.2725 31.672 60.7365 29.912 60.7365 27.208C60.7365 24.504 62.2725 22.744 64.6085 22.744C66.2885 22.744 67.5845 23.656 68.0165 25.16H69.6965C69.2645 22.792 67.2645 21.24 64.6565 21.24C61.3445 21.24 59.0885 23.656 59.0885 27.224C59.0885 30.808 61.2805 33.176 64.5765 33.176ZM70.4191 29.08C70.4191 31.496 72.1471 33.192 74.4991 33.192C76.8351 33.192 78.5631 31.496 78.5631 29.08C78.5631 26.664 76.8351 24.968 74.4991 24.968C72.1471 24.968 70.4191 26.664 70.4191 29.08ZM71.9391 29.08C71.9391 27.448 72.9791 26.312 74.4991 26.312C76.0031 26.312 77.0591 27.448 77.0591 29.08C77.0591 30.712 76.0031 31.848 74.4991 31.848C72.9791 31.848 71.9391 30.712 71.9391 29.08ZM81.252 33V28.856C81.252 27.336 82.068 26.328 83.476 26.328C84.628 26.328 85.364 26.968 85.364 28.552V33H86.868V28.216C86.868 26.216 85.924 24.952 83.86 24.952C82.756 24.952 81.764 25.48 81.268 26.376L81.108 25.176H79.748V33H81.252ZM89.9751 33V28.856C89.9751 27.336 90.7911 26.328 92.1991 26.328C93.3511 26.328 94.0871 26.968 94.0871 28.552V33H95.5911V28.216C95.5911 26.216 94.6471 24.952 92.5831 24.952C91.4791 24.952 90.4871 25.48 89.9911 26.376L89.8311 25.176H88.4711V33H89.9751ZM100.57 33.192C102.506 33.192 103.818 32.248 104.202 30.568H102.794C102.538 31.464 101.77 31.944 100.602 31.944C99.1142 31.944 98.2502 31.032 98.1382 29.384L104.186 29.368V28.808C104.186 26.488 102.73 24.952 100.506 24.952C98.2342 24.952 96.6822 26.648 96.6822 29.096C96.6822 31.528 98.2662 33.192 100.57 33.192ZM100.506 26.216C101.834 26.216 102.682 27.08 102.682 28.376H98.1702C98.3622 27 99.1942 26.216 100.506 26.216ZM104.874 29.096C104.874 31.56 106.394 33.192 108.698 33.192C110.586 33.192 112.042 32.056 112.346 30.36H110.842C110.57 31.288 109.77 31.848 108.698 31.848C107.274 31.848 106.362 30.76 106.362 29.08C106.362 27.384 107.338 26.296 108.762 26.296C109.77 26.296 110.57 26.824 110.826 27.816H112.33C112.058 26.072 110.682 24.952 108.714 24.952C106.426 24.952 104.874 26.648 104.874 29.096ZM115.661 33V26.44H117.197V25.176H115.661V22.728H114.157V25.176H112.621V26.44H114.157V33H115.661ZM119.838 32.376C119.838 31.496 119.294 30.936 118.622 30.936C117.982 30.936 117.55 31.4 117.55 32.04C117.55 32.632 117.998 33.016 118.526 33.016C118.718 33.016 118.846 32.984 118.958 32.92C118.958 33.416 118.494 33.848 117.838 33.96V34.632C118.974 34.488 119.838 33.528 119.838 32.376ZM127.211 33V28.056C127.211 26.44 127.179 25.256 127.099 24.696L130.459 33H131.931L135.307 24.664C135.227 25.48 135.211 26.264 135.211 28.424V33H136.747V21.432H135.179L131.195 31.16L127.211 21.432H125.675V33H127.211ZM137.953 36.504C138.353 36.6 138.769 36.664 139.265 36.664C140.465 36.664 141.249 36.104 141.777 34.76L145.473 25.176H143.921L141.601 31.48L139.329 25.176H137.745L140.897 33.416L140.625 34.168C140.257 35.16 139.681 35.272 138.961 35.272H137.953V36.504ZM151.913 33V28.424H154.873L157.033 33H158.777L156.425 28.12C157.865 27.656 158.665 26.504 158.665 24.904C158.665 22.744 157.193 21.432 154.713 21.432H150.345V33H151.913ZM151.913 22.84H154.713C156.153 22.84 157.017 23.576 157.017 24.92C157.017 26.248 156.185 27.032 154.729 27.032H151.913V22.84ZM162.891 33.192C164.827 33.192 166.139 32.248 166.523 30.568H165.115C164.859 31.464 164.091 31.944 162.923 31.944C161.435 31.944 160.571 31.032 160.459 29.384L166.507 29.368V28.808C166.507 26.488 165.051 24.952 162.827 24.952C160.555 24.952 159.003 26.648 159.003 29.096C159.003 31.528 160.587 33.192 162.891 33.192ZM162.827 26.216C164.155 26.216 165.003 27.08 165.003 28.376H160.491C160.683 27 161.515 26.216 162.827 26.216ZM169.633 33H171.121L174.385 25.176H172.817L171.073 29.544C170.801 30.232 170.545 30.904 170.417 31.416C170.289 30.936 170.065 30.28 169.793 29.544L168.081 25.176H166.481L169.633 33ZM175.838 23.32C176.382 23.32 176.83 22.872 176.83 22.328C176.83 21.768 176.382 21.336 175.838 21.336C175.294 21.336 174.846 21.768 174.846 22.328C174.846 22.872 175.294 23.32 175.838 23.32ZM175.102 33H176.606V25.176H175.102V33ZM181.685 33.192C183.621 33.192 184.933 32.248 185.317 30.568H183.909C183.653 31.464 182.885 31.944 181.717 31.944C180.229 31.944 179.365 31.032 179.253 29.384L185.301 29.368V28.808C185.301 26.488 183.845 24.952 181.621 24.952C179.349 24.952 177.797 26.648 177.797 29.096C177.797 31.528 179.381 33.192 181.685 33.192ZM181.621 26.216C182.949 26.216 183.797 27.08 183.797 28.376H179.285C179.477 27 180.309 26.216 181.621 26.216ZM187.916 33H189.404L190.764 28.824C191.052 27.88 191.196 27.368 191.276 26.984C191.356 27.416 191.516 28.024 191.772 28.808L193.132 33H194.556L197.228 25.176H195.66L194.348 29.24C194.124 29.928 193.98 30.472 193.852 31.096C193.724 30.536 193.468 29.624 193.34 29.24L192.044 25.176H190.508L189.196 29.24C189.02 29.752 188.812 30.408 188.684 31.096C188.54 30.408 188.38 29.816 188.204 29.24L186.908 25.176H185.356L187.916 33ZM197.287 30.728C197.287 32.216 198.455 33.192 200.295 33.192C202.151 33.192 203.431 32.248 203.431 30.76C203.431 29.592 202.775 28.984 201.447 28.664L200.071 28.328C199.303 28.136 198.919 27.784 198.919 27.256C198.919 26.536 199.447 26.12 200.391 26.12C201.303 26.12 201.831 26.616 201.863 27.4H203.303C203.271 25.912 202.151 24.952 200.439 24.952C198.711 24.952 197.495 25.864 197.495 27.304C197.495 28.456 198.151 29.144 199.543 29.48L200.919 29.8C201.735 30.008 201.991 30.328 201.991 30.856C201.991 31.576 201.383 32.008 200.327 32.008C199.335 32.008 198.727 31.528 198.727 30.728H197.287ZM210.338 33V27.864H216.066V33H217.634V21.432H216.066V26.408H210.338V21.432H208.77V33H210.338ZM221.869 33.192C223.133 33.192 224.205 32.632 224.605 31.736L224.765 33H226.045V28.088C226.045 25.976 224.733 24.952 222.797 24.952C220.781 24.952 219.437 26.024 219.437 27.656H220.749C220.749 26.712 221.469 26.152 222.733 26.152C223.789 26.152 224.573 26.616 224.573 27.928V28.152L222.109 28.344C220.269 28.488 219.197 29.384 219.197 30.824C219.197 32.248 220.189 33.192 221.869 33.192ZM222.301 32.024C221.325 32.024 220.717 31.608 220.717 30.776C220.717 30.008 221.261 29.496 222.589 29.368L224.589 29.208V29.624C224.589 31.096 223.725 32.024 222.301 32.024ZM227.008 30.728C227.008 32.216 228.176 33.192 230.016 33.192C231.872 33.192 233.152 32.248 233.152 30.76C233.152 29.592 232.496 28.984 231.168 28.664L229.792 28.328C229.024 28.136 228.64 27.784 228.64 27.256C228.64 26.536 229.168 26.12 230.112 26.12C231.024 26.12 231.552 26.616 231.584 27.4H233.024C232.992 25.912 231.872 24.952 230.16 24.952C228.432 24.952 227.216 25.864 227.216 27.304C227.216 28.456 227.872 29.144 229.264 29.48L230.64 29.8C231.456 30.008 231.712 30.328 231.712 30.856C231.712 31.576 231.104 32.008 230.048 32.008C229.056 32.008 228.448 31.528 228.448 30.728H227.008ZM18.912 43.432H17.344V55H18.912V43.432ZM22.3776 55V50.856C22.3776 49.336 23.1936 48.328 24.6016 48.328C25.7536 48.328 26.4896 48.968 26.4896 50.552V55H27.9936V50.216C27.9936 48.216 27.0496 46.952 24.9856 46.952C23.8816 46.952 22.8896 47.48 22.3936 48.376L22.2336 47.176H20.8736V55H22.3776ZM29.0847 51.096C29.0847 53.56 30.6048 55.192 32.9088 55.192C34.7968 55.192 36.2528 54.056 36.5568 52.36H35.0528C34.7808 53.288 33.9808 53.848 32.9088 53.848C31.4848 53.848 30.5728 52.76 30.5728 51.08C30.5728 49.384 31.5488 48.296 32.9728 48.296C33.9808 48.296 34.7808 48.824 35.0368 49.816H36.5408C36.2688 48.072 34.8928 46.952 32.9248 46.952C30.6367 46.952 29.0847 48.648 29.0847 51.096ZM42.1436 47.112C41.8396 47.048 41.6156 47.016 41.3436 47.016C40.2716 47.016 39.4876 47.56 39.1676 48.376L39.0716 47.192H37.6636V55H39.1676V50.856C39.1676 49.352 40.0476 48.488 41.4716 48.488H42.1436V47.112ZM46.169 55.192C48.105 55.192 49.417 54.248 49.801 52.568H48.393C48.137 53.464 47.369 53.944 46.201 53.944C44.713 53.944 43.849 53.032 43.737 51.384L49.785 51.368V50.808C49.785 48.488 48.329 46.952 46.105 46.952C43.833 46.952 42.281 48.648 42.281 51.096C42.281 53.528 43.865 55.192 46.169 55.192ZM46.105 48.216C47.433 48.216 48.281 49.08 48.281 50.376H43.769C43.961 49 44.793 48.216 46.105 48.216ZM53.1947 55.192C54.4587 55.192 55.5307 54.632 55.9307 53.736L56.0907 55H57.3707V50.088C57.3707 47.976 56.0587 46.952 54.1227 46.952C52.1067 46.952 50.7627 48.024 50.7627 49.656H52.0747C52.0747 48.712 52.7947 48.152 54.0587 48.152C55.1147 48.152 55.8987 48.616 55.8987 49.928V50.152L53.4347 50.344C51.5947 50.488 50.5227 51.384 50.5227 52.824C50.5227 54.248 51.5147 55.192 53.1947 55.192ZM53.6267 54.024C52.6507 54.024 52.0427 53.608 52.0427 52.776C52.0427 52.008 52.5867 51.496 53.9147 51.368L55.9147 51.208V51.624C55.9147 53.096 55.0507 54.024 53.6267 54.024ZM58.3336 52.728C58.3336 54.216 59.5016 55.192 61.3416 55.192C63.1976 55.192 64.4776 54.248 64.4776 52.76C64.4776 51.592 63.8216 50.984 62.4936 50.664L61.1176 50.328C60.3496 50.136 59.9656 49.784 59.9656 49.256C59.9656 48.536 60.4936 48.12 61.4376 48.12C62.3496 48.12 62.8776 48.616 62.9096 49.4H64.3496C64.3176 47.912 63.1976 46.952 61.4856 46.952C59.7576 46.952 58.5416 47.864 58.5416 49.304C58.5416 50.456 59.1976 51.144 60.5896 51.48L61.9656 51.8C62.7816 52.008 63.0376 52.328 63.0376 52.856C63.0376 53.576 62.4296 54.008 61.3736 54.008C60.3816 54.008 59.7736 53.528 59.7736 52.728H58.3336ZM69.0415 55.192C70.9775 55.192 72.2895 54.248 72.6735 52.568H71.2655C71.0095 53.464 70.2415 53.944 69.0735 53.944C67.5855 53.944 66.7215 53.032 66.6095 51.384L72.6575 51.368V50.808C72.6575 48.488 71.2015 46.952 68.9775 46.952C66.7055 46.952 65.1535 48.648 65.1535 51.096C65.1535 53.528 66.7375 55.192 69.0415 55.192ZM68.9775 48.216C70.3055 48.216 71.1535 49.08 71.1535 50.376H66.6415C66.8335 49 67.6655 48.216 68.9775 48.216ZM76.9934 55.192C78.2414 55.192 79.2974 54.648 79.8094 53.576L79.9374 55H81.2814V43.224H79.7934V48.44C79.2654 47.48 78.2574 46.952 77.0574 46.952C74.7374 46.952 73.3454 48.712 73.3454 51.112C73.3454 53.496 74.7214 55.192 76.9934 55.192ZM77.2974 53.832C75.7614 53.832 74.8654 52.68 74.8654 51.064C74.8654 49.464 75.7614 48.312 77.2974 48.312C78.8334 48.312 79.7774 49.464 79.7774 51.064C79.7774 52.696 78.8334 53.832 77.2974 53.832ZM87.1221 55H91.6981C93.9861 55 95.3781 53.832 95.3781 51.912C95.3781 50.536 94.7221 49.608 93.4421 49.192C94.5941 48.712 95.1701 47.816 95.1701 46.488C95.1701 44.584 93.7941 43.432 91.5381 43.432H87.1221V55ZM91.4421 44.824C92.8021 44.824 93.5701 45.48 93.5701 46.632C93.5701 47.832 92.8341 48.536 91.5381 48.536H88.6901V44.824H91.4421ZM91.6661 49.896C92.9941 49.896 93.7621 50.568 93.7621 51.72C93.7621 52.92 93.0101 53.608 91.6661 53.608H88.6901V49.896H91.6661ZM95.6966 58.504C96.0966 58.6 96.5126 58.664 97.0086 58.664C98.2086 58.664 98.9926 58.104 99.5206 56.76L103.217 47.176H101.665L99.3446 53.48L97.0726 47.176H95.4886L98.6406 55.416L98.3686 56.168C98.0006 57.16 97.4246 57.272 96.7046 57.272H95.6966V58.504ZM109.736 44.84V55H111.24V43.432H107.304V44.84H109.736ZM120.636 54.984V53.528H115.292L117.692 51.448C119.74 49.672 120.556 48.504 120.556 46.856C120.556 44.632 119.068 43.224 116.748 43.224C114.396 43.224 112.828 44.84 112.78 47.32H114.348C114.38 45.672 115.308 44.632 116.732 44.632C118.124 44.632 118.956 45.496 118.956 46.952C118.956 48.184 118.428 48.968 116.556 50.584L112.828 53.8V55L120.636 54.984ZM121.6 49.224C121.6 52.824 123.376 55.208 126.368 55.208C129.344 55.208 131.12 52.824 131.12 49.224C131.12 45.64 129.264 43.208 126.368 43.208C123.456 43.208 121.6 45.64 121.6 49.224ZM123.152 49.224C123.152 46.344 124.336 44.616 126.368 44.616C128.4 44.616 129.568 46.344 129.568 49.224C129.568 52.072 128.4 53.8 126.368 53.8C124.336 53.8 123.152 52.072 123.152 49.224ZM137.941 46.168C137.941 44.44 136.725 43.208 135.013 43.208C133.317 43.208 132.101 44.44 132.101 46.168C132.101 47.88 133.317 49.112 135.013 49.112C136.725 49.112 137.941 47.88 137.941 46.168ZM144.037 43.448H142.501L133.717 55H135.253L144.037 43.448ZM136.709 46.168C136.709 47.192 136.005 47.912 135.013 47.912C134.021 47.912 133.333 47.192 133.333 46.168C133.333 45.128 134.021 44.408 135.013 44.408C136.021 44.408 136.709 45.128 136.709 46.168ZM145.685 52.264C145.685 50.536 144.453 49.32 142.757 49.32C141.061 49.32 139.829 50.536 139.829 52.264C139.829 53.976 141.061 55.208 142.757 55.208C144.453 55.208 145.685 53.976 145.685 52.264ZM144.437 52.264C144.437 53.288 143.749 54.008 142.757 54.008C141.765 54.008 141.077 53.288 141.077 52.264C141.077 51.224 141.765 50.504 142.757 50.504C143.765 50.504 144.437 51.224 144.437 52.264ZM152.663 43.432H151.095V55H152.663V43.432ZM156.128 55V50.856C156.128 49.336 156.944 48.328 158.352 48.328C159.504 48.328 160.24 48.968 160.24 50.552V55H161.744V50.216C161.744 48.216 160.8 46.952 158.736 46.952C157.632 46.952 156.64 47.48 156.144 48.376L155.984 47.176H154.624V55H156.128ZM174.698 54.984V53.528H169.354L171.754 51.448C173.802 49.672 174.618 48.504 174.618 46.856C174.618 44.632 173.13 43.224 170.81 43.224C168.458 43.224 166.89 44.84 166.842 47.32H168.41C168.442 45.672 169.37 44.632 170.794 44.632C172.186 44.632 173.018 45.496 173.018 46.952C173.018 48.184 172.49 48.968 170.618 50.584L166.89 53.8V55L174.698 54.984ZM181.653 55V50.056C181.653 48.44 181.621 47.256 181.541 46.696L184.901 55H186.373L189.749 46.664C189.669 47.48 189.653 48.264 189.653 50.424V55H191.189V43.432H189.621L185.637 53.16L181.653 43.432H180.117V55H181.653ZM192.634 51.08C192.634 53.496 194.362 55.192 196.714 55.192C199.05 55.192 200.778 53.496 200.778 51.08C200.778 48.664 199.05 46.968 196.714 46.968C194.362 46.968 192.634 48.664 192.634 51.08ZM194.154 51.08C194.154 49.448 195.194 48.312 196.714 48.312C198.218 48.312 199.274 49.448 199.274 51.08C199.274 52.712 198.218 53.848 196.714 53.848C195.194 53.848 194.154 52.712 194.154 51.08ZM203.467 55V50.856C203.467 49.336 204.283 48.328 205.691 48.328C206.843 48.328 207.579 48.968 207.579 50.552V55H209.083V50.216C209.083 48.216 208.139 46.952 206.075 46.952C204.971 46.952 203.979 47.48 203.483 48.376L203.323 47.176H201.963V55H203.467ZM212.894 55V48.44H214.43V47.176H212.894V44.728H211.39V47.176H209.854V48.44H211.39V55H212.894ZM216.804 54.984V50.728C216.804 49.384 217.588 48.328 219.044 48.328C220.164 48.328 220.916 48.968 220.916 50.552V55H222.42V50.216C222.42 48.216 221.46 46.952 219.46 46.952C218.244 46.952 217.3 47.528 216.804 48.376V43.224H215.3V54.984H216.804ZM223.289 52.728C223.289 54.216 224.457 55.192 226.297 55.192C228.153 55.192 229.433 54.248 229.433 52.76C229.433 51.592 228.777 50.984 227.449 50.664L226.073 50.328C225.305 50.136 224.921 49.784 224.921 49.256C224.921 48.536 225.449 48.12 226.393 48.12C227.305 48.12 227.833 48.616 227.865 49.4H229.305C229.273 47.912 228.153 46.952 226.441 46.952C224.713 46.952 223.497 47.864 223.497 49.304C223.497 50.456 224.153 51.144 225.545 51.48L226.921 51.8C227.737 52.008 227.993 52.328 227.993 52.856C227.993 53.576 227.385 54.008 226.329 54.008C225.337 54.008 224.729 53.528 224.729 52.728H223.289Z" fill="black"/>
<path opacity="0.5" d="M17.218 87L18.198 84.34H22.818L23.798 87H24.848L21.124 76.976H19.878L16.196 87H17.218ZM20.368 78.39C20.424 78.25 20.48 78.068 20.494 77.984C20.508 78.082 20.578 78.25 20.62 78.39L22.496 83.458H18.506L20.368 78.39ZM26.6194 87V76.794H25.6534V87H26.6194ZM28.7299 78.362C29.1219 78.362 29.4579 78.04 29.4579 77.648C29.4579 77.256 29.1219 76.92 28.7299 76.92C28.3379 76.92 28.0159 77.256 28.0159 77.648C28.0159 78.04 28.3379 78.362 28.7299 78.362ZM28.2539 87H29.2199V80.224H28.2539V87ZM30.1284 89.954C30.4364 90.024 30.7444 90.052 31.1504 90.052C32.1164 90.052 32.7744 89.618 33.1664 88.554L36.2744 80.224H35.2804L33.1384 86.132L30.9544 80.224H29.9324L32.6764 87.406L32.3824 88.204C32.0464 89.114 31.4584 89.156 30.8704 89.156H30.1284V89.954ZM38.6295 87.168C39.7775 87.168 40.7015 86.664 41.1215 85.81L41.2475 87H42.0595V82.618C42.0595 80.826 40.9115 80.042 39.3435 80.042C37.6775 80.042 36.5575 80.924 36.5575 82.296H37.4395C37.4395 81.386 38.1395 80.854 39.3155 80.854C40.3095 80.854 41.1075 81.274 41.1075 82.604V82.828L38.8675 83.01C37.2855 83.136 36.3335 83.92 36.3335 85.166C36.3335 86.356 37.1875 87.168 38.6295 87.168ZM38.8535 86.384C37.9295 86.384 37.3135 85.964 37.3135 85.138C37.3135 84.382 37.8315 83.822 39.1055 83.71L41.1075 83.556V83.92C41.1075 85.39 40.2815 86.384 38.8535 86.384ZM48.2587 76.976H47.2507V87H48.2587V84.508L50.2327 82.058L53.1727 87H54.3487L50.8907 81.218L54.2927 76.976H53.0887L48.2587 83.01V76.976ZM56.2137 86.986V83.304C56.2137 82.002 56.9697 80.924 58.4257 80.924C59.4757 80.924 60.2177 81.484 60.2177 83.066V87H61.1837V82.856C61.1837 81.148 60.3857 80.042 58.6077 80.042C57.4737 80.042 56.6477 80.588 56.2137 81.4V76.794H55.2477V86.986H56.2137ZM64.635 87.168C65.783 87.168 66.707 86.664 67.127 85.81L67.253 87H68.065V82.618C68.065 80.826 66.917 80.042 65.349 80.042C63.683 80.042 62.563 80.924 62.563 82.296H63.445C63.445 81.386 64.145 80.854 65.321 80.854C66.315 80.854 67.113 81.274 67.113 82.604V82.828L64.873 83.01C63.291 83.136 62.339 83.92 62.339 85.166C62.339 86.356 63.193 87.168 64.635 87.168ZM64.859 86.384C63.935 86.384 63.319 85.964 63.319 85.138C63.319 84.382 63.837 83.822 65.111 83.71L67.113 83.556V83.92C67.113 85.39 66.287 86.384 64.859 86.384ZM70.5495 87V83.458C70.5495 81.932 71.3335 80.924 72.7195 80.924C73.8395 80.924 74.5535 81.484 74.5535 83.066V87H75.5195V82.856C75.5195 81.148 74.7495 80.042 72.8875 80.042C71.9075 80.042 71.0115 80.532 70.5635 81.4L70.4235 80.224H69.5835V87H70.5495Z" fill="black"/>
<path d="M103.528 75.3587C103.683 74.9109 104.317 74.9109 104.472 75.3587L105.532 78.4061C105.6 78.6036 105.785 78.7376 105.994 78.7418L109.219 78.8076C109.693 78.8172 109.889 79.4195 109.511 79.7059L106.94 81.655C106.774 81.7814 106.703 81.9981 106.764 82.1983L107.698 85.2863C107.835 85.7401 107.323 86.1123 106.934 85.8415L104.286 83.9987C104.114 83.8793 103.886 83.8793 103.714 83.9987L101.066 85.8415C100.677 86.1123 100.165 85.7401 100.302 85.2863L101.236 82.1983C101.297 81.9981 101.226 81.7814 101.06 81.655L98.4889 79.7059C98.1111 79.4195 98.3068 78.8172 98.7807 78.8076L102.006 78.7418C102.215 78.7376 102.4 78.6036 102.468 78.4061L103.528 75.3587Z" fill="#F2B72C"/>
<path d="M120.348 75.3587C120.504 74.9109 121.137 74.9109 121.293 75.3587L122.352 78.4061C122.421 78.6036 122.605 78.7376 122.814 78.7418L126.04 78.8076C126.514 78.8172 126.709 79.4195 126.331 79.7059L123.761 81.655C123.594 81.7814 123.523 81.9981 123.584 82.1983L124.518 85.2863C124.656 85.7401 124.143 86.1123 123.754 85.8415L121.106 83.9987C120.934 83.8793 120.706 83.8793 120.535 83.9987L117.887 85.8415C117.497 86.1123 116.985 85.7401 117.122 85.2863L118.057 82.1983C118.117 81.9981 118.047 81.7814 117.88 81.655L115.309 79.7059C114.931 79.4195 115.127 78.8172 115.601 78.8076L118.827 78.7418C119.036 78.7376 119.22 78.6036 119.289 78.4061L120.348 75.3587Z" fill="#F2B72C"/>
<path d="M137.168 75.3587C137.324 74.9109 137.957 74.9109 138.113 75.3587L139.172 78.4061C139.241 78.6036 139.425 78.7376 139.634 78.7418L142.86 78.8076C143.334 78.8172 143.53 79.4195 143.152 79.7059L140.581 81.655C140.414 81.7814 140.344 81.9981 140.404 82.1983L141.339 85.2863C141.476 85.7401 140.964 86.1123 140.574 85.8415L137.926 83.9987C137.755 83.8793 137.527 83.8793 137.355 83.9987L134.707 85.8415C134.318 86.1123 133.805 85.7401 133.943 85.2863L134.877 82.1983C134.937 81.9981 134.867 81.7814 134.7 81.655L132.129 79.7059C131.752 79.4195 131.947 78.8172 132.421 78.8076L135.647 78.7418C135.856 78.7376 136.04 78.6036 136.109 78.4061L137.168 75.3587Z" fill="#F2B72C"/>
<path d="M153.988 75.3587C154.143 74.9109 154.777 74.9109 154.932 75.3587L155.992 78.4061C156.06 78.6036 156.245 78.7376 156.454 78.7418L159.679 78.8076C160.153 78.8172 160.349 79.4195 159.971 79.7059L157.4 81.655C157.234 81.7814 157.163 81.9981 157.224 82.1983L158.158 85.2863C158.295 85.7401 157.783 86.1123 157.394 85.8415L154.746 83.9987C154.574 83.8793 154.346 83.8793 154.174 83.9987L151.526 85.8415C151.137 86.1123 150.625 85.7401 150.762 85.2863L151.696 82.1983C151.757 81.9981 151.686 81.7814 151.52 81.655L148.949 79.7059C148.571 79.4195 148.767 78.8172 149.241 78.8076L152.466 78.7418C152.675 78.7376 152.86 78.6036 152.928 78.4061L153.988 75.3587Z" fill="#F2B72C"/>
<path d="M170.808 75.3587C170.964 74.9109 171.597 74.9109 171.753 75.3587L172.812 78.4061C172.88 78.6036 173.065 78.7376 173.274 78.7418L176.5 78.8076C176.973 78.8172 177.169 79.4195 176.791 79.7059L174.22 81.655C174.054 81.7814 173.983 81.9981 174.044 82.1983L174.978 85.2863C175.116 85.7401 174.603 86.1123 174.214 85.8415L171.566 83.9987C171.394 83.8793 171.166 83.8793 170.995 83.9987L168.346 85.8415C167.957 86.1123 167.445 85.7401 167.582 85.2863L168.517 82.1983C168.577 81.9981 168.507 81.7814 168.34 81.655L165.769 79.7059C165.391 79.4195 165.587 78.8172 166.061 78.8076L169.287 78.7418C169.496 78.7376 169.68 78.6036 169.749 78.4061L170.808 75.3587Z" fill="#F2B72C"/>
</svg>
