<svg width="1440" height="711" viewBox="0 0 1440 711" fill="none" xmlns="http://www.w3.org/2000/svg">
<path d="M252 598C252 595.791 253.791 594 256 594H491C499.837 594 507 601.163 507 610V685C507 693.837 499.837 701 491 701H268C259.163 701 252 693.837 252 685V598Z" fill="white"/>
<path d="M269.264 622.888C269.264 625.56 270.96 627.192 273.696 627.192C276.416 627.192 278.112 625.544 278.112 622.888V615.432H276.528V622.792C276.528 624.632 275.52 625.672 273.696 625.672C271.856 625.672 270.832 624.648 270.832 622.792V615.432H269.264V622.888ZM279.281 624.728C279.281 626.216 280.449 627.192 282.289 627.192C284.145 627.192 285.425 626.248 285.425 624.76C285.425 623.592 284.769 622.984 283.441 622.664L282.065 622.328C281.297 622.136 280.913 621.784 280.913 621.256C280.913 620.536 281.441 620.12 282.385 620.12C283.297 620.12 283.825 620.616 283.857 621.4H285.297C285.265 619.912 284.145 618.952 282.433 618.952C280.705 618.952 279.489 619.864 279.489 621.304C279.489 622.456 280.145 623.144 281.537 623.48L282.913 623.8C283.729 624.008 283.985 624.328 283.985 624.856C283.985 625.576 283.377 626.008 282.321 626.008C281.329 626.008 280.721 625.528 280.721 624.728H279.281ZM287.348 617.32C287.892 617.32 288.34 616.872 288.34 616.328C288.34 615.768 287.892 615.336 287.348 615.336C286.804 615.336 286.356 615.768 286.356 616.328C286.356 616.872 286.804 617.32 287.348 617.32ZM286.612 627H288.116V619.176H286.612V627ZM291.324 627V622.856C291.324 621.336 292.14 620.328 293.548 620.328C294.7 620.328 295.436 620.968 295.436 622.552V627H296.94V622.216C296.94 620.216 295.996 618.952 293.932 618.952C292.828 618.952 291.836 619.48 291.34 620.376L291.18 619.176H289.82V627H291.324ZM298.047 622.888C298.047 625.08 299.455 626.792 301.679 626.792C302.911 626.792 303.935 626.248 304.447 625.336V626.904C304.447 628.392 303.487 629.352 302.015 629.352C300.703 629.352 299.839 628.68 299.647 627.528H298.143C298.431 629.512 299.887 630.712 302.015 630.712C304.415 630.712 305.935 629.144 305.935 626.68V619.176H304.591L304.479 620.504C303.983 619.528 303.007 618.952 301.743 618.952C299.471 618.952 298.047 620.68 298.047 622.888ZM299.551 622.856C299.551 621.416 300.447 620.264 301.951 620.264C303.487 620.264 304.383 621.352 304.383 622.856C304.383 624.392 303.455 625.48 301.935 625.48C300.463 625.48 299.551 624.328 299.551 622.856ZM316.576 627.176C319.184 627.176 321.248 625.64 321.744 623.336H320.08C319.648 624.76 318.304 625.672 316.608 625.672C314.272 625.672 312.736 623.912 312.736 621.208C312.736 618.504 314.272 616.744 316.608 616.744C318.288 616.744 319.584 617.656 320.016 619.16H321.696C321.264 616.792 319.264 615.24 316.656 615.24C313.344 615.24 311.088 617.656 311.088 621.224C311.088 624.808 313.28 627.176 316.576 627.176ZM322.419 623.08C322.419 625.496 324.147 627.192 326.499 627.192C328.835 627.192 330.563 625.496 330.563 623.08C330.563 620.664 328.835 618.968 326.499 618.968C324.147 618.968 322.419 620.664 322.419 623.08ZM323.939 623.08C323.939 621.448 324.979 620.312 326.499 620.312C328.003 620.312 329.059 621.448 329.059 623.08C329.059 624.712 328.003 625.848 326.499 625.848C324.979 625.848 323.939 624.712 323.939 623.08ZM333.252 627V622.856C333.252 621.336 334.068 620.328 335.476 620.328C336.628 620.328 337.364 620.968 337.364 622.552V627H338.868V622.216C338.868 620.216 337.924 618.952 335.86 618.952C334.756 618.952 333.764 619.48 333.268 620.376L333.108 619.176H331.748V627H333.252ZM341.975 627V622.856C341.975 621.336 342.791 620.328 344.199 620.328C345.351 620.328 346.087 620.968 346.087 622.552V627H347.591V622.216C347.591 620.216 346.647 618.952 344.583 618.952C343.479 618.952 342.487 619.48 341.991 620.376L341.831 619.176H340.471V627H341.975ZM352.57 627.192C354.506 627.192 355.818 626.248 356.202 624.568H354.794C354.538 625.464 353.77 625.944 352.602 625.944C351.114 625.944 350.25 625.032 350.138 623.384L356.186 623.368V622.808C356.186 620.488 354.73 618.952 352.506 618.952C350.234 618.952 348.682 620.648 348.682 623.096C348.682 625.528 350.266 627.192 352.57 627.192ZM352.506 620.216C353.834 620.216 354.682 621.08 354.682 622.376H350.17C350.362 621 351.194 620.216 352.506 620.216ZM356.874 623.096C356.874 625.56 358.394 627.192 360.698 627.192C362.586 627.192 364.042 626.056 364.346 624.36H362.842C362.57 625.288 361.77 625.848 360.698 625.848C359.274 625.848 358.362 624.76 358.362 623.08C358.362 621.384 359.338 620.296 360.762 620.296C361.77 620.296 362.57 620.824 362.826 621.816H364.33C364.058 620.072 362.682 618.952 360.714 618.952C358.426 618.952 356.874 620.648 356.874 623.096ZM367.661 627V620.44H369.197V619.176H367.661V616.728H366.157V619.176H364.621V620.44H366.157V627H367.661ZM371.838 626.376C371.838 625.496 371.294 624.936 370.622 624.936C369.982 624.936 369.55 625.4 369.55 626.04C369.55 626.632 369.998 627.016 370.526 627.016C370.718 627.016 370.846 626.984 370.958 626.92C370.958 627.416 370.494 627.848 369.838 627.96V628.632C370.974 628.488 371.838 627.528 371.838 626.376ZM379.211 627V622.056C379.211 620.44 379.179 619.256 379.099 618.696L382.459 627H383.931L387.307 618.664C387.227 619.48 387.211 620.264 387.211 622.424V627H388.747V615.432H387.179L383.195 625.16L379.211 615.432H377.675V627H379.211ZM389.953 630.504C390.353 630.6 390.769 630.664 391.265 630.664C392.465 630.664 393.249 630.104 393.777 628.76L397.473 619.176H395.921L393.601 625.48L391.329 619.176H389.745L392.897 627.416L392.625 628.168C392.257 629.16 391.681 629.272 390.961 629.272H389.953V630.504ZM403.913 627V622.424H406.873L409.033 627H410.777L408.425 622.12C409.865 621.656 410.665 620.504 410.665 618.904C410.665 616.744 409.193 615.432 406.713 615.432H402.345V627H403.913ZM403.913 616.84H406.713C408.153 616.84 409.017 617.576 409.017 618.92C409.017 620.248 408.185 621.032 406.729 621.032H403.913V616.84ZM414.891 627.192C416.827 627.192 418.139 626.248 418.523 624.568H417.115C416.859 625.464 416.091 625.944 414.923 625.944C413.435 625.944 412.571 625.032 412.459 623.384L418.507 623.368V622.808C418.507 620.488 417.051 618.952 414.827 618.952C412.555 618.952 411.003 620.648 411.003 623.096C411.003 625.528 412.587 627.192 414.891 627.192ZM414.827 620.216C416.155 620.216 417.003 621.08 417.003 622.376H412.491C412.683 621 413.515 620.216 414.827 620.216ZM421.633 627H423.121L426.385 619.176H424.817L423.073 623.544C422.801 624.232 422.545 624.904 422.417 625.416C422.289 624.936 422.065 624.28 421.793 623.544L420.081 619.176H418.481L421.633 627ZM427.838 617.32C428.382 617.32 428.83 616.872 428.83 616.328C428.83 615.768 428.382 615.336 427.838 615.336C427.294 615.336 426.846 615.768 426.846 616.328C426.846 616.872 427.294 617.32 427.838 617.32ZM427.102 627H428.606V619.176H427.102V627ZM433.685 627.192C435.621 627.192 436.933 626.248 437.317 624.568H435.909C435.653 625.464 434.885 625.944 433.717 625.944C432.229 625.944 431.365 625.032 431.253 623.384L437.301 623.368V622.808C437.301 620.488 435.845 618.952 433.621 618.952C431.349 618.952 429.797 620.648 429.797 623.096C429.797 625.528 431.381 627.192 433.685 627.192ZM433.621 620.216C434.949 620.216 435.797 621.08 435.797 622.376H431.285C431.477 621 432.309 620.216 433.621 620.216ZM439.916 627H441.404L442.764 622.824C443.052 621.88 443.196 621.368 443.276 620.984C443.356 621.416 443.516 622.024 443.772 622.808L445.132 627H446.556L449.228 619.176H447.66L446.348 623.24C446.124 623.928 445.98 624.472 445.852 625.096C445.724 624.536 445.468 623.624 445.34 623.24L444.044 619.176H442.508L441.196 623.24C441.02 623.752 440.812 624.408 440.684 625.096C440.54 624.408 440.38 623.816 440.204 623.24L438.908 619.176H437.356L439.916 627ZM449.287 624.728C449.287 626.216 450.455 627.192 452.295 627.192C454.151 627.192 455.431 626.248 455.431 624.76C455.431 623.592 454.775 622.984 453.447 622.664L452.071 622.328C451.303 622.136 450.919 621.784 450.919 621.256C450.919 620.536 451.447 620.12 452.391 620.12C453.303 620.12 453.831 620.616 453.863 621.4H455.303C455.271 619.912 454.151 618.952 452.439 618.952C450.711 618.952 449.495 619.864 449.495 621.304C449.495 622.456 450.151 623.144 451.543 623.48L452.919 623.8C453.735 624.008 453.991 624.328 453.991 624.856C453.991 625.576 453.383 626.008 452.327 626.008C451.335 626.008 450.727 625.528 450.727 624.728H449.287ZM462.338 627V621.864H468.066V627H469.634V615.432H468.066V620.408H462.338V615.432H460.77V627H462.338ZM473.869 627.192C475.133 627.192 476.205 626.632 476.605 625.736L476.765 627H478.045V622.088C478.045 619.976 476.733 618.952 474.797 618.952C472.781 618.952 471.437 620.024 471.437 621.656H472.749C472.749 620.712 473.469 620.152 474.733 620.152C475.789 620.152 476.573 620.616 476.573 621.928V622.152L474.109 622.344C472.269 622.488 471.197 623.384 471.197 624.824C471.197 626.248 472.189 627.192 473.869 627.192ZM474.301 626.024C473.325 626.024 472.717 625.608 472.717 624.776C472.717 624.008 473.261 623.496 474.589 623.368L476.589 623.208V623.624C476.589 625.096 475.725 626.024 474.301 626.024ZM479.008 624.728C479.008 626.216 480.176 627.192 482.016 627.192C483.872 627.192 485.152 626.248 485.152 624.76C485.152 623.592 484.496 622.984 483.168 622.664L481.792 622.328C481.024 622.136 480.64 621.784 480.64 621.256C480.64 620.536 481.168 620.12 482.112 620.12C483.024 620.12 483.552 620.616 483.584 621.4H485.024C484.992 619.912 483.872 618.952 482.16 618.952C480.432 618.952 479.216 619.864 479.216 621.304C479.216 622.456 479.872 623.144 481.264 623.48L482.64 623.8C483.456 624.008 483.712 624.328 483.712 624.856C483.712 625.576 483.104 626.008 482.048 626.008C481.056 626.008 480.448 625.528 480.448 624.728H479.008ZM270.912 637.432H269.344V649H270.912V637.432ZM274.378 649V644.856C274.378 643.336 275.194 642.328 276.602 642.328C277.754 642.328 278.49 642.968 278.49 644.552V649H279.994V644.216C279.994 642.216 279.05 640.952 276.986 640.952C275.882 640.952 274.89 641.48 274.394 642.376L274.234 641.176H272.874V649H274.378ZM281.085 645.096C281.085 647.56 282.605 649.192 284.909 649.192C286.797 649.192 288.253 648.056 288.557 646.36H287.053C286.781 647.288 285.981 647.848 284.909 647.848C283.485 647.848 282.573 646.76 282.573 645.08C282.573 643.384 283.549 642.296 284.973 642.296C285.981 642.296 286.781 642.824 287.037 643.816H288.541C288.269 642.072 286.893 640.952 284.925 640.952C282.637 640.952 281.085 642.648 281.085 645.096ZM294.144 641.112C293.84 641.048 293.616 641.016 293.344 641.016C292.272 641.016 291.488 641.56 291.168 642.376L291.072 641.192H289.664V649H291.168V644.856C291.168 643.352 292.048 642.488 293.472 642.488H294.144V641.112ZM298.169 649.192C300.105 649.192 301.417 648.248 301.801 646.568H300.393C300.137 647.464 299.369 647.944 298.201 647.944C296.713 647.944 295.849 647.032 295.737 645.384L301.785 645.368V644.808C301.785 642.488 300.329 640.952 298.105 640.952C295.833 640.952 294.281 642.648 294.281 645.096C294.281 647.528 295.865 649.192 298.169 649.192ZM298.105 642.216C299.433 642.216 300.281 643.08 300.281 644.376H295.769C295.961 643 296.793 642.216 298.105 642.216ZM305.195 649.192C306.459 649.192 307.531 648.632 307.931 647.736L308.091 649H309.371V644.088C309.371 641.976 308.059 640.952 306.123 640.952C304.107 640.952 302.763 642.024 302.763 643.656H304.075C304.075 642.712 304.795 642.152 306.059 642.152C307.115 642.152 307.899 642.616 307.899 643.928V644.152L305.435 644.344C303.595 644.488 302.523 645.384 302.523 646.824C302.523 648.248 303.515 649.192 305.195 649.192ZM305.627 648.024C304.651 648.024 304.043 647.608 304.043 646.776C304.043 646.008 304.587 645.496 305.915 645.368L307.915 645.208V645.624C307.915 647.096 307.051 648.024 305.627 648.024ZM310.334 646.728C310.334 648.216 311.502 649.192 313.342 649.192C315.198 649.192 316.478 648.248 316.478 646.76C316.478 645.592 315.822 644.984 314.494 644.664L313.118 644.328C312.35 644.136 311.966 643.784 311.966 643.256C311.966 642.536 312.494 642.12 313.438 642.12C314.35 642.12 314.878 642.616 314.91 643.4H316.35C316.318 641.912 315.198 640.952 313.486 640.952C311.758 640.952 310.542 641.864 310.542 643.304C310.542 644.456 311.198 645.144 312.59 645.48L313.966 645.8C314.782 646.008 315.038 646.328 315.038 646.856C315.038 647.576 314.43 648.008 313.374 648.008C312.382 648.008 311.774 647.528 311.774 646.728H310.334ZM321.041 649.192C322.977 649.192 324.289 648.248 324.674 646.568H323.265C323.009 647.464 322.241 647.944 321.073 647.944C319.585 647.944 318.721 647.032 318.609 645.384L324.657 645.368V644.808C324.657 642.488 323.201 640.952 320.977 640.952C318.705 640.952 317.153 642.648 317.153 645.096C317.153 647.528 318.737 649.192 321.041 649.192ZM320.977 642.216C322.305 642.216 323.153 643.08 323.153 644.376H318.641C318.833 643 319.665 642.216 320.977 642.216ZM328.993 649.192C330.241 649.192 331.297 648.648 331.809 647.576L331.937 649H333.281V637.224H331.793V642.44C331.265 641.48 330.257 640.952 329.057 640.952C326.737 640.952 325.345 642.712 325.345 645.112C325.345 647.496 326.721 649.192 328.993 649.192ZM329.297 647.832C327.761 647.832 326.865 646.68 326.865 645.064C326.865 643.464 327.761 642.312 329.297 642.312C330.833 642.312 331.777 643.464 331.777 645.064C331.777 646.696 330.833 647.832 329.297 647.832ZM339.122 649H343.698C345.986 649 347.378 647.832 347.378 645.912C347.378 644.536 346.722 643.608 345.442 643.192C346.594 642.712 347.17 641.816 347.17 640.488C347.17 638.584 345.794 637.432 343.538 637.432H339.122V649ZM343.442 638.824C344.802 638.824 345.57 639.48 345.57 640.632C345.57 641.832 344.834 642.536 343.538 642.536H340.69V638.824H343.442ZM343.666 643.896C344.994 643.896 345.762 644.568 345.762 645.72C345.762 646.92 345.01 647.608 343.666 647.608H340.69V643.896H343.666ZM347.697 652.504C348.097 652.6 348.513 652.664 349.009 652.664C350.209 652.664 350.993 652.104 351.521 650.76L355.217 641.176H353.665L351.345 647.48L349.073 641.176H347.489L350.641 649.416L350.369 650.168C350.001 651.16 349.425 651.272 348.705 651.272H347.697V652.504ZM361.736 638.84V649H363.24V637.432H359.304V638.84H361.736ZM372.636 648.984V647.528H367.292L369.692 645.448C371.74 643.672 372.556 642.504 372.556 640.856C372.556 638.632 371.068 637.224 368.748 637.224C366.396 637.224 364.828 638.84 364.78 641.32H366.348C366.38 639.672 367.308 638.632 368.732 638.632C370.124 638.632 370.956 639.496 370.956 640.952C370.956 642.184 370.428 642.968 368.556 644.584L364.828 647.8V649L372.636 648.984ZM373.6 643.224C373.6 646.824 375.376 649.208 378.368 649.208C381.344 649.208 383.12 646.824 383.12 643.224C383.12 639.64 381.264 637.208 378.368 637.208C375.456 637.208 373.6 639.64 373.6 643.224ZM375.152 643.224C375.152 640.344 376.336 638.616 378.368 638.616C380.4 638.616 381.568 640.344 381.568 643.224C381.568 646.072 380.4 647.8 378.368 647.8C376.336 647.8 375.152 646.072 375.152 643.224ZM389.941 640.168C389.941 638.44 388.725 637.208 387.013 637.208C385.317 637.208 384.101 638.44 384.101 640.168C384.101 641.88 385.317 643.112 387.013 643.112C388.725 643.112 389.941 641.88 389.941 640.168ZM396.037 637.448H394.501L385.717 649H387.253L396.037 637.448ZM388.709 640.168C388.709 641.192 388.005 641.912 387.013 641.912C386.021 641.912 385.333 641.192 385.333 640.168C385.333 639.128 386.021 638.408 387.013 638.408C388.021 638.408 388.709 639.128 388.709 640.168ZM397.685 646.264C397.685 644.536 396.453 643.32 394.757 643.32C393.061 643.32 391.829 644.536 391.829 646.264C391.829 647.976 393.061 649.208 394.757 649.208C396.453 649.208 397.685 647.976 397.685 646.264ZM396.437 646.264C396.437 647.288 395.749 648.008 394.757 648.008C393.765 648.008 393.077 647.288 393.077 646.264C393.077 645.224 393.765 644.504 394.757 644.504C395.765 644.504 396.437 645.224 396.437 646.264ZM404.663 637.432H403.095V649H404.663V637.432ZM408.128 649V644.856C408.128 643.336 408.944 642.328 410.352 642.328C411.504 642.328 412.24 642.968 412.24 644.552V649H413.744V644.216C413.744 642.216 412.8 640.952 410.736 640.952C409.632 640.952 408.64 641.48 408.144 642.376L407.984 641.176H406.624V649H408.128ZM426.698 648.984V647.528H421.354L423.754 645.448C425.802 643.672 426.618 642.504 426.618 640.856C426.618 638.632 425.13 637.224 422.81 637.224C420.458 637.224 418.89 638.84 418.842 641.32H420.41C420.442 639.672 421.37 638.632 422.794 638.632C424.186 638.632 425.018 639.496 425.018 640.952C425.018 642.184 424.49 642.968 422.618 644.584L418.89 647.8V649L426.698 648.984ZM433.653 649V644.056C433.653 642.44 433.621 641.256 433.541 640.696L436.901 649H438.373L441.749 640.664C441.669 641.48 441.653 642.264 441.653 644.424V649H443.189V637.432H441.621L437.637 647.16L433.653 637.432H432.117V649H433.653ZM444.634 645.08C444.634 647.496 446.362 649.192 448.714 649.192C451.05 649.192 452.778 647.496 452.778 645.08C452.778 642.664 451.05 640.968 448.714 640.968C446.362 640.968 444.634 642.664 444.634 645.08ZM446.154 645.08C446.154 643.448 447.194 642.312 448.714 642.312C450.218 642.312 451.274 643.448 451.274 645.08C451.274 646.712 450.218 647.848 448.714 647.848C447.194 647.848 446.154 646.712 446.154 645.08ZM455.467 649V644.856C455.467 643.336 456.283 642.328 457.691 642.328C458.843 642.328 459.579 642.968 459.579 644.552V649H461.083V644.216C461.083 642.216 460.139 640.952 458.075 640.952C456.971 640.952 455.979 641.48 455.483 642.376L455.323 641.176H453.963V649H455.467ZM464.894 649V642.44H466.43V641.176H464.894V638.728H463.39V641.176H461.854V642.44H463.39V649H464.894ZM468.804 648.984V644.728C468.804 643.384 469.588 642.328 471.044 642.328C472.164 642.328 472.916 642.968 472.916 644.552V649H474.42V644.216C474.42 642.216 473.46 640.952 471.46 640.952C470.244 640.952 469.3 641.528 468.804 642.376V637.224H467.3V648.984H468.804ZM475.289 646.728C475.289 648.216 476.457 649.192 478.297 649.192C480.153 649.192 481.433 648.248 481.433 646.76C481.433 645.592 480.777 644.984 479.449 644.664L478.073 644.328C477.305 644.136 476.921 643.784 476.921 643.256C476.921 642.536 477.449 642.12 478.393 642.12C479.305 642.12 479.833 642.616 479.865 643.4H481.305C481.273 641.912 480.153 640.952 478.441 640.952C476.713 640.952 475.497 641.864 475.497 643.304C475.497 644.456 476.153 645.144 477.545 645.48L478.921 645.8C479.737 646.008 479.993 646.328 479.993 646.856C479.993 647.576 479.385 648.008 478.329 648.008C477.337 648.008 476.729 647.528 476.729 646.728H475.289Z" fill="black"/>
<path opacity="0.5" d="M271.696 676.002L268.21 681H269.386L272.312 676.772C272.564 677.22 272.97 677.836 273.306 678.312L275.21 681H276.414L272.914 675.974L276.358 670.976H275.196L272.284 675.26C272.046 674.812 271.724 674.28 271.248 673.608L269.386 670.976H268.196L271.696 676.002ZM277.636 672.362C278.028 672.362 278.364 672.04 278.364 671.648C278.364 671.256 278.028 670.92 277.636 670.92C277.244 670.92 276.922 671.256 276.922 671.648C276.922 672.04 277.244 672.362 277.636 672.362ZM277.16 681H278.126V674.224H277.16V681ZM280.687 681V677.458C280.687 675.932 281.471 674.924 282.857 674.924C283.977 674.924 284.691 675.484 284.691 677.066V681H285.657V676.856C285.657 675.148 284.887 674.042 283.025 674.042C282.045 674.042 281.149 674.532 280.701 675.4L280.561 674.224H279.721V681H280.687ZM286.7 677.416C286.7 679.264 287.876 680.79 289.808 680.79C290.97 680.79 291.908 680.23 292.37 679.278V680.888C292.37 682.302 291.446 683.24 290.06 683.24C288.842 683.24 288.002 682.596 287.792 681.504H286.826C287.092 683.142 288.31 684.122 290.046 684.122C292.034 684.122 293.322 682.806 293.322 680.79V674.224H292.482L292.384 675.582C291.95 674.588 291.054 674.042 289.878 674.042C287.89 674.042 286.7 675.568 286.7 677.416ZM287.666 677.402C287.666 676.03 288.506 674.896 289.962 674.896C291.446 674.896 292.286 675.96 292.286 677.402C292.286 678.858 291.418 679.922 289.948 679.922C288.52 679.922 287.666 678.788 287.666 677.402ZM299.585 681V676.086C299.585 674.56 299.557 673.454 299.501 673.076L302.763 681H303.729L306.991 673.034C306.935 673.72 306.907 674.49 306.907 676.24V681H307.901V670.976H306.893L303.239 679.81L299.585 670.976H298.591V681H299.585ZM311.651 681.168C312.799 681.168 313.723 680.664 314.143 679.81L314.269 681H315.081V676.618C315.081 674.826 313.933 674.042 312.365 674.042C310.699 674.042 309.579 674.924 309.579 676.296H310.461C310.461 675.386 311.161 674.854 312.337 674.854C313.331 674.854 314.129 675.274 314.129 676.604V676.828L311.889 677.01C310.307 677.136 309.355 677.92 309.355 679.166C309.355 680.356 310.209 681.168 311.651 681.168ZM311.875 680.384C310.951 680.384 310.335 679.964 310.335 679.138C310.335 678.382 310.853 677.822 312.127 677.71L314.129 677.556V677.92C314.129 679.39 313.303 680.384 311.875 680.384Z" fill="black"/>
<path d="M355.528 669.359C355.683 668.911 356.317 668.911 356.472 669.359L357.532 672.406C357.6 672.604 357.785 672.738 357.994 672.742L361.219 672.808C361.693 672.817 361.889 673.42 361.511 673.706L358.94 675.655C358.774 675.781 358.703 675.998 358.764 676.198L359.698 679.286C359.835 679.74 359.323 680.112 358.934 679.842L356.286 677.999C356.114 677.879 355.886 677.879 355.714 677.999L353.066 679.842C352.677 680.112 352.165 679.74 352.302 679.286L353.236 676.198C353.297 675.998 353.226 675.781 353.06 675.655L350.489 673.706C350.111 673.42 350.307 672.817 350.781 672.808L354.006 672.742C354.215 672.738 354.4 672.604 354.468 672.406L355.528 669.359Z" fill="#F2B72C"/>
<path d="M372.348 669.359C372.504 668.911 373.137 668.911 373.293 669.359L374.352 672.406C374.421 672.604 374.605 672.738 374.814 672.742L378.04 672.808C378.514 672.817 378.709 673.42 378.331 673.706L375.761 675.655C375.594 675.781 375.523 675.998 375.584 676.198L376.518 679.286C376.656 679.74 376.143 680.112 375.754 679.842L373.106 677.999C372.934 677.879 372.706 677.879 372.535 677.999L369.887 679.842C369.497 680.112 368.985 679.74 369.122 679.286L370.057 676.198C370.117 675.998 370.047 675.781 369.88 675.655L367.309 673.706C366.931 673.42 367.127 672.817 367.601 672.808L370.827 672.742C371.036 672.738 371.22 672.604 371.289 672.406L372.348 669.359Z" fill="#F2B72C"/>
<path d="M389.168 669.359C389.324 668.911 389.957 668.911 390.113 669.359L391.172 672.406C391.241 672.604 391.425 672.738 391.634 672.742L394.86 672.808C395.334 672.817 395.53 673.42 395.152 673.706L392.581 675.655C392.414 675.781 392.344 675.998 392.404 676.198L393.339 679.286C393.476 679.74 392.964 680.112 392.574 679.842L389.926 677.999C389.755 677.879 389.527 677.879 389.355 677.999L386.707 679.842C386.318 680.112 385.805 679.74 385.943 679.286L386.877 676.198C386.937 675.998 386.867 675.781 386.7 675.655L384.129 673.706C383.752 673.42 383.947 672.817 384.421 672.808L387.647 672.742C387.856 672.738 388.04 672.604 388.109 672.406L389.168 669.359Z" fill="#F2B72C"/>
<path d="M405.988 669.359C406.143 668.911 406.777 668.911 406.932 669.359L407.992 672.406C408.06 672.604 408.245 672.738 408.454 672.742L411.679 672.808C412.153 672.817 412.349 673.42 411.971 673.706L409.4 675.655C409.234 675.781 409.163 675.998 409.224 676.198L410.158 679.286C410.295 679.74 409.783 680.112 409.394 679.842L406.746 677.999C406.574 677.879 406.346 677.879 406.174 677.999L403.526 679.842C403.137 680.112 402.625 679.74 402.762 679.286L403.696 676.198C403.757 675.998 403.686 675.781 403.52 675.655L400.949 673.706C400.571 673.42 400.767 672.817 401.241 672.808L404.466 672.742C404.675 672.738 404.86 672.604 404.928 672.406L405.988 669.359Z" fill="#F2B72C"/>
<path d="M422.808 669.359C422.964 668.911 423.597 668.911 423.753 669.359L424.812 672.406C424.88 672.604 425.065 672.738 425.274 672.742L428.5 672.808C428.973 672.817 429.169 673.42 428.791 673.706L426.22 675.655C426.054 675.781 425.983 675.998 426.044 676.198L426.978 679.286C427.116 679.74 426.603 680.112 426.214 679.842L423.566 677.999C423.394 677.879 423.166 677.879 422.995 677.999L420.346 679.842C419.957 680.112 419.445 679.74 419.582 679.286L420.517 676.198C420.577 675.998 420.507 675.781 420.34 675.655L417.769 673.706C417.391 673.42 417.587 672.817 418.061 672.808L421.287 672.742C421.496 672.738 421.68 672.604 421.749 672.406L422.808 669.359Z" fill="#F2B72C"/>
</svg>
