<svg width="40" height="40" viewBox="0 0 40 40" fill="none" xmlns="http://www.w3.org/2000/svg">
<g opacity="0.9">
<path opacity="0.4" d="M31.6666 26.6667V10.8333C31.6666 9 30.1666 7.5 28.3333 7.5H20.8333" stroke="#11C770" stroke-width="1.5" stroke-linecap="round" stroke-linejoin="round"/>
<path opacity="0.4" d="M25 3.33337L20 7.50004L25 11.6667" stroke="#11C770" stroke-width="1.5" stroke-linecap="round" stroke-linejoin="round"/>
</g>
<path opacity="0.9" d="M8.33331 15V26.6667" stroke="#11C770" stroke-width="1.5" stroke-linecap="round" stroke-linejoin="round"/>
<path opacity="0.9" d="M8.74998 14.1667C11.7415 14.1667 14.1666 11.7416 14.1666 8.75004C14.1666 5.75849 11.7415 3.33337 8.74998 3.33337C5.75843 3.33337 3.33331 5.75849 3.33331 8.75004C3.33331 11.7416 5.75843 14.1667 8.74998 14.1667Z" stroke="#11C770" stroke-width="1.5" stroke-linecap="round" stroke-linejoin="round"/>
<path opacity="0.9" d="M8.33331 36.6666C11.0947 36.6666 13.3333 34.4281 13.3333 31.6666C13.3333 28.9051 11.0947 26.6666 8.33331 26.6666C5.5719 26.6666 3.33331 28.9051 3.33331 31.6666C3.33331 34.4281 5.5719 36.6666 8.33331 36.6666Z" stroke="#11C770" stroke-width="1.5" stroke-linecap="round" stroke-linejoin="round"/>
<path opacity="0.9" d="M31.6667 36.6666C34.4282 36.6666 36.6667 34.4281 36.6667 31.6666C36.6667 28.9051 34.4282 26.6666 31.6667 26.6666C28.9052 26.6666 26.6667 28.9051 26.6667 31.6666C26.6667 34.4281 28.9052 36.6666 31.6667 36.6666Z" stroke="#11C770" stroke-width="1.5" stroke-linecap="round" stroke-linejoin="round"/>
</svg>
