<svg width="60" height="60" viewBox="0 0 60 60" fill="none" xmlns="http://www.w3.org/2000/svg">
<circle opacity="0.1" cx="30" cy="30" r="30" fill="#11C770"/>
<path d="M27.863 19.825L17.2755 37.5C17.0572 37.878 16.9417 38.3066 16.9404 38.7432C16.9392 39.1797 17.0523 39.6089 17.2685 39.9882C17.4847 40.3674 17.7964 40.6834 18.1726 40.9048C18.5488 41.1262 18.9765 41.2452 19.413 41.25H40.588C41.0245 41.2452 41.4521 41.1262 41.8283 40.9048C42.2045 40.6834 42.5162 40.3674 42.7324 39.9882C42.9486 39.6089 43.0617 39.1797 43.0605 38.7432C43.0592 38.3066 42.9437 37.878 42.7255 37.5L32.138 19.825C31.9151 19.4576 31.6014 19.1539 31.2269 18.9431C30.8525 18.7323 30.4301 18.6216 30.0005 18.6216C29.5708 18.6216 29.1484 18.7323 28.774 18.9431C28.3996 19.1539 28.0858 19.4576 27.863 19.825V19.825Z" stroke="#11C770" stroke-width="2" stroke-linecap="round" stroke-linejoin="round"/>
<path d="M30 26.25V31.25" stroke="#11C770" stroke-width="2" stroke-linecap="round" stroke-linejoin="round"/>
<path d="M30 36.25H30.0115" stroke="#11C770" stroke-width="2" stroke-linecap="round" stroke-linejoin="round"/>
</svg>
