<svg width="40" height="40" viewBox="0 0 40 40" fill="none" xmlns="http://www.w3.org/2000/svg">
<g opacity="0.99">
<path opacity="0.9" d="M14.4531 23.883C14.4531 26.033 16.1031 27.7663 18.1532 27.7663H22.3365C24.1198 27.7663 25.5698 26.2497 25.5698 24.383C25.5698 22.3497 24.6865 21.633 23.3698 21.1663L16.6531 18.833C15.3364 18.3663 14.4531 17.6497 14.4531 15.6164C14.4531 13.7497 15.9031 12.2331 17.6865 12.2331H21.8698C23.9198 12.2331 25.5698 13.9664 25.5698 16.1164" stroke="#11C770" stroke-width="1.5" stroke-linecap="round" stroke-linejoin="round"/>
<path opacity="0.9" d="M20 10V30" stroke="#11C770" stroke-width="1.5" stroke-linecap="round" stroke-linejoin="round"/>
</g>
<path opacity="0.9" d="M20.0007 36.6667C29.2053 36.6667 36.6673 29.2047 36.6673 20C36.6673 10.7953 29.2053 3.33334 20.0007 3.33334C10.7959 3.33334 3.33398 10.7953 3.33398 20C3.33398 29.2047 10.7959 36.6667 20.0007 36.6667Z" stroke="#11C770" stroke-width="1.5" stroke-linecap="round" stroke-linejoin="round"/>
</svg>
