<svg width="260" height="205" viewBox="0 0 260 205" fill="none" xmlns="http://www.w3.org/2000/svg">
<rect width="260" height="205" rx="10" fill="white"/>
<g clip-path="url(#clip0)">
<path d="M126.923 190.689L16.6052 125.513C13.0932 123.539 10.0822 120.304 13.5052 118.182L124.215 54.3929C125.875 53.3629 128.396 52.6879 130.088 53.6729L245.874 120.863C249.386 122.901 250.016 128.58 246.517 130.637L141.461 190.587C139.256 191.866 136.755 192.548 134.206 192.565C131.656 192.583 129.146 191.937 126.923 190.689V190.689Z" fill="#5B36A0"/>
<path d="M126.923 187.681L16.6052 122.503C13.0932 120.528 10.0822 117.293 13.5052 115.171L124.215 51.3829C125.875 50.3539 128.396 49.6789 130.088 50.6629L245.874 117.853C249.386 119.892 250.016 125.57 246.517 127.628L141.461 187.577C139.256 188.856 136.755 189.538 134.206 189.556C131.657 189.574 129.147 188.927 126.923 187.68V187.681Z" fill="#6862E6"/>
<path style="mix-blend-mode:multiply" opacity="0.25" d="M136.019 101.687L114.251 114.105C114.251 114.105 147.784 134.562 154.641 137.443L167.178 119.436" fill="url(#paint0_linear)"/>
<path style="mix-blend-mode:multiply" opacity="0.25" d="M128.499 161.263L106.725 148.87L84.9512 161.288C84.9512 161.288 96.2912 168.208 107.131 174.562C114.013 169.694 120.902 164.774 128.499 161.262V161.263Z" fill="url(#paint1_linear)"/>
<path style="mix-blend-mode:multiply" opacity="0.46" d="M81.5871 84.7349L67.7761 92.6129C67.7761 92.6129 68.9461 99.8349 75.8041 102.716L93.8861 91.1399" fill="url(#paint2_linear)"/>
<path d="M88.3473 92.6129C92.9479 92.6129 96.6773 89.987 96.6773 86.7479C96.6773 83.5087 92.9479 80.8829 88.3473 80.8829C83.7468 80.8829 80.0173 83.5087 80.0173 86.7479C80.0173 89.987 83.7468 92.6129 88.3473 92.6129Z" fill="#68E1FD"/>
<path d="M88.3413 85.8409C91.7876 85.8409 94.5813 84.6979 94.5813 83.2879C94.5813 81.8779 91.7876 80.7349 88.3413 80.7349C84.8951 80.7349 82.1013 81.8779 82.1013 83.2879C82.1013 84.6979 84.8951 85.8409 88.3413 85.8409Z" fill="#974C26"/>
<path d="M88.1162 79.0309C88.1162 77.8799 88.0772 76.7279 87.9872 75.5769C87.9612 75.2769 87.9332 74.9789 87.9032 74.6829L87.8392 74.0979C87.8392 73.9249 87.7492 73.4549 87.7492 73.4999C87.7102 73.2639 87.6692 73.0299 87.6272 72.7999C86.9467 68.8918 85.4283 65.1774 83.1762 61.9119C82.3286 63.9283 81.9058 66.0978 81.9342 68.2849C81.9342 68.9279 81.9852 69.5709 82.0372 70.1749V70.5549C82.2907 72.0467 82.6782 73.5127 83.1952 74.9349C83.5637 75.9715 84.0131 76.9776 84.5392 77.9439C85.107 79.0318 85.7229 80.0938 86.3852 81.1269C86.9002 81.9369 87.3892 82.6569 87.8852 83.3459C88.0392 81.9119 88.1092 80.4709 88.1152 79.0309H88.1162ZM84.8422 66.0849C84.8752 65.9367 84.8752 65.7831 84.8422 65.6349C85.0002 65.7979 85.1572 65.9649 85.3122 66.1369C85.1573 66.0928 84.996 66.0752 84.8352 66.0849H84.8422Z" fill="#999A1C"/>
<path d="M90.2582 79.9179C90.9012 78.9479 91.4682 77.9879 92.0142 76.9409C92.1552 76.6749 92.2932 76.4089 92.4262 76.1429L92.6892 75.6089L92.9402 75.0559L93.2172 74.4129C94.7589 70.7546 95.4896 66.8056 95.3592 62.8379C93.5511 64.0759 92.0181 65.6739 90.8562 67.5319C90.5227 68.0679 90.2115 68.6173 89.9232 69.1789L89.7952 69.4159L89.7622 69.5189C89.6402 69.8089 89.5182 70.0989 89.4022 70.3939C88.9756 71.5144 88.6297 72.664 88.3672 73.8339C88.1166 74.9062 87.9508 75.9966 87.8712 77.0949C87.7576 78.3156 87.7019 79.5409 87.7042 80.7669C87.7042 81.7249 87.7042 82.5999 87.7622 83.4419C88.6172 82.3039 89.4792 81.1339 90.2582 79.9179V79.9179ZM94.5032 67.2559C94.6042 67.1429 94.6792 67.0089 94.7222 66.8629C94.7692 67.0859 94.8102 67.3009 94.8442 67.5069C94.7442 67.4069 94.6292 67.3219 94.5042 67.2559H94.5032Z" fill="#999A1C"/>
<path d="M90.2132 82.7859C90.8602 82.4649 91.5032 82.1179 92.1432 81.7449L92.6252 81.4489L92.9402 81.2489L93.2492 81.0309L93.6092 80.7669C95.6202 79.2912 97.288 77.3979 98.4982 75.2169C97.1251 75.305 95.785 75.675 94.5612 76.3039C94.2072 76.4839 93.8662 76.6839 93.5252 76.8889L93.3782 76.9789L93.3262 77.0239L92.8502 77.3779C92.2572 77.8449 91.6982 78.3549 91.1782 78.9019C90.6972 79.3999 90.2562 79.9359 89.8582 80.5029C89.4118 81.1342 88.983 81.7778 88.5722 82.4329C88.2642 82.9469 87.9872 83.4289 87.7422 83.8989C88.5722 83.5519 89.4022 83.1909 90.2122 82.7859H90.2132ZM96.5932 77.3199C96.6843 77.2916 96.768 77.2435 96.8382 77.1789C96.7913 77.3155 96.74 77.4506 96.6842 77.5839C96.6674 77.4941 96.6371 77.4075 96.5942 77.3269V77.3199H96.5932ZM88.1162 79.0309C88.1162 77.8799 88.0772 76.7279 87.9872 75.5769C87.9612 75.2769 87.9332 74.9789 87.9032 74.6829L87.8392 74.0979C87.8392 73.9249 87.7492 73.4549 87.7492 73.4999C87.7102 73.2639 87.6692 73.0299 87.6272 72.7999C86.9467 68.8918 85.4283 65.1774 83.1762 61.9119C82.3286 63.9283 81.9058 66.0978 81.9342 68.2849C81.9342 68.9279 81.9852 69.5709 82.0372 70.1749V70.5549C82.2907 72.0467 82.6782 73.5127 83.1952 74.9349C83.5637 75.9715 84.0131 76.9776 84.5392 77.9439C85.107 79.0318 85.7229 80.0938 86.3852 81.1269C86.9002 81.9369 87.3892 82.6569 87.8852 83.3459C88.0392 81.9119 88.1092 80.4709 88.1152 79.0309H88.1162ZM84.8422 66.0849C84.8752 65.9367 84.8752 65.7831 84.8422 65.6349C85.0002 65.7979 85.1572 65.9649 85.3122 66.1369C85.1573 66.0928 84.996 66.0752 84.8352 66.0849H84.8422Z" fill="#999A1C"/>
<path d="M90.2582 79.9179C90.9012 78.9479 91.4682 77.9879 92.0142 76.9409C92.1552 76.6749 92.2932 76.4089 92.4262 76.1429L92.6892 75.6089L92.9402 75.0559L93.2172 74.4129C94.7589 70.7546 95.4896 66.8056 95.3592 62.8379C93.5511 64.0759 92.0181 65.6739 90.8562 67.5319C90.5227 68.0679 90.2115 68.6173 89.9232 69.1789L89.7952 69.4159L89.7622 69.5189C89.6402 69.8089 89.5182 70.0989 89.4022 70.3939C88.9756 71.5144 88.6297 72.664 88.3672 73.8339C88.1166 74.9062 87.9508 75.9966 87.8712 77.0949C87.7576 78.3156 87.7019 79.5409 87.7042 80.7669C87.7042 81.7249 87.7042 82.5999 87.7622 83.4419C88.6172 82.3039 89.4792 81.1339 90.2582 79.9179V79.9179ZM94.5032 67.2559C94.6042 67.1429 94.6792 67.0089 94.7222 66.8629C94.7692 67.0859 94.8102 67.3009 94.8442 67.5069C94.7442 67.4069 94.6292 67.3219 94.5042 67.2559H94.5032Z" fill="#999A1C"/>
<path d="M90.2132 82.7859C90.8602 82.4649 91.5032 82.1179 92.1432 81.7449L92.6252 81.4489L92.9402 81.2489L93.2492 81.0309L93.6092 80.7669C95.6201 79.2912 97.288 77.3979 98.4982 75.2169C97.1251 75.305 95.7849 75.675 94.5612 76.3039C94.2072 76.4839 93.8662 76.6839 93.5252 76.8889L93.3782 76.9789L93.3262 77.0239L92.8502 77.3779C92.2572 77.8449 91.6982 78.3549 91.1782 78.9019C90.6972 79.3999 90.2562 79.9359 89.8582 80.5029C89.4118 81.1342 88.9829 81.7778 88.5722 82.4329C88.2642 82.9469 87.9872 83.4289 87.7422 83.8989C88.5722 83.5519 89.4022 83.1909 90.2122 82.7859H90.2132ZM96.5932 77.3199C96.6843 77.2916 96.768 77.2435 96.8382 77.1789C96.7913 77.3155 96.74 77.4506 96.6842 77.5839C96.6674 77.4941 96.637 77.4075 96.5942 77.3269V77.3199H96.5932Z" fill="#999A1C"/>
<path d="M144.664 96.8379L132.616 102.626C132.162 102.844 131.777 103.182 131.5 103.603C131.224 104.024 131.068 104.512 131.048 105.015C131.028 105.518 131.145 106.017 131.388 106.458C131.63 106.9 131.988 107.267 132.423 107.52L160.977 124.176C161.594 124.537 162.327 124.645 163.022 124.478C163.717 124.312 164.321 123.883 164.708 123.282L171.648 112.491" fill="#A1482D"/>
<path d="M210.193 68.9209L114.123 13.5769C113.464 13.198 112.717 12.9991 111.957 13C111.197 13.0009 110.45 13.2017 109.792 13.5822C109.134 13.9626 108.587 14.5094 108.207 15.1677C107.827 15.826 107.627 16.5727 107.626 17.3329V74.9079C107.626 76.1949 108.312 77.3839 109.426 78.0279L211.846 137.134C212.199 137.338 212.6 137.446 213.008 137.446C213.417 137.446 213.817 137.339 214.171 137.135C214.524 136.931 214.818 136.637 215.022 136.283C215.225 135.93 215.333 135.529 215.332 135.121V77.7829C215.331 75.9842 214.855 74.2177 213.952 72.6617C213.05 71.1058 211.753 69.8154 210.192 68.9209H210.193Z" fill="#F47B56"/>
<path d="M114.129 17.9309L207.298 71.5189C208.293 72.0915 209.12 72.9162 209.694 73.9098C210.269 74.9034 210.572 76.031 210.572 77.1789V120.336C210.572 120.749 210.462 121.155 210.256 121.512C210.049 121.87 209.752 122.167 209.395 122.374C209.038 122.581 208.632 122.691 208.219 122.692C207.806 122.693 207.4 122.586 207.041 122.381L112.025 67.8989C111.67 67.695 111.374 67.4008 111.169 67.0461C110.963 66.6914 110.855 66.2888 110.855 65.8789V19.8279C110.855 19.4446 110.956 19.0679 111.147 18.7358C111.338 18.4036 111.614 18.1276 111.945 17.9355C112.277 17.7433 112.653 17.6417 113.037 17.6409C113.42 17.6401 113.797 17.7401 114.129 17.9309V17.9309Z" fill="white"/>
<path d="M153.331 99.3331C154.43 99.1215 155.124 97.9322 154.883 96.6768C154.641 95.4213 153.554 94.5751 152.456 94.7866C151.357 94.9982 150.662 96.1875 150.904 97.443C151.146 98.6985 152.232 99.5447 153.331 99.3331Z" fill="#AB643C"/>
<path opacity="0.32" d="M139.171 76.4839L182.468 102.491L203.857 90.0599L165.641 67.8219" fill="url(#paint3_linear)"/>
<path d="M192.677 71.3069L145.867 42.7729C145.617 42.6281 145.332 42.553 145.043 42.5555C144.753 42.5579 144.47 42.6378 144.222 42.7868C143.974 42.9358 143.77 43.1485 143.632 43.4028C143.494 43.657 143.426 43.9437 143.436 44.2329V60.4899C143.434 60.7841 143.508 61.0739 143.652 61.331C143.795 61.5881 144.002 61.8037 144.253 61.9569L191.056 89.8869C191.302 90.0265 191.581 90.099 191.864 90.0972C192.147 90.0954 192.424 90.0193 192.668 89.8765C192.913 89.7337 193.115 89.5293 193.255 89.2836C193.396 89.038 193.469 88.7598 193.468 88.4769L193.712 73.3199C193.73 72.9232 193.644 72.5287 193.463 72.1756C193.281 71.8225 193.01 71.523 192.677 71.3069V71.3069Z" fill="#E2AC00"/>
<path d="M181.478 79.6729C183.157 82.0209 186.109 82.6769 188.065 81.1459C190.02 79.6159 190.245 76.4709 188.566 74.1299C186.887 71.7899 183.935 71.1269 181.979 72.6579C180.024 74.1879 179.799 77.3269 181.478 79.6739V79.6729Z" fill="white"/>
<path d="M176.885 68.4069L157.793 56.9149C157.63 56.8399 157.444 56.8283 157.272 56.8823C157.1 56.9364 156.955 57.0522 156.864 57.2074C156.772 57.3626 156.742 57.5461 156.778 57.7224C156.815 57.8988 156.915 58.0554 157.06 58.1619L176.152 69.6539C176.316 69.7289 176.502 69.7405 176.673 69.6864C176.845 69.6324 176.991 69.5166 177.082 69.3614C177.173 69.2062 177.203 69.0226 177.167 68.8463C177.131 68.67 177.03 68.5134 176.885 68.4069V68.4069ZM176.1 73.0759L149.785 57.2359C149.624 57.1792 149.448 57.1812 149.288 57.2415C149.128 57.3017 148.994 57.4164 148.911 57.5654C148.827 57.7143 148.798 57.8881 148.83 58.056C148.861 58.224 148.951 58.3755 149.083 58.4839L175.367 74.3299C175.531 74.4061 175.718 74.4185 175.89 74.3647C176.063 74.3109 176.209 74.1947 176.301 74.0389C176.392 73.883 176.422 73.6986 176.385 73.5216C176.348 73.3447 176.247 73.1879 176.1 73.0819V73.0759Z" fill="#F2F2F2"/>
<path d="M183.337 74.4579L136.553 45.9309C136.303 45.7858 136.018 45.7106 135.728 45.7129C135.439 45.7152 135.155 45.795 134.907 45.944C134.659 46.0931 134.455 46.3059 134.317 46.5603C134.179 46.8147 134.111 47.1015 134.121 47.3909V63.6409C134.114 64.2409 134.421 64.7999 134.931 65.1139L181.735 93.0439C181.984 93.1866 182.266 93.2607 182.552 93.2585C182.839 93.2562 183.12 93.1778 183.366 93.0312C183.612 92.8847 183.815 92.6752 183.953 92.4244C184.092 92.1735 184.161 91.8904 184.154 91.6039L184.398 76.4449C184.409 76.0501 184.317 75.6593 184.131 75.3109C183.945 74.9625 183.671 74.6686 183.337 74.4579Z" fill="#F47B56"/>
<path d="M172.138 82.8249C173.817 85.1719 176.769 85.8279 178.725 84.2979C180.68 82.7679 180.905 79.6219 179.226 77.2809C177.547 74.9409 174.595 74.2779 172.639 75.8089C170.684 77.3389 170.459 80.4779 172.138 82.8249Z" fill="white"/>
<path d="M167.545 71.5579L148.439 60.0659C148.275 59.9896 148.089 59.9772 147.916 60.031C147.744 60.0848 147.597 60.201 147.506 60.3569C147.414 60.5128 147.384 60.6972 147.421 60.8741C147.458 61.0511 147.56 61.2078 147.706 61.3139L166.798 72.8059C166.962 72.8821 167.149 72.8945 167.321 72.8407C167.494 72.7869 167.64 72.6707 167.732 72.5149C167.823 72.359 167.853 72.1746 167.816 71.9976C167.779 71.8207 167.678 71.6639 167.531 71.5579H167.544H167.545ZM166.754 76.2589L140.444 60.3939C140.28 60.3176 140.094 60.3052 139.921 60.359C139.749 60.4128 139.602 60.529 139.511 60.6849C139.419 60.8408 139.389 61.0252 139.426 61.2021C139.463 61.3791 139.565 61.5358 139.711 61.6419L166.027 77.4809C166.191 77.5571 166.378 77.5695 166.55 77.5157C166.723 77.4619 166.869 77.3457 166.961 77.1899C167.052 77.034 167.082 76.8496 167.045 76.6726C167.008 76.4957 166.907 76.3389 166.76 76.2329L166.754 76.2589Z" fill="#F2F2F2"/>
<path d="M171.597 76.3749L124.801 47.8469C124.551 47.7018 124.266 47.6266 123.976 47.6289C123.687 47.6312 123.403 47.711 123.155 47.86C122.907 48.0091 122.703 48.2219 122.565 48.4763C122.426 48.7307 122.359 49.0175 122.369 49.3069V65.5579C122.367 65.852 122.442 66.1415 122.585 66.3984C122.728 66.6553 122.935 66.8708 123.186 67.0239L169.989 94.9539C170.238 95.0966 170.52 95.1707 170.806 95.1685C171.093 95.1662 171.374 95.0878 171.62 94.9412C171.866 94.7947 172.069 94.5852 172.207 94.3344C172.346 94.0835 172.415 93.8003 172.408 93.5139L172.652 78.3549C172.673 77.5549 172.272 76.8039 171.597 76.3749V76.3749Z" fill="#68E1FD"/>
<path d="M171.597 76.3749L124.801 47.8469C124.551 47.7018 124.266 47.6266 123.976 47.6289C123.687 47.6312 123.403 47.711 123.155 47.86C122.907 48.0091 122.703 48.2219 122.565 48.4763C122.426 48.7307 122.359 49.0175 122.369 49.3069V65.5579C122.367 65.852 122.442 66.1415 122.585 66.3984C122.728 66.6553 122.935 66.8708 123.186 67.0239L169.989 94.9539C170.238 95.0966 170.52 95.1707 170.806 95.1685C171.093 95.1662 171.374 95.0878 171.62 94.9412C171.866 94.7947 172.069 94.5852 172.207 94.3344C172.346 94.0835 172.415 93.8003 172.408 93.5139L172.652 78.3549C172.673 77.5549 172.272 76.8039 171.597 76.3749V76.3749Z" fill="#68E1FD"/>
<path d="M160.392 84.7409C162.071 87.0889 165.023 87.7449 166.979 86.2139C168.934 84.6839 169.159 81.5389 167.48 79.1979C165.802 76.8579 162.849 76.1949 160.894 77.7249C158.938 79.2549 158.732 82.3949 160.392 84.7409V84.7409Z" fill="white"/>
<path d="M155.799 73.4739L136.701 61.9829C136.537 61.9057 136.35 61.8926 136.177 61.9462C136.004 61.9997 135.857 62.116 135.765 62.2722C135.673 62.4284 135.643 62.6133 135.68 62.7907C135.718 62.968 135.82 63.125 135.967 63.2309L155.059 74.7229C155.223 74.8 155.41 74.8131 155.583 74.7596C155.757 74.7061 155.903 74.5898 155.995 74.4336C156.087 74.2773 156.117 74.0924 156.08 73.9151C156.043 73.7377 155.94 73.5807 155.793 73.4749H155.799V73.4739ZM155.008 78.1499L128.692 62.3099C128.528 62.2336 128.342 62.2212 128.169 62.275C127.997 62.3288 127.85 62.445 127.759 62.6009C127.667 62.7568 127.637 62.9412 127.674 63.1181C127.711 63.2951 127.813 63.4518 127.959 63.5579L154.274 79.3979C154.438 79.475 154.625 79.4881 154.798 79.4346C154.972 79.3811 155.118 79.2648 155.21 79.1086C155.302 78.9523 155.332 78.7674 155.295 78.5901C155.258 78.4127 155.155 78.2557 155.008 78.1499Z" fill="#F2F2F2"/>
<path d="M110.179 74.7799C107.155 77.3819 104.868 80.7327 103.547 84.4969C101.219 90.9269 107.04 101.436 107.04 101.436L116.097 94.2659" fill="#FF8F6F"/>
<path d="M109.202 159.803L106.744 158.446L107.388 154.935C107.388 154.935 111.048 155.282 111.369 156.581" fill="#003B94"/>
<path d="M110.102 159.751C110.655 159.411 111.234 159.108 111.807 158.806C113.228 158.028 115.28 157.224 116.155 155.764C116.334 155.469 116.419 155.126 116.399 154.781C116.378 154.437 116.253 154.106 116.039 153.835C114.753 152.279 111.935 154.838 110.495 153.115C110.212 152.774 110.076 147.365 110.076 147.365L104.596 148.845C104.596 148.845 103.67 159.713 103.773 160.382C103.875 161.05 105.76 161.668 105.76 161.668C106.322 161.549 106.858 161.331 107.343 161.025C107.915 160.607 107.394 155.507 108.127 156.221C108.861 156.935 109.182 159.726 109.182 159.726C109.487 159.772 109.796 159.78 110.102 159.751V159.751Z" fill="#F47B56"/>
<path d="M119.667 165.057L117.21 163.719L117.853 160.208C117.853 160.208 121.513 160.555 121.835 161.854" fill="#003B94"/>
<path d="M120.594 165.005C121.147 164.665 121.726 164.362 122.298 164.06C123.72 163.282 125.772 162.478 126.647 161.018C126.826 160.723 126.911 160.38 126.891 160.035C126.87 159.691 126.744 159.36 126.531 159.089C125.244 157.533 122.427 160.092 120.986 158.369C120.703 158.028 120.568 152.619 120.568 152.619L115.088 154.099C115.088 154.099 114.155 165.005 114.258 165.649C114.36 166.292 116.245 166.935 116.245 166.935C116.807 166.816 117.343 166.598 117.828 166.292C118.4 165.874 117.879 160.774 118.612 161.488C119.346 162.202 119.667 164.993 119.667 164.993C119.974 165.035 120.286 165.039 120.594 165.005Z" fill="#F47B56"/>
<path d="M101.811 129.726L100.196 151.314C100.196 151.314 102.769 154.864 111.396 152.89L111.479 138.337L101.811 129.726ZM111.775 134.003C111.588 135.861 111.775 156.363 111.775 156.363C111.775 156.363 114.161 160.825 124.55 156.363L124.402 138.941" fill="#3E2928"/>
<path d="M101.007 136.857C101.714 137.347 101.959 134.832 102.698 135.263C105.39 136.826 108.246 138.085 111.215 139.018H111.279C111.35 138.983 111.427 138.964 111.506 138.96C111.584 138.956 111.663 138.968 111.737 138.995C111.811 139.022 111.878 139.063 111.936 139.117C111.993 139.171 112.039 139.236 112.071 139.308C113.905 139.855 115.771 140.284 117.661 140.594C120.085 140.98 122.092 139.185 124.581 139.064C124.581 129.533 124.627 102.407 120.568 96.6189L108.558 92.5809C108.5 93.5709 102.73 100.259 102.872 108.414C103.032 117.604 101.836 126.272 101.63 129.147C101.598 129.636 101.032 136.337 101.007 136.857V136.857Z" fill="#3E2928"/>
<path d="M121.674 85.6609L120.568 96.5939C120.568 96.5939 111.608 96.9539 107.748 94.2909V85.0179" fill="#FF8F6F"/>
<path d="M133.066 78.4649L132.153 79.7119C132.64 78.6972 133.069 77.6558 133.439 76.5929C133.697 75.8669 132.532 75.5769 132.275 76.3039L132.14 76.6769C132.252 76.2909 132.357 75.9029 132.455 75.5129C132.477 75.4357 132.482 75.3549 132.472 75.2755C132.462 75.196 132.436 75.1194 132.395 75.0502C132.355 74.981 132.301 74.9206 132.237 74.8725C132.173 74.8244 132.1 74.7897 132.022 74.7703C131.944 74.7509 131.863 74.7473 131.784 74.7597C131.705 74.7721 131.629 74.8002 131.561 74.8424C131.493 74.8846 131.434 74.94 131.388 75.0053C131.341 75.0707 131.309 75.1446 131.291 75.2229C131.039 76.2324 130.736 77.2286 130.384 78.2079C130.581 77.3386 130.723 76.4579 130.809 75.5709C130.886 74.8059 129.683 74.8379 129.612 75.5709C129.512 76.5809 129.332 77.5809 129.072 78.5609C129.072 78.2156 129.039 77.8711 128.975 77.5319C128.966 77.4466 128.94 77.3641 128.897 77.29C128.853 77.2158 128.795 77.1517 128.725 77.1019C128.693 76.9669 128.654 76.8334 128.609 76.7019C128.564 76.5671 128.472 76.4527 128.351 76.3787C128.229 76.3048 128.085 76.276 127.945 76.2975C127.804 76.319 127.675 76.3894 127.582 76.4962C127.488 76.6031 127.434 76.7397 127.431 76.8819L127.354 81.3839C127.136 81.8509 126.853 82.2839 126.512 82.6709C127.09 83.0709 127.649 83.5009 128.184 83.9569C128.662 84.3599 129.117 84.7899 129.548 85.2429C129.934 84.7629 130.305 84.2739 130.661 83.7769C130.705 83.7392 130.744 83.6959 130.776 83.6479C131.848 82.0626 132.955 80.5016 134.096 78.9659C134.572 78.4389 133.523 77.8539 133.066 78.4649V78.4649Z" fill="#FFB5A9"/>
<path d="M115.988 75.6929C115.988 75.6929 120.221 76.8309 121.938 79.5519C123.014 81.4344 123.962 83.3872 124.775 85.3969L127.901 80.5419C127.901 80.5419 131.696 81.7059 133.201 83.5709C133.201 83.5709 128.699 93.4109 124.775 94.2529C120.851 95.0949 116.683 88.4779 116.683 88.4779C116.683 88.4779 115.821 91.2429 115.988 88.2909" fill="#FF8F6F"/>
<path d="M118.677 86.2079C117.447 85.2073 116.518 83.8849 115.994 82.3879C115.486 80.6579 116.123 79.1399 116.714 77.5319C117.355 75.9383 117.729 74.25 117.821 72.5349C117.873 70.8509 117.68 69.1649 117.564 67.4869C117.548 67.4151 117.548 67.3406 117.564 67.2689C116.998 65.3709 115.84 63.7639 113.556 63.5709C107.645 63.0689 107.31 69.6159 107.356 72.2779C107.4 74.9409 107.684 76.7409 105.722 77.8539C103.76 78.9659 102.344 81.8859 104.216 84.2459C106.088 86.6059 104.409 85.7449 103.161 87.8409C101.914 89.9379 102.235 92.5549 104.795 93.5009C107.355 94.4459 119.255 92.6709 120.349 91.5709C120.737 91.1278 120.938 90.5512 120.909 89.9629C120.642 88.4831 119.849 87.1496 118.677 86.2079Z" fill="#007F68"/>
<path d="M124.492 32.2129C125.494 33.6546 126.073 35.3476 126.164 37.1009C126.276 37.9036 126.081 38.719 125.617 39.3839C125.42 39.6007 125.156 39.7457 124.867 39.7959C124.578 39.846 124.281 39.7985 124.022 39.6609C123.697 39.531 123.403 39.3333 123.16 39.0809C122.942 38.8764 122.756 38.6404 122.607 38.3809L122.453 38.0789C122.411 38.1579 122.359 38.2309 122.298 38.2969C122.145 38.4169 121.963 38.4939 121.771 38.5219C121.449 38.5819 121.117 38.5419 120.819 38.4069C120.108 38.0992 119.516 37.5685 119.133 36.8949C118.672 36.1635 118.414 35.3222 118.387 34.4579C118.292 33.7579 118.511 33.0519 118.985 32.5279C119.189 32.3313 119.449 32.2024 119.729 32.1587C120.009 32.115 120.295 32.1587 120.549 32.2839C120.807 32.3869 121.044 32.5349 121.249 32.7219C121.425 32.8709 121.581 33.0419 121.713 33.2299L121.829 33.4359V32.8629L123.115 33.3649L123.244 36.9789C123.253 37.2379 123.333 37.4889 123.475 37.7059C123.596 37.9149 123.781 38.0789 124.003 38.1759C124.625 38.4199 124.912 37.8839 124.865 36.5669C124.8 35.2634 124.37 34.0044 123.623 32.9339C122.952 31.8447 121.955 30.9945 120.773 30.5039C120.345 30.2861 119.86 30.2021 119.384 30.2627C118.907 30.3233 118.459 30.5258 118.098 30.8439C117.714 31.2298 117.421 31.6971 117.242 32.2114C117.063 32.7257 117.001 33.2737 117.062 33.8149C117.136 35.1937 117.58 36.527 118.349 37.6739C118.961 38.8066 119.925 39.7094 121.095 40.2459C121.503 40.4159 121.94 40.5009 122.382 40.4959C122.669 40.5159 122.957 40.4629 123.218 40.3419L123.475 40.2009L124.254 41.6479L124.125 41.7379C124.003 41.8059 123.876 41.8669 123.745 41.9179C123.54 42.0069 123.324 42.0679 123.102 42.0979C122.819 42.1359 122.531 42.1359 122.247 42.0979C121.874 42.0533 121.509 41.9602 121.16 41.8209C120.17 41.3951 119.29 40.7487 118.587 39.9309C117.755 39.0107 117.081 37.9588 116.593 36.8179C116.105 35.7287 115.825 34.5573 115.769 33.3649C115.7 32.3624 115.905 31.36 116.361 30.4649C116.74 29.7136 117.395 29.1376 118.188 28.8569C119.019 28.5831 119.923 28.6287 120.722 28.9849C122.283 29.6445 123.601 30.7728 124.492 32.2139V32.2129ZM121.655 36.7859C121.866 36.5159 121.961 36.1739 121.919 35.8339C121.909 35.4146 121.792 35.0049 121.578 34.6439C121.404 34.3288 121.13 34.0802 120.799 33.9369C120.673 33.8718 120.529 33.8468 120.388 33.8652C120.247 33.8836 120.115 33.9446 120.009 34.0399C119.898 34.1661 119.815 34.3146 119.766 34.4756C119.717 34.6365 119.703 34.8061 119.725 34.9729C119.74 35.3969 119.866 35.8089 120.092 36.1689C120.277 36.4949 120.564 36.7529 120.909 36.9019C121.156 37.0289 121.457 36.9819 121.655 36.7859V36.7859ZM200.441 101.848C201.445 103.289 202.024 104.982 202.113 106.735C202.226 107.537 202.031 108.353 201.567 109.018C201.369 109.234 201.105 109.379 200.817 109.429C200.528 109.479 200.23 109.432 199.971 109.295C199.647 109.163 199.353 108.966 199.109 108.715C198.892 108.509 198.706 108.274 198.556 108.015L198.402 107.713C198.359 107.791 198.307 107.864 198.247 107.931C198.095 108.051 197.913 108.13 197.72 108.156C197.401 108.22 197.07 108.182 196.774 108.047C196.063 107.737 195.471 107.205 195.089 106.529C194.624 105.797 194.364 104.953 194.336 104.086C194.237 103.386 194.456 102.678 194.935 102.156C195.138 101.96 195.396 101.832 195.675 101.788C195.953 101.744 196.238 101.788 196.491 101.912C196.749 102.014 196.987 102.162 197.192 102.349C197.368 102.501 197.523 102.674 197.656 102.864L197.778 103.069V102.497L199.064 102.992L199.193 106.606C199.204 106.865 199.284 107.116 199.424 107.333C199.545 107.543 199.73 107.707 199.952 107.803C200.595 108.047 200.859 107.513 200.82 106.195C200.755 104.889 200.325 103.628 199.579 102.555C198.908 101.47 197.914 100.622 196.736 100.131C196.308 99.9129 195.824 99.8282 195.347 99.8877C194.87 99.9473 194.422 100.148 194.06 100.465C193.678 100.855 193.389 101.327 193.214 101.844C193.039 102.362 192.983 102.913 193.05 103.455C193.122 104.834 193.567 106.167 194.336 107.314C194.972 108.42 195.947 109.292 197.116 109.803C197.523 109.973 197.96 110.06 198.402 110.06C198.689 110.077 198.976 110.024 199.238 109.905L199.495 109.764L200.274 111.211L200.144 111.301C200.023 111.37 199.896 111.43 199.765 111.481C199.559 111.566 199.343 111.626 199.122 111.661C198.836 111.699 198.546 111.699 198.26 111.661C197.889 111.614 197.526 111.519 197.18 111.378C196.19 110.954 195.31 110.309 194.607 109.494C193.774 108.571 193.1 107.517 192.612 106.374C192.124 105.285 191.845 104.114 191.789 102.922C191.72 101.921 191.924 100.921 192.381 100.028C192.761 99.2756 193.415 98.6976 194.208 98.4129C195.042 98.1424 195.946 98.1886 196.748 98.5429C198.291 99.2366 199.581 100.391 200.441 101.848V101.848ZM197.604 106.42C197.817 106.151 197.914 105.809 197.874 105.468C197.863 105.048 197.744 104.638 197.527 104.278C197.356 103.963 197.084 103.714 196.755 103.571C196.629 103.505 196.486 103.479 196.345 103.496C196.203 103.513 196.071 103.573 195.964 103.668C195.851 103.793 195.767 103.941 195.717 104.102C195.667 104.263 195.652 104.433 195.674 104.6C195.689 105.022 195.816 105.433 196.041 105.79C196.226 106.118 196.513 106.378 196.858 106.53C196.978 106.592 197.115 106.615 197.249 106.596C197.383 106.576 197.507 106.514 197.604 106.42" fill="#F47B56"/>
<path style="mix-blend-mode:multiply" opacity="0.25" d="M72.2532 129.269L50.4792 116.883L28.7112 129.295C28.7112 129.295 40.8242 136.857 51.6622 143.211C58.5452 138.349 64.6622 132.787 72.2532 129.269V129.269Z" fill="url(#paint4_linear)"/>
<g filter="url(#filter0_d)">
<path d="M32.9292 94.4709V121.406L53.9132 133.423L77.6072 119.41V92.4759" fill="black"/>
</g>
<path d="M32.9292 94.4709V121.406L53.9132 133.423L77.6072 119.41V92.4759" fill="#FF9271"/>
<path d="M53.9133 106.489V133.424L77.6073 119.411V92.4759L53.9133 106.489Z" fill="#DF5C34"/>
<path d="M32.9292 94.4709L57.2762 80.5929L77.6062 92.4759L53.9132 106.489L32.9292 94.4709Z" fill="#F47B56"/>
<path d="M54.4702 86.7749C56.939 86.6083 59.404 87.1513 61.5742 88.3399C62.8172 89.0709 63.4962 89.8339 63.5922 90.6299C63.6882 91.4249 63.2782 92.1169 62.3112 92.6999C61.8524 92.9834 61.3469 93.1831 60.8182 93.2899C60.3842 93.3929 59.9382 93.4389 59.4922 93.4249L59.0052 93.3869C59.0512 93.4959 59.0812 93.6099 59.0952 93.7269C59.0801 94.0036 58.9917 94.2714 58.8392 94.5029C58.5852 94.9329 58.2232 95.2889 57.7892 95.5349C56.7769 96.1364 55.6166 96.4429 54.4392 96.4199C53.2209 96.4529 52.017 96.1491 50.9602 95.5419C49.9612 94.9519 49.4492 94.2589 49.4102 93.4639C49.4141 93.0429 49.5362 92.6315 49.7627 92.2766C49.9893 91.9217 50.311 91.6376 50.6912 91.4569C51.0563 91.2291 51.4538 91.0581 51.8702 90.9499C52.202 90.8541 52.5435 90.7961 52.8882 90.7769H53.2412L52.6002 90.3919L54.4002 89.2699L58.5702 91.7259C58.8891 91.8976 59.2456 91.9875 59.6077 91.9875C59.9699 91.9875 60.3264 91.8976 60.6452 91.7259C61.5292 91.1749 61.2132 90.4499 59.6972 89.5519C58.0861 88.6645 56.2546 88.2571 54.4192 88.3779C52.474 88.4018 50.5711 88.9489 48.9102 89.9619C47.3992 90.9069 46.6502 92.0339 46.6622 93.3419C46.6622 94.6249 47.4622 95.7659 49.0192 96.6829C50.7192 97.6329 52.6482 98.0929 54.5922 98.0109C56.5285 98.0427 58.4356 97.5366 60.1012 96.5489C60.6774 96.207 61.1942 95.7737 61.6312 95.2659C61.9242 94.9559 62.1432 94.5829 62.2722 94.1759L62.3622 93.7719L64.7382 93.9059C64.7422 93.9789 64.7422 94.0519 64.7382 94.1249C64.6952 94.3209 64.6372 94.5139 64.5652 94.7019C64.4622 95.0019 64.3252 95.2919 64.1552 95.5609C63.9112 95.9249 63.6282 96.2609 63.3102 96.5609C62.8902 96.9659 62.4302 97.3229 61.9332 97.6259C60.5032 98.4843 58.9192 99.055 57.2702 99.3059C55.4732 99.6198 53.6382 99.6521 51.8312 99.4019C50.1886 99.2085 48.6011 98.6897 47.1612 97.8759C45.9992 97.2602 45.0687 96.2835 44.5102 95.0929C44.2819 94.5735 44.1641 94.0123 44.1641 93.4449C44.1641 92.8775 44.2819 92.3163 44.5102 91.7969C45.0636 90.5842 45.9849 89.5765 47.1432 88.9169C49.3501 87.5605 51.8803 86.8208 54.4702 86.7749V86.7749ZM56.8022 93.4059C56.7603 93.1867 56.6655 92.9811 56.5261 92.8068C56.3866 92.6326 56.2068 92.4949 56.0022 92.4059C55.4973 92.1086 54.9222 91.9515 54.3362 91.9509C53.792 91.9302 53.2535 92.0681 52.7862 92.3479C52.4022 92.5349 52.1552 92.9209 52.1462 93.3479C52.2042 93.7929 52.4912 94.1749 52.9012 94.3549C53.4173 94.6498 54.004 94.7984 54.5982 94.7849C55.1695 94.7993 55.7333 94.6527 56.2252 94.3619C56.5982 94.1919 56.8352 93.8159 56.8282 93.4059" fill="#3E2928"/>
</g>
<defs>
<filter id="filter0_d" x="-17.0708" y="67.4759" width="144.678" height="140.947" filterUnits="userSpaceOnUse" color-interpolation-filters="sRGB">
<feFlood flood-opacity="0" result="BackgroundImageFix"/>
<feColorMatrix in="SourceAlpha" type="matrix" values="0 0 0 0 0 0 0 0 0 0 0 0 0 0 0 0 0 0 127 0"/>
<feOffset dy="25"/>
<feGaussianBlur stdDeviation="25"/>
<feColorMatrix type="matrix" values="0 0 0 0 0.209139 0 0 0 0 0.0691446 0 0 0 0 0.478091 0 0 0 0.497159 0"/>
<feBlend mode="normal" in2="BackgroundImageFix" result="effect1_dropShadow"/>
<feBlend mode="normal" in="SourceGraphic" in2="effect1_dropShadow" result="shape"/>
</filter>
<linearGradient id="paint0_linear" x1="146.632" y1="114.866" x2="139.637" y2="124.343" gradientUnits="userSpaceOnUse">
<stop stop-color="#78B46A"/>
<stop offset="0.03" stop-color="#7F3500"/>
<stop offset="1" stop-color="white"/>
</linearGradient>
<linearGradient id="paint1_linear" x1="120.742" y1="156.213" x2="106.061" y2="172.307" gradientUnits="userSpaceOnUse">
<stop stop-color="#78B46A"/>
<stop offset="0.03" stop-color="#7F3500"/>
<stop offset="1" stop-color="white"/>
</linearGradient>
<linearGradient id="paint2_linear" x1="88.8364" y1="88.6808" x2="77.8336" y2="100.745" gradientUnits="userSpaceOnUse">
<stop stop-color="#78B46A"/>
<stop offset="0.03" stop-color="#7F3500"/>
<stop offset="1" stop-color="white"/>
</linearGradient>
<linearGradient id="paint3_linear" x1="191.577" y1="88.8167" x2="184.978" y2="84.0059" gradientUnits="userSpaceOnUse">
<stop stop-color="white" stop-opacity="0"/>
<stop offset="0.99" stop-color="#DC841E"/>
</linearGradient>
<linearGradient id="paint4_linear" x1="64.4953" y1="124.15" x2="49.601" y2="140.479" gradientUnits="userSpaceOnUse">
<stop stop-color="#78B46A"/>
<stop offset="0.03" stop-color="#7F3500"/>
<stop offset="1" stop-color="white"/>
</linearGradient>
<clipPath id="clip0">
<rect width="236.846" height="179.566" fill="white" transform="translate(12 13)"/>
</clipPath>
</defs>
</svg>
