<svg width="258" height="43" viewBox="0 0 258 43" fill="none" xmlns="http://www.w3.org/2000/svg">
<path fill-rule="evenodd" clip-rule="evenodd" d="M21 42C32.598 42 42 32.598 42 21C42 9.40202 32.598 0 21 0C9.40202 0 0 9.40202 0 21V42H21Z" fill="#255D50"/>
<path d="M20.2604 13.0136C20.4101 12.5529 21.0618 12.5529 21.2115 13.0136L22.8043 17.9157C22.8712 18.1217 23.0632 18.2612 23.2798 18.2612H28.4342C28.9186 18.2612 29.12 18.881 28.7281 19.1657L24.5581 22.1954C24.3829 22.3228 24.3095 22.5484 24.3765 22.7544L25.9693 27.6566C26.119 28.1173 25.5917 28.5003 25.1999 28.2156L21.0298 25.1859C20.8546 25.0586 20.6173 25.0586 20.442 25.1859L16.272 28.2156C15.8802 28.5003 15.3529 28.1173 15.5026 27.6566L17.0954 22.7544C17.1623 22.5484 17.089 22.3228 16.9138 22.1954L12.7437 19.1657C12.3519 18.881 12.5533 18.2612 13.0376 18.2612H18.1921C18.4087 18.2612 18.6007 18.1217 18.6676 17.9157L20.2604 13.0136Z" fill="#FFCB2D"/>
<path d="M61.056 16.27C64.458 16.27 67.122 14.02 67.572 10.672H64.674C64.35 12.526 62.928 13.822 61.092 13.822C58.878 13.822 57.384 12.058 57.384 9.52C57.384 7 58.878 5.254 61.092 5.254C62.928 5.254 64.368 6.532 64.674 8.386H67.572C67.122 5.074 64.458 2.806 61.056 2.806C57.42 2.806 54.576 5.74 54.576 9.52C54.576 13.318 57.42 16.27 61.056 16.27ZM72.9744 16.18C75.7644 16.18 77.8524 13.984 77.8524 11.194C77.8524 8.386 75.7644 6.208 72.9744 6.208C70.1844 6.208 68.0964 8.386 68.0964 11.194C68.0964 13.984 70.1844 16.18 72.9744 16.18ZM72.9744 13.966C71.7324 13.966 70.6704 12.976 70.6704 11.194C70.6704 9.412 71.7324 8.44 72.9744 8.44C74.2164 8.44 75.2784 9.412 75.2784 11.194C75.2784 12.976 74.2164 13.966 72.9744 13.966ZM81.411 10.762C81.411 9.214 82.257 8.422 83.247 8.422C84.381 8.422 84.939 9.214 84.939 10.636V16H87.423V9.79C87.423 7.468 86.091 6.208 84.165 6.208C82.905 6.208 81.915 6.802 81.213 7.756V6.388H78.909V16H81.411V10.762ZM91.541 10.762C91.541 9.214 92.387 8.422 93.377 8.422C94.511 8.422 95.069 9.214 95.069 10.636V16H97.553V9.79C97.553 7.468 96.221 6.208 94.295 6.208C93.035 6.208 92.045 6.802 91.343 7.756V6.388H89.039V16H91.541V10.762ZM103.345 16.162C105.685 16.162 107.359 14.92 107.899 12.742H105.415C105.127 13.696 104.389 14.236 103.291 14.236C102.013 14.236 101.257 13.372 101.095 11.806H107.917C108.367 8.674 106.351 6.208 103.309 6.208C100.537 6.208 98.5389 8.296 98.5389 11.158C98.5389 14.164 100.465 16.162 103.345 16.162ZM103.255 8.044C104.443 8.044 105.199 8.89 105.271 10.222H101.131C101.347 8.8 102.085 8.044 103.255 8.044ZM112.927 16.18C115.501 16.18 117.301 14.542 117.589 11.896H114.961C114.817 13.21 114.079 13.966 112.927 13.966C111.613 13.966 110.803 12.922 110.803 11.194C110.803 9.484 111.631 8.422 112.927 8.422C114.061 8.422 114.835 9.214 114.961 10.492H117.589C117.283 7.9 115.429 6.208 112.927 6.208C110.227 6.208 108.247 8.314 108.247 11.194C108.247 14.128 110.155 16.18 112.927 16.18ZM124.631 13.57C124.271 13.768 123.839 13.876 123.371 13.876C122.471 13.876 121.967 13.426 121.967 12.31V8.53H124.721V6.388H121.967V3.544H119.483V6.388H117.539V8.53H119.483V12.886C119.483 15.046 120.725 16.18 122.705 16.18C123.443 16.18 124.019 16.054 124.631 15.748V13.57Z" fill="#255D50"/>
<path opacity="0.5" d="M61.168 39.09H56.184V35.268H60.65V34.358H56.184V30.858H61.07V29.948H55.134V40H61.168V39.09ZM64.0284 35.702C64.0284 34.33 64.9524 33.336 66.1004 33.336C67.3044 33.336 67.9484 34.134 67.9484 35.548V40H68.9284V35.212C68.9284 33.462 67.9344 32.482 66.3944 32.482C65.3304 32.482 64.4344 33.098 63.9584 34.008V32.622H63.0484V40H64.0284V35.702ZM71.9717 35.702C71.9717 34.33 72.8957 33.336 74.0437 33.336C75.2477 33.336 75.8917 34.134 75.8917 35.548V40H76.8717V35.212C76.8717 33.462 75.8777 32.482 74.3377 32.482C73.2737 32.482 72.4337 33.098 71.9717 33.98V29.948H70.9917V40H71.9717V35.702ZM83.4711 40H84.3111V35.198C84.3111 33.49 83.3031 32.482 81.5811 32.482C79.9011 32.482 78.7671 33.574 78.7251 35.212H79.6211C79.6351 34.008 80.3911 33.266 81.5951 33.266C82.7151 33.266 83.3731 33.994 83.3731 35.226V35.842C82.6451 35.786 82.3091 35.758 81.8611 35.758C79.6211 35.758 78.4731 36.514 78.4731 37.956C78.4731 39.286 79.4671 40.14 80.9931 40.14C82.1411 40.14 83.0371 39.58 83.4711 38.656V40ZM79.4111 37.928C79.4111 36.906 80.2231 36.416 81.9031 36.416C82.3091 36.416 82.7431 36.43 83.3731 36.486V37.144C83.3731 38.53 82.5051 39.426 81.1331 39.426C80.0971 39.426 79.4111 38.824 79.4111 37.928ZM87.3526 35.702C87.3526 34.33 88.2766 33.336 89.4246 33.336C90.6286 33.336 91.2726 34.134 91.2726 35.548V40H92.2526V35.212C92.2526 33.462 91.2586 32.482 89.7186 32.482C88.6546 32.482 87.7586 33.098 87.2826 34.008V32.622H86.3726V40H87.3526V35.702ZM97.074 40.154C98.81 40.154 100.056 39.02 100.322 37.144H99.328C99.104 38.516 98.278 39.3 97.074 39.3C95.702 39.3 94.764 38.096 94.764 36.304C94.764 34.54 95.702 33.336 97.074 33.336C98.264 33.336 99.104 34.134 99.328 35.478H100.322C100.028 33.63 98.796 32.482 97.074 32.482C95.142 32.482 93.77 34.064 93.77 36.304C93.77 38.572 95.128 40.154 97.074 40.154ZM103.178 30.914C103.178 30.494 102.856 30.186 102.38 30.186C101.918 30.186 101.596 30.494 101.596 30.914C101.596 31.348 101.918 31.656 102.38 31.656C102.856 31.656 103.178 31.348 103.178 30.914ZM102.884 40V32.622H101.904V40H102.884ZM105.987 35.702C105.987 34.33 106.911 33.336 108.059 33.336C109.263 33.336 109.907 34.134 109.907 35.548V40H110.887V35.212C110.887 33.462 109.893 32.482 108.353 32.482C107.289 32.482 106.393 33.098 105.917 34.008V32.622H105.007V40H105.987V35.702ZM115.737 42.856C117.753 42.856 118.915 41.736 118.915 39.832V32.622H118.005V34.19C117.529 33.112 116.605 32.482 115.499 32.482C113.637 32.482 112.405 33.966 112.405 36.206C112.405 38.446 113.651 39.944 115.513 39.944C116.605 39.944 117.501 39.342 117.949 38.306V39.846C117.949 41.302 117.179 42.072 115.723 42.072C114.407 42.072 113.623 41.428 113.539 40.224H112.601C112.685 41.876 113.861 42.856 115.737 42.856ZM113.385 36.206C113.385 34.414 114.253 33.322 115.653 33.322C117.053 33.322 117.963 34.47 117.963 36.276C117.963 37.984 117.039 39.104 115.653 39.104C114.239 39.104 113.385 38.012 113.385 36.206ZM124.95 36.052C124.95 34.442 126.14 33.476 127.694 33.532V32.51C126.476 32.51 125.384 33.21 124.88 34.302V32.622H123.97V40H124.95V36.052ZM131.776 40.14C133.47 40.14 134.716 39.146 135.052 37.508H134.086C133.848 38.684 132.994 39.37 131.762 39.37C130.32 39.37 129.396 38.292 129.312 36.542H135.024C135.192 34.176 133.82 32.482 131.72 32.482C129.76 32.482 128.332 34.092 128.332 36.248C128.332 38.586 129.704 40.14 131.776 40.14ZM131.706 33.238C133.064 33.238 133.918 34.218 134.002 35.87H129.312C129.438 34.26 130.376 33.238 131.706 33.238ZM142.109 32.622H141.101L138.791 38.852L136.481 32.622H135.431L138.245 40H139.267L142.109 32.622ZM144.522 30.914C144.522 30.494 144.2 30.186 143.724 30.186C143.262 30.186 142.94 30.494 142.94 30.914C142.94 31.348 143.262 31.656 143.724 31.656C144.2 31.656 144.522 31.348 144.522 30.914ZM144.228 40V32.622H143.248V40H144.228ZM149.249 40.14C150.943 40.14 152.189 39.146 152.525 37.508H151.559C151.321 38.684 150.467 39.37 149.235 39.37C147.793 39.37 146.869 38.292 146.785 36.542H152.497C152.665 34.176 151.293 32.482 149.193 32.482C147.233 32.482 145.805 34.092 145.805 36.248C145.805 38.586 147.177 40.14 149.249 40.14ZM149.179 33.238C150.537 33.238 151.391 34.218 151.475 35.87H146.785C146.911 34.26 147.849 33.238 149.179 33.238ZM160.112 40H161.092L163.262 32.622H162.282L160.574 38.628L158.67 32.622H157.704L155.786 38.614L154.078 32.622H153.112L155.268 40H156.262L158.18 33.924L160.112 40ZM169.9 37.942C169.9 36.892 169.242 36.276 167.772 35.996L166.666 35.786C165.574 35.576 165.126 35.226 165.126 34.498C165.126 33.728 165.84 33.238 166.876 33.238C168.038 33.238 168.78 33.84 168.878 34.862H169.802C169.69 33.392 168.57 32.482 166.876 32.482C165.266 32.482 164.174 33.35 164.174 34.582C164.174 35.646 164.916 36.332 166.316 36.598L167.38 36.808C168.5 37.032 168.92 37.368 168.92 38.096C168.92 38.936 168.192 39.398 166.988 39.398C165.728 39.398 164.902 38.74 164.832 37.69H163.894C164.034 39.216 165.154 40.14 166.988 40.14C168.808 40.14 169.9 39.3 169.9 37.942ZM176.153 40V33.448H178.323V32.622H176.153V31.95C176.153 31.082 176.587 30.69 177.371 30.69C177.623 30.69 177.847 30.704 178.085 30.802V29.99C177.833 29.892 177.539 29.836 177.203 29.836C175.915 29.836 175.173 30.592 175.173 31.95V32.622H173.437V33.448H175.173V40H176.153ZM182.2 40.14C184.244 40.14 185.714 38.53 185.714 36.304C185.714 34.092 184.244 32.496 182.2 32.496C180.17 32.496 178.7 34.092 178.7 36.304C178.7 38.53 180.17 40.14 182.2 40.14ZM182.2 39.286C180.772 39.286 179.694 38.138 179.694 36.304C179.694 34.498 180.772 33.35 182.2 33.35C183.642 33.35 184.72 34.498 184.72 36.304C184.72 38.138 183.642 39.286 182.2 39.286ZM188.278 36.052C188.278 34.442 189.468 33.476 191.022 33.532V32.51C189.804 32.51 188.712 33.21 188.208 34.302V32.622H187.298V40H188.278V36.052ZM200.83 32.622H199.836L197.582 38.726L195.202 32.622H194.152L197.078 39.902L196 42.702H197.05L200.83 32.622ZM204.704 40.14C206.748 40.14 208.218 38.53 208.218 36.304C208.218 34.092 206.748 32.496 204.704 32.496C202.674 32.496 201.204 34.092 201.204 36.304C201.204 38.53 202.674 40.14 204.704 40.14ZM204.704 39.286C203.276 39.286 202.198 38.138 202.198 36.304C202.198 34.498 203.276 33.35 204.704 33.35C206.146 33.35 207.224 34.498 207.224 36.304C207.224 38.138 206.146 39.286 204.704 39.286ZM214.52 37.018C214.52 38.334 213.666 39.286 212.49 39.286C211.454 39.286 210.712 38.712 210.712 37.214V32.622H209.732V37.424C209.732 39.286 210.726 40.14 212.224 40.14C213.302 40.14 214.198 39.524 214.576 38.67V40H215.486V32.622H214.52V37.018ZM218.589 36.052C218.589 34.442 219.779 33.476 221.333 33.532V32.51C220.115 32.51 219.023 33.21 218.519 34.302V32.622H217.609V40H218.589V36.052ZM230.973 37.942C230.973 36.892 230.315 36.276 228.845 35.996L227.739 35.786C226.647 35.576 226.199 35.226 226.199 34.498C226.199 33.728 226.913 33.238 227.949 33.238C229.111 33.238 229.853 33.84 229.951 34.862H230.875C230.763 33.392 229.643 32.482 227.949 32.482C226.339 32.482 225.247 33.35 225.247 34.582C225.247 35.646 225.989 36.332 227.389 36.598L228.453 36.808C229.573 37.032 229.993 37.368 229.993 38.096C229.993 38.936 229.265 39.398 228.061 39.398C226.801 39.398 225.975 38.74 225.905 37.69H224.967C225.107 39.216 226.227 40.14 228.061 40.14C229.881 40.14 230.973 39.3 230.973 37.942ZM236.415 39.062C236.107 39.188 235.855 39.244 235.547 39.244C234.735 39.244 234.175 38.852 234.175 37.704V33.448H236.485V32.622H234.175V30.438H233.195V32.622H231.459V33.448H233.195V37.914C233.195 39.51 234.133 40.14 235.351 40.14C235.715 40.14 236.037 40.084 236.415 39.93V39.062ZM240.688 40.14C242.732 40.14 244.202 38.53 244.202 36.304C244.202 34.092 242.732 32.496 240.688 32.496C238.658 32.496 237.188 34.092 237.188 36.304C237.188 38.53 238.658 40.14 240.688 40.14ZM240.688 39.286C239.26 39.286 238.182 38.138 238.182 36.304C238.182 34.498 239.26 33.35 240.688 33.35C242.13 33.35 243.208 34.498 243.208 36.304C243.208 38.138 242.13 39.286 240.688 39.286ZM246.767 36.052C246.767 34.442 247.957 33.476 249.511 33.532V32.51C248.293 32.51 247.201 33.21 246.697 34.302V32.622H245.787V40H246.767V36.052ZM253.593 40.14C255.287 40.14 256.533 39.146 256.869 37.508H255.903C255.665 38.684 254.811 39.37 253.579 39.37C252.137 39.37 251.213 38.292 251.129 36.542H256.841C257.009 34.176 255.637 32.482 253.537 32.482C251.577 32.482 250.149 34.092 250.149 36.248C250.149 38.586 251.521 40.14 253.593 40.14ZM253.523 33.238C254.881 33.238 255.735 34.218 255.819 35.87H251.129C251.255 34.26 252.193 33.238 253.523 33.238Z" fill="black"/>
</svg>
