<svg width="38" height="38" viewBox="0 0 38 38" fill="none" xmlns="http://www.w3.org/2000/svg">
<path fill-rule="evenodd" clip-rule="evenodd" d="M19 38C29.4934 38 38 29.4934 38 19C38 8.50659 29.4934 0 19 0C8.50659 0 0 8.50659 0 19V38H19Z" fill="white" fill-opacity="0.1"/>
<path d="M18.1148 12.4358C18.3179 11.8106 19.2024 11.8106 19.4055 12.4358L20.5807 16.0527C20.6716 16.3323 20.9321 16.5216 21.2261 16.5216H25.0291C25.6865 16.5216 25.9598 17.3628 25.428 17.7491L22.3513 19.9845C22.1134 20.1573 22.0139 20.4636 22.1048 20.7432L23.28 24.3601C23.4831 24.9853 22.7676 25.5052 22.2357 25.1188L19.159 22.8834C18.9212 22.7106 18.5991 22.7106 18.3613 22.8834L15.2846 25.1188C14.7528 25.5052 14.0372 24.9853 14.2404 24.3601L15.4156 20.7432C15.5064 20.4636 15.4069 20.1573 15.1691 19.9845L12.0923 17.7491C11.5605 17.3628 11.8338 16.5216 12.4912 16.5216H16.2942C16.5882 16.5216 16.8487 16.3323 16.9396 16.0527L18.1148 12.4358Z" fill="white"/>
</svg>
