<svg width="43" height="43" viewBox="0 0 43 43" fill="none" xmlns="http://www.w3.org/2000/svg">
<path fill-rule="evenodd" clip-rule="evenodd" d="M21.5 43C33.3741 43 43 33.3741 43 21.5C43 9.62588 33.3741 0 21.5 0C9.62588 0 0 9.62588 0 21.5V43H21.5Z" fill="#255D50"/>
<path d="M20.7553 13.2885C20.905 12.8278 21.5567 12.8278 21.7064 13.2885L23.3511 18.3504C23.4181 18.5564 23.61 18.6959 23.8266 18.6959L29.1491 18.6959C29.6334 18.6959 29.8348 19.3157 29.443 19.6004L25.137 22.7289C24.9618 22.8562 24.8885 23.0819 24.9554 23.2879L26.6001 28.3498C26.7498 28.8105 26.2226 29.1936 25.8307 28.9089L21.5248 25.7804C21.3495 25.6531 21.1122 25.6531 20.937 25.7804L16.631 28.9089C16.2392 29.1936 15.7119 28.8105 15.8616 28.3498L17.5063 23.2879C17.5733 23.0819 17.4999 22.8562 17.3247 22.7289L13.0187 19.6004C12.6269 19.3157 12.8283 18.6959 13.3126 18.6959L18.6351 18.6959C18.8517 18.6959 19.0437 18.5564 19.1106 18.3504L20.7553 13.2885Z" fill="#FFCB2D"/>
</svg>
