<svg width="40" height="40" viewBox="0 0 40 40" fill="none" xmlns="http://www.w3.org/2000/svg">
<path opacity="0.9" d="M29.9969 11.9333C29.8969 11.9166 29.7802 11.9166 29.6802 11.9333C27.3802 11.85 25.5469 9.96665 25.5469 7.63331C25.5469 5.24998 27.4635 3.33331 29.8469 3.33331C32.2302 3.33331 34.1469 5.26665 34.1469 7.63331C34.1302 9.96665 32.2969 11.85 29.9969 11.9333Z" stroke="#11C770" stroke-width="1.5" stroke-linecap="round" stroke-linejoin="round"/>
<path opacity="0.9" d="M28.2785 24.067C30.5618 24.4503 33.0785 24.0503 34.8452 22.867C37.1952 21.3003 37.1952 18.7337 34.8452 17.167C33.0618 15.9836 30.5118 15.5836 28.2285 15.9836" stroke="#11C770" stroke-width="1.5" stroke-linecap="round" stroke-linejoin="round"/>
<path opacity="0.9" d="M9.94492 11.9333C10.0449 11.9166 10.1616 11.9166 10.2616 11.9333C12.5616 11.85 14.3949 9.96665 14.3949 7.63331C14.3949 5.24998 12.4783 3.33331 10.0949 3.33331C7.71159 3.33331 5.79492 5.26665 5.79492 7.63331C5.81159 9.96665 7.64492 11.85 9.94492 11.9333Z" stroke="#11C770" stroke-width="1.5" stroke-linecap="round" stroke-linejoin="round"/>
<path opacity="0.9" d="M11.6632 24.067C9.37982 24.4503 6.86315 24.0503 5.09648 22.867C2.74648 21.3003 2.74648 18.7337 5.09648 17.167C6.87982 15.9836 9.42982 15.5836 11.7132 15.9836" stroke="#11C770" stroke-width="1.5" stroke-linecap="round" stroke-linejoin="round"/>
<path opacity="0.9" d="M20.0008 24.3837C19.9008 24.367 19.7841 24.367 19.6841 24.3837C17.3841 24.3003 15.5508 22.417 15.5508 20.0837C15.5508 17.7003 17.4675 15.7837 19.8508 15.7837C22.2341 15.7837 24.1508 17.717 24.1508 20.0837C24.1341 22.417 22.3008 24.317 20.0008 24.3837Z" stroke="#11C770" stroke-width="1.5" stroke-linecap="round" stroke-linejoin="round"/>
<path opacity="0.9" d="M15.1512 29.634C12.8012 31.2007 12.8012 33.7672 15.1512 35.3338C17.8178 37.1172 22.1845 37.1172 24.8512 35.3338C27.2012 33.7672 27.2012 31.2007 24.8512 29.634C22.2012 27.8673 17.8178 27.8673 15.1512 29.634Z" stroke="#11C770" stroke-width="1.5" stroke-linecap="round" stroke-linejoin="round"/>
</svg>
