<svg width="40" height="40" viewBox="0 0 40 40" fill="none" xmlns="http://www.w3.org/2000/svg">
<path d="M7.35042 27.9167C6.95042 32.7333 10.5838 36.6667 15.4171 36.6667H23.4004C28.8337 36.6667 32.567 32.2833 31.667 26.9167C30.717 21.2833 25.2837 16.6667 19.567 16.6667C13.3671 16.6667 7.86709 21.7333 7.35042 27.9167Z" stroke="#11C770" stroke-width="1.5" stroke-linecap="round" stroke-linejoin="round"/>
<path d="M17.4518 12.5C19.753 12.5 21.6185 10.6345 21.6185 8.33335C21.6185 6.03217 19.753 4.16669 17.4518 4.16669C15.1506 4.16669 13.2852 6.03217 13.2852 8.33335C13.2852 10.6345 15.1506 12.5 17.4518 12.5Z" stroke="#11C770" stroke-width="1.5" stroke-linecap="round" stroke-linejoin="round"/>
<path d="M28.8353 14.5003C30.6761 14.5003 32.1686 13.0079 32.1686 11.167C32.1686 9.32606 30.6761 7.83368 28.8353 7.83368C26.9943 7.83368 25.502 9.32606 25.502 11.167C25.502 13.0079 26.9943 14.5003 28.8353 14.5003Z" stroke="#11C770" stroke-width="1.5" stroke-linecap="round" stroke-linejoin="round"/>
<path d="M35 21.167C36.3807 21.167 37.5 20.0477 37.5 18.667C37.5 17.2863 36.3807 16.167 35 16.167C33.6193 16.167 32.5 17.2863 32.5 18.667C32.5 20.0477 33.6193 21.167 35 21.167Z" stroke="#11C770" stroke-width="1.5" stroke-linecap="round" stroke-linejoin="round"/>
<path d="M6.61849 17.8337C8.45944 17.8337 9.95182 16.3413 9.95182 14.5003C9.95182 12.6594 8.45944 11.167 6.61849 11.167C4.77754 11.167 3.28516 12.6594 3.28516 14.5003C3.28516 16.3413 4.77754 17.8337 6.61849 17.8337Z" stroke="#11C770" stroke-width="1.5" stroke-linecap="round" stroke-linejoin="round"/>
</svg>
