<svg width="43" height="43" viewBox="0 0 43 43" fill="none" xmlns="http://www.w3.org/2000/svg">
<path fill-rule="evenodd" clip-rule="evenodd" d="M21.5 43C33.3741 43 43 33.3741 43 21.5C43 9.62588 33.3741 0 21.5 0C9.62588 0 0 9.62588 0 21.5V43H21.5Z" fill="#11C770"/>
<path d="M14 22.7811C14 24.9928 15.1821 26.48 17.2032 26.48C18.8811 26.48 20.0251 25.4504 20.0251 23.9632C20.0251 22.6285 18.9955 21.5608 17.5464 21.5608C17.2795 21.5608 16.9744 21.5989 16.6693 21.7133C17.0125 20.0355 18.5379 19.0059 20.6733 19.0821V17.0229C16.86 16.7179 14 19.5016 14 22.7811ZM22.1224 22.7811C22.1224 24.9928 23.3045 26.48 25.3256 26.48C26.9654 26.48 28.1475 25.4504 28.1475 23.9632C28.1475 22.6285 27.0798 21.5608 25.6688 21.5608C25.4019 21.5608 25.0968 21.5989 24.7918 21.7133C25.135 20.0355 26.6603 19.0059 28.7958 19.0821V17.0229C24.9824 16.7179 22.1224 19.5016 22.1224 22.7811Z" fill="white"/>
</svg>
