<svg width="60" height="60" viewBox="0 0 60 60" fill="none" xmlns="http://www.w3.org/2000/svg">
<circle opacity="0.1" cx="30" cy="30" r="30" fill="#11C770"/>
<path d="M36.2011 22.7124C38.7011 24.4499 40.4261 27.2124 40.7761 30.3999" stroke="#11C770" stroke-width="1.5" stroke-linecap="round" stroke-linejoin="round"/>
<path d="M19.3628 30.4626C19.6878 27.2876 21.3878 24.5251 23.8628 22.7751" stroke="#11C770" stroke-width="1.5" stroke-linecap="round" stroke-linejoin="round"/>
<path d="M25.2368 41.1748C26.6868 41.9123 28.3369 42.3248 30.0744 42.3248C31.7494 42.3248 33.3244 41.9498 34.7369 41.2623" stroke="#11C770" stroke-width="1.5" stroke-linecap="round" stroke-linejoin="round"/>
<path d="M30.0741 24.6253C31.9932 24.6253 33.5491 23.0695 33.5491 21.1503C33.5491 19.2311 31.9932 17.6753 30.0741 17.6753C28.1549 17.6753 26.5991 19.2311 26.5991 21.1503C26.5991 23.0695 28.1549 24.6253 30.0741 24.6253Z" stroke="#11C770" stroke-width="1.5" stroke-linecap="round" stroke-linejoin="round"/>
<path d="M21.0385 39.9C22.9577 39.9 24.5135 38.3441 24.5135 36.425C24.5135 34.5057 22.9577 32.95 21.0385 32.95C19.1193 32.95 17.5635 34.5057 17.5635 36.425C17.5635 38.3441 19.1193 39.9 21.0385 39.9Z" stroke="#11C770" stroke-width="1.5" stroke-linecap="round" stroke-linejoin="round"/>
<path d="M38.9633 39.9C40.8825 39.9 42.4383 38.3441 42.4383 36.425C42.4383 34.5057 40.8825 32.95 38.9633 32.95C37.0442 32.95 35.4883 34.5057 35.4883 36.425C35.4883 38.3441 37.0442 39.9 38.9633 39.9Z" stroke="#11C770" stroke-width="1.5" stroke-linecap="round" stroke-linejoin="round"/>
</svg>
