<svg width="1440" height="720" viewBox="0 0 1440 720" fill="none" xmlns="http://www.w3.org/2000/svg">
<rect x="14" y="186" width="452" height="70" rx="35" fill="white"/>
<path d="M57 233.5C63.875 233.5 69.5 227.875 69.5 221C69.5 214.125 63.875 208.5 57 208.5C50.125 208.5 44.5 214.125 44.5 221C44.5 227.875 50.125 233.5 57 233.5Z" stroke="#F9614C" stroke-width="1.5" stroke-linecap="round" stroke-linejoin="round"/>
<path d="M53.4624 224.537L60.5374 217.462" stroke="#F9614C" stroke-width="1.5" stroke-linecap="round" stroke-linejoin="round"/>
<path d="M60.5374 224.537L53.4624 217.462" stroke="#F9614C" stroke-width="1.5" stroke-linecap="round" stroke-linejoin="round"/>
<path d="M94.8828 224.54C94.8828 222.42 93.5228 221.26 91.0028 220.76L88.5428 220.26C87.5028 220.06 86.6028 219.64 86.6028 218.66C86.6028 217.66 87.4428 216.82 88.9228 216.82C90.4428 216.82 91.4828 217.84 91.5828 219.34H94.6628C94.4628 216.34 92.1028 214.46 88.8828 214.46C85.7828 214.46 83.5228 216.3 83.5228 218.86C83.5228 221.24 85.2028 222.42 87.3828 222.84L89.7428 223.3C90.9628 223.54 91.6628 224.08 91.6628 224.98C91.6628 226.14 90.5628 226.82 89.0228 226.82C87.1628 226.82 86.1428 225.8 86.0628 224.22H82.9828C83.2028 227.26 85.4628 229.2 89.0828 229.2C92.6828 229.2 94.8828 227.28 94.8828 224.54ZM101.605 229.2C104.705 229.2 107.025 226.76 107.025 223.66C107.025 220.54 104.705 218.12 101.605 218.12C98.5045 218.12 96.1845 220.54 96.1845 223.66C96.1845 226.76 98.5045 229.2 101.605 229.2ZM101.605 226.74C100.225 226.74 99.0445 225.64 99.0445 223.66C99.0445 221.68 100.225 220.6 101.605 220.6C102.985 220.6 104.165 221.68 104.165 223.66C104.165 225.64 102.985 226.74 101.605 226.74ZM111.579 229V223.04C111.579 221.44 112.459 220.58 113.579 220.58C114.799 220.58 115.439 221.48 115.439 222.98V229H118.199V223.04C118.199 221.44 119.099 220.58 120.199 220.58C121.419 220.58 122.059 221.48 122.059 222.98V229H124.819V222.1C124.819 219.54 123.359 218.12 121.199 218.12C119.599 218.12 118.519 218.84 117.679 220.02C117.139 218.8 116.019 218.12 114.559 218.12C113.139 218.12 112.139 218.76 111.359 219.84V218.32H108.799V229H111.579ZM131.837 229.18C134.437 229.18 136.297 227.8 136.897 225.38H134.137C133.817 226.44 132.997 227.04 131.777 227.04C130.357 227.04 129.517 226.08 129.337 224.34H136.917C137.417 220.86 135.177 218.12 131.797 218.12C128.717 218.12 126.497 220.44 126.497 223.62C126.497 226.96 128.637 229.18 131.837 229.18ZM131.737 220.16C133.057 220.16 133.897 221.1 133.977 222.58H129.377C129.617 221 130.437 220.16 131.737 220.16ZM149.319 229H151.579V222.28C151.579 219.66 149.939 218.12 147.139 218.12C144.559 218.12 142.779 219.72 142.619 222.18H145.119C145.219 220.98 145.939 220.28 147.139 220.28C148.299 220.28 148.979 220.98 148.979 222.18V222.82C148.319 222.74 147.799 222.7 147.199 222.7C144.079 222.7 142.399 223.82 142.399 225.9C142.399 227.9 143.879 229.2 146.099 229.2C147.559 229.2 148.619 228.68 149.319 227.68V229ZM145.019 225.82C145.019 224.86 145.799 224.36 147.379 224.36C147.859 224.36 148.319 224.4 148.979 224.5V225.26C148.979 226.5 148.119 227.28 146.699 227.28C145.659 227.28 145.019 226.72 145.019 225.82ZM156.754 223.82C156.754 221.46 158.334 220.9 160.694 221.08V218.2C158.974 218.2 157.314 219.02 156.534 220.38V218.32H153.974V229H156.754V223.82ZM166.7 229.18C169.3 229.18 171.16 227.8 171.76 225.38H169C168.68 226.44 167.86 227.04 166.64 227.04C165.22 227.04 164.38 226.08 164.2 224.34H171.78C172.28 220.86 170.04 218.12 166.66 218.12C163.58 218.12 161.36 220.44 161.36 223.62C161.36 226.96 163.5 229.18 166.7 229.18ZM166.6 220.16C167.92 220.16 168.76 221.1 168.84 222.58H164.24C164.48 221 165.3 220.16 166.6 220.16Z" fill="black"/>
<path d="M180.602 223.18C180.602 221.46 181.542 220.58 182.642 220.58C183.902 220.58 184.522 221.46 184.522 223.04V229H187.282V222.1C187.282 219.52 185.802 218.12 183.662 218.12C182.262 218.12 181.162 218.78 180.382 219.84V218.32H177.822V229H180.602V223.18ZM194.398 229.2C197.498 229.2 199.818 226.76 199.818 223.66C199.818 220.54 197.498 218.12 194.398 218.12C191.298 218.12 188.978 220.54 188.978 223.66C188.978 226.76 191.298 229.2 194.398 229.2ZM194.398 226.74C193.018 226.74 191.838 225.64 191.838 223.66C191.838 221.68 193.018 220.6 194.398 220.6C195.778 220.6 196.958 221.68 196.958 223.66C196.958 225.64 195.778 226.74 194.398 226.74ZM208.036 226.3C207.636 226.52 207.156 226.64 206.636 226.64C205.636 226.64 205.076 226.14 205.076 224.9V220.7H208.136V218.32H205.076V215.16H202.316V218.32H200.156V220.7H202.316V225.54C202.316 227.94 203.696 229.2 205.896 229.2C206.716 229.2 207.356 229.06 208.036 228.72V226.3ZM220.513 224.5C220.513 225.94 219.553 226.74 218.553 226.74C217.433 226.74 216.693 226.08 216.693 224.58V218.32H213.913V225.12C213.913 227.9 215.473 229.2 217.613 229.2C218.973 229.2 220.153 228.54 220.733 227.6V229H223.273V218.32H220.513V224.5ZM234.791 225.58C234.791 224.04 233.731 223.08 231.651 222.68L229.591 222.3C228.631 222.12 228.191 221.86 228.191 221.22C228.191 220.54 228.871 220.16 229.891 220.16C231.071 220.16 231.851 220.8 231.951 221.84H234.611C234.411 219.54 232.571 218.12 229.891 218.12C227.231 218.12 225.531 219.5 225.531 221.48C225.531 223.14 226.691 224.2 228.611 224.54L230.531 224.9C231.551 225.1 231.991 225.38 231.991 226.06C231.991 226.82 231.171 227.16 230.091 227.16C228.711 227.16 227.771 226.46 227.751 225.36H225.091C225.311 227.74 227.011 229.2 230.051 229.2C233.091 229.2 234.791 227.82 234.791 225.58ZM239.909 215.84C239.909 214.86 239.149 214.16 238.049 214.16C236.969 214.16 236.209 214.86 236.209 215.84C236.209 216.78 236.969 217.48 238.049 217.48C239.149 217.48 239.909 216.78 239.909 215.84ZM239.469 229V218.32H236.689V229H239.469ZM244.723 223.18C244.723 221.46 245.663 220.58 246.763 220.58C248.023 220.58 248.643 221.46 248.643 223.04V229H251.403V222.1C251.403 219.52 249.923 218.12 247.783 218.12C246.383 218.12 245.283 218.78 244.503 219.84V218.32H241.943V229H244.723V223.18ZM258.339 233.06C261.499 233.06 263.419 231.34 263.419 228.5V218.32H260.879V219.78C260.099 218.68 259.019 218.12 257.579 218.12C254.939 218.12 253.099 220.26 253.099 223.36C253.099 226.38 255.059 228.6 257.679 228.6C258.979 228.6 260.079 228 260.659 226.98V228.54C260.659 230.08 259.859 230.9 258.319 230.9C256.999 230.9 256.219 230.26 256.099 229.04H253.419C253.539 231.5 255.459 233.06 258.339 233.06ZM255.879 223.36C255.879 221.62 256.799 220.52 258.219 220.52C259.679 220.52 260.639 221.64 260.639 223.38C260.639 225.06 259.679 226.2 258.219 226.2C256.779 226.2 255.879 225.1 255.879 223.36ZM276.867 229H279.407L283.207 219.38V229H285.967V214.64H282.327L278.147 225.28L273.987 214.64H270.347V229H273.107V219.46L276.867 229ZM295.022 229H297.282V222.28C297.282 219.66 295.642 218.12 292.842 218.12C290.262 218.12 288.482 219.72 288.322 222.18H290.822C290.922 220.98 291.642 220.28 292.842 220.28C294.002 220.28 294.682 220.98 294.682 222.18V222.82C294.022 222.74 293.502 222.7 292.902 222.7C289.782 222.7 288.102 223.82 288.102 225.9C288.102 227.9 289.582 229.2 291.802 229.2C293.262 229.2 294.322 228.68 295.022 227.68V229ZM290.722 225.82C290.722 224.86 291.502 224.36 293.082 224.36C293.562 224.36 294.022 224.4 294.682 224.5V225.26C294.682 226.5 293.822 227.28 292.402 227.28C291.362 227.28 290.722 226.72 290.722 225.82ZM304.178 229.2C307.038 229.2 309.038 227.38 309.358 224.44H306.438C306.278 225.9 305.458 226.74 304.178 226.74C302.718 226.74 301.818 225.58 301.818 223.66C301.818 221.76 302.738 220.58 304.178 220.58C305.438 220.58 306.298 221.46 306.438 222.88H309.358C309.018 220 306.958 218.12 304.178 218.12C301.178 218.12 298.978 220.46 298.978 223.66C298.978 226.92 301.098 229.2 304.178 229.2ZM313.922 223.18C313.922 221.46 314.862 220.58 315.962 220.58C317.222 220.58 317.842 221.46 317.842 223.04V229H320.602V222.1C320.602 219.52 319.122 218.12 316.982 218.12C315.582 218.12 314.662 218.74 313.922 219.72V214.64H311.142V229H313.922V223.18ZM326.218 215.84C326.218 214.86 325.458 214.16 324.358 214.16C323.278 214.16 322.518 214.86 322.518 215.84C322.518 216.78 323.278 217.48 324.358 217.48C325.458 217.48 326.218 216.78 326.218 215.84ZM325.778 229V218.32H322.998V229H325.778ZM331.032 223.18C331.032 221.46 331.972 220.58 333.072 220.58C334.332 220.58 334.952 221.46 334.952 223.04V229H337.712V222.1C337.712 219.52 336.232 218.12 334.092 218.12C332.692 218.12 331.592 218.78 330.812 219.84V218.32H328.252V229H331.032V223.18ZM344.747 229.18C347.347 229.18 349.207 227.8 349.807 225.38H347.047C346.727 226.44 345.907 227.04 344.687 227.04C343.267 227.04 342.427 226.08 342.247 224.34H349.827C350.327 220.86 348.087 218.12 344.707 218.12C341.627 218.12 339.407 220.44 339.407 223.62C339.407 226.96 341.547 229.18 344.747 229.18ZM344.647 220.16C345.967 220.16 346.807 221.1 346.887 222.58H342.287C342.527 221 343.347 220.16 344.647 220.16ZM365.389 229V226.26H359.149V214.64H356.109V229H365.389ZM371.642 229.18C374.242 229.18 376.102 227.8 376.702 225.38H373.942C373.622 226.44 372.802 227.04 371.582 227.04C370.162 227.04 369.322 226.08 369.142 224.34H376.722C377.222 220.86 374.982 218.12 371.602 218.12C368.522 218.12 366.302 220.44 366.302 223.62C366.302 226.96 368.442 229.18 371.642 229.18ZM371.542 220.16C372.862 220.16 373.702 221.1 373.782 222.58H369.182C369.422 221 370.242 220.16 371.542 220.16ZM384.944 229H387.204V222.28C387.204 219.66 385.564 218.12 382.764 218.12C380.184 218.12 378.404 219.72 378.244 222.18H380.744C380.844 220.98 381.564 220.28 382.764 220.28C383.924 220.28 384.604 220.98 384.604 222.18V222.82C383.944 222.74 383.424 222.7 382.824 222.7C379.704 222.7 378.024 223.82 378.024 225.9C378.024 227.9 379.504 229.2 381.724 229.2C383.184 229.2 384.244 228.68 384.944 227.68V229ZM380.644 225.82C380.644 224.86 381.424 224.36 383.004 224.36C383.484 224.36 383.944 224.4 384.604 224.5V225.26C384.604 226.5 383.744 227.28 382.324 227.28C381.284 227.28 380.644 226.72 380.644 225.82ZM392.379 223.82C392.379 221.46 393.959 220.9 396.319 221.08V218.2C394.599 218.2 392.939 219.02 392.159 220.38V218.32H389.599V229H392.379V223.82ZM400.543 223.18C400.543 221.46 401.483 220.58 402.583 220.58C403.843 220.58 404.463 221.46 404.463 223.04V229H407.223V222.1C407.223 219.52 405.743 218.12 403.603 218.12C402.203 218.12 401.103 218.78 400.323 219.84V218.32H397.763V229H400.543V223.18ZM412.839 215.84C412.839 214.86 412.079 214.16 410.979 214.16C409.899 214.16 409.139 214.86 409.139 215.84C409.139 216.78 409.899 217.48 410.979 217.48C412.079 217.48 412.839 216.78 412.839 215.84ZM412.399 229V218.32H409.619V229H412.399ZM417.653 223.18C417.653 221.46 418.593 220.58 419.693 220.58C420.953 220.58 421.573 221.46 421.573 223.04V229H424.333V222.1C424.333 219.52 422.853 218.12 420.713 218.12C419.313 218.12 418.213 218.78 417.433 219.84V218.32H414.873V229H417.653V223.18ZM431.268 233.06C434.428 233.06 436.348 231.34 436.348 228.5V218.32H433.808V219.78C433.028 218.68 431.948 218.12 430.508 218.12C427.868 218.12 426.028 220.26 426.028 223.36C426.028 226.38 427.988 228.6 430.608 228.6C431.908 228.6 433.008 228 433.588 226.98V228.54C433.588 230.08 432.788 230.9 431.248 230.9C429.928 230.9 429.148 230.26 429.028 229.04H426.348C426.468 231.5 428.388 233.06 431.268 233.06ZM428.808 223.36C428.808 221.62 429.728 220.52 431.148 220.52C432.608 220.52 433.568 221.64 433.568 223.38C433.568 225.06 432.608 226.2 431.148 226.2C429.708 226.2 428.808 225.1 428.808 223.36Z" fill="#F9614C"/>
<rect x="901" y="450" width="404" height="70" rx="35" fill="white"/>
<path d="M944 497.5C950.875 497.5 956.5 491.875 956.5 485C956.5 478.125 950.875 472.5 944 472.5C937.125 472.5 931.5 478.125 931.5 485C931.5 491.875 937.125 497.5 944 497.5Z" stroke="#F9614C" stroke-width="1.5" stroke-linecap="round" stroke-linejoin="round"/>
<path d="M940.462 488.537L947.537 481.462" stroke="#F9614C" stroke-width="1.5" stroke-linecap="round" stroke-linejoin="round"/>
<path d="M947.537 488.537L940.462 481.462" stroke="#F9614C" stroke-width="1.5" stroke-linecap="round" stroke-linejoin="round"/>
<path d="M981.994 488.54C981.994 486.42 980.634 485.26 978.114 484.76L975.654 484.26C974.614 484.06 973.714 483.64 973.714 482.66C973.714 481.66 974.554 480.82 976.034 480.82C977.554 480.82 978.594 481.84 978.694 483.34H981.774C981.574 480.34 979.214 478.46 975.994 478.46C972.894 478.46 970.634 480.3 970.634 482.86C970.634 485.24 972.314 486.42 974.494 486.84L976.854 487.3C978.074 487.54 978.774 488.08 978.774 488.98C978.774 490.14 977.674 490.82 976.134 490.82C974.274 490.82 973.254 489.8 973.174 488.22H970.094C970.314 491.26 972.574 493.2 976.194 493.2C979.794 493.2 981.994 491.28 981.994 488.54ZM988.716 493.2C991.816 493.2 994.136 490.76 994.136 487.66C994.136 484.54 991.816 482.12 988.716 482.12C985.616 482.12 983.296 484.54 983.296 487.66C983.296 490.76 985.616 493.2 988.716 493.2ZM988.716 490.74C987.336 490.74 986.156 489.64 986.156 487.66C986.156 485.68 987.336 484.6 988.716 484.6C990.096 484.6 991.276 485.68 991.276 487.66C991.276 489.64 990.096 490.74 988.716 490.74ZM998.69 493V487.04C998.69 485.44 999.57 484.58 1000.69 484.58C1001.91 484.58 1002.55 485.48 1002.55 486.98V493H1005.31V487.04C1005.31 485.44 1006.21 484.58 1007.31 484.58C1008.53 484.58 1009.17 485.48 1009.17 486.98V493H1011.93V486.1C1011.93 483.54 1010.47 482.12 1008.31 482.12C1006.71 482.12 1005.63 482.84 1004.79 484.02C1004.25 482.8 1003.13 482.12 1001.67 482.12C1000.25 482.12 999.25 482.76 998.47 483.84V482.32H995.91V493H998.69ZM1018.95 493.18C1021.55 493.18 1023.41 491.8 1024.01 489.38H1021.25C1020.93 490.44 1020.11 491.04 1018.89 491.04C1017.47 491.04 1016.63 490.08 1016.45 488.34H1024.03C1024.53 484.86 1022.29 482.12 1018.91 482.12C1015.83 482.12 1013.61 484.44 1013.61 487.62C1013.61 490.96 1015.75 493.18 1018.95 493.18ZM1018.85 484.16C1020.17 484.16 1021.01 485.1 1021.09 486.58H1016.49C1016.73 485 1017.55 484.16 1018.85 484.16ZM1036.43 493H1038.69V486.28C1038.69 483.66 1037.05 482.12 1034.25 482.12C1031.67 482.12 1029.89 483.72 1029.73 486.18H1032.23C1032.33 484.98 1033.05 484.28 1034.25 484.28C1035.41 484.28 1036.09 484.98 1036.09 486.18V486.82C1035.43 486.74 1034.91 486.7 1034.31 486.7C1031.19 486.7 1029.51 487.82 1029.51 489.9C1029.51 491.9 1030.99 493.2 1033.21 493.2C1034.67 493.2 1035.73 492.68 1036.43 491.68V493ZM1032.13 489.82C1032.13 488.86 1032.91 488.36 1034.49 488.36C1034.97 488.36 1035.43 488.4 1036.09 488.5V489.26C1036.09 490.5 1035.23 491.28 1033.81 491.28C1032.77 491.28 1032.13 490.72 1032.13 489.82ZM1043.87 487.82C1043.87 485.46 1045.45 484.9 1047.81 485.08V482.2C1046.09 482.2 1044.43 483.02 1043.65 484.38V482.32H1041.09V493H1043.87V487.82ZM1053.81 493.18C1056.41 493.18 1058.27 491.8 1058.87 489.38H1056.11C1055.79 490.44 1054.97 491.04 1053.75 491.04C1052.33 491.04 1051.49 490.08 1051.31 488.34H1058.89C1059.39 484.86 1057.15 482.12 1053.77 482.12C1050.69 482.12 1048.47 484.44 1048.47 487.62C1048.47 490.96 1050.61 493.18 1053.81 493.18ZM1053.71 484.16C1055.03 484.16 1055.87 485.1 1055.95 486.58H1051.35C1051.59 485 1052.41 484.16 1053.71 484.16Z" fill="black"/>
<path d="M1067.73 493V478.64H1064.93V493H1067.73ZM1076.59 493H1078.85V486.28C1078.85 483.66 1077.21 482.12 1074.41 482.12C1071.83 482.12 1070.05 483.72 1069.89 486.18H1072.39C1072.49 484.98 1073.21 484.28 1074.41 484.28C1075.57 484.28 1076.25 484.98 1076.25 486.18V486.82C1075.59 486.74 1075.07 486.7 1074.47 486.7C1071.35 486.7 1069.67 487.82 1069.67 489.9C1069.67 491.9 1071.15 493.2 1073.37 493.2C1074.83 493.2 1075.89 492.68 1076.59 491.68V493ZM1072.29 489.82C1072.29 488.86 1073.07 488.36 1074.65 488.36C1075.13 488.36 1075.59 488.4 1076.25 488.5V489.26C1076.25 490.5 1075.39 491.28 1073.97 491.28C1072.93 491.28 1072.29 490.72 1072.29 489.82ZM1085.74 493.2C1088.6 493.2 1090.6 491.38 1090.92 488.44H1088C1087.84 489.9 1087.02 490.74 1085.74 490.74C1084.28 490.74 1083.38 489.58 1083.38 487.66C1083.38 485.76 1084.3 484.58 1085.74 484.58C1087 484.58 1087.86 485.46 1088 486.88H1090.92C1090.58 484 1088.52 482.12 1085.74 482.12C1082.74 482.12 1080.54 484.46 1080.54 487.66C1080.54 490.92 1082.66 493.2 1085.74 493.2ZM1095.49 493V488.04L1099.57 493H1103.11L1098.17 487.44L1102.59 482.32H1099.39L1095.49 486.84V478.64H1092.71V493H1095.49ZM1107.61 479.84C1107.61 478.86 1106.85 478.16 1105.75 478.16C1104.67 478.16 1103.91 478.86 1103.91 479.84C1103.91 480.78 1104.67 481.48 1105.75 481.48C1106.85 481.48 1107.61 480.78 1107.61 479.84ZM1107.17 493V482.32H1104.39V493H1107.17ZM1112.42 487.18C1112.42 485.46 1113.36 484.58 1114.46 484.58C1115.72 484.58 1116.34 485.46 1116.34 487.04V493H1119.1V486.1C1119.1 483.52 1117.62 482.12 1115.48 482.12C1114.08 482.12 1112.98 482.78 1112.2 483.84V482.32H1109.64V493H1112.42V487.18ZM1126.04 497.06C1129.2 497.06 1131.12 495.34 1131.12 492.5V482.32H1128.58V483.78C1127.8 482.68 1126.72 482.12 1125.28 482.12C1122.64 482.12 1120.8 484.26 1120.8 487.36C1120.8 490.38 1122.76 492.6 1125.38 492.6C1126.68 492.6 1127.78 492 1128.36 490.98V492.54C1128.36 494.08 1127.56 494.9 1126.02 494.9C1124.7 494.9 1123.92 494.26 1123.8 493.04H1121.12C1121.24 495.5 1123.16 497.06 1126.04 497.06ZM1123.58 487.36C1123.58 485.62 1124.5 484.52 1125.92 484.52C1127.38 484.52 1128.34 485.64 1128.34 487.38C1128.34 489.06 1127.38 490.2 1125.92 490.2C1124.48 490.2 1123.58 489.1 1123.58 487.36ZM1142.34 497.06C1145.5 497.06 1147.42 495.34 1147.42 492.5V482.32H1144.88V483.78C1144.1 482.68 1143.02 482.12 1141.58 482.12C1138.94 482.12 1137.1 484.26 1137.1 487.36C1137.1 490.38 1139.06 492.6 1141.68 492.6C1142.98 492.6 1144.08 492 1144.66 490.98V492.54C1144.66 494.08 1143.86 494.9 1142.32 494.9C1141 494.9 1140.22 494.26 1140.1 493.04H1137.42C1137.54 495.5 1139.46 497.06 1142.34 497.06ZM1139.88 487.36C1139.88 485.62 1140.8 484.52 1142.22 484.52C1143.68 484.52 1144.64 485.64 1144.64 487.38C1144.64 489.06 1143.68 490.2 1142.22 490.2C1140.78 490.2 1139.88 489.1 1139.88 487.36ZM1154.65 493.2C1157.75 493.2 1160.07 490.76 1160.07 487.66C1160.07 484.54 1157.75 482.12 1154.65 482.12C1151.55 482.12 1149.23 484.54 1149.23 487.66C1149.23 490.76 1151.55 493.2 1154.65 493.2ZM1154.65 490.74C1153.27 490.74 1152.09 489.64 1152.09 487.66C1152.09 485.68 1153.27 484.6 1154.65 484.6C1156.03 484.6 1157.21 485.68 1157.21 487.66C1157.21 489.64 1156.03 490.74 1154.65 490.74ZM1166.57 493.2C1169.67 493.2 1171.99 490.76 1171.99 487.66C1171.99 484.54 1169.67 482.12 1166.57 482.12C1163.47 482.12 1161.15 484.54 1161.15 487.66C1161.15 490.76 1163.47 493.2 1166.57 493.2ZM1166.57 490.74C1165.19 490.74 1164.01 489.64 1164.01 487.66C1164.01 485.68 1165.19 484.6 1166.57 484.6C1167.95 484.6 1169.13 485.68 1169.13 487.66C1169.13 489.64 1167.95 490.74 1166.57 490.74ZM1173.06 487.66C1173.06 490.78 1174.92 493.2 1177.8 493.2C1179.18 493.2 1180.34 492.58 1181.18 491.46V493H1183.72V478.64H1180.96V483.7C1180.16 482.68 1179.08 482.12 1177.8 482.12C1174.92 482.12 1173.06 484.5 1173.06 487.66ZM1175.92 487.66C1175.92 485.62 1177.06 484.58 1178.42 484.58C1179.78 484.58 1180.94 485.6 1180.94 487.62C1180.94 489.64 1179.8 490.72 1178.42 490.72C1177.06 490.72 1175.92 489.66 1175.92 487.66ZM1193.6 479.84C1193.6 478.86 1192.84 478.16 1191.74 478.16C1190.66 478.16 1189.9 478.86 1189.9 479.84C1189.9 480.78 1190.66 481.48 1191.74 481.48C1192.84 481.48 1193.6 480.78 1193.6 479.84ZM1193.16 493V482.32H1190.38V493H1193.16ZM1198.42 487.18C1198.42 485.46 1199.36 484.58 1200.46 484.58C1201.72 484.58 1202.34 485.46 1202.34 487.04V493H1205.1V486.1C1205.1 483.52 1203.62 482.12 1201.48 482.12C1200.08 482.12 1198.98 482.78 1198.2 483.84V482.32H1195.64V493H1198.42V487.18ZM1214.05 490.3C1213.65 490.52 1213.17 490.64 1212.65 490.64C1211.65 490.64 1211.09 490.14 1211.09 488.9V484.7H1214.15V482.32H1211.09V479.16H1208.33V482.32H1206.17V484.7H1208.33V489.54C1208.33 491.94 1209.71 493.2 1211.91 493.2C1212.73 493.2 1213.37 493.06 1214.05 492.72V490.3ZM1220.26 493.18C1222.86 493.18 1224.72 491.8 1225.32 489.38H1222.56C1222.24 490.44 1221.42 491.04 1220.2 491.04C1218.78 491.04 1217.94 490.08 1217.76 488.34H1225.34C1225.84 484.86 1223.6 482.12 1220.22 482.12C1217.14 482.12 1214.92 484.44 1214.92 487.62C1214.92 490.96 1217.06 493.18 1220.26 493.18ZM1220.16 484.16C1221.48 484.16 1222.32 485.1 1222.4 486.58H1217.8C1218.04 485 1218.86 484.16 1220.16 484.16ZM1229.98 487.82C1229.98 485.46 1231.56 484.9 1233.92 485.08V482.2C1232.2 482.2 1230.54 483.02 1229.76 484.38V482.32H1227.2V493H1229.98V487.82ZM1239.75 493V484.7H1242.53V482.32H1239.75V481.8C1239.75 481.06 1240.25 480.76 1241.01 480.76C1241.37 480.76 1241.77 480.82 1242.07 480.94V478.74C1241.61 478.54 1241.03 478.42 1240.35 478.42C1238.13 478.42 1236.99 479.62 1236.99 481.74V482.32H1234.83V484.7H1236.99V493H1239.75ZM1250.08 493H1252.34V486.28C1252.34 483.66 1250.7 482.12 1247.9 482.12C1245.32 482.12 1243.54 483.72 1243.38 486.18H1245.88C1245.98 484.98 1246.7 484.28 1247.9 484.28C1249.06 484.28 1249.74 484.98 1249.74 486.18V486.82C1249.08 486.74 1248.56 486.7 1247.96 486.7C1244.84 486.7 1243.16 487.82 1243.16 489.9C1243.16 491.9 1244.64 493.2 1246.86 493.2C1248.32 493.2 1249.38 492.68 1250.08 491.68V493ZM1245.78 489.82C1245.78 488.86 1246.56 488.36 1248.14 488.36C1248.62 488.36 1249.08 488.4 1249.74 488.5V489.26C1249.74 490.5 1248.88 491.28 1247.46 491.28C1246.42 491.28 1245.78 490.72 1245.78 489.82ZM1259.24 493.2C1262.1 493.2 1264.1 491.38 1264.42 488.44H1261.5C1261.34 489.9 1260.52 490.74 1259.24 490.74C1257.78 490.74 1256.88 489.58 1256.88 487.66C1256.88 485.76 1257.8 484.58 1259.24 484.58C1260.5 484.58 1261.36 485.46 1261.5 486.88H1264.42C1264.08 484 1262.02 482.12 1259.24 482.12C1256.24 482.12 1254.04 484.46 1254.04 487.66C1254.04 490.92 1256.16 493.2 1259.24 493.2ZM1270.8 493.18C1273.4 493.18 1275.26 491.8 1275.86 489.38H1273.1C1272.78 490.44 1271.96 491.04 1270.74 491.04C1269.32 491.04 1268.48 490.08 1268.3 488.34H1275.88C1276.38 484.86 1274.14 482.12 1270.76 482.12C1267.68 482.12 1265.46 484.44 1265.46 487.62C1265.46 490.96 1267.6 493.18 1270.8 493.18ZM1270.7 484.16C1272.02 484.16 1272.86 485.1 1272.94 486.58H1268.34C1268.58 485 1269.4 484.16 1270.7 484.16Z" fill="#F9614C"/>
<rect x="84" y="441" width="400" height="70" rx="35" fill="white"/>
<path d="M127 488.5C133.875 488.5 139.5 482.875 139.5 476C139.5 469.125 133.875 463.5 127 463.5C120.125 463.5 114.5 469.125 114.5 476C114.5 482.875 120.125 488.5 127 488.5Z" stroke="#F9614C" stroke-width="1.5" stroke-linecap="round" stroke-linejoin="round"/>
<path d="M123.462 479.537L130.537 472.462" stroke="#F9614C" stroke-width="1.5" stroke-linecap="round" stroke-linejoin="round"/>
<path d="M130.537 479.537L123.462 472.462" stroke="#F9614C" stroke-width="1.5" stroke-linecap="round" stroke-linejoin="round"/>
<path d="M164.664 479.54C164.664 477.42 163.304 476.26 160.784 475.76L158.324 475.26C157.284 475.06 156.384 474.64 156.384 473.66C156.384 472.66 157.224 471.82 158.704 471.82C160.224 471.82 161.264 472.84 161.364 474.34H164.444C164.244 471.34 161.884 469.46 158.664 469.46C155.564 469.46 153.304 471.3 153.304 473.86C153.304 476.24 154.984 477.42 157.164 477.84L159.524 478.3C160.744 478.54 161.444 479.08 161.444 479.98C161.444 481.14 160.344 481.82 158.804 481.82C156.944 481.82 155.924 480.8 155.844 479.22H152.764C152.984 482.26 155.244 484.2 158.864 484.2C162.464 484.2 164.664 482.28 164.664 479.54ZM171.386 484.2C174.486 484.2 176.806 481.76 176.806 478.66C176.806 475.54 174.486 473.12 171.386 473.12C168.286 473.12 165.966 475.54 165.966 478.66C165.966 481.76 168.286 484.2 171.386 484.2ZM171.386 481.74C170.006 481.74 168.826 480.64 168.826 478.66C168.826 476.68 170.006 475.6 171.386 475.6C172.766 475.6 173.946 476.68 173.946 478.66C173.946 480.64 172.766 481.74 171.386 481.74ZM181.36 484V478.04C181.36 476.44 182.24 475.58 183.36 475.58C184.58 475.58 185.22 476.48 185.22 477.98V484H187.98V478.04C187.98 476.44 188.88 475.58 189.98 475.58C191.2 475.58 191.84 476.48 191.84 477.98V484H194.6V477.1C194.6 474.54 193.14 473.12 190.98 473.12C189.38 473.12 188.3 473.84 187.46 475.02C186.92 473.8 185.8 473.12 184.34 473.12C182.92 473.12 181.92 473.76 181.14 474.84V473.32H178.58V484H181.36ZM201.618 484.18C204.218 484.18 206.078 482.8 206.678 480.38H203.918C203.598 481.44 202.778 482.04 201.558 482.04C200.138 482.04 199.298 481.08 199.118 479.34H206.698C207.198 475.86 204.958 473.12 201.578 473.12C198.498 473.12 196.278 475.44 196.278 478.62C196.278 481.96 198.418 484.18 201.618 484.18ZM201.518 475.16C202.838 475.16 203.678 476.1 203.758 477.58H199.158C199.398 476 200.218 475.16 201.518 475.16ZM219.1 484H221.36V477.28C221.36 474.66 219.72 473.12 216.92 473.12C214.34 473.12 212.56 474.72 212.4 477.18H214.9C215 475.98 215.72 475.28 216.92 475.28C218.08 475.28 218.76 475.98 218.76 477.18V477.82C218.1 477.74 217.58 477.7 216.98 477.7C213.86 477.7 212.18 478.82 212.18 480.9C212.18 482.9 213.66 484.2 215.88 484.2C217.34 484.2 218.4 483.68 219.1 482.68V484ZM214.8 480.82C214.8 479.86 215.58 479.36 217.16 479.36C217.64 479.36 218.1 479.4 218.76 479.5V480.26C218.76 481.5 217.9 482.28 216.48 482.28C215.44 482.28 214.8 481.72 214.8 480.82ZM226.536 478.82C226.536 476.46 228.116 475.9 230.476 476.08V473.2C228.756 473.2 227.096 474.02 226.316 475.38V473.32H223.756V484H226.536V478.82ZM236.482 484.18C239.082 484.18 240.942 482.8 241.542 480.38H238.782C238.462 481.44 237.642 482.04 236.422 482.04C235.002 482.04 234.162 481.08 233.982 479.34H241.562C242.062 475.86 239.822 473.12 236.442 473.12C233.362 473.12 231.142 475.44 231.142 478.62C231.142 481.96 233.282 484.18 236.482 484.18ZM236.382 475.16C237.702 475.16 238.542 476.1 238.622 477.58H234.022C234.262 476 235.082 475.16 236.382 475.16Z" fill="black"/>
<path d="M250.403 484V469.64H247.603V484H250.403ZM259.256 484H261.516V477.28C261.516 474.66 259.876 473.12 257.076 473.12C254.496 473.12 252.716 474.72 252.556 477.18H255.056C255.156 475.98 255.876 475.28 257.076 475.28C258.236 475.28 258.916 475.98 258.916 477.18V477.82C258.256 477.74 257.736 477.7 257.136 477.7C254.016 477.7 252.336 478.82 252.336 480.9C252.336 482.9 253.816 484.2 256.036 484.2C257.496 484.2 258.556 483.68 259.256 482.68V484ZM254.956 480.82C254.956 479.86 255.736 479.36 257.316 479.36C257.796 479.36 258.256 479.4 258.916 479.5V480.26C258.916 481.5 258.056 482.28 256.636 482.28C255.596 482.28 254.956 481.72 254.956 480.82ZM268.412 484.2C271.272 484.2 273.272 482.38 273.592 479.44H270.672C270.512 480.9 269.692 481.74 268.412 481.74C266.952 481.74 266.052 480.58 266.052 478.66C266.052 476.76 266.972 475.58 268.412 475.58C269.672 475.58 270.532 476.46 270.672 477.88H273.592C273.252 475 271.192 473.12 268.412 473.12C265.412 473.12 263.212 475.46 263.212 478.66C263.212 481.92 265.332 484.2 268.412 484.2ZM278.157 484V479.04L282.237 484H285.777L280.837 478.44L285.257 473.32H282.057L278.157 477.84V469.64H275.377V484H278.157ZM290.276 470.84C290.276 469.86 289.516 469.16 288.416 469.16C287.336 469.16 286.576 469.86 286.576 470.84C286.576 471.78 287.336 472.48 288.416 472.48C289.516 472.48 290.276 471.78 290.276 470.84ZM289.836 484V473.32H287.056V484H289.836ZM295.09 478.18C295.09 476.46 296.03 475.58 297.13 475.58C298.39 475.58 299.01 476.46 299.01 478.04V484H301.77V477.1C301.77 474.52 300.29 473.12 298.15 473.12C296.75 473.12 295.65 473.78 294.87 474.84V473.32H292.31V484H295.09V478.18ZM308.706 488.06C311.866 488.06 313.786 486.34 313.786 483.5V473.32H311.246V474.78C310.466 473.68 309.386 473.12 307.946 473.12C305.306 473.12 303.466 475.26 303.466 478.36C303.466 481.38 305.426 483.6 308.046 483.6C309.346 483.6 310.446 483 311.026 481.98V483.54C311.026 485.08 310.226 485.9 308.686 485.9C307.366 485.9 306.586 485.26 306.466 484.04H303.786C303.906 486.5 305.826 488.06 308.706 488.06ZM306.246 478.36C306.246 476.62 307.166 475.52 308.586 475.52C310.046 475.52 311.006 476.64 311.006 478.38C311.006 480.06 310.046 481.2 308.586 481.2C307.146 481.2 306.246 480.1 306.246 478.36ZM324.974 484.2C327.834 484.2 329.834 482.38 330.154 479.44H327.234C327.074 480.9 326.254 481.74 324.974 481.74C323.514 481.74 322.614 480.58 322.614 478.66C322.614 476.76 323.534 475.58 324.974 475.58C326.234 475.58 327.094 476.46 327.234 477.88H330.154C329.814 475 327.754 473.12 324.974 473.12C321.974 473.12 319.774 475.46 319.774 478.66C319.774 481.92 321.894 484.2 324.974 484.2ZM338.439 479.5C338.439 480.94 337.479 481.74 336.479 481.74C335.359 481.74 334.619 481.08 334.619 479.58V473.32H331.839V480.12C331.839 482.9 333.399 484.2 335.539 484.2C336.899 484.2 338.079 483.54 338.659 482.6V484H341.199V473.32H338.439V479.5ZM352.717 480.58C352.717 479.04 351.657 478.08 349.577 477.68L347.517 477.3C346.557 477.12 346.117 476.86 346.117 476.22C346.117 475.54 346.797 475.16 347.817 475.16C348.997 475.16 349.777 475.8 349.877 476.84H352.537C352.337 474.54 350.497 473.12 347.817 473.12C345.157 473.12 343.457 474.5 343.457 476.48C343.457 478.14 344.617 479.2 346.537 479.54L348.457 479.9C349.477 480.1 349.917 480.38 349.917 481.06C349.917 481.82 349.097 482.16 348.017 482.16C346.637 482.16 345.697 481.46 345.677 480.36H343.017C343.237 482.74 344.937 484.2 347.977 484.2C351.017 484.2 352.717 482.82 352.717 480.58ZM361.04 481.3C360.64 481.52 360.16 481.64 359.64 481.64C358.64 481.64 358.08 481.14 358.08 479.9V475.7H361.14V473.32H358.08V470.16H355.32V473.32H353.16V475.7H355.32V480.54C355.32 482.94 356.7 484.2 358.9 484.2C359.72 484.2 360.36 484.06 361.04 483.72V481.3ZM367.323 484.2C370.423 484.2 372.743 481.76 372.743 478.66C372.743 475.54 370.423 473.12 367.323 473.12C364.223 473.12 361.903 475.54 361.903 478.66C361.903 481.76 364.223 484.2 367.323 484.2ZM367.323 481.74C365.943 481.74 364.763 480.64 364.763 478.66C364.763 476.68 365.943 475.6 367.323 475.6C368.703 475.6 369.883 476.68 369.883 478.66C369.883 480.64 368.703 481.74 367.323 481.74ZM377.297 484V478.04C377.297 476.44 378.177 475.58 379.297 475.58C380.517 475.58 381.157 476.48 381.157 477.98V484H383.917V478.04C383.917 476.44 384.817 475.58 385.917 475.58C387.137 475.58 387.777 476.48 387.777 477.98V484H390.537V477.1C390.537 474.54 389.077 473.12 386.917 473.12C385.317 473.12 384.237 473.84 383.397 475.02C382.857 473.8 381.737 473.12 380.277 473.12C378.857 473.12 377.857 473.76 377.077 474.84V473.32H374.517V484H377.297ZM396.136 470.84C396.136 469.86 395.376 469.16 394.276 469.16C393.196 469.16 392.436 469.86 392.436 470.84C392.436 471.78 393.196 472.48 394.276 472.48C395.376 472.48 396.136 471.78 396.136 470.84ZM395.696 484V473.32H392.916V484H395.696ZM406.81 484V481.58H401.13L406.65 475.6V473.32H397.69V475.72H403.21L397.71 481.76V484H406.81ZM415.116 484H417.376V477.28C417.376 474.66 415.736 473.12 412.936 473.12C410.356 473.12 408.576 474.72 408.416 477.18H410.916C411.016 475.98 411.736 475.28 412.936 475.28C414.096 475.28 414.776 475.98 414.776 477.18V477.82C414.116 477.74 413.596 477.7 412.996 477.7C409.876 477.7 408.196 478.82 408.196 480.9C408.196 482.9 409.676 484.2 411.896 484.2C413.356 484.2 414.416 483.68 415.116 482.68V484ZM410.816 480.82C410.816 479.86 411.596 479.36 413.176 479.36C413.656 479.36 414.116 479.4 414.776 479.5V480.26C414.776 481.5 413.916 482.28 412.496 482.28C411.456 482.28 410.816 481.72 410.816 480.82ZM426.255 481.3C425.855 481.52 425.375 481.64 424.855 481.64C423.855 481.64 423.295 481.14 423.295 479.9V475.7H426.355V473.32H423.295V470.16H420.535V473.32H418.375V475.7H420.535V480.54C420.535 482.94 421.915 484.2 424.115 484.2C424.935 484.2 425.575 484.06 426.255 483.72V481.3ZM431.273 470.84C431.273 469.86 430.513 469.16 429.413 469.16C428.333 469.16 427.573 469.86 427.573 470.84C427.573 471.78 428.333 472.48 429.413 472.48C430.513 472.48 431.273 471.78 431.273 470.84ZM430.833 484V473.32H428.053V484H430.833ZM438.026 484.2C441.126 484.2 443.446 481.76 443.446 478.66C443.446 475.54 441.126 473.12 438.026 473.12C434.926 473.12 432.606 475.54 432.606 478.66C432.606 481.76 434.926 484.2 438.026 484.2ZM438.026 481.74C436.646 481.74 435.466 480.64 435.466 478.66C435.466 476.68 436.646 475.6 438.026 475.6C439.406 475.6 440.586 476.68 440.586 478.66C440.586 480.64 439.406 481.74 438.026 481.74ZM448 478.18C448 476.46 448.94 475.58 450.04 475.58C451.3 475.58 451.92 476.46 451.92 478.04V484H454.68V477.1C454.68 474.52 453.2 473.12 451.06 473.12C449.66 473.12 448.56 473.78 447.78 474.84V473.32H445.22V484H448V478.18Z" fill="#F9614C"/>
</svg>
