<svg width="1440" height="720" viewBox="0 0 1440 720" fill="none" xmlns="http://www.w3.org/2000/svg">
<rect x="506" y="568" width="399" height="70" rx="35" fill="white"/>
<path d="M549 615.5C555.875 615.5 561.5 609.875 561.5 603C561.5 596.125 555.875 590.5 549 590.5C542.125 590.5 536.5 596.125 536.5 603C536.5 609.875 542.125 615.5 549 615.5Z" stroke="#F9614C" stroke-width="1.5" stroke-linecap="round" stroke-linejoin="round"/>
<path d="M545.462 606.537L552.537 599.462" stroke="#F9614C" stroke-width="1.5" stroke-linecap="round" stroke-linejoin="round"/>
<path d="M552.537 606.537L545.462 599.462" stroke="#F9614C" stroke-width="1.5" stroke-linecap="round" stroke-linejoin="round"/>
<path d="M586.994 606.54C586.994 604.42 585.634 603.26 583.114 602.76L580.654 602.26C579.614 602.06 578.714 601.64 578.714 600.66C578.714 599.66 579.554 598.82 581.034 598.82C582.554 598.82 583.594 599.84 583.694 601.34H586.774C586.574 598.34 584.214 596.46 580.994 596.46C577.894 596.46 575.634 598.3 575.634 600.86C575.634 603.24 577.314 604.42 579.494 604.84L581.854 605.3C583.074 605.54 583.774 606.08 583.774 606.98C583.774 608.14 582.674 608.82 581.134 608.82C579.274 608.82 578.254 607.8 578.174 606.22H575.094C575.314 609.26 577.574 611.2 581.194 611.2C584.794 611.2 586.994 609.28 586.994 606.54ZM593.716 611.2C596.816 611.2 599.136 608.76 599.136 605.66C599.136 602.54 596.816 600.12 593.716 600.12C590.616 600.12 588.296 602.54 588.296 605.66C588.296 608.76 590.616 611.2 593.716 611.2ZM593.716 608.74C592.336 608.74 591.156 607.64 591.156 605.66C591.156 603.68 592.336 602.6 593.716 602.6C595.096 602.6 596.276 603.68 596.276 605.66C596.276 607.64 595.096 608.74 593.716 608.74ZM603.69 611V605.04C603.69 603.44 604.57 602.58 605.69 602.58C606.91 602.58 607.55 603.48 607.55 604.98V611H610.31V605.04C610.31 603.44 611.21 602.58 612.31 602.58C613.53 602.58 614.17 603.48 614.17 604.98V611H616.93V604.1C616.93 601.54 615.47 600.12 613.31 600.12C611.71 600.12 610.63 600.84 609.79 602.02C609.25 600.8 608.13 600.12 606.67 600.12C605.25 600.12 604.25 600.76 603.47 601.84V600.32H600.91V611H603.69ZM623.948 611.18C626.548 611.18 628.408 609.8 629.008 607.38H626.248C625.928 608.44 625.108 609.04 623.888 609.04C622.468 609.04 621.628 608.08 621.448 606.34H629.028C629.528 602.86 627.288 600.12 623.908 600.12C620.828 600.12 618.608 602.44 618.608 605.62C618.608 608.96 620.748 611.18 623.948 611.18ZM623.848 602.16C625.168 602.16 626.008 603.1 626.088 604.58H621.488C621.728 603 622.548 602.16 623.848 602.16ZM641.43 611H643.69V604.28C643.69 601.66 642.05 600.12 639.25 600.12C636.67 600.12 634.89 601.72 634.73 604.18H637.23C637.33 602.98 638.05 602.28 639.25 602.28C640.41 602.28 641.09 602.98 641.09 604.18V604.82C640.43 604.74 639.91 604.7 639.31 604.7C636.19 604.7 634.51 605.82 634.51 607.9C634.51 609.9 635.99 611.2 638.21 611.2C639.67 611.2 640.73 610.68 641.43 609.68V611ZM637.13 607.82C637.13 606.86 637.91 606.36 639.49 606.36C639.97 606.36 640.43 606.4 641.09 606.5V607.26C641.09 608.5 640.23 609.28 638.81 609.28C637.77 609.28 637.13 608.72 637.13 607.82ZM648.866 605.82C648.866 603.46 650.446 602.9 652.806 603.08V600.2C651.086 600.2 649.426 601.02 648.646 602.38V600.32H646.086V611H648.866V605.82ZM658.812 611.18C661.412 611.18 663.272 609.8 663.872 607.38H661.112C660.792 608.44 659.972 609.04 658.752 609.04C657.332 609.04 656.492 608.08 656.312 606.34H663.892C664.392 602.86 662.152 600.12 658.772 600.12C655.692 600.12 653.472 602.44 653.472 605.62C653.472 608.96 655.612 611.18 658.812 611.18ZM658.712 602.16C660.032 602.16 660.872 603.1 660.952 604.58H656.352C656.592 603 657.412 602.16 658.712 602.16Z" fill="black"/>
<path d="M674.653 611.2C677.753 611.2 680.073 608.76 680.073 605.66C680.073 602.54 677.753 600.12 674.653 600.12C671.553 600.12 669.233 602.54 669.233 605.66C669.233 608.76 671.553 611.2 674.653 611.2ZM674.653 608.74C673.273 608.74 672.093 607.64 672.093 605.66C672.093 603.68 673.273 602.6 674.653 602.6C676.033 602.6 677.213 603.68 677.213 605.66C677.213 607.64 676.033 608.74 674.653 608.74ZM684.627 605.18C684.627 603.46 685.567 602.58 686.667 602.58C687.927 602.58 688.547 603.46 688.547 605.04V611H691.307V604.1C691.307 601.52 689.827 600.12 687.687 600.12C686.287 600.12 685.187 600.78 684.407 601.84V600.32H681.847V611H684.627V605.18ZM696.503 611V596.64H693.703V611H696.503ZM708.616 600.32H705.836L703.396 607.64L700.716 600.32H697.716L701.916 610.88L700.396 614.86H703.416L708.616 600.32ZM724.675 605.66C724.675 602.52 722.815 600.12 719.935 600.12C718.575 600.12 717.395 600.74 716.575 601.88V600.32H714.015V614.86H716.795V609.62C717.595 610.66 718.675 611.2 719.935 611.2C722.815 611.2 724.675 608.82 724.675 605.66ZM721.815 605.66C721.815 607.7 720.675 608.72 719.315 608.72C717.955 608.72 716.815 607.68 716.815 605.66C716.815 603.64 717.955 602.58 719.315 602.58C720.675 602.58 721.815 603.66 721.815 605.66ZM729.257 611V596.64H726.457V611H729.257ZM738.11 611H740.37V604.28C740.37 601.66 738.73 600.12 735.93 600.12C733.35 600.12 731.57 601.72 731.41 604.18H733.91C734.01 602.98 734.73 602.28 735.93 602.28C737.09 602.28 737.77 602.98 737.77 604.18V604.82C737.11 604.74 736.59 604.7 735.99 604.7C732.87 604.7 731.19 605.82 731.19 607.9C731.19 609.9 732.67 611.2 734.89 611.2C736.35 611.2 737.41 610.68 738.11 609.68V611ZM733.81 607.82C733.81 606.86 734.59 606.36 736.17 606.36C736.65 606.36 737.11 606.4 737.77 606.5V607.26C737.77 608.5 736.91 609.28 735.49 609.28C734.45 609.28 733.81 608.72 733.81 607.82ZM749.249 608.3C748.849 608.52 748.369 608.64 747.849 608.64C746.849 608.64 746.289 608.14 746.289 606.9V602.7H749.349V600.32H746.289V597.16H743.529V600.32H741.369V602.7H743.529V607.54C743.529 609.94 744.909 611.2 747.109 611.2C747.929 611.2 748.569 611.06 749.249 610.72V608.3ZM755.002 611V602.7H757.782V600.32H755.002V599.8C755.002 599.06 755.502 598.76 756.262 598.76C756.622 598.76 757.022 598.82 757.322 598.94V596.74C756.862 596.54 756.282 596.42 755.602 596.42C753.382 596.42 752.242 597.62 752.242 599.74V600.32H750.082V602.7H752.242V611H755.002ZM763.638 611.2C766.738 611.2 769.058 608.76 769.058 605.66C769.058 602.54 766.738 600.12 763.638 600.12C760.538 600.12 758.218 602.54 758.218 605.66C758.218 608.76 760.538 611.2 763.638 611.2ZM763.638 608.74C762.258 608.74 761.078 607.64 761.078 605.66C761.078 603.68 762.258 602.6 763.638 602.6C765.018 602.6 766.198 603.68 766.198 605.66C766.198 607.64 765.018 608.74 763.638 608.74ZM773.612 605.82C773.612 603.46 775.192 602.9 777.552 603.08V600.2C775.832 600.2 774.172 601.02 773.392 602.38V600.32H770.832V611H773.612V605.82ZM781.776 611V605.04C781.776 603.44 782.656 602.58 783.776 602.58C784.996 602.58 785.636 603.48 785.636 604.98V611H788.396V605.04C788.396 603.44 789.296 602.58 790.396 602.58C791.616 602.58 792.256 603.48 792.256 604.98V611H795.016V604.1C795.016 601.54 793.556 600.12 791.396 600.12C789.796 600.12 788.716 600.84 787.876 602.02C787.336 600.8 786.216 600.12 784.756 600.12C783.336 600.12 782.336 600.76 781.556 601.84V600.32H778.996V611H781.776ZM810.594 607.58C810.594 606.04 809.534 605.08 807.454 604.68L805.394 604.3C804.434 604.12 803.994 603.86 803.994 603.22C803.994 602.54 804.674 602.16 805.694 602.16C806.874 602.16 807.654 602.8 807.754 603.84H810.414C810.214 601.54 808.374 600.12 805.694 600.12C803.034 600.12 801.334 601.5 801.334 603.48C801.334 605.14 802.494 606.2 804.414 606.54L806.334 606.9C807.354 607.1 807.794 607.38 807.794 608.06C807.794 608.82 806.974 609.16 805.894 609.16C804.514 609.16 803.574 608.46 803.554 607.36H800.894C801.114 609.74 802.814 611.2 805.854 611.2C808.894 611.2 810.594 609.82 810.594 607.58ZM823.152 605.66C823.152 602.52 821.292 600.12 818.412 600.12C817.052 600.12 815.872 600.74 815.052 601.88V600.32H812.492V614.86H815.272V609.62C816.072 610.66 817.152 611.2 818.412 611.2C821.292 611.2 823.152 608.82 823.152 605.66ZM820.292 605.66C820.292 607.7 819.152 608.72 817.792 608.72C816.432 608.72 815.292 607.68 815.292 605.66C815.292 603.64 816.432 602.58 817.792 602.58C819.152 602.58 820.292 603.66 820.292 605.66ZM829.573 611.18C832.173 611.18 834.033 609.8 834.633 607.38H831.873C831.553 608.44 830.733 609.04 829.513 609.04C828.093 609.04 827.253 608.08 827.073 606.34H834.653C835.153 602.86 832.913 600.12 829.533 600.12C826.453 600.12 824.233 602.44 824.233 605.62C824.233 608.96 826.373 611.18 829.573 611.18ZM829.473 602.16C830.793 602.16 831.633 603.1 831.713 604.58H827.113C827.353 603 828.173 602.16 829.473 602.16ZM840.82 611.2C843.68 611.2 845.68 609.38 846 606.44H843.08C842.92 607.9 842.1 608.74 840.82 608.74C839.36 608.74 838.46 607.58 838.46 605.66C838.46 603.76 839.38 602.58 840.82 602.58C842.08 602.58 842.94 603.46 843.08 604.88H846C845.66 602 843.6 600.12 840.82 600.12C837.82 600.12 835.62 602.46 835.62 605.66C835.62 608.92 837.74 611.2 840.82 611.2ZM851.005 597.84C851.005 596.86 850.245 596.16 849.145 596.16C848.065 596.16 847.305 596.86 847.305 597.84C847.305 598.78 848.065 599.48 849.145 599.48C850.245 599.48 851.005 598.78 851.005 597.84ZM850.565 611V600.32H847.785V611H850.565ZM864.239 597.84C864.239 596.86 863.479 596.16 862.379 596.16C861.279 596.16 860.519 596.86 860.519 597.84C860.519 598.78 861.279 599.48 862.379 599.48C863.479 599.48 864.239 598.78 864.239 597.84ZM856.819 611V602.7H859.599V600.32H856.819V599.8C856.819 599.06 857.319 598.76 858.079 598.76C858.439 598.76 858.839 598.82 859.139 598.94V596.74C858.679 596.54 858.099 596.42 857.419 596.42C855.199 596.42 854.059 597.62 854.059 599.74V600.32H851.899V602.7H854.059V611H856.819ZM863.779 611V600.32H861.019V611H863.779ZM870.781 611.2C873.641 611.2 875.641 609.38 875.961 606.44H873.041C872.881 607.9 872.061 608.74 870.781 608.74C869.321 608.74 868.421 607.58 868.421 605.66C868.421 603.76 869.341 602.58 870.781 602.58C872.041 602.58 872.901 603.46 873.041 604.88H875.961C875.621 602 873.561 600.12 870.781 600.12C867.781 600.12 865.581 602.46 865.581 605.66C865.581 608.92 867.701 611.2 870.781 611.2Z" fill="#F9614C"/>
<rect x="512" y="83" width="399" height="70" rx="35" fill="white"/>
<path d="M555 130.5C561.875 130.5 567.5 124.875 567.5 118C567.5 111.125 561.875 105.5 555 105.5C548.125 105.5 542.5 111.125 542.5 118C542.5 124.875 548.125 130.5 555 130.5Z" stroke="#F9614C" stroke-width="1.5" stroke-linecap="round" stroke-linejoin="round"/>
<path d="M551.462 121.537L558.537 114.462" stroke="#F9614C" stroke-width="1.5" stroke-linecap="round" stroke-linejoin="round"/>
<path d="M558.537 121.537L551.462 114.462" stroke="#F9614C" stroke-width="1.5" stroke-linecap="round" stroke-linejoin="round"/>
<path d="M592.994 121.54C592.994 119.42 591.634 118.26 589.114 117.76L586.654 117.26C585.614 117.06 584.714 116.64 584.714 115.66C584.714 114.66 585.554 113.82 587.034 113.82C588.554 113.82 589.594 114.84 589.694 116.34H592.774C592.574 113.34 590.214 111.46 586.994 111.46C583.894 111.46 581.634 113.3 581.634 115.86C581.634 118.24 583.314 119.42 585.494 119.84L587.854 120.3C589.074 120.54 589.774 121.08 589.774 121.98C589.774 123.14 588.674 123.82 587.134 123.82C585.274 123.82 584.254 122.8 584.174 121.22H581.094C581.314 124.26 583.574 126.2 587.194 126.2C590.794 126.2 592.994 124.28 592.994 121.54ZM599.716 126.2C602.816 126.2 605.136 123.76 605.136 120.66C605.136 117.54 602.816 115.12 599.716 115.12C596.616 115.12 594.296 117.54 594.296 120.66C594.296 123.76 596.616 126.2 599.716 126.2ZM599.716 123.74C598.336 123.74 597.156 122.64 597.156 120.66C597.156 118.68 598.336 117.6 599.716 117.6C601.096 117.6 602.276 118.68 602.276 120.66C602.276 122.64 601.096 123.74 599.716 123.74ZM609.69 126V120.04C609.69 118.44 610.57 117.58 611.69 117.58C612.91 117.58 613.55 118.48 613.55 119.98V126H616.31V120.04C616.31 118.44 617.21 117.58 618.31 117.58C619.53 117.58 620.17 118.48 620.17 119.98V126H622.93V119.1C622.93 116.54 621.47 115.12 619.31 115.12C617.71 115.12 616.63 115.84 615.79 117.02C615.25 115.8 614.13 115.12 612.67 115.12C611.25 115.12 610.25 115.76 609.47 116.84V115.32H606.91V126H609.69ZM629.948 126.18C632.548 126.18 634.408 124.8 635.008 122.38H632.248C631.928 123.44 631.108 124.04 629.888 124.04C628.468 124.04 627.628 123.08 627.448 121.34H635.028C635.528 117.86 633.288 115.12 629.908 115.12C626.828 115.12 624.608 117.44 624.608 120.62C624.608 123.96 626.748 126.18 629.948 126.18ZM629.848 117.16C631.168 117.16 632.008 118.1 632.088 119.58H627.488C627.728 118 628.548 117.16 629.848 117.16ZM647.43 126H649.69V119.28C649.69 116.66 648.05 115.12 645.25 115.12C642.67 115.12 640.89 116.72 640.73 119.18H643.23C643.33 117.98 644.05 117.28 645.25 117.28C646.41 117.28 647.09 117.98 647.09 119.18V119.82C646.43 119.74 645.91 119.7 645.31 119.7C642.19 119.7 640.51 120.82 640.51 122.9C640.51 124.9 641.99 126.2 644.21 126.2C645.67 126.2 646.73 125.68 647.43 124.68V126ZM643.13 122.82C643.13 121.86 643.91 121.36 645.49 121.36C645.97 121.36 646.43 121.4 647.09 121.5V122.26C647.09 123.5 646.23 124.28 644.81 124.28C643.77 124.28 643.13 123.72 643.13 122.82ZM654.866 120.82C654.866 118.46 656.446 117.9 658.806 118.08V115.2C657.086 115.2 655.426 116.02 654.646 117.38V115.32H652.086V126H654.866V120.82ZM664.812 126.18C667.412 126.18 669.272 124.8 669.872 122.38H667.112C666.792 123.44 665.972 124.04 664.752 124.04C663.332 124.04 662.492 123.08 662.312 121.34H669.892C670.392 117.86 668.152 115.12 664.772 115.12C661.692 115.12 659.472 117.44 659.472 120.62C659.472 123.96 661.612 126.18 664.812 126.18ZM664.712 117.16C666.032 117.16 666.872 118.1 666.952 119.58H662.352C662.592 118 663.412 117.16 664.712 117.16Z" fill="black"/>
<path d="M680.653 126.2C683.753 126.2 686.073 123.76 686.073 120.66C686.073 117.54 683.753 115.12 680.653 115.12C677.553 115.12 675.233 117.54 675.233 120.66C675.233 123.76 677.553 126.2 680.653 126.2ZM680.653 123.74C679.273 123.74 678.093 122.64 678.093 120.66C678.093 118.68 679.273 117.6 680.653 117.6C682.033 117.6 683.213 118.68 683.213 120.66C683.213 122.64 682.033 123.74 680.653 123.74ZM690.627 120.18C690.627 118.46 691.567 117.58 692.667 117.58C693.927 117.58 694.547 118.46 694.547 120.04V126H697.307V119.1C697.307 116.52 695.827 115.12 693.687 115.12C692.287 115.12 691.187 115.78 690.407 116.84V115.32H687.847V126H690.627V120.18ZM702.503 126V111.64H699.703V126H702.503ZM714.616 115.32H711.836L709.396 122.64L706.716 115.32H703.716L707.916 125.88L706.396 129.86H709.416L714.616 115.32ZM730.675 120.66C730.675 117.52 728.815 115.12 725.935 115.12C724.575 115.12 723.395 115.74 722.575 116.88V115.32H720.015V129.86H722.795V124.62C723.595 125.66 724.675 126.2 725.935 126.2C728.815 126.2 730.675 123.82 730.675 120.66ZM727.815 120.66C727.815 122.7 726.675 123.72 725.315 123.72C723.955 123.72 722.815 122.68 722.815 120.66C722.815 118.64 723.955 117.58 725.315 117.58C726.675 117.58 727.815 118.66 727.815 120.66ZM735.257 126V111.64H732.457V126H735.257ZM744.11 126H746.37V119.28C746.37 116.66 744.73 115.12 741.93 115.12C739.35 115.12 737.57 116.72 737.41 119.18H739.91C740.01 117.98 740.73 117.28 741.93 117.28C743.09 117.28 743.77 117.98 743.77 119.18V119.82C743.11 119.74 742.59 119.7 741.99 119.7C738.87 119.7 737.19 120.82 737.19 122.9C737.19 124.9 738.67 126.2 740.89 126.2C742.35 126.2 743.41 125.68 744.11 124.68V126ZM739.81 122.82C739.81 121.86 740.59 121.36 742.17 121.36C742.65 121.36 743.11 121.4 743.77 121.5V122.26C743.77 123.5 742.91 124.28 741.49 124.28C740.45 124.28 739.81 123.72 739.81 122.82ZM755.249 123.3C754.849 123.52 754.369 123.64 753.849 123.64C752.849 123.64 752.289 123.14 752.289 121.9V117.7H755.349V115.32H752.289V112.16H749.529V115.32H747.369V117.7H749.529V122.54C749.529 124.94 750.909 126.2 753.109 126.2C753.929 126.2 754.569 126.06 755.249 125.72V123.3ZM761.002 126V117.7H763.782V115.32H761.002V114.8C761.002 114.06 761.502 113.76 762.262 113.76C762.622 113.76 763.022 113.82 763.322 113.94V111.74C762.862 111.54 762.282 111.42 761.602 111.42C759.382 111.42 758.242 112.62 758.242 114.74V115.32H756.082V117.7H758.242V126H761.002ZM769.638 126.2C772.738 126.2 775.058 123.76 775.058 120.66C775.058 117.54 772.738 115.12 769.638 115.12C766.538 115.12 764.218 117.54 764.218 120.66C764.218 123.76 766.538 126.2 769.638 126.2ZM769.638 123.74C768.258 123.74 767.078 122.64 767.078 120.66C767.078 118.68 768.258 117.6 769.638 117.6C771.018 117.6 772.198 118.68 772.198 120.66C772.198 122.64 771.018 123.74 769.638 123.74ZM779.612 120.82C779.612 118.46 781.192 117.9 783.552 118.08V115.2C781.832 115.2 780.172 116.02 779.392 117.38V115.32H776.832V126H779.612V120.82ZM787.776 126V120.04C787.776 118.44 788.656 117.58 789.776 117.58C790.996 117.58 791.636 118.48 791.636 119.98V126H794.396V120.04C794.396 118.44 795.296 117.58 796.396 117.58C797.616 117.58 798.256 118.48 798.256 119.98V126H801.016V119.1C801.016 116.54 799.556 115.12 797.396 115.12C795.796 115.12 794.716 115.84 793.876 117.02C793.336 115.8 792.216 115.12 790.756 115.12C789.336 115.12 788.336 115.76 787.556 116.84V115.32H784.996V126H787.776ZM816.594 122.58C816.594 121.04 815.534 120.08 813.454 119.68L811.394 119.3C810.434 119.12 809.994 118.86 809.994 118.22C809.994 117.54 810.674 117.16 811.694 117.16C812.874 117.16 813.654 117.8 813.754 118.84H816.414C816.214 116.54 814.374 115.12 811.694 115.12C809.034 115.12 807.334 116.5 807.334 118.48C807.334 120.14 808.494 121.2 810.414 121.54L812.334 121.9C813.354 122.1 813.794 122.38 813.794 123.06C813.794 123.82 812.974 124.16 811.894 124.16C810.514 124.16 809.574 123.46 809.554 122.36H806.894C807.114 124.74 808.814 126.2 811.854 126.2C814.894 126.2 816.594 124.82 816.594 122.58ZM829.152 120.66C829.152 117.52 827.292 115.12 824.412 115.12C823.052 115.12 821.872 115.74 821.052 116.88V115.32H818.492V129.86H821.272V124.62C822.072 125.66 823.152 126.2 824.412 126.2C827.292 126.2 829.152 123.82 829.152 120.66ZM826.292 120.66C826.292 122.7 825.152 123.72 823.792 123.72C822.432 123.72 821.292 122.68 821.292 120.66C821.292 118.64 822.432 117.58 823.792 117.58C825.152 117.58 826.292 118.66 826.292 120.66ZM835.573 126.18C838.173 126.18 840.033 124.8 840.633 122.38H837.873C837.553 123.44 836.733 124.04 835.513 124.04C834.093 124.04 833.253 123.08 833.073 121.34H840.653C841.153 117.86 838.913 115.12 835.533 115.12C832.453 115.12 830.233 117.44 830.233 120.62C830.233 123.96 832.373 126.18 835.573 126.18ZM835.473 117.16C836.793 117.16 837.633 118.1 837.713 119.58H833.113C833.353 118 834.173 117.16 835.473 117.16ZM846.82 126.2C849.68 126.2 851.68 124.38 852 121.44H849.08C848.92 122.9 848.1 123.74 846.82 123.74C845.36 123.74 844.46 122.58 844.46 120.66C844.46 118.76 845.38 117.58 846.82 117.58C848.08 117.58 848.94 118.46 849.08 119.88H852C851.66 117 849.6 115.12 846.82 115.12C843.82 115.12 841.62 117.46 841.62 120.66C841.62 123.92 843.74 126.2 846.82 126.2ZM857.005 112.84C857.005 111.86 856.245 111.16 855.145 111.16C854.065 111.16 853.305 111.86 853.305 112.84C853.305 113.78 854.065 114.48 855.145 114.48C856.245 114.48 857.005 113.78 857.005 112.84ZM856.565 126V115.32H853.785V126H856.565ZM870.239 112.84C870.239 111.86 869.479 111.16 868.379 111.16C867.279 111.16 866.519 111.86 866.519 112.84C866.519 113.78 867.279 114.48 868.379 114.48C869.479 114.48 870.239 113.78 870.239 112.84ZM862.819 126V117.7H865.599V115.32H862.819V114.8C862.819 114.06 863.319 113.76 864.079 113.76C864.439 113.76 864.839 113.82 865.139 113.94V111.74C864.679 111.54 864.099 111.42 863.419 111.42C861.199 111.42 860.059 112.62 860.059 114.74V115.32H857.899V117.7H860.059V126H862.819ZM869.779 126V115.32H867.019V126H869.779ZM876.781 126.2C879.641 126.2 881.641 124.38 881.961 121.44H879.041C878.881 122.9 878.061 123.74 876.781 123.74C875.321 123.74 874.421 122.58 874.421 120.66C874.421 118.76 875.341 117.58 876.781 117.58C878.041 117.58 878.901 118.46 879.041 119.88H881.961C881.621 117 879.561 115.12 876.781 115.12C873.781 115.12 871.581 117.46 871.581 120.66C871.581 123.92 873.701 126.2 876.781 126.2Z" fill="#F9614C"/>
<rect x="1022" y="225" width="404" height="70" rx="35" fill="white"/>
<path d="M1065 272.5C1071.88 272.5 1077.5 266.875 1077.5 260C1077.5 253.125 1071.88 247.5 1065 247.5C1058.12 247.5 1052.5 253.125 1052.5 260C1052.5 266.875 1058.12 272.5 1065 272.5Z" stroke="#F9614C" stroke-width="1.5" stroke-linecap="round" stroke-linejoin="round"/>
<path d="M1061.46 263.537L1068.54 256.462" stroke="#F9614C" stroke-width="1.5" stroke-linecap="round" stroke-linejoin="round"/>
<path d="M1068.54 263.537L1061.46 256.462" stroke="#F9614C" stroke-width="1.5" stroke-linecap="round" stroke-linejoin="round"/>
<path d="M1102.99 263.54C1102.99 261.42 1101.63 260.26 1099.11 259.76L1096.65 259.26C1095.61 259.06 1094.71 258.64 1094.71 257.66C1094.71 256.66 1095.55 255.82 1097.03 255.82C1098.55 255.82 1099.59 256.84 1099.69 258.34H1102.77C1102.57 255.34 1100.21 253.46 1096.99 253.46C1093.89 253.46 1091.63 255.3 1091.63 257.86C1091.63 260.24 1093.31 261.42 1095.49 261.84L1097.85 262.3C1099.07 262.54 1099.77 263.08 1099.77 263.98C1099.77 265.14 1098.67 265.82 1097.13 265.82C1095.27 265.82 1094.25 264.8 1094.17 263.22H1091.09C1091.31 266.26 1093.57 268.2 1097.19 268.2C1100.79 268.2 1102.99 266.28 1102.99 263.54ZM1109.72 268.2C1112.82 268.2 1115.14 265.76 1115.14 262.66C1115.14 259.54 1112.82 257.12 1109.72 257.12C1106.62 257.12 1104.3 259.54 1104.3 262.66C1104.3 265.76 1106.62 268.2 1109.72 268.2ZM1109.72 265.74C1108.34 265.74 1107.16 264.64 1107.16 262.66C1107.16 260.68 1108.34 259.6 1109.72 259.6C1111.1 259.6 1112.28 260.68 1112.28 262.66C1112.28 264.64 1111.1 265.74 1109.72 265.74ZM1119.69 268V262.04C1119.69 260.44 1120.57 259.58 1121.69 259.58C1122.91 259.58 1123.55 260.48 1123.55 261.98V268H1126.31V262.04C1126.31 260.44 1127.21 259.58 1128.31 259.58C1129.53 259.58 1130.17 260.48 1130.17 261.98V268H1132.93V261.1C1132.93 258.54 1131.47 257.12 1129.31 257.12C1127.71 257.12 1126.63 257.84 1125.79 259.02C1125.25 257.8 1124.13 257.12 1122.67 257.12C1121.25 257.12 1120.25 257.76 1119.47 258.84V257.32H1116.91V268H1119.69ZM1139.95 268.18C1142.55 268.18 1144.41 266.8 1145.01 264.38H1142.25C1141.93 265.44 1141.11 266.04 1139.89 266.04C1138.47 266.04 1137.63 265.08 1137.45 263.34H1145.03C1145.53 259.86 1143.29 257.12 1139.91 257.12C1136.83 257.12 1134.61 259.44 1134.61 262.62C1134.61 265.96 1136.75 268.18 1139.95 268.18ZM1139.85 259.16C1141.17 259.16 1142.01 260.1 1142.09 261.58H1137.49C1137.73 260 1138.55 259.16 1139.85 259.16ZM1157.43 268H1159.69V261.28C1159.69 258.66 1158.05 257.12 1155.25 257.12C1152.67 257.12 1150.89 258.72 1150.73 261.18H1153.23C1153.33 259.98 1154.05 259.28 1155.25 259.28C1156.41 259.28 1157.09 259.98 1157.09 261.18V261.82C1156.43 261.74 1155.91 261.7 1155.31 261.7C1152.19 261.7 1150.51 262.82 1150.51 264.9C1150.51 266.9 1151.99 268.2 1154.21 268.2C1155.67 268.2 1156.73 267.68 1157.43 266.68V268ZM1153.13 264.82C1153.13 263.86 1153.91 263.36 1155.49 263.36C1155.97 263.36 1156.43 263.4 1157.09 263.5V264.26C1157.09 265.5 1156.23 266.28 1154.81 266.28C1153.77 266.28 1153.13 265.72 1153.13 264.82ZM1164.87 262.82C1164.87 260.46 1166.45 259.9 1168.81 260.08V257.2C1167.09 257.2 1165.43 258.02 1164.65 259.38V257.32H1162.09V268H1164.87V262.82ZM1174.81 268.18C1177.41 268.18 1179.27 266.8 1179.87 264.38H1177.11C1176.79 265.44 1175.97 266.04 1174.75 266.04C1173.33 266.04 1172.49 265.08 1172.31 263.34H1179.89C1180.39 259.86 1178.15 257.12 1174.77 257.12C1171.69 257.12 1169.47 259.44 1169.47 262.62C1169.47 265.96 1171.61 268.18 1174.81 268.18ZM1174.71 259.16C1176.03 259.16 1176.87 260.1 1176.95 261.58H1172.35C1172.59 260 1173.41 259.16 1174.71 259.16Z" fill="black"/>
<path d="M1188.73 268V253.64H1185.93V268H1188.73ZM1197.59 268H1199.85V261.28C1199.85 258.66 1198.21 257.12 1195.41 257.12C1192.83 257.12 1191.05 258.72 1190.89 261.18H1193.39C1193.49 259.98 1194.21 259.28 1195.41 259.28C1196.57 259.28 1197.25 259.98 1197.25 261.18V261.82C1196.59 261.74 1196.07 261.7 1195.47 261.7C1192.35 261.7 1190.67 262.82 1190.67 264.9C1190.67 266.9 1192.15 268.2 1194.37 268.2C1195.83 268.2 1196.89 267.68 1197.59 266.68V268ZM1193.29 264.82C1193.29 263.86 1194.07 263.36 1195.65 263.36C1196.13 263.36 1196.59 263.4 1197.25 263.5V264.26C1197.25 265.5 1196.39 266.28 1194.97 266.28C1193.93 266.28 1193.29 265.72 1193.29 264.82ZM1206.74 268.2C1209.6 268.2 1211.6 266.38 1211.92 263.44H1209C1208.84 264.9 1208.02 265.74 1206.74 265.74C1205.28 265.74 1204.38 264.58 1204.38 262.66C1204.38 260.76 1205.3 259.58 1206.74 259.58C1208 259.58 1208.86 260.46 1209 261.88H1211.92C1211.58 259 1209.52 257.12 1206.74 257.12C1203.74 257.12 1201.54 259.46 1201.54 262.66C1201.54 265.92 1203.66 268.2 1206.74 268.2ZM1216.49 268V263.04L1220.57 268H1224.11L1219.17 262.44L1223.59 257.32H1220.39L1216.49 261.84V253.64H1213.71V268H1216.49ZM1228.61 254.84C1228.61 253.86 1227.85 253.16 1226.75 253.16C1225.67 253.16 1224.91 253.86 1224.91 254.84C1224.91 255.78 1225.67 256.48 1226.75 256.48C1227.85 256.48 1228.61 255.78 1228.61 254.84ZM1228.17 268V257.32H1225.39V268H1228.17ZM1233.42 262.18C1233.42 260.46 1234.36 259.58 1235.46 259.58C1236.72 259.58 1237.34 260.46 1237.34 262.04V268H1240.1V261.1C1240.1 258.52 1238.62 257.12 1236.48 257.12C1235.08 257.12 1233.98 257.78 1233.2 258.84V257.32H1230.64V268H1233.42V262.18ZM1247.04 272.06C1250.2 272.06 1252.12 270.34 1252.12 267.5V257.32H1249.58V258.78C1248.8 257.68 1247.72 257.12 1246.28 257.12C1243.64 257.12 1241.8 259.26 1241.8 262.36C1241.8 265.38 1243.76 267.6 1246.38 267.6C1247.68 267.6 1248.78 267 1249.36 265.98V267.54C1249.36 269.08 1248.56 269.9 1247.02 269.9C1245.7 269.9 1244.92 269.26 1244.8 268.04H1242.12C1242.24 270.5 1244.16 272.06 1247.04 272.06ZM1244.58 262.36C1244.58 260.62 1245.5 259.52 1246.92 259.52C1248.38 259.52 1249.34 260.64 1249.34 262.38C1249.34 264.06 1248.38 265.2 1246.92 265.2C1245.48 265.2 1244.58 264.1 1244.58 262.36ZM1263.34 272.06C1266.5 272.06 1268.42 270.34 1268.42 267.5V257.32H1265.88V258.78C1265.1 257.68 1264.02 257.12 1262.58 257.12C1259.94 257.12 1258.1 259.26 1258.1 262.36C1258.1 265.38 1260.06 267.6 1262.68 267.6C1263.98 267.6 1265.08 267 1265.66 265.98V267.54C1265.66 269.08 1264.86 269.9 1263.32 269.9C1262 269.9 1261.22 269.26 1261.1 268.04H1258.42C1258.54 270.5 1260.46 272.06 1263.34 272.06ZM1260.88 262.36C1260.88 260.62 1261.8 259.52 1263.22 259.52C1264.68 259.52 1265.64 260.64 1265.64 262.38C1265.64 264.06 1264.68 265.2 1263.22 265.2C1261.78 265.2 1260.88 264.1 1260.88 262.36ZM1275.65 268.2C1278.75 268.2 1281.07 265.76 1281.07 262.66C1281.07 259.54 1278.75 257.12 1275.65 257.12C1272.55 257.12 1270.23 259.54 1270.23 262.66C1270.23 265.76 1272.55 268.2 1275.65 268.2ZM1275.65 265.74C1274.27 265.74 1273.09 264.64 1273.09 262.66C1273.09 260.68 1274.27 259.6 1275.65 259.6C1277.03 259.6 1278.21 260.68 1278.21 262.66C1278.21 264.64 1277.03 265.74 1275.65 265.74ZM1287.57 268.2C1290.67 268.2 1292.99 265.76 1292.99 262.66C1292.99 259.54 1290.67 257.12 1287.57 257.12C1284.47 257.12 1282.15 259.54 1282.15 262.66C1282.15 265.76 1284.47 268.2 1287.57 268.2ZM1287.57 265.74C1286.19 265.74 1285.01 264.64 1285.01 262.66C1285.01 260.68 1286.19 259.6 1287.57 259.6C1288.95 259.6 1290.13 260.68 1290.13 262.66C1290.13 264.64 1288.95 265.74 1287.57 265.74ZM1294.06 262.66C1294.06 265.78 1295.92 268.2 1298.8 268.2C1300.18 268.2 1301.34 267.58 1302.18 266.46V268H1304.72V253.64H1301.96V258.7C1301.16 257.68 1300.08 257.12 1298.8 257.12C1295.92 257.12 1294.06 259.5 1294.06 262.66ZM1296.92 262.66C1296.92 260.62 1298.06 259.58 1299.42 259.58C1300.78 259.58 1301.94 260.6 1301.94 262.62C1301.94 264.64 1300.8 265.72 1299.42 265.72C1298.06 265.72 1296.92 264.66 1296.92 262.66ZM1314.6 254.84C1314.6 253.86 1313.84 253.16 1312.74 253.16C1311.66 253.16 1310.9 253.86 1310.9 254.84C1310.9 255.78 1311.66 256.48 1312.74 256.48C1313.84 256.48 1314.6 255.78 1314.6 254.84ZM1314.16 268V257.32H1311.38V268H1314.16ZM1319.42 262.18C1319.42 260.46 1320.36 259.58 1321.46 259.58C1322.72 259.58 1323.34 260.46 1323.34 262.04V268H1326.1V261.1C1326.1 258.52 1324.62 257.12 1322.48 257.12C1321.08 257.12 1319.98 257.78 1319.2 258.84V257.32H1316.64V268H1319.42V262.18ZM1335.05 265.3C1334.65 265.52 1334.17 265.64 1333.65 265.64C1332.65 265.64 1332.09 265.14 1332.09 263.9V259.7H1335.15V257.32H1332.09V254.16H1329.33V257.32H1327.17V259.7H1329.33V264.54C1329.33 266.94 1330.71 268.2 1332.91 268.2C1333.73 268.2 1334.37 268.06 1335.05 267.72V265.3ZM1341.26 268.18C1343.86 268.18 1345.72 266.8 1346.32 264.38H1343.56C1343.24 265.44 1342.42 266.04 1341.2 266.04C1339.78 266.04 1338.94 265.08 1338.76 263.34H1346.34C1346.84 259.86 1344.6 257.12 1341.22 257.12C1338.14 257.12 1335.92 259.44 1335.92 262.62C1335.92 265.96 1338.06 268.18 1341.26 268.18ZM1341.16 259.16C1342.48 259.16 1343.32 260.1 1343.4 261.58H1338.8C1339.04 260 1339.86 259.16 1341.16 259.16ZM1350.98 262.82C1350.98 260.46 1352.56 259.9 1354.92 260.08V257.2C1353.2 257.2 1351.54 258.02 1350.76 259.38V257.32H1348.2V268H1350.98V262.82ZM1360.75 268V259.7H1363.53V257.32H1360.75V256.8C1360.75 256.06 1361.25 255.76 1362.01 255.76C1362.37 255.76 1362.77 255.82 1363.07 255.94V253.74C1362.61 253.54 1362.03 253.42 1361.35 253.42C1359.13 253.42 1357.99 254.62 1357.99 256.74V257.32H1355.83V259.7H1357.99V268H1360.75ZM1371.08 268H1373.34V261.28C1373.34 258.66 1371.7 257.12 1368.9 257.12C1366.32 257.12 1364.54 258.72 1364.38 261.18H1366.88C1366.98 259.98 1367.7 259.28 1368.9 259.28C1370.06 259.28 1370.74 259.98 1370.74 261.18V261.82C1370.08 261.74 1369.56 261.7 1368.96 261.7C1365.84 261.7 1364.16 262.82 1364.16 264.9C1364.16 266.9 1365.64 268.2 1367.86 268.2C1369.32 268.2 1370.38 267.68 1371.08 266.68V268ZM1366.78 264.82C1366.78 263.86 1367.56 263.36 1369.14 263.36C1369.62 263.36 1370.08 263.4 1370.74 263.5V264.26C1370.74 265.5 1369.88 266.28 1368.46 266.28C1367.42 266.28 1366.78 265.72 1366.78 264.82ZM1380.24 268.2C1383.1 268.2 1385.1 266.38 1385.42 263.44H1382.5C1382.34 264.9 1381.52 265.74 1380.24 265.74C1378.78 265.74 1377.88 264.58 1377.88 262.66C1377.88 260.76 1378.8 259.58 1380.24 259.58C1381.5 259.58 1382.36 260.46 1382.5 261.88H1385.42C1385.08 259 1383.02 257.12 1380.24 257.12C1377.24 257.12 1375.04 259.46 1375.04 262.66C1375.04 265.92 1377.16 268.2 1380.24 268.2ZM1391.8 268.18C1394.4 268.18 1396.26 266.8 1396.86 264.38H1394.1C1393.78 265.44 1392.96 266.04 1391.74 266.04C1390.32 266.04 1389.48 265.08 1389.3 263.34H1396.88C1397.38 259.86 1395.14 257.12 1391.76 257.12C1388.68 257.12 1386.46 259.44 1386.46 262.62C1386.46 265.96 1388.6 268.18 1391.8 268.18ZM1391.7 259.16C1393.02 259.16 1393.86 260.1 1393.94 261.58H1389.34C1389.58 260 1390.4 259.16 1391.7 259.16Z" fill="#F9614C"/>
</svg>
