<svg width="1440" height="720" viewBox="0 0 1440 720" fill="none" xmlns="http://www.w3.org/2000/svg">
<rect x="14" y="186" width="452" height="70" rx="35" fill="white"/>
<path d="M57 233.5C63.875 233.5 69.5 227.875 69.5 221C69.5 214.125 63.875 208.5 57 208.5C50.125 208.5 44.5 214.125 44.5 221C44.5 227.875 50.125 233.5 57 233.5Z" stroke="#F9614C" stroke-width="1.5" stroke-linecap="round" stroke-linejoin="round"/>
<path d="M53.4629 224.537L60.5379 217.462" stroke="#F9614C" stroke-width="1.5" stroke-linecap="round" stroke-linejoin="round"/>
<path d="M60.5379 224.537L53.4629 217.462" stroke="#F9614C" stroke-width="1.5" stroke-linecap="round" stroke-linejoin="round"/>
<path d="M94.8828 224.54C94.8828 222.42 93.5228 221.26 91.0028 220.76L88.5428 220.26C87.5028 220.06 86.6028 219.64 86.6028 218.66C86.6028 217.66 87.4428 216.82 88.9228 216.82C90.4428 216.82 91.4828 217.84 91.5828 219.34H94.6628C94.4628 216.34 92.1028 214.46 88.8828 214.46C85.7828 214.46 83.5228 216.3 83.5228 218.86C83.5228 221.24 85.2028 222.42 87.3828 222.84L89.7428 223.3C90.9628 223.54 91.6628 224.08 91.6628 224.98C91.6628 226.14 90.5628 226.82 89.0228 226.82C87.1628 226.82 86.1428 225.8 86.0628 224.22H82.9828C83.2028 227.26 85.4628 229.2 89.0828 229.2C92.6828 229.2 94.8828 227.28 94.8828 224.54ZM101.605 229.2C104.705 229.2 107.025 226.76 107.025 223.66C107.025 220.54 104.705 218.12 101.605 218.12C98.5045 218.12 96.1845 220.54 96.1845 223.66C96.1845 226.76 98.5045 229.2 101.605 229.2ZM101.605 226.74C100.225 226.74 99.0445 225.64 99.0445 223.66C99.0445 221.68 100.225 220.6 101.605 220.6C102.985 220.6 104.165 221.68 104.165 223.66C104.165 225.64 102.985 226.74 101.605 226.74ZM111.579 229V223.04C111.579 221.44 112.459 220.58 113.579 220.58C114.799 220.58 115.439 221.48 115.439 222.98V229H118.199V223.04C118.199 221.44 119.099 220.58 120.199 220.58C121.419 220.58 122.059 221.48 122.059 222.98V229H124.819V222.1C124.819 219.54 123.359 218.12 121.199 218.12C119.599 218.12 118.519 218.84 117.679 220.02C117.139 218.8 116.019 218.12 114.559 218.12C113.139 218.12 112.139 218.76 111.359 219.84V218.32H108.799V229H111.579ZM131.837 229.18C134.437 229.18 136.297 227.8 136.897 225.38H134.137C133.817 226.44 132.997 227.04 131.777 227.04C130.357 227.04 129.517 226.08 129.337 224.34H136.917C137.417 220.86 135.177 218.12 131.797 218.12C128.717 218.12 126.497 220.44 126.497 223.62C126.497 226.96 128.637 229.18 131.837 229.18ZM131.737 220.16C133.057 220.16 133.897 221.1 133.977 222.58H129.377C129.617 221 130.437 220.16 131.737 220.16ZM149.319 229H151.579V222.28C151.579 219.66 149.939 218.12 147.139 218.12C144.559 218.12 142.779 219.72 142.619 222.18H145.119C145.219 220.98 145.939 220.28 147.139 220.28C148.299 220.28 148.979 220.98 148.979 222.18V222.82C148.319 222.74 147.799 222.7 147.199 222.7C144.079 222.7 142.399 223.82 142.399 225.9C142.399 227.9 143.879 229.2 146.099 229.2C147.559 229.2 148.619 228.68 149.319 227.68V229ZM145.019 225.82C145.019 224.86 145.799 224.36 147.379 224.36C147.859 224.36 148.319 224.4 148.979 224.5V225.26C148.979 226.5 148.119 227.28 146.699 227.28C145.659 227.28 145.019 226.72 145.019 225.82ZM156.754 223.82C156.754 221.46 158.334 220.9 160.694 221.08V218.2C158.974 218.2 157.314 219.02 156.534 220.38V218.32H153.974V229H156.754V223.82ZM166.7 229.18C169.3 229.18 171.16 227.8 171.76 225.38H169C168.68 226.44 167.86 227.04 166.64 227.04C165.22 227.04 164.38 226.08 164.2 224.34H171.78C172.28 220.86 170.04 218.12 166.66 218.12C163.58 218.12 161.36 220.44 161.36 223.62C161.36 226.96 163.5 229.18 166.7 229.18ZM166.6 220.16C167.92 220.16 168.76 221.1 168.84 222.58H164.24C164.48 221 165.3 220.16 166.6 220.16Z" fill="black"/>
<path d="M180.602 223.18C180.602 221.46 181.542 220.58 182.642 220.58C183.902 220.58 184.522 221.46 184.522 223.04V229H187.282V222.1C187.282 219.52 185.802 218.12 183.662 218.12C182.262 218.12 181.162 218.78 180.382 219.84V218.32H177.822V229H180.602V223.18ZM194.398 229.2C197.498 229.2 199.818 226.76 199.818 223.66C199.818 220.54 197.498 218.12 194.398 218.12C191.298 218.12 188.978 220.54 188.978 223.66C188.978 226.76 191.298 229.2 194.398 229.2ZM194.398 226.74C193.018 226.74 191.838 225.64 191.838 223.66C191.838 221.68 193.018 220.6 194.398 220.6C195.778 220.6 196.958 221.68 196.958 223.66C196.958 225.64 195.778 226.74 194.398 226.74ZM208.036 226.3C207.636 226.52 207.156 226.64 206.636 226.64C205.636 226.64 205.076 226.14 205.076 224.9V220.7H208.136V218.32H205.076V215.16H202.316V218.32H200.156V220.7H202.316V225.54C202.316 227.94 203.696 229.2 205.896 229.2C206.716 229.2 207.356 229.06 208.036 228.72V226.3ZM220.513 224.5C220.513 225.94 219.553 226.74 218.553 226.74C217.433 226.74 216.693 226.08 216.693 224.58V218.32H213.913V225.12C213.913 227.9 215.473 229.2 217.613 229.2C218.973 229.2 220.153 228.54 220.733 227.6V229H223.273V218.32H220.513V224.5ZM234.791 225.58C234.791 224.04 233.731 223.08 231.651 222.68L229.591 222.3C228.631 222.12 228.191 221.86 228.191 221.22C228.191 220.54 228.871 220.16 229.891 220.16C231.071 220.16 231.851 220.8 231.951 221.84H234.611C234.411 219.54 232.571 218.12 229.891 218.12C227.231 218.12 225.531 219.5 225.531 221.48C225.531 223.14 226.691 224.2 228.611 224.54L230.531 224.9C231.551 225.1 231.991 225.38 231.991 226.06C231.991 226.82 231.171 227.16 230.091 227.16C228.711 227.16 227.771 226.46 227.751 225.36H225.091C225.311 227.74 227.011 229.2 230.051 229.2C233.091 229.2 234.791 227.82 234.791 225.58ZM239.909 215.84C239.909 214.86 239.149 214.16 238.049 214.16C236.969 214.16 236.209 214.86 236.209 215.84C236.209 216.78 236.969 217.48 238.049 217.48C239.149 217.48 239.909 216.78 239.909 215.84ZM239.469 229V218.32H236.689V229H239.469ZM244.723 223.18C244.723 221.46 245.663 220.58 246.763 220.58C248.023 220.58 248.643 221.46 248.643 223.04V229H251.403V222.1C251.403 219.52 249.923 218.12 247.783 218.12C246.383 218.12 245.283 218.78 244.503 219.84V218.32H241.943V229H244.723V223.18ZM258.339 233.06C261.499 233.06 263.419 231.34 263.419 228.5V218.32H260.879V219.78C260.099 218.68 259.019 218.12 257.579 218.12C254.939 218.12 253.099 220.26 253.099 223.36C253.099 226.38 255.059 228.6 257.679 228.6C258.979 228.6 260.079 228 260.659 226.98V228.54C260.659 230.08 259.859 230.9 258.319 230.9C256.999 230.9 256.219 230.26 256.099 229.04H253.419C253.539 231.5 255.459 233.06 258.339 233.06ZM255.879 223.36C255.879 221.62 256.799 220.52 258.219 220.52C259.679 220.52 260.639 221.64 260.639 223.38C260.639 225.06 259.679 226.2 258.219 226.2C256.779 226.2 255.879 225.1 255.879 223.36ZM276.867 229H279.407L283.207 219.38V229H285.967V214.64H282.327L278.147 225.28L273.987 214.64H270.347V229H273.107V219.46L276.867 229ZM295.022 229H297.282V222.28C297.282 219.66 295.642 218.12 292.842 218.12C290.262 218.12 288.482 219.72 288.322 222.18H290.822C290.922 220.98 291.642 220.28 292.842 220.28C294.002 220.28 294.682 220.98 294.682 222.18V222.82C294.022 222.74 293.502 222.7 292.902 222.7C289.782 222.7 288.102 223.82 288.102 225.9C288.102 227.9 289.582 229.2 291.802 229.2C293.262 229.2 294.322 228.68 295.022 227.68V229ZM290.722 225.82C290.722 224.86 291.502 224.36 293.082 224.36C293.562 224.36 294.022 224.4 294.682 224.5V225.26C294.682 226.5 293.822 227.28 292.402 227.28C291.362 227.28 290.722 226.72 290.722 225.82ZM304.178 229.2C307.038 229.2 309.038 227.38 309.358 224.44H306.438C306.278 225.9 305.458 226.74 304.178 226.74C302.718 226.74 301.818 225.58 301.818 223.66C301.818 221.76 302.738 220.58 304.178 220.58C305.438 220.58 306.298 221.46 306.438 222.88H309.358C309.018 220 306.958 218.12 304.178 218.12C301.178 218.12 298.978 220.46 298.978 223.66C298.978 226.92 301.098 229.2 304.178 229.2ZM313.922 223.18C313.922 221.46 314.862 220.58 315.962 220.58C317.222 220.58 317.842 221.46 317.842 223.04V229H320.602V222.1C320.602 219.52 319.122 218.12 316.982 218.12C315.582 218.12 314.662 218.74 313.922 219.72V214.64H311.142V229H313.922V223.18ZM326.218 215.84C326.218 214.86 325.458 214.16 324.358 214.16C323.278 214.16 322.518 214.86 322.518 215.84C322.518 216.78 323.278 217.48 324.358 217.48C325.458 217.48 326.218 216.78 326.218 215.84ZM325.778 229V218.32H322.998V229H325.778ZM331.032 223.18C331.032 221.46 331.972 220.58 333.072 220.58C334.332 220.58 334.952 221.46 334.952 223.04V229H337.712V222.1C337.712 219.52 336.232 218.12 334.092 218.12C332.692 218.12 331.592 218.78 330.812 219.84V218.32H328.252V229H331.032V223.18ZM344.747 229.18C347.347 229.18 349.207 227.8 349.807 225.38H347.047C346.727 226.44 345.907 227.04 344.687 227.04C343.267 227.04 342.427 226.08 342.247 224.34H349.827C350.327 220.86 348.087 218.12 344.707 218.12C341.627 218.12 339.407 220.44 339.407 223.62C339.407 226.96 341.547 229.18 344.747 229.18ZM344.647 220.16C345.967 220.16 346.807 221.1 346.887 222.58H342.287C342.527 221 343.347 220.16 344.647 220.16ZM365.389 229V226.26H359.149V214.64H356.109V229H365.389ZM371.642 229.18C374.242 229.18 376.102 227.8 376.702 225.38H373.942C373.622 226.44 372.802 227.04 371.582 227.04C370.162 227.04 369.322 226.08 369.142 224.34H376.722C377.222 220.86 374.982 218.12 371.602 218.12C368.522 218.12 366.302 220.44 366.302 223.62C366.302 226.96 368.442 229.18 371.642 229.18ZM371.542 220.16C372.862 220.16 373.702 221.1 373.782 222.58H369.182C369.422 221 370.242 220.16 371.542 220.16ZM384.944 229H387.204V222.28C387.204 219.66 385.564 218.12 382.764 218.12C380.184 218.12 378.404 219.72 378.244 222.18H380.744C380.844 220.98 381.564 220.28 382.764 220.28C383.924 220.28 384.604 220.98 384.604 222.18V222.82C383.944 222.74 383.424 222.7 382.824 222.7C379.704 222.7 378.024 223.82 378.024 225.9C378.024 227.9 379.504 229.2 381.724 229.2C383.184 229.2 384.244 228.68 384.944 227.68V229ZM380.644 225.82C380.644 224.86 381.424 224.36 383.004 224.36C383.484 224.36 383.944 224.4 384.604 224.5V225.26C384.604 226.5 383.744 227.28 382.324 227.28C381.284 227.28 380.644 226.72 380.644 225.82ZM392.379 223.82C392.379 221.46 393.959 220.9 396.319 221.08V218.2C394.599 218.2 392.939 219.02 392.159 220.38V218.32H389.599V229H392.379V223.82ZM400.543 223.18C400.543 221.46 401.483 220.58 402.583 220.58C403.843 220.58 404.463 221.46 404.463 223.04V229H407.223V222.1C407.223 219.52 405.743 218.12 403.603 218.12C402.203 218.12 401.103 218.78 400.323 219.84V218.32H397.763V229H400.543V223.18ZM412.839 215.84C412.839 214.86 412.079 214.16 410.979 214.16C409.899 214.16 409.139 214.86 409.139 215.84C409.139 216.78 409.899 217.48 410.979 217.48C412.079 217.48 412.839 216.78 412.839 215.84ZM412.399 229V218.32H409.619V229H412.399ZM417.653 223.18C417.653 221.46 418.593 220.58 419.693 220.58C420.953 220.58 421.573 221.46 421.573 223.04V229H424.333V222.1C424.333 219.52 422.853 218.12 420.713 218.12C419.313 218.12 418.213 218.78 417.433 219.84V218.32H414.873V229H417.653V223.18ZM431.268 233.06C434.428 233.06 436.348 231.34 436.348 228.5V218.32H433.808V219.78C433.028 218.68 431.948 218.12 430.508 218.12C427.868 218.12 426.028 220.26 426.028 223.36C426.028 226.38 427.988 228.6 430.608 228.6C431.908 228.6 433.008 228 433.588 226.98V228.54C433.588 230.08 432.788 230.9 431.248 230.9C429.928 230.9 429.148 230.26 429.028 229.04H426.348C426.468 231.5 428.388 233.06 431.268 233.06ZM428.808 223.36C428.808 221.62 429.728 220.52 431.148 220.52C432.608 220.52 433.568 221.64 433.568 223.38C433.568 225.06 432.608 226.2 431.148 226.2C429.708 226.2 428.808 225.1 428.808 223.36Z" fill="#F9614C"/>
<rect x="506" y="568" width="399" height="70" rx="35" fill="white"/>
<path d="M549 615.5C555.875 615.5 561.5 609.875 561.5 603C561.5 596.125 555.875 590.5 549 590.5C542.125 590.5 536.5 596.125 536.5 603C536.5 609.875 542.125 615.5 549 615.5Z" stroke="#F9614C" stroke-width="1.5" stroke-linecap="round" stroke-linejoin="round"/>
<path d="M545.463 606.537L552.538 599.462" stroke="#F9614C" stroke-width="1.5" stroke-linecap="round" stroke-linejoin="round"/>
<path d="M552.538 606.537L545.463 599.462" stroke="#F9614C" stroke-width="1.5" stroke-linecap="round" stroke-linejoin="round"/>
<path d="M586.994 606.54C586.994 604.42 585.634 603.26 583.114 602.76L580.654 602.26C579.614 602.06 578.714 601.64 578.714 600.66C578.714 599.66 579.554 598.82 581.034 598.82C582.554 598.82 583.594 599.84 583.694 601.34H586.774C586.574 598.34 584.214 596.46 580.994 596.46C577.894 596.46 575.634 598.3 575.634 600.86C575.634 603.24 577.314 604.42 579.494 604.84L581.854 605.3C583.074 605.54 583.774 606.08 583.774 606.98C583.774 608.14 582.674 608.82 581.134 608.82C579.274 608.82 578.254 607.8 578.174 606.22H575.094C575.314 609.26 577.574 611.2 581.194 611.2C584.794 611.2 586.994 609.28 586.994 606.54ZM593.716 611.2C596.816 611.2 599.136 608.76 599.136 605.66C599.136 602.54 596.816 600.12 593.716 600.12C590.616 600.12 588.296 602.54 588.296 605.66C588.296 608.76 590.616 611.2 593.716 611.2ZM593.716 608.74C592.336 608.74 591.156 607.64 591.156 605.66C591.156 603.68 592.336 602.6 593.716 602.6C595.096 602.6 596.276 603.68 596.276 605.66C596.276 607.64 595.096 608.74 593.716 608.74ZM603.69 611V605.04C603.69 603.44 604.57 602.58 605.69 602.58C606.91 602.58 607.55 603.48 607.55 604.98V611H610.31V605.04C610.31 603.44 611.21 602.58 612.31 602.58C613.53 602.58 614.17 603.48 614.17 604.98V611H616.93V604.1C616.93 601.54 615.47 600.12 613.31 600.12C611.71 600.12 610.63 600.84 609.79 602.02C609.25 600.8 608.13 600.12 606.67 600.12C605.25 600.12 604.25 600.76 603.47 601.84V600.32H600.91V611H603.69ZM623.948 611.18C626.548 611.18 628.408 609.8 629.008 607.38H626.248C625.928 608.44 625.108 609.04 623.888 609.04C622.468 609.04 621.628 608.08 621.448 606.34H629.028C629.528 602.86 627.288 600.12 623.908 600.12C620.828 600.12 618.608 602.44 618.608 605.62C618.608 608.96 620.748 611.18 623.948 611.18ZM623.848 602.16C625.168 602.16 626.008 603.1 626.088 604.58H621.488C621.728 603 622.548 602.16 623.848 602.16ZM641.43 611H643.69V604.28C643.69 601.66 642.05 600.12 639.25 600.12C636.67 600.12 634.89 601.72 634.73 604.18H637.23C637.33 602.98 638.05 602.28 639.25 602.28C640.41 602.28 641.09 602.98 641.09 604.18V604.82C640.43 604.74 639.91 604.7 639.31 604.7C636.19 604.7 634.51 605.82 634.51 607.9C634.51 609.9 635.99 611.2 638.21 611.2C639.67 611.2 640.73 610.68 641.43 609.68V611ZM637.13 607.82C637.13 606.86 637.91 606.36 639.49 606.36C639.97 606.36 640.43 606.4 641.09 606.5V607.26C641.09 608.5 640.23 609.28 638.81 609.28C637.77 609.28 637.13 608.72 637.13 607.82ZM648.866 605.82C648.866 603.46 650.446 602.9 652.806 603.08V600.2C651.086 600.2 649.426 601.02 648.646 602.38V600.32H646.086V611H648.866V605.82ZM658.812 611.18C661.412 611.18 663.272 609.8 663.872 607.38H661.112C660.792 608.44 659.972 609.04 658.752 609.04C657.332 609.04 656.492 608.08 656.312 606.34H663.892C664.392 602.86 662.152 600.12 658.772 600.12C655.692 600.12 653.472 602.44 653.472 605.62C653.472 608.96 655.612 611.18 658.812 611.18ZM658.712 602.16C660.032 602.16 660.872 603.1 660.952 604.58H656.352C656.592 603 657.412 602.16 658.712 602.16Z" fill="black"/>
<path d="M674.653 611.2C677.753 611.2 680.073 608.76 680.073 605.66C680.073 602.54 677.753 600.12 674.653 600.12C671.553 600.12 669.233 602.54 669.233 605.66C669.233 608.76 671.553 611.2 674.653 611.2ZM674.653 608.74C673.273 608.74 672.093 607.64 672.093 605.66C672.093 603.68 673.273 602.6 674.653 602.6C676.033 602.6 677.213 603.68 677.213 605.66C677.213 607.64 676.033 608.74 674.653 608.74ZM684.627 605.18C684.627 603.46 685.567 602.58 686.667 602.58C687.927 602.58 688.547 603.46 688.547 605.04V611H691.307V604.1C691.307 601.52 689.827 600.12 687.687 600.12C686.287 600.12 685.187 600.78 684.407 601.84V600.32H681.847V611H684.627V605.18ZM696.503 611V596.64H693.703V611H696.503ZM708.616 600.32H705.836L703.396 607.64L700.716 600.32H697.716L701.916 610.88L700.396 614.86H703.416L708.616 600.32ZM724.675 605.66C724.675 602.52 722.815 600.12 719.935 600.12C718.575 600.12 717.395 600.74 716.575 601.88V600.32H714.015V614.86H716.795V609.62C717.595 610.66 718.675 611.2 719.935 611.2C722.815 611.2 724.675 608.82 724.675 605.66ZM721.815 605.66C721.815 607.7 720.675 608.72 719.315 608.72C717.955 608.72 716.815 607.68 716.815 605.66C716.815 603.64 717.955 602.58 719.315 602.58C720.675 602.58 721.815 603.66 721.815 605.66ZM729.257 611V596.64H726.457V611H729.257ZM738.11 611H740.37V604.28C740.37 601.66 738.73 600.12 735.93 600.12C733.35 600.12 731.57 601.72 731.41 604.18H733.91C734.01 602.98 734.73 602.28 735.93 602.28C737.09 602.28 737.77 602.98 737.77 604.18V604.82C737.11 604.74 736.59 604.7 735.99 604.7C732.87 604.7 731.19 605.82 731.19 607.9C731.19 609.9 732.67 611.2 734.89 611.2C736.35 611.2 737.41 610.68 738.11 609.68V611ZM733.81 607.82C733.81 606.86 734.59 606.36 736.17 606.36C736.65 606.36 737.11 606.4 737.77 606.5V607.26C737.77 608.5 736.91 609.28 735.49 609.28C734.45 609.28 733.81 608.72 733.81 607.82ZM749.249 608.3C748.849 608.52 748.369 608.64 747.849 608.64C746.849 608.64 746.289 608.14 746.289 606.9V602.7H749.349V600.32H746.289V597.16H743.529V600.32H741.369V602.7H743.529V607.54C743.529 609.94 744.909 611.2 747.109 611.2C747.929 611.2 748.569 611.06 749.249 610.72V608.3ZM755.002 611V602.7H757.782V600.32H755.002V599.8C755.002 599.06 755.502 598.76 756.262 598.76C756.622 598.76 757.022 598.82 757.322 598.94V596.74C756.862 596.54 756.282 596.42 755.602 596.42C753.382 596.42 752.242 597.62 752.242 599.74V600.32H750.082V602.7H752.242V611H755.002ZM763.638 611.2C766.738 611.2 769.058 608.76 769.058 605.66C769.058 602.54 766.738 600.12 763.638 600.12C760.538 600.12 758.218 602.54 758.218 605.66C758.218 608.76 760.538 611.2 763.638 611.2ZM763.638 608.74C762.258 608.74 761.078 607.64 761.078 605.66C761.078 603.68 762.258 602.6 763.638 602.6C765.018 602.6 766.198 603.68 766.198 605.66C766.198 607.64 765.018 608.74 763.638 608.74ZM773.612 605.82C773.612 603.46 775.192 602.9 777.552 603.08V600.2C775.832 600.2 774.172 601.02 773.392 602.38V600.32H770.832V611H773.612V605.82ZM781.776 611V605.04C781.776 603.44 782.656 602.58 783.776 602.58C784.996 602.58 785.636 603.48 785.636 604.98V611H788.396V605.04C788.396 603.44 789.296 602.58 790.396 602.58C791.616 602.58 792.256 603.48 792.256 604.98V611H795.016V604.1C795.016 601.54 793.556 600.12 791.396 600.12C789.796 600.12 788.716 600.84 787.876 602.02C787.336 600.8 786.216 600.12 784.756 600.12C783.336 600.12 782.336 600.76 781.556 601.84V600.32H778.996V611H781.776ZM810.594 607.58C810.594 606.04 809.534 605.08 807.454 604.68L805.394 604.3C804.434 604.12 803.994 603.86 803.994 603.22C803.994 602.54 804.674 602.16 805.694 602.16C806.874 602.16 807.654 602.8 807.754 603.84H810.414C810.214 601.54 808.374 600.12 805.694 600.12C803.034 600.12 801.334 601.5 801.334 603.48C801.334 605.14 802.494 606.2 804.414 606.54L806.334 606.9C807.354 607.1 807.794 607.38 807.794 608.06C807.794 608.82 806.974 609.16 805.894 609.16C804.514 609.16 803.574 608.46 803.554 607.36H800.894C801.114 609.74 802.814 611.2 805.854 611.2C808.894 611.2 810.594 609.82 810.594 607.58ZM823.152 605.66C823.152 602.52 821.292 600.12 818.412 600.12C817.052 600.12 815.872 600.74 815.052 601.88V600.32H812.492V614.86H815.272V609.62C816.072 610.66 817.152 611.2 818.412 611.2C821.292 611.2 823.152 608.82 823.152 605.66ZM820.292 605.66C820.292 607.7 819.152 608.72 817.792 608.72C816.432 608.72 815.292 607.68 815.292 605.66C815.292 603.64 816.432 602.58 817.792 602.58C819.152 602.58 820.292 603.66 820.292 605.66ZM829.573 611.18C832.173 611.18 834.033 609.8 834.633 607.38H831.873C831.553 608.44 830.733 609.04 829.513 609.04C828.093 609.04 827.253 608.08 827.073 606.34H834.653C835.153 602.86 832.913 600.12 829.533 600.12C826.453 600.12 824.233 602.44 824.233 605.62C824.233 608.96 826.373 611.18 829.573 611.18ZM829.473 602.16C830.793 602.16 831.633 603.1 831.713 604.58H827.113C827.353 603 828.173 602.16 829.473 602.16ZM840.82 611.2C843.68 611.2 845.68 609.38 846 606.44H843.08C842.92 607.9 842.1 608.74 840.82 608.74C839.36 608.74 838.46 607.58 838.46 605.66C838.46 603.76 839.38 602.58 840.82 602.58C842.08 602.58 842.94 603.46 843.08 604.88H846C845.66 602 843.6 600.12 840.82 600.12C837.82 600.12 835.62 602.46 835.62 605.66C835.62 608.92 837.74 611.2 840.82 611.2ZM851.005 597.84C851.005 596.86 850.245 596.16 849.145 596.16C848.065 596.16 847.305 596.86 847.305 597.84C847.305 598.78 848.065 599.48 849.145 599.48C850.245 599.48 851.005 598.78 851.005 597.84ZM850.565 611V600.32H847.785V611H850.565ZM864.239 597.84C864.239 596.86 863.479 596.16 862.379 596.16C861.279 596.16 860.519 596.86 860.519 597.84C860.519 598.78 861.279 599.48 862.379 599.48C863.479 599.48 864.239 598.78 864.239 597.84ZM856.819 611V602.7H859.599V600.32H856.819V599.8C856.819 599.06 857.319 598.76 858.079 598.76C858.439 598.76 858.839 598.82 859.139 598.94V596.74C858.679 596.54 858.099 596.42 857.419 596.42C855.199 596.42 854.059 597.62 854.059 599.74V600.32H851.899V602.7H854.059V611H856.819ZM863.779 611V600.32H861.019V611H863.779ZM870.781 611.2C873.641 611.2 875.641 609.38 875.961 606.44H873.041C872.881 607.9 872.061 608.74 870.781 608.74C869.321 608.74 868.421 607.58 868.421 605.66C868.421 603.76 869.341 602.58 870.781 602.58C872.041 602.58 872.901 603.46 873.041 604.88H875.961C875.621 602 873.561 600.12 870.781 600.12C867.781 600.12 865.581 602.46 865.581 605.66C865.581 608.92 867.701 611.2 870.781 611.2Z" fill="#F9614C"/>
<rect x="512" y="83" width="399" height="70" rx="35" fill="white"/>
<path d="M555 130.5C561.875 130.5 567.5 124.875 567.5 118C567.5 111.125 561.875 105.5 555 105.5C548.125 105.5 542.5 111.125 542.5 118C542.5 124.875 548.125 130.5 555 130.5Z" stroke="#F9614C" stroke-width="1.5" stroke-linecap="round" stroke-linejoin="round"/>
<path d="M551.463 121.537L558.538 114.462" stroke="#F9614C" stroke-width="1.5" stroke-linecap="round" stroke-linejoin="round"/>
<path d="M558.538 121.537L551.463 114.462" stroke="#F9614C" stroke-width="1.5" stroke-linecap="round" stroke-linejoin="round"/>
<path d="M592.994 121.54C592.994 119.42 591.634 118.26 589.114 117.76L586.654 117.26C585.614 117.06 584.714 116.64 584.714 115.66C584.714 114.66 585.554 113.82 587.034 113.82C588.554 113.82 589.594 114.84 589.694 116.34H592.774C592.574 113.34 590.214 111.46 586.994 111.46C583.894 111.46 581.634 113.3 581.634 115.86C581.634 118.24 583.314 119.42 585.494 119.84L587.854 120.3C589.074 120.54 589.774 121.08 589.774 121.98C589.774 123.14 588.674 123.82 587.134 123.82C585.274 123.82 584.254 122.8 584.174 121.22H581.094C581.314 124.26 583.574 126.2 587.194 126.2C590.794 126.2 592.994 124.28 592.994 121.54ZM599.716 126.2C602.816 126.2 605.136 123.76 605.136 120.66C605.136 117.54 602.816 115.12 599.716 115.12C596.616 115.12 594.296 117.54 594.296 120.66C594.296 123.76 596.616 126.2 599.716 126.2ZM599.716 123.74C598.336 123.74 597.156 122.64 597.156 120.66C597.156 118.68 598.336 117.6 599.716 117.6C601.096 117.6 602.276 118.68 602.276 120.66C602.276 122.64 601.096 123.74 599.716 123.74ZM609.69 126V120.04C609.69 118.44 610.57 117.58 611.69 117.58C612.91 117.58 613.55 118.48 613.55 119.98V126H616.31V120.04C616.31 118.44 617.21 117.58 618.31 117.58C619.53 117.58 620.17 118.48 620.17 119.98V126H622.93V119.1C622.93 116.54 621.47 115.12 619.31 115.12C617.71 115.12 616.63 115.84 615.79 117.02C615.25 115.8 614.13 115.12 612.67 115.12C611.25 115.12 610.25 115.76 609.47 116.84V115.32H606.91V126H609.69ZM629.948 126.18C632.548 126.18 634.408 124.8 635.008 122.38H632.248C631.928 123.44 631.108 124.04 629.888 124.04C628.468 124.04 627.628 123.08 627.448 121.34H635.028C635.528 117.86 633.288 115.12 629.908 115.12C626.828 115.12 624.608 117.44 624.608 120.62C624.608 123.96 626.748 126.18 629.948 126.18ZM629.848 117.16C631.168 117.16 632.008 118.1 632.088 119.58H627.488C627.728 118 628.548 117.16 629.848 117.16ZM647.43 126H649.69V119.28C649.69 116.66 648.05 115.12 645.25 115.12C642.67 115.12 640.89 116.72 640.73 119.18H643.23C643.33 117.98 644.05 117.28 645.25 117.28C646.41 117.28 647.09 117.98 647.09 119.18V119.82C646.43 119.74 645.91 119.7 645.31 119.7C642.19 119.7 640.51 120.82 640.51 122.9C640.51 124.9 641.99 126.2 644.21 126.2C645.67 126.2 646.73 125.68 647.43 124.68V126ZM643.13 122.82C643.13 121.86 643.91 121.36 645.49 121.36C645.97 121.36 646.43 121.4 647.09 121.5V122.26C647.09 123.5 646.23 124.28 644.81 124.28C643.77 124.28 643.13 123.72 643.13 122.82ZM654.866 120.82C654.866 118.46 656.446 117.9 658.806 118.08V115.2C657.086 115.2 655.426 116.02 654.646 117.38V115.32H652.086V126H654.866V120.82ZM664.812 126.18C667.412 126.18 669.272 124.8 669.872 122.38H667.112C666.792 123.44 665.972 124.04 664.752 124.04C663.332 124.04 662.492 123.08 662.312 121.34H669.892C670.392 117.86 668.152 115.12 664.772 115.12C661.692 115.12 659.472 117.44 659.472 120.62C659.472 123.96 661.612 126.18 664.812 126.18ZM664.712 117.16C666.032 117.16 666.872 118.1 666.952 119.58H662.352C662.592 118 663.412 117.16 664.712 117.16Z" fill="black"/>
<path d="M680.653 126.2C683.753 126.2 686.073 123.76 686.073 120.66C686.073 117.54 683.753 115.12 680.653 115.12C677.553 115.12 675.233 117.54 675.233 120.66C675.233 123.76 677.553 126.2 680.653 126.2ZM680.653 123.74C679.273 123.74 678.093 122.64 678.093 120.66C678.093 118.68 679.273 117.6 680.653 117.6C682.033 117.6 683.213 118.68 683.213 120.66C683.213 122.64 682.033 123.74 680.653 123.74ZM690.627 120.18C690.627 118.46 691.567 117.58 692.667 117.58C693.927 117.58 694.547 118.46 694.547 120.04V126H697.307V119.1C697.307 116.52 695.827 115.12 693.687 115.12C692.287 115.12 691.187 115.78 690.407 116.84V115.32H687.847V126H690.627V120.18ZM702.503 126V111.64H699.703V126H702.503ZM714.616 115.32H711.836L709.396 122.64L706.716 115.32H703.716L707.916 125.88L706.396 129.86H709.416L714.616 115.32ZM730.675 120.66C730.675 117.52 728.815 115.12 725.935 115.12C724.575 115.12 723.395 115.74 722.575 116.88V115.32H720.015V129.86H722.795V124.62C723.595 125.66 724.675 126.2 725.935 126.2C728.815 126.2 730.675 123.82 730.675 120.66ZM727.815 120.66C727.815 122.7 726.675 123.72 725.315 123.72C723.955 123.72 722.815 122.68 722.815 120.66C722.815 118.64 723.955 117.58 725.315 117.58C726.675 117.58 727.815 118.66 727.815 120.66ZM735.257 126V111.64H732.457V126H735.257ZM744.11 126H746.37V119.28C746.37 116.66 744.73 115.12 741.93 115.12C739.35 115.12 737.57 116.72 737.41 119.18H739.91C740.01 117.98 740.73 117.28 741.93 117.28C743.09 117.28 743.77 117.98 743.77 119.18V119.82C743.11 119.74 742.59 119.7 741.99 119.7C738.87 119.7 737.19 120.82 737.19 122.9C737.19 124.9 738.67 126.2 740.89 126.2C742.35 126.2 743.41 125.68 744.11 124.68V126ZM739.81 122.82C739.81 121.86 740.59 121.36 742.17 121.36C742.65 121.36 743.11 121.4 743.77 121.5V122.26C743.77 123.5 742.91 124.28 741.49 124.28C740.45 124.28 739.81 123.72 739.81 122.82ZM755.249 123.3C754.849 123.52 754.369 123.64 753.849 123.64C752.849 123.64 752.289 123.14 752.289 121.9V117.7H755.349V115.32H752.289V112.16H749.529V115.32H747.369V117.7H749.529V122.54C749.529 124.94 750.909 126.2 753.109 126.2C753.929 126.2 754.569 126.06 755.249 125.72V123.3ZM761.002 126V117.7H763.782V115.32H761.002V114.8C761.002 114.06 761.502 113.76 762.262 113.76C762.622 113.76 763.022 113.82 763.322 113.94V111.74C762.862 111.54 762.282 111.42 761.602 111.42C759.382 111.42 758.242 112.62 758.242 114.74V115.32H756.082V117.7H758.242V126H761.002ZM769.638 126.2C772.738 126.2 775.058 123.76 775.058 120.66C775.058 117.54 772.738 115.12 769.638 115.12C766.538 115.12 764.218 117.54 764.218 120.66C764.218 123.76 766.538 126.2 769.638 126.2ZM769.638 123.74C768.258 123.74 767.078 122.64 767.078 120.66C767.078 118.68 768.258 117.6 769.638 117.6C771.018 117.6 772.198 118.68 772.198 120.66C772.198 122.64 771.018 123.74 769.638 123.74ZM779.612 120.82C779.612 118.46 781.192 117.9 783.552 118.08V115.2C781.832 115.2 780.172 116.02 779.392 117.38V115.32H776.832V126H779.612V120.82ZM787.776 126V120.04C787.776 118.44 788.656 117.58 789.776 117.58C790.996 117.58 791.636 118.48 791.636 119.98V126H794.396V120.04C794.396 118.44 795.296 117.58 796.396 117.58C797.616 117.58 798.256 118.48 798.256 119.98V126H801.016V119.1C801.016 116.54 799.556 115.12 797.396 115.12C795.796 115.12 794.716 115.84 793.876 117.02C793.336 115.8 792.216 115.12 790.756 115.12C789.336 115.12 788.336 115.76 787.556 116.84V115.32H784.996V126H787.776ZM816.594 122.58C816.594 121.04 815.534 120.08 813.454 119.68L811.394 119.3C810.434 119.12 809.994 118.86 809.994 118.22C809.994 117.54 810.674 117.16 811.694 117.16C812.874 117.16 813.654 117.8 813.754 118.84H816.414C816.214 116.54 814.374 115.12 811.694 115.12C809.034 115.12 807.334 116.5 807.334 118.48C807.334 120.14 808.494 121.2 810.414 121.54L812.334 121.9C813.354 122.1 813.794 122.38 813.794 123.06C813.794 123.82 812.974 124.16 811.894 124.16C810.514 124.16 809.574 123.46 809.554 122.36H806.894C807.114 124.74 808.814 126.2 811.854 126.2C814.894 126.2 816.594 124.82 816.594 122.58ZM829.152 120.66C829.152 117.52 827.292 115.12 824.412 115.12C823.052 115.12 821.872 115.74 821.052 116.88V115.32H818.492V129.86H821.272V124.62C822.072 125.66 823.152 126.2 824.412 126.2C827.292 126.2 829.152 123.82 829.152 120.66ZM826.292 120.66C826.292 122.7 825.152 123.72 823.792 123.72C822.432 123.72 821.292 122.68 821.292 120.66C821.292 118.64 822.432 117.58 823.792 117.58C825.152 117.58 826.292 118.66 826.292 120.66ZM835.573 126.18C838.173 126.18 840.033 124.8 840.633 122.38H837.873C837.553 123.44 836.733 124.04 835.513 124.04C834.093 124.04 833.253 123.08 833.073 121.34H840.653C841.153 117.86 838.913 115.12 835.533 115.12C832.453 115.12 830.233 117.44 830.233 120.62C830.233 123.96 832.373 126.18 835.573 126.18ZM835.473 117.16C836.793 117.16 837.633 118.1 837.713 119.58H833.113C833.353 118 834.173 117.16 835.473 117.16ZM846.82 126.2C849.68 126.2 851.68 124.38 852 121.44H849.08C848.92 122.9 848.1 123.74 846.82 123.74C845.36 123.74 844.46 122.58 844.46 120.66C844.46 118.76 845.38 117.58 846.82 117.58C848.08 117.58 848.94 118.46 849.08 119.88H852C851.66 117 849.6 115.12 846.82 115.12C843.82 115.12 841.62 117.46 841.62 120.66C841.62 123.92 843.74 126.2 846.82 126.2ZM857.005 112.84C857.005 111.86 856.245 111.16 855.145 111.16C854.065 111.16 853.305 111.86 853.305 112.84C853.305 113.78 854.065 114.48 855.145 114.48C856.245 114.48 857.005 113.78 857.005 112.84ZM856.565 126V115.32H853.785V126H856.565ZM870.239 112.84C870.239 111.86 869.479 111.16 868.379 111.16C867.279 111.16 866.519 111.86 866.519 112.84C866.519 113.78 867.279 114.48 868.379 114.48C869.479 114.48 870.239 113.78 870.239 112.84ZM862.819 126V117.7H865.599V115.32H862.819V114.8C862.819 114.06 863.319 113.76 864.079 113.76C864.439 113.76 864.839 113.82 865.139 113.94V111.74C864.679 111.54 864.099 111.42 863.419 111.42C861.199 111.42 860.059 112.62 860.059 114.74V115.32H857.899V117.7H860.059V126H862.819ZM869.779 126V115.32H867.019V126H869.779ZM876.781 126.2C879.641 126.2 881.641 124.38 881.961 121.44H879.041C878.881 122.9 878.061 123.74 876.781 123.74C875.321 123.74 874.421 122.58 874.421 120.66C874.421 118.76 875.341 117.58 876.781 117.58C878.041 117.58 878.901 118.46 879.041 119.88H881.961C881.621 117 879.561 115.12 876.781 115.12C873.781 115.12 871.581 117.46 871.581 120.66C871.581 123.92 873.701 126.2 876.781 126.2Z" fill="#F9614C"/>
<rect x="901" y="450" width="404" height="70" rx="35" fill="white"/>
<path d="M944 497.5C950.875 497.5 956.5 491.875 956.5 485C956.5 478.125 950.875 472.5 944 472.5C937.125 472.5 931.5 478.125 931.5 485C931.5 491.875 937.125 497.5 944 497.5Z" stroke="#F9614C" stroke-width="1.5" stroke-linecap="round" stroke-linejoin="round"/>
<path d="M940.463 488.537L947.538 481.462" stroke="#F9614C" stroke-width="1.5" stroke-linecap="round" stroke-linejoin="round"/>
<path d="M947.538 488.537L940.463 481.462" stroke="#F9614C" stroke-width="1.5" stroke-linecap="round" stroke-linejoin="round"/>
<path d="M981.994 488.54C981.994 486.42 980.634 485.26 978.114 484.76L975.654 484.26C974.614 484.06 973.714 483.64 973.714 482.66C973.714 481.66 974.554 480.82 976.034 480.82C977.554 480.82 978.594 481.84 978.694 483.34H981.774C981.574 480.34 979.214 478.46 975.994 478.46C972.894 478.46 970.634 480.3 970.634 482.86C970.634 485.24 972.314 486.42 974.494 486.84L976.854 487.3C978.074 487.54 978.774 488.08 978.774 488.98C978.774 490.14 977.674 490.82 976.134 490.82C974.274 490.82 973.254 489.8 973.174 488.22H970.094C970.314 491.26 972.574 493.2 976.194 493.2C979.794 493.2 981.994 491.28 981.994 488.54ZM988.716 493.2C991.816 493.2 994.136 490.76 994.136 487.66C994.136 484.54 991.816 482.12 988.716 482.12C985.616 482.12 983.296 484.54 983.296 487.66C983.296 490.76 985.616 493.2 988.716 493.2ZM988.716 490.74C987.336 490.74 986.156 489.64 986.156 487.66C986.156 485.68 987.336 484.6 988.716 484.6C990.096 484.6 991.276 485.68 991.276 487.66C991.276 489.64 990.096 490.74 988.716 490.74ZM998.69 493V487.04C998.69 485.44 999.57 484.58 1000.69 484.58C1001.91 484.58 1002.55 485.48 1002.55 486.98V493H1005.31V487.04C1005.31 485.44 1006.21 484.58 1007.31 484.58C1008.53 484.58 1009.17 485.48 1009.17 486.98V493H1011.93V486.1C1011.93 483.54 1010.47 482.12 1008.31 482.12C1006.71 482.12 1005.63 482.84 1004.79 484.02C1004.25 482.8 1003.13 482.12 1001.67 482.12C1000.25 482.12 999.25 482.76 998.47 483.84V482.32H995.91V493H998.69ZM1018.95 493.18C1021.55 493.18 1023.41 491.8 1024.01 489.38H1021.25C1020.93 490.44 1020.11 491.04 1018.89 491.04C1017.47 491.04 1016.63 490.08 1016.45 488.34H1024.03C1024.53 484.86 1022.29 482.12 1018.91 482.12C1015.83 482.12 1013.61 484.44 1013.61 487.62C1013.61 490.96 1015.75 493.18 1018.95 493.18ZM1018.85 484.16C1020.17 484.16 1021.01 485.1 1021.09 486.58H1016.49C1016.73 485 1017.55 484.16 1018.85 484.16ZM1036.43 493H1038.69V486.28C1038.69 483.66 1037.05 482.12 1034.25 482.12C1031.67 482.12 1029.89 483.72 1029.73 486.18H1032.23C1032.33 484.98 1033.05 484.28 1034.25 484.28C1035.41 484.28 1036.09 484.98 1036.09 486.18V486.82C1035.43 486.74 1034.91 486.7 1034.31 486.7C1031.19 486.7 1029.51 487.82 1029.51 489.9C1029.51 491.9 1030.99 493.2 1033.21 493.2C1034.67 493.2 1035.73 492.68 1036.43 491.68V493ZM1032.13 489.82C1032.13 488.86 1032.91 488.36 1034.49 488.36C1034.97 488.36 1035.43 488.4 1036.09 488.5V489.26C1036.09 490.5 1035.23 491.28 1033.81 491.28C1032.77 491.28 1032.13 490.72 1032.13 489.82ZM1043.87 487.82C1043.87 485.46 1045.45 484.9 1047.81 485.08V482.2C1046.09 482.2 1044.43 483.02 1043.65 484.38V482.32H1041.09V493H1043.87V487.82ZM1053.81 493.18C1056.41 493.18 1058.27 491.8 1058.87 489.38H1056.11C1055.79 490.44 1054.97 491.04 1053.75 491.04C1052.33 491.04 1051.49 490.08 1051.31 488.34H1058.89C1059.39 484.86 1057.15 482.12 1053.77 482.12C1050.69 482.12 1048.47 484.44 1048.47 487.62C1048.47 490.96 1050.61 493.18 1053.81 493.18ZM1053.71 484.16C1055.03 484.16 1055.87 485.1 1055.95 486.58H1051.35C1051.59 485 1052.41 484.16 1053.71 484.16Z" fill="black"/>
<path d="M1067.73 493V478.64H1064.93V493H1067.73ZM1076.59 493H1078.85V486.28C1078.85 483.66 1077.21 482.12 1074.41 482.12C1071.83 482.12 1070.05 483.72 1069.89 486.18H1072.39C1072.49 484.98 1073.21 484.28 1074.41 484.28C1075.57 484.28 1076.25 484.98 1076.25 486.18V486.82C1075.59 486.74 1075.07 486.7 1074.47 486.7C1071.35 486.7 1069.67 487.82 1069.67 489.9C1069.67 491.9 1071.15 493.2 1073.37 493.2C1074.83 493.2 1075.89 492.68 1076.59 491.68V493ZM1072.29 489.82C1072.29 488.86 1073.07 488.36 1074.65 488.36C1075.13 488.36 1075.59 488.4 1076.25 488.5V489.26C1076.25 490.5 1075.39 491.28 1073.97 491.28C1072.93 491.28 1072.29 490.72 1072.29 489.82ZM1085.74 493.2C1088.6 493.2 1090.6 491.38 1090.92 488.44H1088C1087.84 489.9 1087.02 490.74 1085.74 490.74C1084.28 490.74 1083.38 489.58 1083.38 487.66C1083.38 485.76 1084.3 484.58 1085.74 484.58C1087 484.58 1087.86 485.46 1088 486.88H1090.92C1090.58 484 1088.52 482.12 1085.74 482.12C1082.74 482.12 1080.54 484.46 1080.54 487.66C1080.54 490.92 1082.66 493.2 1085.74 493.2ZM1095.49 493V488.04L1099.57 493H1103.11L1098.17 487.44L1102.59 482.32H1099.39L1095.49 486.84V478.64H1092.71V493H1095.49ZM1107.61 479.84C1107.61 478.86 1106.85 478.16 1105.75 478.16C1104.67 478.16 1103.91 478.86 1103.91 479.84C1103.91 480.78 1104.67 481.48 1105.75 481.48C1106.85 481.48 1107.61 480.78 1107.61 479.84ZM1107.17 493V482.32H1104.39V493H1107.17ZM1112.42 487.18C1112.42 485.46 1113.36 484.58 1114.46 484.58C1115.72 484.58 1116.34 485.46 1116.34 487.04V493H1119.1V486.1C1119.1 483.52 1117.62 482.12 1115.48 482.12C1114.08 482.12 1112.98 482.78 1112.2 483.84V482.32H1109.64V493H1112.42V487.18ZM1126.04 497.06C1129.2 497.06 1131.12 495.34 1131.12 492.5V482.32H1128.58V483.78C1127.8 482.68 1126.72 482.12 1125.28 482.12C1122.64 482.12 1120.8 484.26 1120.8 487.36C1120.8 490.38 1122.76 492.6 1125.38 492.6C1126.68 492.6 1127.78 492 1128.36 490.98V492.54C1128.36 494.08 1127.56 494.9 1126.02 494.9C1124.7 494.9 1123.92 494.26 1123.8 493.04H1121.12C1121.24 495.5 1123.16 497.06 1126.04 497.06ZM1123.58 487.36C1123.58 485.62 1124.5 484.52 1125.92 484.52C1127.38 484.52 1128.34 485.64 1128.34 487.38C1128.34 489.06 1127.38 490.2 1125.92 490.2C1124.48 490.2 1123.58 489.1 1123.58 487.36ZM1142.34 497.06C1145.5 497.06 1147.42 495.34 1147.42 492.5V482.32H1144.88V483.78C1144.1 482.68 1143.02 482.12 1141.58 482.12C1138.94 482.12 1137.1 484.26 1137.1 487.36C1137.1 490.38 1139.06 492.6 1141.68 492.6C1142.98 492.6 1144.08 492 1144.66 490.98V492.54C1144.66 494.08 1143.86 494.9 1142.32 494.9C1141 494.9 1140.22 494.26 1140.1 493.04H1137.42C1137.54 495.5 1139.46 497.06 1142.34 497.06ZM1139.88 487.36C1139.88 485.62 1140.8 484.52 1142.22 484.52C1143.68 484.52 1144.64 485.64 1144.64 487.38C1144.64 489.06 1143.68 490.2 1142.22 490.2C1140.78 490.2 1139.88 489.1 1139.88 487.36ZM1154.65 493.2C1157.75 493.2 1160.07 490.76 1160.07 487.66C1160.07 484.54 1157.75 482.12 1154.65 482.12C1151.55 482.12 1149.23 484.54 1149.23 487.66C1149.23 490.76 1151.55 493.2 1154.65 493.2ZM1154.65 490.74C1153.27 490.74 1152.09 489.64 1152.09 487.66C1152.09 485.68 1153.27 484.6 1154.65 484.6C1156.03 484.6 1157.21 485.68 1157.21 487.66C1157.21 489.64 1156.03 490.74 1154.65 490.74ZM1166.57 493.2C1169.67 493.2 1171.99 490.76 1171.99 487.66C1171.99 484.54 1169.67 482.12 1166.57 482.12C1163.47 482.12 1161.15 484.54 1161.15 487.66C1161.15 490.76 1163.47 493.2 1166.57 493.2ZM1166.57 490.74C1165.19 490.74 1164.01 489.64 1164.01 487.66C1164.01 485.68 1165.19 484.6 1166.57 484.6C1167.95 484.6 1169.13 485.68 1169.13 487.66C1169.13 489.64 1167.95 490.74 1166.57 490.74ZM1173.06 487.66C1173.06 490.78 1174.92 493.2 1177.8 493.2C1179.18 493.2 1180.34 492.58 1181.18 491.46V493H1183.72V478.64H1180.96V483.7C1180.16 482.68 1179.08 482.12 1177.8 482.12C1174.92 482.12 1173.06 484.5 1173.06 487.66ZM1175.92 487.66C1175.92 485.62 1177.06 484.58 1178.42 484.58C1179.78 484.58 1180.94 485.6 1180.94 487.62C1180.94 489.64 1179.8 490.72 1178.42 490.72C1177.06 490.72 1175.92 489.66 1175.92 487.66ZM1193.6 479.84C1193.6 478.86 1192.84 478.16 1191.74 478.16C1190.66 478.16 1189.9 478.86 1189.9 479.84C1189.9 480.78 1190.66 481.48 1191.74 481.48C1192.84 481.48 1193.6 480.78 1193.6 479.84ZM1193.16 493V482.32H1190.38V493H1193.16ZM1198.42 487.18C1198.42 485.46 1199.36 484.58 1200.46 484.58C1201.72 484.58 1202.34 485.46 1202.34 487.04V493H1205.1V486.1C1205.1 483.52 1203.62 482.12 1201.48 482.12C1200.08 482.12 1198.98 482.78 1198.2 483.84V482.32H1195.64V493H1198.42V487.18ZM1214.05 490.3C1213.65 490.52 1213.17 490.64 1212.65 490.64C1211.65 490.64 1211.09 490.14 1211.09 488.9V484.7H1214.15V482.32H1211.09V479.16H1208.33V482.32H1206.17V484.7H1208.33V489.54C1208.33 491.94 1209.71 493.2 1211.91 493.2C1212.73 493.2 1213.37 493.06 1214.05 492.72V490.3ZM1220.26 493.18C1222.86 493.18 1224.72 491.8 1225.32 489.38H1222.56C1222.24 490.44 1221.42 491.04 1220.2 491.04C1218.78 491.04 1217.94 490.08 1217.76 488.34H1225.34C1225.84 484.86 1223.6 482.12 1220.22 482.12C1217.14 482.12 1214.92 484.44 1214.92 487.62C1214.92 490.96 1217.06 493.18 1220.26 493.18ZM1220.16 484.16C1221.48 484.16 1222.32 485.1 1222.4 486.58H1217.8C1218.04 485 1218.86 484.16 1220.16 484.16ZM1229.98 487.82C1229.98 485.46 1231.56 484.9 1233.92 485.08V482.2C1232.2 482.2 1230.54 483.02 1229.76 484.38V482.32H1227.2V493H1229.98V487.82ZM1239.75 493V484.7H1242.53V482.32H1239.75V481.8C1239.75 481.06 1240.25 480.76 1241.01 480.76C1241.37 480.76 1241.77 480.82 1242.07 480.94V478.74C1241.61 478.54 1241.03 478.42 1240.35 478.42C1238.13 478.42 1236.99 479.62 1236.99 481.74V482.32H1234.83V484.7H1236.99V493H1239.75ZM1250.08 493H1252.34V486.28C1252.34 483.66 1250.7 482.12 1247.9 482.12C1245.32 482.12 1243.54 483.72 1243.38 486.18H1245.88C1245.98 484.98 1246.7 484.28 1247.9 484.28C1249.06 484.28 1249.74 484.98 1249.74 486.18V486.82C1249.08 486.74 1248.56 486.7 1247.96 486.7C1244.84 486.7 1243.16 487.82 1243.16 489.9C1243.16 491.9 1244.64 493.2 1246.86 493.2C1248.32 493.2 1249.38 492.68 1250.08 491.68V493ZM1245.78 489.82C1245.78 488.86 1246.56 488.36 1248.14 488.36C1248.62 488.36 1249.08 488.4 1249.74 488.5V489.26C1249.74 490.5 1248.88 491.28 1247.46 491.28C1246.42 491.28 1245.78 490.72 1245.78 489.82ZM1259.24 493.2C1262.1 493.2 1264.1 491.38 1264.42 488.44H1261.5C1261.34 489.9 1260.52 490.74 1259.24 490.74C1257.78 490.74 1256.88 489.58 1256.88 487.66C1256.88 485.76 1257.8 484.58 1259.24 484.58C1260.5 484.58 1261.36 485.46 1261.5 486.88H1264.42C1264.08 484 1262.02 482.12 1259.24 482.12C1256.24 482.12 1254.04 484.46 1254.04 487.66C1254.04 490.92 1256.16 493.2 1259.24 493.2ZM1270.8 493.18C1273.4 493.18 1275.26 491.8 1275.86 489.38H1273.1C1272.78 490.44 1271.96 491.04 1270.74 491.04C1269.32 491.04 1268.48 490.08 1268.3 488.34H1275.88C1276.38 484.86 1274.14 482.12 1270.76 482.12C1267.68 482.12 1265.46 484.44 1265.46 487.62C1265.46 490.96 1267.6 493.18 1270.8 493.18ZM1270.7 484.16C1272.02 484.16 1272.86 485.1 1272.94 486.58H1268.34C1268.58 485 1269.4 484.16 1270.7 484.16Z" fill="#F9614C"/>
<rect x="1022" y="225" width="404" height="70" rx="35" fill="white"/>
<path d="M1065 272.5C1071.88 272.5 1077.5 266.875 1077.5 260C1077.5 253.125 1071.88 247.5 1065 247.5C1058.12 247.5 1052.5 253.125 1052.5 260C1052.5 266.875 1058.12 272.5 1065 272.5Z" stroke="#F9614C" stroke-width="1.5" stroke-linecap="round" stroke-linejoin="round"/>
<path d="M1061.46 263.537L1068.54 256.462" stroke="#F9614C" stroke-width="1.5" stroke-linecap="round" stroke-linejoin="round"/>
<path d="M1068.54 263.537L1061.46 256.462" stroke="#F9614C" stroke-width="1.5" stroke-linecap="round" stroke-linejoin="round"/>
<path d="M1102.99 263.54C1102.99 261.42 1101.63 260.26 1099.11 259.76L1096.65 259.26C1095.61 259.06 1094.71 258.64 1094.71 257.66C1094.71 256.66 1095.55 255.82 1097.03 255.82C1098.55 255.82 1099.59 256.84 1099.69 258.34H1102.77C1102.57 255.34 1100.21 253.46 1096.99 253.46C1093.89 253.46 1091.63 255.3 1091.63 257.86C1091.63 260.24 1093.31 261.42 1095.49 261.84L1097.85 262.3C1099.07 262.54 1099.77 263.08 1099.77 263.98C1099.77 265.14 1098.67 265.82 1097.13 265.82C1095.27 265.82 1094.25 264.8 1094.17 263.22H1091.09C1091.31 266.26 1093.57 268.2 1097.19 268.2C1100.79 268.2 1102.99 266.28 1102.99 263.54ZM1109.72 268.2C1112.82 268.2 1115.14 265.76 1115.14 262.66C1115.14 259.54 1112.82 257.12 1109.72 257.12C1106.62 257.12 1104.3 259.54 1104.3 262.66C1104.3 265.76 1106.62 268.2 1109.72 268.2ZM1109.72 265.74C1108.34 265.74 1107.16 264.64 1107.16 262.66C1107.16 260.68 1108.34 259.6 1109.72 259.6C1111.1 259.6 1112.28 260.68 1112.28 262.66C1112.28 264.64 1111.1 265.74 1109.72 265.74ZM1119.69 268V262.04C1119.69 260.44 1120.57 259.58 1121.69 259.58C1122.91 259.58 1123.55 260.48 1123.55 261.98V268H1126.31V262.04C1126.31 260.44 1127.21 259.58 1128.31 259.58C1129.53 259.58 1130.17 260.48 1130.17 261.98V268H1132.93V261.1C1132.93 258.54 1131.47 257.12 1129.31 257.12C1127.71 257.12 1126.63 257.84 1125.79 259.02C1125.25 257.8 1124.13 257.12 1122.67 257.12C1121.25 257.12 1120.25 257.76 1119.47 258.84V257.32H1116.91V268H1119.69ZM1139.95 268.18C1142.55 268.18 1144.41 266.8 1145.01 264.38H1142.25C1141.93 265.44 1141.11 266.04 1139.89 266.04C1138.47 266.04 1137.63 265.08 1137.45 263.34H1145.03C1145.53 259.86 1143.29 257.12 1139.91 257.12C1136.83 257.12 1134.61 259.44 1134.61 262.62C1134.61 265.96 1136.75 268.18 1139.95 268.18ZM1139.85 259.16C1141.17 259.16 1142.01 260.1 1142.09 261.58H1137.49C1137.73 260 1138.55 259.16 1139.85 259.16ZM1157.43 268H1159.69V261.28C1159.69 258.66 1158.05 257.12 1155.25 257.12C1152.67 257.12 1150.89 258.72 1150.73 261.18H1153.23C1153.33 259.98 1154.05 259.28 1155.25 259.28C1156.41 259.28 1157.09 259.98 1157.09 261.18V261.82C1156.43 261.74 1155.91 261.7 1155.31 261.7C1152.19 261.7 1150.51 262.82 1150.51 264.9C1150.51 266.9 1151.99 268.2 1154.21 268.2C1155.67 268.2 1156.73 267.68 1157.43 266.68V268ZM1153.13 264.82C1153.13 263.86 1153.91 263.36 1155.49 263.36C1155.97 263.36 1156.43 263.4 1157.09 263.5V264.26C1157.09 265.5 1156.23 266.28 1154.81 266.28C1153.77 266.28 1153.13 265.72 1153.13 264.82ZM1164.87 262.82C1164.87 260.46 1166.45 259.9 1168.81 260.08V257.2C1167.09 257.2 1165.43 258.02 1164.65 259.38V257.32H1162.09V268H1164.87V262.82ZM1174.81 268.18C1177.41 268.18 1179.27 266.8 1179.87 264.38H1177.11C1176.79 265.44 1175.97 266.04 1174.75 266.04C1173.33 266.04 1172.49 265.08 1172.31 263.34H1179.89C1180.39 259.86 1178.15 257.12 1174.77 257.12C1171.69 257.12 1169.47 259.44 1169.47 262.62C1169.47 265.96 1171.61 268.18 1174.81 268.18ZM1174.71 259.16C1176.03 259.16 1176.87 260.1 1176.95 261.58H1172.35C1172.59 260 1173.41 259.16 1174.71 259.16Z" fill="black"/>
<path d="M1188.73 268V253.64H1185.93V268H1188.73ZM1197.59 268H1199.85V261.28C1199.85 258.66 1198.21 257.12 1195.41 257.12C1192.83 257.12 1191.05 258.72 1190.89 261.18H1193.39C1193.49 259.98 1194.21 259.28 1195.41 259.28C1196.57 259.28 1197.25 259.98 1197.25 261.18V261.82C1196.59 261.74 1196.07 261.7 1195.47 261.7C1192.35 261.7 1190.67 262.82 1190.67 264.9C1190.67 266.9 1192.15 268.2 1194.37 268.2C1195.83 268.2 1196.89 267.68 1197.59 266.68V268ZM1193.29 264.82C1193.29 263.86 1194.07 263.36 1195.65 263.36C1196.13 263.36 1196.59 263.4 1197.25 263.5V264.26C1197.25 265.5 1196.39 266.28 1194.97 266.28C1193.93 266.28 1193.29 265.72 1193.29 264.82ZM1206.74 268.2C1209.6 268.2 1211.6 266.38 1211.92 263.44H1209C1208.84 264.9 1208.02 265.74 1206.74 265.74C1205.28 265.74 1204.38 264.58 1204.38 262.66C1204.38 260.76 1205.3 259.58 1206.74 259.58C1208 259.58 1208.86 260.46 1209 261.88H1211.92C1211.58 259 1209.52 257.12 1206.74 257.12C1203.74 257.12 1201.54 259.46 1201.54 262.66C1201.54 265.92 1203.66 268.2 1206.74 268.2ZM1216.49 268V263.04L1220.57 268H1224.11L1219.17 262.44L1223.59 257.32H1220.39L1216.49 261.84V253.64H1213.71V268H1216.49ZM1228.61 254.84C1228.61 253.86 1227.85 253.16 1226.75 253.16C1225.67 253.16 1224.91 253.86 1224.91 254.84C1224.91 255.78 1225.67 256.48 1226.75 256.48C1227.85 256.48 1228.61 255.78 1228.61 254.84ZM1228.17 268V257.32H1225.39V268H1228.17ZM1233.42 262.18C1233.42 260.46 1234.36 259.58 1235.46 259.58C1236.72 259.58 1237.34 260.46 1237.34 262.04V268H1240.1V261.1C1240.1 258.52 1238.62 257.12 1236.48 257.12C1235.08 257.12 1233.98 257.78 1233.2 258.84V257.32H1230.64V268H1233.42V262.18ZM1247.04 272.06C1250.2 272.06 1252.12 270.34 1252.12 267.5V257.32H1249.58V258.78C1248.8 257.68 1247.72 257.12 1246.28 257.12C1243.64 257.12 1241.8 259.26 1241.8 262.36C1241.8 265.38 1243.76 267.6 1246.38 267.6C1247.68 267.6 1248.78 267 1249.36 265.98V267.54C1249.36 269.08 1248.56 269.9 1247.02 269.9C1245.7 269.9 1244.92 269.26 1244.8 268.04H1242.12C1242.24 270.5 1244.16 272.06 1247.04 272.06ZM1244.58 262.36C1244.58 260.62 1245.5 259.52 1246.92 259.52C1248.38 259.52 1249.34 260.64 1249.34 262.38C1249.34 264.06 1248.38 265.2 1246.92 265.2C1245.48 265.2 1244.58 264.1 1244.58 262.36ZM1263.34 272.06C1266.5 272.06 1268.42 270.34 1268.42 267.5V257.32H1265.88V258.78C1265.1 257.68 1264.02 257.12 1262.58 257.12C1259.94 257.12 1258.1 259.26 1258.1 262.36C1258.1 265.38 1260.06 267.6 1262.68 267.6C1263.98 267.6 1265.08 267 1265.66 265.98V267.54C1265.66 269.08 1264.86 269.9 1263.32 269.9C1262 269.9 1261.22 269.26 1261.1 268.04H1258.42C1258.54 270.5 1260.46 272.06 1263.34 272.06ZM1260.88 262.36C1260.88 260.62 1261.8 259.52 1263.22 259.52C1264.68 259.52 1265.64 260.64 1265.64 262.38C1265.64 264.06 1264.68 265.2 1263.22 265.2C1261.78 265.2 1260.88 264.1 1260.88 262.36ZM1275.65 268.2C1278.75 268.2 1281.07 265.76 1281.07 262.66C1281.07 259.54 1278.75 257.12 1275.65 257.12C1272.55 257.12 1270.23 259.54 1270.23 262.66C1270.23 265.76 1272.55 268.2 1275.65 268.2ZM1275.65 265.74C1274.27 265.74 1273.09 264.64 1273.09 262.66C1273.09 260.68 1274.27 259.6 1275.65 259.6C1277.03 259.6 1278.21 260.68 1278.21 262.66C1278.21 264.64 1277.03 265.74 1275.65 265.74ZM1287.57 268.2C1290.67 268.2 1292.99 265.76 1292.99 262.66C1292.99 259.54 1290.67 257.12 1287.57 257.12C1284.47 257.12 1282.15 259.54 1282.15 262.66C1282.15 265.76 1284.47 268.2 1287.57 268.2ZM1287.57 265.74C1286.19 265.74 1285.01 264.64 1285.01 262.66C1285.01 260.68 1286.19 259.6 1287.57 259.6C1288.95 259.6 1290.13 260.68 1290.13 262.66C1290.13 264.64 1288.95 265.74 1287.57 265.74ZM1294.06 262.66C1294.06 265.78 1295.92 268.2 1298.8 268.2C1300.18 268.2 1301.34 267.58 1302.18 266.46V268H1304.72V253.64H1301.96V258.7C1301.16 257.68 1300.08 257.12 1298.8 257.12C1295.92 257.12 1294.06 259.5 1294.06 262.66ZM1296.92 262.66C1296.92 260.62 1298.06 259.58 1299.42 259.58C1300.78 259.58 1301.94 260.6 1301.94 262.62C1301.94 264.64 1300.8 265.72 1299.42 265.72C1298.06 265.72 1296.92 264.66 1296.92 262.66ZM1314.6 254.84C1314.6 253.86 1313.84 253.16 1312.74 253.16C1311.66 253.16 1310.9 253.86 1310.9 254.84C1310.9 255.78 1311.66 256.48 1312.74 256.48C1313.84 256.48 1314.6 255.78 1314.6 254.84ZM1314.16 268V257.32H1311.38V268H1314.16ZM1319.42 262.18C1319.42 260.46 1320.36 259.58 1321.46 259.58C1322.72 259.58 1323.34 260.46 1323.34 262.04V268H1326.1V261.1C1326.1 258.52 1324.62 257.12 1322.48 257.12C1321.08 257.12 1319.98 257.78 1319.2 258.84V257.32H1316.64V268H1319.42V262.18ZM1335.05 265.3C1334.65 265.52 1334.17 265.64 1333.65 265.64C1332.65 265.64 1332.09 265.14 1332.09 263.9V259.7H1335.15V257.32H1332.09V254.16H1329.33V257.32H1327.17V259.7H1329.33V264.54C1329.33 266.94 1330.71 268.2 1332.91 268.2C1333.73 268.2 1334.37 268.06 1335.05 267.72V265.3ZM1341.26 268.18C1343.86 268.18 1345.72 266.8 1346.32 264.38H1343.56C1343.24 265.44 1342.42 266.04 1341.2 266.04C1339.78 266.04 1338.94 265.08 1338.76 263.34H1346.34C1346.84 259.86 1344.6 257.12 1341.22 257.12C1338.14 257.12 1335.92 259.44 1335.92 262.62C1335.92 265.96 1338.06 268.18 1341.26 268.18ZM1341.16 259.16C1342.48 259.16 1343.32 260.1 1343.4 261.58H1338.8C1339.04 260 1339.86 259.16 1341.16 259.16ZM1350.98 262.82C1350.98 260.46 1352.56 259.9 1354.92 260.08V257.2C1353.2 257.2 1351.54 258.02 1350.76 259.38V257.32H1348.2V268H1350.98V262.82ZM1360.75 268V259.7H1363.53V257.32H1360.75V256.8C1360.75 256.06 1361.25 255.76 1362.01 255.76C1362.37 255.76 1362.77 255.82 1363.07 255.94V253.74C1362.61 253.54 1362.03 253.42 1361.35 253.42C1359.13 253.42 1357.99 254.62 1357.99 256.74V257.32H1355.83V259.7H1357.99V268H1360.75ZM1371.08 268H1373.34V261.28C1373.34 258.66 1371.7 257.12 1368.9 257.12C1366.32 257.12 1364.54 258.72 1364.38 261.18H1366.88C1366.98 259.98 1367.7 259.28 1368.9 259.28C1370.06 259.28 1370.74 259.98 1370.74 261.18V261.82C1370.08 261.74 1369.56 261.7 1368.96 261.7C1365.84 261.7 1364.16 262.82 1364.16 264.9C1364.16 266.9 1365.64 268.2 1367.86 268.2C1369.32 268.2 1370.38 267.68 1371.08 266.68V268ZM1366.78 264.82C1366.78 263.86 1367.56 263.36 1369.14 263.36C1369.62 263.36 1370.08 263.4 1370.74 263.5V264.26C1370.74 265.5 1369.88 266.28 1368.46 266.28C1367.42 266.28 1366.78 265.72 1366.78 264.82ZM1380.24 268.2C1383.1 268.2 1385.1 266.38 1385.42 263.44H1382.5C1382.34 264.9 1381.52 265.74 1380.24 265.74C1378.78 265.74 1377.88 264.58 1377.88 262.66C1377.88 260.76 1378.8 259.58 1380.24 259.58C1381.5 259.58 1382.36 260.46 1382.5 261.88H1385.42C1385.08 259 1383.02 257.12 1380.24 257.12C1377.24 257.12 1375.04 259.46 1375.04 262.66C1375.04 265.92 1377.16 268.2 1380.24 268.2ZM1391.8 268.18C1394.4 268.18 1396.26 266.8 1396.86 264.38H1394.1C1393.78 265.44 1392.96 266.04 1391.74 266.04C1390.32 266.04 1389.48 265.08 1389.3 263.34H1396.88C1397.38 259.86 1395.14 257.12 1391.76 257.12C1388.68 257.12 1386.46 259.44 1386.46 262.62C1386.46 265.96 1388.6 268.18 1391.8 268.18ZM1391.7 259.16C1393.02 259.16 1393.86 260.1 1393.94 261.58H1389.34C1389.58 260 1390.4 259.16 1391.7 259.16Z" fill="#F9614C"/>
<rect x="84" y="441" width="400" height="70" rx="35" fill="white"/>
<path d="M127 488.5C133.875 488.5 139.5 482.875 139.5 476C139.5 469.125 133.875 463.5 127 463.5C120.125 463.5 114.5 469.125 114.5 476C114.5 482.875 120.125 488.5 127 488.5Z" stroke="#F9614C" stroke-width="1.5" stroke-linecap="round" stroke-linejoin="round"/>
<path d="M123.463 479.537L130.538 472.462" stroke="#F9614C" stroke-width="1.5" stroke-linecap="round" stroke-linejoin="round"/>
<path d="M130.538 479.537L123.463 472.462" stroke="#F9614C" stroke-width="1.5" stroke-linecap="round" stroke-linejoin="round"/>
<path d="M164.664 479.54C164.664 477.42 163.304 476.26 160.784 475.76L158.324 475.26C157.284 475.06 156.384 474.64 156.384 473.66C156.384 472.66 157.224 471.82 158.704 471.82C160.224 471.82 161.264 472.84 161.364 474.34H164.444C164.244 471.34 161.884 469.46 158.664 469.46C155.564 469.46 153.304 471.3 153.304 473.86C153.304 476.24 154.984 477.42 157.164 477.84L159.524 478.3C160.744 478.54 161.444 479.08 161.444 479.98C161.444 481.14 160.344 481.82 158.804 481.82C156.944 481.82 155.924 480.8 155.844 479.22H152.764C152.984 482.26 155.244 484.2 158.864 484.2C162.464 484.2 164.664 482.28 164.664 479.54ZM171.386 484.2C174.486 484.2 176.806 481.76 176.806 478.66C176.806 475.54 174.486 473.12 171.386 473.12C168.286 473.12 165.966 475.54 165.966 478.66C165.966 481.76 168.286 484.2 171.386 484.2ZM171.386 481.74C170.006 481.74 168.826 480.64 168.826 478.66C168.826 476.68 170.006 475.6 171.386 475.6C172.766 475.6 173.946 476.68 173.946 478.66C173.946 480.64 172.766 481.74 171.386 481.74ZM181.36 484V478.04C181.36 476.44 182.24 475.58 183.36 475.58C184.58 475.58 185.22 476.48 185.22 477.98V484H187.98V478.04C187.98 476.44 188.88 475.58 189.98 475.58C191.2 475.58 191.84 476.48 191.84 477.98V484H194.6V477.1C194.6 474.54 193.14 473.12 190.98 473.12C189.38 473.12 188.3 473.84 187.46 475.02C186.92 473.8 185.8 473.12 184.34 473.12C182.92 473.12 181.92 473.76 181.14 474.84V473.32H178.58V484H181.36ZM201.618 484.18C204.218 484.18 206.078 482.8 206.678 480.38H203.918C203.598 481.44 202.778 482.04 201.558 482.04C200.138 482.04 199.298 481.08 199.118 479.34H206.698C207.198 475.86 204.958 473.12 201.578 473.12C198.498 473.12 196.278 475.44 196.278 478.62C196.278 481.96 198.418 484.18 201.618 484.18ZM201.518 475.16C202.838 475.16 203.678 476.1 203.758 477.58H199.158C199.398 476 200.218 475.16 201.518 475.16ZM219.1 484H221.36V477.28C221.36 474.66 219.72 473.12 216.92 473.12C214.34 473.12 212.56 474.72 212.4 477.18H214.9C215 475.98 215.72 475.28 216.92 475.28C218.08 475.28 218.76 475.98 218.76 477.18V477.82C218.1 477.74 217.58 477.7 216.98 477.7C213.86 477.7 212.18 478.82 212.18 480.9C212.18 482.9 213.66 484.2 215.88 484.2C217.34 484.2 218.4 483.68 219.1 482.68V484ZM214.8 480.82C214.8 479.86 215.58 479.36 217.16 479.36C217.64 479.36 218.1 479.4 218.76 479.5V480.26C218.76 481.5 217.9 482.28 216.48 482.28C215.44 482.28 214.8 481.72 214.8 480.82ZM226.536 478.82C226.536 476.46 228.116 475.9 230.476 476.08V473.2C228.756 473.2 227.096 474.02 226.316 475.38V473.32H223.756V484H226.536V478.82ZM236.482 484.18C239.082 484.18 240.942 482.8 241.542 480.38H238.782C238.462 481.44 237.642 482.04 236.422 482.04C235.002 482.04 234.162 481.08 233.982 479.34H241.562C242.062 475.86 239.822 473.12 236.442 473.12C233.362 473.12 231.142 475.44 231.142 478.62C231.142 481.96 233.282 484.18 236.482 484.18ZM236.382 475.16C237.702 475.16 238.542 476.1 238.622 477.58H234.022C234.262 476 235.082 475.16 236.382 475.16Z" fill="black"/>
<path d="M250.403 484V469.64H247.603V484H250.403ZM259.256 484H261.516V477.28C261.516 474.66 259.876 473.12 257.076 473.12C254.496 473.12 252.716 474.72 252.556 477.18H255.056C255.156 475.98 255.876 475.28 257.076 475.28C258.236 475.28 258.916 475.98 258.916 477.18V477.82C258.256 477.74 257.736 477.7 257.136 477.7C254.016 477.7 252.336 478.82 252.336 480.9C252.336 482.9 253.816 484.2 256.036 484.2C257.496 484.2 258.556 483.68 259.256 482.68V484ZM254.956 480.82C254.956 479.86 255.736 479.36 257.316 479.36C257.796 479.36 258.256 479.4 258.916 479.5V480.26C258.916 481.5 258.056 482.28 256.636 482.28C255.596 482.28 254.956 481.72 254.956 480.82ZM268.412 484.2C271.272 484.2 273.272 482.38 273.592 479.44H270.672C270.512 480.9 269.692 481.74 268.412 481.74C266.952 481.74 266.052 480.58 266.052 478.66C266.052 476.76 266.972 475.58 268.412 475.58C269.672 475.58 270.532 476.46 270.672 477.88H273.592C273.252 475 271.192 473.12 268.412 473.12C265.412 473.12 263.212 475.46 263.212 478.66C263.212 481.92 265.332 484.2 268.412 484.2ZM278.157 484V479.04L282.237 484H285.777L280.837 478.44L285.257 473.32H282.057L278.157 477.84V469.64H275.377V484H278.157ZM290.276 470.84C290.276 469.86 289.516 469.16 288.416 469.16C287.336 469.16 286.576 469.86 286.576 470.84C286.576 471.78 287.336 472.48 288.416 472.48C289.516 472.48 290.276 471.78 290.276 470.84ZM289.836 484V473.32H287.056V484H289.836ZM295.09 478.18C295.09 476.46 296.03 475.58 297.13 475.58C298.39 475.58 299.01 476.46 299.01 478.04V484H301.77V477.1C301.77 474.52 300.29 473.12 298.15 473.12C296.75 473.12 295.65 473.78 294.87 474.84V473.32H292.31V484H295.09V478.18ZM308.706 488.06C311.866 488.06 313.786 486.34 313.786 483.5V473.32H311.246V474.78C310.466 473.68 309.386 473.12 307.946 473.12C305.306 473.12 303.466 475.26 303.466 478.36C303.466 481.38 305.426 483.6 308.046 483.6C309.346 483.6 310.446 483 311.026 481.98V483.54C311.026 485.08 310.226 485.9 308.686 485.9C307.366 485.9 306.586 485.26 306.466 484.04H303.786C303.906 486.5 305.826 488.06 308.706 488.06ZM306.246 478.36C306.246 476.62 307.166 475.52 308.586 475.52C310.046 475.52 311.006 476.64 311.006 478.38C311.006 480.06 310.046 481.2 308.586 481.2C307.146 481.2 306.246 480.1 306.246 478.36ZM324.974 484.2C327.834 484.2 329.834 482.38 330.154 479.44H327.234C327.074 480.9 326.254 481.74 324.974 481.74C323.514 481.74 322.614 480.58 322.614 478.66C322.614 476.76 323.534 475.58 324.974 475.58C326.234 475.58 327.094 476.46 327.234 477.88H330.154C329.814 475 327.754 473.12 324.974 473.12C321.974 473.12 319.774 475.46 319.774 478.66C319.774 481.92 321.894 484.2 324.974 484.2ZM338.439 479.5C338.439 480.94 337.479 481.74 336.479 481.74C335.359 481.74 334.619 481.08 334.619 479.58V473.32H331.839V480.12C331.839 482.9 333.399 484.2 335.539 484.2C336.899 484.2 338.079 483.54 338.659 482.6V484H341.199V473.32H338.439V479.5ZM352.717 480.58C352.717 479.04 351.657 478.08 349.577 477.68L347.517 477.3C346.557 477.12 346.117 476.86 346.117 476.22C346.117 475.54 346.797 475.16 347.817 475.16C348.997 475.16 349.777 475.8 349.877 476.84H352.537C352.337 474.54 350.497 473.12 347.817 473.12C345.157 473.12 343.457 474.5 343.457 476.48C343.457 478.14 344.617 479.2 346.537 479.54L348.457 479.9C349.477 480.1 349.917 480.38 349.917 481.06C349.917 481.82 349.097 482.16 348.017 482.16C346.637 482.16 345.697 481.46 345.677 480.36H343.017C343.237 482.74 344.937 484.2 347.977 484.2C351.017 484.2 352.717 482.82 352.717 480.58ZM361.04 481.3C360.64 481.52 360.16 481.64 359.64 481.64C358.64 481.64 358.08 481.14 358.08 479.9V475.7H361.14V473.32H358.08V470.16H355.32V473.32H353.16V475.7H355.32V480.54C355.32 482.94 356.7 484.2 358.9 484.2C359.72 484.2 360.36 484.06 361.04 483.72V481.3ZM367.323 484.2C370.423 484.2 372.743 481.76 372.743 478.66C372.743 475.54 370.423 473.12 367.323 473.12C364.223 473.12 361.903 475.54 361.903 478.66C361.903 481.76 364.223 484.2 367.323 484.2ZM367.323 481.74C365.943 481.74 364.763 480.64 364.763 478.66C364.763 476.68 365.943 475.6 367.323 475.6C368.703 475.6 369.883 476.68 369.883 478.66C369.883 480.64 368.703 481.74 367.323 481.74ZM377.297 484V478.04C377.297 476.44 378.177 475.58 379.297 475.58C380.517 475.58 381.157 476.48 381.157 477.98V484H383.917V478.04C383.917 476.44 384.817 475.58 385.917 475.58C387.137 475.58 387.777 476.48 387.777 477.98V484H390.537V477.1C390.537 474.54 389.077 473.12 386.917 473.12C385.317 473.12 384.237 473.84 383.397 475.02C382.857 473.8 381.737 473.12 380.277 473.12C378.857 473.12 377.857 473.76 377.077 474.84V473.32H374.517V484H377.297ZM396.136 470.84C396.136 469.86 395.376 469.16 394.276 469.16C393.196 469.16 392.436 469.86 392.436 470.84C392.436 471.78 393.196 472.48 394.276 472.48C395.376 472.48 396.136 471.78 396.136 470.84ZM395.696 484V473.32H392.916V484H395.696ZM406.81 484V481.58H401.13L406.65 475.6V473.32H397.69V475.72H403.21L397.71 481.76V484H406.81ZM415.116 484H417.376V477.28C417.376 474.66 415.736 473.12 412.936 473.12C410.356 473.12 408.576 474.72 408.416 477.18H410.916C411.016 475.98 411.736 475.28 412.936 475.28C414.096 475.28 414.776 475.98 414.776 477.18V477.82C414.116 477.74 413.596 477.7 412.996 477.7C409.876 477.7 408.196 478.82 408.196 480.9C408.196 482.9 409.676 484.2 411.896 484.2C413.356 484.2 414.416 483.68 415.116 482.68V484ZM410.816 480.82C410.816 479.86 411.596 479.36 413.176 479.36C413.656 479.36 414.116 479.4 414.776 479.5V480.26C414.776 481.5 413.916 482.28 412.496 482.28C411.456 482.28 410.816 481.72 410.816 480.82ZM426.255 481.3C425.855 481.52 425.375 481.64 424.855 481.64C423.855 481.64 423.295 481.14 423.295 479.9V475.7H426.355V473.32H423.295V470.16H420.535V473.32H418.375V475.7H420.535V480.54C420.535 482.94 421.915 484.2 424.115 484.2C424.935 484.2 425.575 484.06 426.255 483.72V481.3ZM431.273 470.84C431.273 469.86 430.513 469.16 429.413 469.16C428.333 469.16 427.573 469.86 427.573 470.84C427.573 471.78 428.333 472.48 429.413 472.48C430.513 472.48 431.273 471.78 431.273 470.84ZM430.833 484V473.32H428.053V484H430.833ZM438.026 484.2C441.126 484.2 443.446 481.76 443.446 478.66C443.446 475.54 441.126 473.12 438.026 473.12C434.926 473.12 432.606 475.54 432.606 478.66C432.606 481.76 434.926 484.2 438.026 484.2ZM438.026 481.74C436.646 481.74 435.466 480.64 435.466 478.66C435.466 476.68 436.646 475.6 438.026 475.6C439.406 475.6 440.586 476.68 440.586 478.66C440.586 480.64 439.406 481.74 438.026 481.74ZM448 478.18C448 476.46 448.94 475.58 450.04 475.58C451.3 475.58 451.92 476.46 451.92 478.04V484H454.68V477.1C454.68 474.52 453.2 473.12 451.06 473.12C449.66 473.12 448.56 473.78 447.78 474.84V473.32H445.22V484H448V478.18Z" fill="#F9614C"/>
</svg>
