<svg width="1440" height="623" viewBox="0 0 1440 623" fill="none" xmlns="http://www.w3.org/2000/svg">
<g clip-path="url(#clip0_1157_629)">
<rect width="1440" height="623" fill="#F5F5F5"/>
<path opacity="0.05" d="M0 365.109C54.9072 428.031 126.429 500.696 214.73 507.539C263.863 511.347 305.477 491.146 344.381 462.514C394.522 425.613 441.022 385.35 493.968 352.299C513.799 339.92 533.231 326.52 556.444 321.352C594.078 312.974 637.737 312.311 675.302 321.733C750.474 340.587 824.766 368.139 889.651 410.768C921.907 431.959 955.586 446.755 992.254 458.963C1055.35 479.968 1119.99 494.008 1186.54 481.793C1247.59 470.586 1307.52 437.161 1354.03 396.943C1379.18 375.202 1395.29 357.984 1411.81 329.089C1418.57 317.257 1424.26 304.726 1428.57 291.801C1446.11 239.24 1428.7 271.153 1440 219" stroke="black" stroke-width="3" stroke-linecap="round"/>
<line y1="622.5" x2="1440" y2="622.5" stroke="#C3CDE7"/>
<g clip-path="url(#clip1_1157_629)">
<path d="M95.9812 543.876C95.9812 543.836 96.0211 543.756 96.061 543.716C72.9749 528.379 68.821 535.448 64.8269 541.44C59.7543 549.028 32.4743 531.854 22.8884 507.09C13.3025 482.326 -0.35751 487.399 -0.35751 487.399C-9.18456 491.673 5.95324 528.578 45.8547 542.238C61.4319 547.591 77.4084 551.824 93.5847 554.94L95.9812 543.876Z" fill="#002677"/>
<path d="M96.3407 598.117C99.4162 596.878 102.731 596.519 106.007 597.038C105.008 593.084 105.248 588.131 105.527 585.096L91.9472 579.104C90.669 582.739 88.7119 586.613 85.8761 589.289C85.0772 590.008 84.3184 590.807 83.5595 591.566L83.5195 591.606C86.4353 595.44 91.388 600.193 96.3407 598.117Z" fill="white"/>
<path d="M129.451 618.367H108.162C107.922 618.367 107.723 618.567 107.723 618.806C107.723 619.046 107.922 619.245 108.162 619.245H129.451C129.69 619.245 129.89 619.046 129.89 618.806C129.89 618.567 129.69 618.367 129.451 618.367Z" fill="white"/>
<path d="M74.572 601.152L90.7083 612.136C90.908 612.256 91.1876 612.216 91.3074 612.016C91.4272 611.816 91.3873 611.537 91.1876 611.417L75.0513 600.433C74.8516 600.313 74.572 600.353 74.4522 600.553C74.3323 600.753 74.3723 601.032 74.572 601.152Z" fill="white"/>
<path d="M226.509 600.154C227.308 598.156 228.745 596.439 230.583 595.321C224.472 593.244 221.995 589.369 220.997 586.374L205.699 589.689L208.855 607.223C214.846 606.225 225.151 603.948 226.509 600.154Z" fill="white"/>
<path d="M264.732 600.353C264.732 600.433 264.772 600.473 264.772 600.553C264.732 600.513 264.732 600.433 264.732 600.353Z" fill="#002677"/>
<path d="M264.972 599.954C264.932 599.994 264.892 600.034 264.852 600.074C264.054 600.633 255.147 604.986 248.996 606.904C248.756 606.984 248.636 607.223 248.716 607.463C248.756 607.663 248.956 607.782 249.115 607.782C249.155 607.782 249.195 607.782 249.235 607.742C254.508 606.105 265.292 601.232 265.571 600.513C265.611 600.393 265.611 600.273 265.571 600.154C265.452 599.954 265.212 599.834 264.972 599.954ZM264.773 600.553C264.733 600.513 264.733 600.433 264.733 600.353C264.733 600.433 264.733 600.513 264.773 600.553Z" fill="white"/>
<path d="M210.094 618.886C210.133 619.086 210.333 619.245 210.533 619.245H210.613C211.052 619.166 220.918 617.089 225.112 615.531C225.351 615.451 225.471 615.211 225.391 614.972C225.311 614.732 225.072 614.612 224.832 614.732C220.678 616.25 210.533 618.367 210.413 618.407C210.173 618.407 210.054 618.646 210.094 618.886Z" fill="white"/>
<path d="M306.591 276.428L309.387 274.471L308.189 270.996C306.951 271.036 305.672 271.196 304.474 271.516C303.476 271.835 303.596 272.794 303.755 273.353C304.235 274.711 305.273 275.829 306.591 276.428Z" fill="white"/>
<path d="M313.541 274.152L312.703 270.837C311.464 270.877 310.266 270.877 309.148 270.956L310.346 274.511C310.426 274.711 310.346 274.911 310.186 275.03L307.67 276.788C308.229 276.908 308.788 276.868 309.347 276.748C313.062 275.909 313.461 274.431 313.541 274.152Z" fill="white"/>
<path d="M302.159 281.102C302.678 281.102 303.157 281.102 303.676 281.102C306.432 281.221 309.188 280.742 311.785 279.783C313.382 279.224 314.301 278.425 314.541 277.427C314.7 276.628 314.54 275.749 314.061 275.07C313.582 275.869 312.424 276.948 309.468 277.587C306.153 278.306 303.477 275.67 302.878 273.553C302.478 272.155 302.997 271.036 304.196 270.677C306.073 270.038 310.546 269.998 315.259 269.918C318.215 269.878 321.291 269.838 323.527 269.638C327.681 269.279 330.916 267.641 330.996 267.082C330.996 267.082 330.717 266.803 329.159 266.723L323.048 266.443C314.261 266.044 302.239 265.484 299.842 265.484C298.484 265.484 296.567 266.044 294.77 266.603V273.672C294.849 275.31 295.808 279.424 302.159 281.102Z" fill="white"/>
<path d="M294.77 266.603C296.527 266.004 298.484 265.484 299.842 265.484C302.239 265.484 314.261 266.044 323.048 266.443L329.159 266.723C330.717 266.803 330.996 267.082 330.996 267.082C330.916 267.641 327.681 269.279 323.527 269.638C321.331 269.838 318.255 269.878 315.259 269.918C310.546 269.998 306.113 270.038 304.196 270.677C302.997 271.076 302.518 272.195 302.878 273.553C303.477 275.67 306.153 278.306 309.468 277.587C312.384 276.948 313.582 275.869 314.061 275.07C314.501 275.749 314.7 276.628 314.54 277.427C314.301 278.425 313.342 279.184 311.785 279.783C309.188 280.742 306.432 281.221 303.676 281.102C303.157 281.102 302.678 281.102 302.159 281.102C295.768 279.424 294.849 275.31 294.77 273.633V281.461C296.327 281.86 297.925 282.1 299.562 282.18C299.842 282.18 300.122 282.18 300.401 282.14C301.48 282.02 302.598 281.94 303.676 281.98C306.552 282.1 309.428 281.661 312.144 280.662C314.021 279.983 315.14 278.985 315.459 277.707C315.898 275.989 314.7 274.351 314.421 273.992L313.622 270.916H315.339C318.335 270.877 321.41 270.837 323.647 270.637C326.962 270.317 331.955 268.8 331.915 267.202C331.915 266.203 330.357 266.044 329.239 266.004L323.128 265.684C313.861 265.245 302.278 264.686 299.882 264.686C298.484 264.686 296.567 265.205 294.809 265.764L294.77 266.603ZM304.515 271.516C305.713 271.196 306.992 271.036 308.23 270.996L309.428 274.471L306.632 276.428C305.314 275.829 304.276 274.711 303.796 273.353C303.637 272.794 303.517 271.835 304.515 271.516ZM307.671 276.748L310.187 274.991C310.347 274.871 310.427 274.671 310.347 274.471L309.148 270.916C310.267 270.877 311.465 270.837 312.703 270.797L313.542 274.112C313.502 274.351 313.063 275.869 309.348 276.668C308.789 276.828 308.19 276.868 307.671 276.748Z" fill="#002677"/>
<path d="M185.249 395.414C185.409 394.695 185.528 394.016 185.648 393.257L184.77 393.137C184.969 393.896 185.089 394.655 185.249 395.414Z" fill="#00D9A7"/>
<path d="M183.212 285.934C182.693 287.292 182.054 288.211 181.215 288.73L181.375 288.77C181.375 288.77 186.847 329.99 186.847 329.83C186.287 325.996 185.289 321.083 184.051 315.93C185.688 331.068 187.526 348.762 189.123 364.779C190.681 344.489 190.761 323.879 190.721 313.854H190.641V307.982C190.401 307.982 190.202 307.782 190.202 307.543V292.445C190.202 292.205 190.401 292.006 190.641 292.006C190.881 292.006 191.08 292.205 191.08 292.445V296.679C193.437 298.157 205.619 304.787 236.693 305.226C247.318 304.308 272.88 294.762 286.221 289.529C286.221 289.489 286.181 289.409 286.181 289.369V270.437C286.181 270.198 286.381 269.998 286.62 269.998C286.86 269.998 287.06 270.198 287.06 270.437V289.21C291.733 287.372 294.688 286.134 294.688 286.134V273.672C294.688 273.433 294.688 273.193 294.688 272.993V264.047C278.512 265.045 241.127 280.742 230.023 281.741C221.875 282.46 198.07 278.745 185.928 276.708C185.608 279.704 184.21 282.859 182.932 285.455C183.172 285.495 183.292 285.735 183.212 285.934ZM235.056 285.016C235.296 284.976 235.495 285.176 235.535 285.415L236.414 295.281C236.454 295.52 236.254 295.72 236.014 295.76H235.975C235.735 295.76 235.575 295.6 235.535 295.361L234.656 285.495C234.656 285.255 234.816 285.056 235.056 285.016Z" fill="#00D9A7"/>
<path d="M107.724 569.359C107.644 569.598 107.764 569.838 108.003 569.918C108.043 569.918 108.083 569.958 108.163 569.958C108.363 569.958 108.523 569.838 108.563 569.678L113.116 556.458L112.397 555.859L107.724 569.359Z" fill="white"/>
<path d="M176.582 288.091C175.823 287.572 175.104 286.973 174.465 286.294C174.945 289.649 174.984 293.004 174.625 296.359L174.545 296.319C173.866 317.568 167.995 352.317 160.246 389.742L184.77 393.137L185.649 393.257L191.92 394.136C191.241 386.108 190.242 375.843 189.124 364.739C187.526 348.762 185.649 331.028 184.051 315.891C181.335 304.387 177.661 291.806 176.582 288.091ZM185.369 385.988H185.289C184.53 385.868 166.557 382.952 164.52 382.433C164.28 382.353 164.16 382.113 164.24 381.874C164.32 381.674 164.52 381.554 164.759 381.594C166.757 382.113 185.249 385.109 185.449 385.109C185.689 385.109 185.889 385.349 185.849 385.588C185.809 385.828 185.609 386.028 185.369 385.988Z" fill="#F4D914"/>
<path d="M155.494 459.879C153.217 469.345 150.062 480.729 146.627 492.432L146.907 494.588C150.381 482.766 153.617 471.103 156.013 461.397C158.529 468.626 170.352 502.976 179.858 540.841C179.898 541 180.058 541.16 180.218 541.16H180.298H180.417C180.457 541.16 180.497 541.12 180.537 541.08C180.697 540.96 180.777 540.801 180.737 540.601C170.073 498.103 156.492 460.079 156.373 459.64L148.704 442.625C148.584 443.104 148.504 443.583 148.384 444.023L155.494 459.879Z" fill="white"/>
<path d="M148.902 275.949C142.991 277.107 135.322 281.181 117.788 287.772C102.85 293.404 90.588 293.204 80.5627 290.727C74.4117 295.081 69.3791 300.833 65.8643 307.463C57.2769 323.24 50.2072 332.746 33.5117 334.264C33.5117 334.264 42.6184 348.922 48.1702 351.958C48.1702 351.958 72.3348 347.524 85.0761 319.605C95.341 297.118 121.742 293.923 140.675 282.18C143.191 279.823 145.947 277.746 148.902 275.949Z" fill="#002677"/>
<path d="M168.874 256.138C168.834 255.899 168.954 255.659 169.193 255.619C169.433 255.579 169.673 255.699 169.712 255.938C170.871 260.492 177.98 265.085 178.06 265.125C178.14 265.165 184.251 269.519 188.964 268.64C192.759 267.961 194.197 258.295 194.436 254.66C194.436 254.421 194.636 254.261 194.876 254.261H197.392C197.272 252.024 196.673 242.079 195.634 235.488C193.478 236.088 190.762 235.369 187.886 233.332C183.452 230.216 179.378 231.095 178.5 234.25C177.621 237.406 173.986 239.203 173.986 239.203C173.986 239.203 173.986 234.25 169.473 236.966C164.959 239.682 169.473 244.156 169.473 244.156C166.437 247.95 160.366 251.705 158.609 252.743C158.249 254.58 157.89 256.178 157.57 257.536C160.566 257.296 163.562 257.496 166.477 258.095C169.832 258.814 172.149 262.529 175.504 264.486C173.267 262.649 169.713 259.493 168.874 256.138ZM193.118 257.057C193.078 257.137 192.479 259.294 190.722 260.252C190.202 260.532 189.563 260.691 188.964 260.691C188.525 260.691 188.046 260.612 187.606 260.492C186.688 260.252 185.929 259.613 185.529 258.734C184.691 256.697 186.168 253.862 186.208 253.742C186.328 253.542 186.568 253.462 186.807 253.542L192.879 256.578C193.078 256.657 193.158 256.857 193.118 257.057ZM188.645 244.355C188.645 243.117 189.044 242.119 189.563 242.119C190.043 242.119 190.482 243.117 190.482 244.355C190.482 245.594 190.083 246.592 189.563 246.592C189.044 246.592 188.645 245.594 188.645 244.355ZM183.772 237.885C183.892 237.685 184.97 235.808 190.522 236.287C190.762 236.327 190.961 236.527 190.921 236.767C190.881 237.006 190.682 237.206 190.442 237.166C185.529 236.727 184.571 238.284 184.571 238.284C184.491 238.444 184.331 238.524 184.171 238.524C184.091 238.524 184.051 238.524 183.972 238.484C183.732 238.324 183.652 238.085 183.772 237.885ZM169.313 241.52H169.273C169.034 241.48 168.874 241.28 168.874 241.04C168.874 241 169.153 238.524 172.309 238.284C172.548 238.284 172.748 238.444 172.788 238.684C172.788 238.923 172.628 239.123 172.389 239.163C169.992 239.363 169.792 241.04 169.752 241.12C169.713 241.36 169.553 241.52 169.313 241.52Z" fill="white"/>
<path d="M186.367 258.455C186.647 259.094 187.206 259.533 187.885 259.693C188.684 259.973 189.563 259.933 190.322 259.533C191.16 258.974 191.839 258.175 192.159 257.217L186.847 254.62C186.487 255.339 185.848 257.177 186.367 258.455Z" fill="white"/>
<path d="M157.651 257.496C157.97 256.138 158.33 254.541 158.689 252.703C160.487 251.665 166.518 247.91 169.553 244.116C169.553 244.116 165.04 239.602 169.553 236.926C174.067 234.21 174.067 239.163 174.067 239.163C174.067 239.163 177.662 237.366 178.58 234.21C179.499 231.055 183.533 230.176 188.046 233.332C190.922 235.369 193.638 236.088 195.795 235.488C196.793 242.039 197.393 251.984 197.552 254.261H195.036C194.796 254.261 194.597 254.421 194.597 254.66C194.357 258.335 192.879 267.961 189.125 268.64C184.412 269.479 178.261 265.165 178.221 265.125C178.141 265.085 170.991 260.532 169.873 255.938C169.833 255.699 169.593 255.539 169.354 255.619C169.114 255.659 168.954 255.899 169.034 256.138C169.873 259.453 173.428 262.649 175.744 264.406C175.984 264.526 176.184 264.646 176.423 264.766C178.58 265.764 180.617 266.962 182.494 268.4C184.571 269.279 187.088 269.918 189.364 269.519C194.157 268.64 195.356 257.456 195.555 255.14H198.152C198.271 255.14 198.391 255.1 198.471 255.02C198.551 254.94 198.591 254.82 198.591 254.7C198.591 254.58 197.952 242.638 196.793 235.209C197.672 234.809 198.431 234.17 198.99 233.332C201.227 230.176 207.098 220.75 201.227 215.797C195.396 210.845 180.098 217.595 171.071 216.237C162.084 214.879 157.331 218.553 156.213 224.784C155.055 231.295 157.371 247.111 158.13 251.745C157.731 253.782 157.331 255.779 156.892 257.576L157.651 257.496Z" fill="#002677"/>
<path d="M114.034 322.84C91.2273 362.862 89.6296 403.762 89.5098 408.435H111.038C111.517 406.038 112.077 403.722 112.596 401.445L94.9019 401.565C94.6622 401.565 94.4625 401.365 94.4625 401.125C94.4625 400.886 94.6622 400.686 94.9019 400.686L112.875 400.526C120.584 369.212 133.325 347.085 142.991 333.664C154.415 317.888 164.28 310.419 164.36 310.379C164.56 310.219 164.839 310.259 164.959 310.458C165.079 310.658 165.079 310.938 164.879 311.058C164.799 311.098 159.208 315.371 151.539 324.238C143.111 341.413 119.506 391.34 119.825 414.027L114.713 414.825C114.713 414.825 116.83 422.614 114.713 425.05C113.315 426.688 111.597 428.006 109.64 428.965C110.639 432.08 111.278 435.355 111.517 438.63C111.637 439.869 111.677 441.067 111.717 442.185L117.109 441.826C129.731 414.346 139.277 391.939 139.476 391.46C139.556 391.22 139.836 391.1 140.036 391.22C140.275 391.3 140.395 391.58 140.275 391.779V391.819C140.076 392.338 130.609 414.466 118.068 441.786L139.596 440.388L143.111 466.31C144.829 459.041 146.586 451.572 148.343 444.023C148.463 443.543 148.543 443.064 148.663 442.625C152.697 425.13 156.691 407.157 160.246 389.782C167.955 352.317 173.866 317.568 174.545 296.359L167.715 291.766C169.313 301.751 169.273 311.976 167.555 321.962C167.515 322.161 167.316 322.321 167.116 322.321H167.036C166.796 322.281 166.637 322.042 166.677 321.802C168.793 309.5 168.354 296.878 165.319 284.736C160.925 280.343 148.823 275.909 148.823 275.909C145.867 277.707 143.071 279.783 140.555 282.18C137.32 285.216 134.444 288.611 131.967 292.325C128.932 296.918 122.421 307.782 113.794 322.241C114.074 322.361 114.154 322.601 114.034 322.84ZM154.734 403.562C154.614 404.241 154.335 404.92 153.935 405.479C153.656 405.918 153.176 406.198 152.657 406.238C152.577 406.238 152.537 406.238 152.457 406.238C151.898 406.078 151.459 405.599 151.339 405C151.179 404.321 151.139 403.602 151.299 402.923C151.619 401.205 152.577 400.047 153.576 400.247C154.534 400.446 155.054 401.844 154.734 403.562ZM129.811 347.404C129.731 347.564 129.571 347.684 129.411 347.684C129.371 347.684 129.291 347.684 129.251 347.644L120.544 344.529C120.305 344.449 120.225 344.169 120.305 343.969C120.384 343.77 120.624 343.65 120.824 343.73L129.531 346.845C129.771 346.925 129.891 347.165 129.811 347.404ZM165.438 347.484C165.119 349.162 164.2 350.36 163.242 350.36C163.162 350.36 163.082 350.36 163.042 350.32C162.003 350.12 161.484 348.603 161.844 346.805C161.963 346.046 162.243 345.367 162.682 344.768C163.122 344.169 163.681 343.889 164.24 343.969C164.799 344.049 165.199 344.529 165.398 345.287C165.558 346.006 165.558 346.765 165.438 347.484Z" fill="#00D9A7"/>
<path d="M22.8876 507.09C32.4735 531.854 59.7935 549.029 64.8261 541.44C68.8202 535.448 72.9741 528.419 96.0602 543.716C96.1401 543.557 96.3398 543.517 96.4996 543.517C96.7393 543.557 96.899 543.796 96.8191 544.036L96.7792 544.196C101.253 547.191 106.365 551.026 112.356 555.779L113.075 556.378C114.992 557.935 117.029 559.613 119.146 561.37C122.302 564.007 123.021 546.952 128.692 524.584L72.4948 530.336C70.8572 532.812 69.2995 535.049 67.8616 536.966C67.7817 537.086 67.6619 537.126 67.5021 537.126C67.2625 537.126 67.0628 536.926 67.0628 536.687C67.0628 536.607 67.1027 536.487 67.1427 536.407C68.4607 534.65 69.8986 532.653 71.3365 530.416L48.1306 532.772L51.4856 468.587L33.8715 496.386C33.7916 496.506 33.6318 496.585 33.512 496.585C33.2724 496.585 33.0727 496.386 33.0727 496.146C33.0727 496.066 33.1126 495.986 33.1525 495.906L51.6454 466.909L52.7638 445.94L65.545 445.141L74.8514 430.522C74.9712 430.323 75.2508 430.243 75.4505 430.403C75.6502 430.522 75.7301 430.802 75.5703 431.002L66.5835 445.061L81.6414 444.102C82.1207 436.833 83.5985 426.688 87.7524 421.935C88.032 417.981 89.3102 413.268 90.5883 409.274H89.1104C88.9906 409.274 88.8708 409.234 88.7909 409.154C88.711 409.074 88.6711 408.954 88.6711 408.834C88.6711 408.435 89.0306 370.291 108.921 330.549C78.1266 382.193 26.9616 466.789 2.83701 485.282C1.83847 486.041 0.8 486.76 -0.318359 487.399C-0.318359 487.399 13.3017 482.326 22.8876 507.09Z" fill="#00D9A7"/>
<path d="M107.924 429.524C106.765 429.803 105.567 429.763 104.409 429.404C103.889 430.243 103.091 430.842 102.172 431.121C101.972 431.161 101.733 431.201 101.533 431.201C100.534 431.121 99.5758 430.722 98.8569 430.003C97.6986 430.682 96.7 430.882 95.8612 430.562C95.342 430.363 94.9426 430.003 94.7029 429.484C94.1438 429.803 93.4648 429.923 92.8656 429.763C92.3065 429.604 91.7872 429.244 91.4277 428.765C91.0283 429.084 90.549 429.244 90.0697 429.244C89.5106 429.164 88.9913 428.805 88.7517 428.326C88.1525 427.287 87.833 426.089 87.7531 424.891C85.117 429.524 83.9188 437.392 83.4395 443.943L109.961 442.225C109.801 438.351 109.321 433.638 107.924 429.524Z" fill="#00D9A7"/>
<path d="M153.417 401.125H153.377C153.018 401.125 152.419 401.844 152.179 403.123C152.059 403.682 152.059 404.241 152.219 404.8C152.299 405.16 152.459 405.399 152.658 405.399C153.018 405.479 153.657 404.72 153.897 403.402C154.136 402.124 153.777 401.165 153.417 401.125Z" fill="#00D9A7"/>
<path d="M164.041 344.848H164.001C163.722 344.888 163.482 345.088 163.362 345.327C163.003 345.847 162.763 346.406 162.683 347.005C162.404 348.403 162.803 349.441 163.203 349.481C163.602 349.521 164.321 348.762 164.561 347.324C164.68 346.725 164.68 346.086 164.521 345.527C164.441 345.128 164.241 344.888 164.041 344.848Z" fill="#00D9A7"/>
<path d="M140.275 391.779C140.395 391.579 140.275 391.3 140.076 391.18C139.876 391.06 139.596 391.18 139.477 391.38V391.42C139.277 391.939 129.731 414.306 117.109 441.786L118.108 441.706C130.61 414.466 140.076 392.298 140.275 391.779Z" fill="#002677"/>
<path d="M67.1826 536.487C67.0228 536.687 67.0627 536.966 67.2624 537.086C67.3423 537.126 67.4222 537.166 67.542 537.166C67.6619 537.166 67.8216 537.086 67.9015 537.006C69.3793 535.089 70.9371 532.852 72.5347 530.376L71.4164 530.496C69.8986 532.732 68.5006 534.729 67.1826 536.487Z" fill="#002677"/>
<path d="M174.466 286.294C175.105 286.973 175.824 287.572 176.583 288.091C177.661 291.806 181.336 304.387 184.052 315.891C185.25 321.003 186.288 325.956 186.848 329.79C186.888 329.95 181.376 288.73 181.376 288.73L181.216 288.69C182.055 288.171 182.734 287.253 183.213 285.895C183.293 285.695 183.173 285.455 183.013 285.335L182.973 285.295C182.734 285.216 182.494 285.335 182.414 285.535C181.815 287.133 181.016 288.011 179.978 288.171C179.818 288.211 179.658 288.211 179.498 288.211C178.779 288.011 178.06 287.732 177.342 287.452C176.343 286.813 175.424 286.014 174.625 285.096C174.466 284.896 174.186 284.896 173.986 285.056C173.946 285.096 173.946 285.096 173.946 285.136C170.591 282.46 166.877 280.223 162.963 278.465C156.892 275.789 153.377 274.991 148.863 275.869C148.863 275.869 160.966 280.303 165.359 284.696C168.355 296.838 168.834 309.46 166.717 321.762C166.677 322.002 166.837 322.241 167.077 322.281H167.156C167.356 322.281 167.556 322.121 167.596 321.922C169.273 311.936 169.353 301.751 167.756 291.726L174.586 296.279L174.665 296.319C174.945 293.004 174.905 289.649 174.466 286.294Z" fill="#002677"/>
<path d="M126.576 559.693C126.616 559.653 126.656 559.613 126.656 559.533C126.776 559.214 131.889 543.636 138.12 523.666L137.161 523.746C131.01 543.517 125.937 558.934 125.818 559.214C125.738 559.453 125.858 559.693 126.097 559.773H126.137H126.217C126.337 559.813 126.497 559.773 126.576 559.693Z" fill="white"/>
<path d="M139.637 517.235V518.753L140.076 517.315L139.637 517.235Z" fill="white"/>
<path d="M33.1123 495.906C32.9925 496.106 33.0324 496.386 33.2322 496.506C33.312 496.546 33.3919 496.585 33.4718 496.585C33.6316 496.585 33.7514 496.506 33.8313 496.386L51.4854 468.706L51.5653 466.909L33.1123 495.906Z" fill="#002677"/>
<path d="M75.5312 431.002C75.651 430.802 75.6111 430.522 75.4114 430.403C75.2117 430.283 74.9321 430.323 74.8122 430.522L65.5059 445.141L66.5843 445.061L75.5312 431.002Z" fill="#002677"/>
<path d="M139.637 517.235L140.076 517.315L139.637 518.753V523.546L138.119 523.706C131.928 543.676 126.776 559.254 126.656 559.573C126.656 559.613 126.616 559.693 126.576 559.733C142.553 561.41 159.927 562.369 179.578 562.768L180.257 541.16C180.098 541.12 179.938 541 179.898 540.841C170.392 502.936 158.569 468.587 156.013 461.357C153.616 471.063 150.381 482.726 146.906 494.548L146.627 492.392C150.022 480.729 153.217 469.305 155.494 459.839L148.344 444.063C146.587 451.611 144.829 459.08 143.112 466.35L139.597 440.428L139.637 517.235Z" fill="#002677"/>
<path d="M138.08 523.666L139.598 523.506V440.388L118.069 441.786L117.071 441.866L111.679 442.225C111.759 444.941 111.679 447.657 111.439 450.373C111.399 450.853 110.96 451.212 110.48 451.172C110.001 451.132 109.642 450.693 109.682 450.213C109.921 447.617 110.001 444.981 109.921 442.345L83.4002 444.062C83.1606 447.338 83.1206 450.293 83.1606 452.33C83.1606 452.81 82.7611 453.209 82.2818 453.209C81.8025 453.209 81.4031 452.81 81.4031 452.33C81.4031 451.931 81.3232 448.576 81.6428 444.142L66.5849 445.141L65.5064 445.221L52.7252 446.02L51.6068 466.989L51.527 468.786L48.1719 532.852L71.3778 530.496L72.4962 530.376L128.694 524.624L137.121 523.746L138.08 523.666Z" fill="#F4D914"/>
<path d="M117.748 287.772C135.322 281.181 142.991 277.107 148.863 275.949C153.376 275.07 156.851 275.869 162.962 278.545C166.876 280.303 170.591 282.539 173.946 285.216C173.946 285.176 173.986 285.176 173.986 285.136C174.185 284.976 174.465 285.016 174.625 285.176C175.424 286.094 176.342 286.893 177.341 287.532C178.06 287.852 178.779 288.091 179.498 288.291C179.657 288.291 179.817 288.291 179.977 288.251C180.975 288.091 181.814 287.173 182.413 285.615C182.493 285.375 182.773 285.255 182.973 285.375L183.012 285.415C184.291 282.819 185.689 279.664 186.008 276.668C186.248 274.711 186.008 272.794 184.97 271.156C184.251 270.118 183.372 269.199 182.334 268.44C180.456 267.002 178.419 265.804 176.262 264.805C176.023 264.686 175.823 264.566 175.583 264.446C172.228 262.529 169.912 258.774 166.557 258.055C163.641 257.456 160.605 257.257 157.65 257.496L156.731 257.576C151.619 258.015 145.108 259.373 136.161 262.01C111.877 269.079 107.324 277.667 67.3821 257.975C27.4407 238.284 11.2645 264.047 11.2645 264.047L5.19336 287.772C5.19336 287.772 30.4763 264.047 55.7192 279.184C61.7504 282.819 69.8585 288.091 80.5229 290.727C90.5481 293.204 102.81 293.404 117.748 287.772ZM45.9336 258.535C45.8537 258.774 45.6141 258.894 45.4144 258.854C34.3506 255.899 24.6448 263.727 23.5664 264.606C23.4865 264.686 23.4066 264.726 23.2868 264.726C23.0472 264.726 22.8475 264.526 22.8475 264.286C22.8475 264.166 22.8874 264.047 23.0072 263.967C24.1256 263.048 34.1908 254.94 45.654 258.015C45.8537 258.055 46.0135 258.295 45.9336 258.535ZM129.052 269.239C129.211 269.039 129.491 269.039 129.691 269.199C129.89 269.359 129.89 269.638 129.731 269.838C126.935 272.954 123.899 275.829 120.624 278.425C114.233 283.458 108.522 286.014 103.649 286.014C103.13 286.014 102.571 285.974 102.051 285.934C101.812 285.895 101.652 285.695 101.652 285.455C101.692 285.216 101.891 285.056 102.131 285.056C114.074 286.454 128.892 269.399 129.052 269.239Z" fill="#F4D914"/>
<path d="M104.807 426.808C104.448 426.688 104.128 426.488 103.848 426.249C103.13 425.61 102.77 424.691 102.81 423.732V423.493C102.61 425.01 102.49 426.448 102.65 427.167C102.73 427.407 102.57 427.647 102.331 427.687H102.211C102.011 427.687 101.811 427.567 101.771 427.367C101.252 425.33 102.61 419.339 102.77 418.7V416.982C102.77 416.743 102.97 416.543 103.209 416.543C103.449 416.543 103.649 416.743 103.649 416.982V423.692C103.609 424.371 103.848 425.05 104.368 425.53C105.087 426.169 106.245 426.209 106.804 426.169V421.695C106.804 420.257 107.403 419.059 108.002 417.941C108.721 416.503 109.36 415.305 108.841 413.747C108.522 412.708 108.322 411.67 108.242 410.632L90.0687 413.947C88.5908 419.419 87.7121 425.17 89.4296 427.926C89.5494 428.206 89.7891 428.366 90.0687 428.445C90.4281 428.406 90.7477 428.246 90.9873 428.006C90.6279 425.57 90.508 423.133 90.6278 420.657C90.6278 420.417 90.8276 420.217 91.1071 420.257C91.3468 420.257 91.5465 420.457 91.5066 420.737C91.5066 420.777 91.3069 424.971 91.866 428.006C92.1057 428.445 92.545 428.805 93.0243 428.965C93.5036 429.045 94.0229 428.925 94.4223 428.645C94.2226 426.089 94.3025 420.897 94.3424 420.657C94.3424 420.417 94.5421 420.217 94.7818 420.217C95.0214 420.217 95.2211 420.417 95.2211 420.657C95.2211 420.697 95.1013 426.368 95.3409 428.765C95.4608 429.204 95.7803 429.564 96.1797 429.724C96.7788 429.963 97.6575 429.724 98.6561 429.045C98.8558 428.925 99.0954 428.965 99.2152 429.124C99.2152 429.124 100.533 430.562 101.971 430.243C103.05 430.003 104.008 428.805 104.807 426.808Z" fill="white"/>
<path d="M88.7906 409.154C88.8705 409.234 88.9903 409.274 89.1101 409.274H90.588C89.2699 413.268 88.0317 417.941 87.7521 421.935C83.5982 426.688 82.1603 436.833 81.6411 444.102C81.3216 448.536 81.4015 451.891 81.4015 452.29C81.4015 452.77 81.8009 453.169 82.2802 453.169C82.7595 453.169 83.1589 452.77 83.1589 452.29C83.1189 450.253 83.1589 447.298 83.3985 444.023C83.8778 437.472 85.0761 429.604 87.7122 424.971C87.7921 426.169 88.1116 427.327 88.7107 428.405C88.9504 428.925 89.4696 429.284 90.0288 429.324C90.548 429.324 91.0273 429.164 91.3868 428.845C91.7463 429.324 92.2655 429.684 92.8247 429.843C93.4638 430.003 94.1028 429.883 94.662 429.564C94.9016 430.043 95.341 430.403 95.8203 430.642C96.6191 430.962 97.6576 430.762 98.8159 430.083C99.5348 430.802 100.493 431.201 101.492 431.281C101.692 431.281 101.931 431.241 102.131 431.201C103.05 430.922 103.849 430.323 104.368 429.484C105.526 429.843 106.724 429.883 107.883 429.604C109.281 433.678 109.76 438.431 109.88 442.345C109.96 444.981 109.88 447.577 109.64 450.213C109.6 450.693 109.92 451.132 110.439 451.172C110.918 451.212 111.358 450.892 111.397 450.373C111.637 447.657 111.717 444.941 111.637 442.225C111.597 441.107 111.557 439.909 111.437 438.67C111.198 435.395 110.559 432.12 109.56 429.005C111.517 428.046 113.235 426.728 114.633 425.09C116.75 422.654 114.633 414.865 114.633 414.865L119.745 414.067C119.466 391.38 143.031 341.453 151.499 324.318C159.167 315.451 164.759 311.177 164.839 311.138C165.039 310.978 165.079 310.698 164.919 310.538C164.759 310.339 164.48 310.299 164.32 310.459C164.24 310.538 154.374 317.967 142.951 333.744C133.245 347.165 120.504 369.292 112.795 400.606L94.8617 400.726C94.6221 400.726 94.4223 400.926 94.4223 401.165C94.4223 401.405 94.6221 401.605 94.8617 401.605L112.556 401.485C111.997 403.762 111.477 406.118 110.998 408.475H89.4696C89.5894 403.802 91.1871 362.902 113.994 322.88C114.113 322.681 114.034 322.401 113.834 322.281C113.634 322.161 113.355 322.241 113.235 322.441C111.677 325.157 110.239 327.913 108.841 330.629C88.9504 370.371 88.5909 408.515 88.5909 408.914C88.6309 408.994 88.6708 409.074 88.7906 409.154ZM101.971 430.243C100.533 430.562 99.2553 429.164 99.2153 429.124C99.0555 428.965 98.8159 428.925 98.6561 429.045C97.6177 429.724 96.7789 429.963 96.1798 429.724C95.7804 429.524 95.4608 429.164 95.341 428.765C95.1014 426.368 95.2212 420.737 95.2212 420.657C95.2212 420.417 95.0215 420.217 94.7818 420.217C94.5422 420.217 94.3425 420.417 94.3425 420.657C94.3425 420.896 94.2226 426.089 94.4223 428.645C94.0229 428.925 93.5436 429.045 93.0244 428.965C92.5451 428.805 92.1057 428.445 91.8661 428.006C91.267 424.971 91.5066 420.737 91.5066 420.737C91.5066 420.497 91.3469 420.297 91.1072 420.257C90.8676 420.257 90.6679 420.417 90.6279 420.657C90.5081 423.093 90.6279 425.57 90.9874 428.006C90.7477 428.246 90.4282 428.405 90.0687 428.445C89.7891 428.366 89.5495 428.206 89.4297 427.926C87.7122 425.17 88.5909 419.419 90.0687 413.947L108.202 410.632C108.322 411.71 108.522 412.748 108.801 413.747C109.32 415.265 108.681 416.503 107.962 417.941C107.363 419.099 106.764 420.297 106.764 421.695V426.209C106.165 426.249 105.047 426.209 104.328 425.57C103.809 425.09 103.569 424.411 103.609 423.732V416.942C103.609 416.703 103.409 416.503 103.17 416.503C102.93 416.503 102.73 416.703 102.73 416.942V418.66C102.57 419.299 101.212 425.33 101.732 427.327C101.772 427.527 101.971 427.687 102.171 427.647H102.291C102.53 427.607 102.69 427.367 102.61 427.127C102.411 426.408 102.53 424.971 102.77 423.453V423.692C102.73 424.651 103.09 425.57 103.809 426.209C104.088 426.448 104.408 426.648 104.767 426.768C104.008 428.805 103.05 430.003 101.971 430.243Z" fill="#002677"/>
<path d="M191.121 292.365C191.121 292.125 190.921 291.926 190.682 291.926C190.442 291.926 190.242 292.125 190.242 292.365V307.463C190.242 307.703 190.442 307.902 190.682 307.902V313.774H190.761C190.761 310.778 190.721 308.741 190.682 307.902C190.921 307.902 191.121 307.703 191.121 307.463C194.955 307.343 223.034 306.384 236.734 305.186C205.62 304.747 193.438 298.117 191.121 296.639V292.365Z" fill="#002677"/>
<path d="M189.563 246.592C190.071 246.592 190.482 245.591 190.482 244.355C190.482 243.12 190.071 242.119 189.563 242.119C189.056 242.119 188.645 243.12 188.645 244.355C188.645 245.591 189.056 246.592 189.563 246.592Z" fill="#002677"/>
<path d="M183.972 238.444C184.051 238.484 184.091 238.484 184.171 238.484C184.331 238.484 184.491 238.404 184.571 238.244C184.571 238.244 185.529 236.687 190.442 237.126C190.682 237.166 190.881 236.966 190.921 236.727C190.961 236.487 190.762 236.287 190.522 236.247C184.97 235.768 183.892 237.645 183.772 237.845C183.652 238.085 183.732 238.324 183.972 238.444Z" fill="#002677"/>
<path d="M186.248 253.782C186.168 253.901 184.69 256.737 185.569 258.774C185.968 259.653 186.727 260.292 187.646 260.532C188.085 260.652 188.525 260.731 189.004 260.731C189.603 260.731 190.242 260.572 190.761 260.292C192.519 259.333 193.118 257.177 193.158 257.097C193.198 256.897 193.118 256.697 192.918 256.578L186.887 253.582C186.608 253.462 186.368 253.582 186.248 253.782ZM192.159 257.177C191.84 258.135 191.161 258.934 190.322 259.493C189.563 259.893 188.684 259.933 187.886 259.653C187.207 259.493 186.647 259.054 186.368 258.415C185.849 257.137 186.488 255.339 186.847 254.541L192.159 257.177Z" fill="#002677"/>
<path d="M169.753 241.12C169.753 241.04 169.993 239.363 172.389 239.163C172.629 239.163 172.828 238.923 172.789 238.684C172.789 238.444 172.549 238.244 172.309 238.284C169.154 238.524 168.874 241 168.874 241.04C168.834 241.28 169.034 241.48 169.274 241.52H169.314C169.553 241.52 169.753 241.36 169.753 241.12Z" fill="#002677"/>
<path d="M287.101 270.397C287.101 270.158 286.902 269.958 286.662 269.958C286.422 269.958 286.223 270.158 286.223 270.397V289.329C286.223 289.369 286.223 289.449 286.263 289.489C286.342 289.729 286.622 289.809 286.822 289.729C286.982 289.649 287.101 289.489 287.101 289.329V270.397Z" fill="#002677"/>
<path d="M236.015 295.76C236.294 295.72 236.494 295.52 236.454 295.281L235.575 285.415C235.535 285.176 235.336 284.976 235.096 285.016C234.856 285.056 234.657 285.255 234.697 285.495L235.575 295.361C235.575 295.6 235.775 295.76 236.015 295.76Z" fill="#002677"/>
<path d="M120.824 343.69C120.585 343.61 120.345 343.77 120.265 344.009C120.185 344.209 120.305 344.449 120.505 344.529L129.212 347.644C129.252 347.644 129.292 347.684 129.372 347.684C129.612 347.684 129.811 347.484 129.811 347.245C129.811 347.045 129.691 346.885 129.532 346.845L120.824 343.69Z" fill="#002677"/>
<path d="M165.039 423.652C164.959 423.413 164.72 423.293 164.48 423.373C164.24 423.453 164.121 423.692 164.2 423.932C164.36 424.411 181.136 472.7 185.01 496.226C185.05 496.426 185.25 496.585 185.449 496.585H185.529C185.769 496.546 185.929 496.306 185.889 496.066C182.014 472.461 165.239 424.132 165.039 423.652Z" fill="white"/>
<path d="M200.028 570.797H200.108C200.347 570.757 200.507 570.517 200.467 570.277L192.119 528.938C192.079 528.698 191.84 528.539 191.6 528.579C191.36 528.618 191.201 528.858 191.24 529.098L199.628 570.437C199.668 570.637 199.828 570.797 200.028 570.797Z" fill="white"/>
<path d="M185.41 385.109C185.21 385.069 166.717 382.113 164.72 381.594C164.481 381.554 164.241 381.714 164.201 381.954C164.161 382.153 164.281 382.393 164.481 382.473C166.478 382.992 184.491 385.908 185.25 386.028H185.33C185.57 386.028 185.769 385.868 185.809 385.628C185.849 385.349 185.65 385.149 185.41 385.109Z" fill="#002677"/>
<path d="M102.172 285.016C101.932 284.976 101.693 285.176 101.693 285.415C101.653 285.655 101.852 285.895 102.092 285.895C102.611 285.974 103.131 285.974 103.69 285.974C108.563 285.974 114.274 283.418 120.665 278.386C123.94 275.789 126.976 272.914 129.771 269.798C129.931 269.598 129.891 269.319 129.731 269.159C129.532 268.999 129.252 269.039 129.092 269.199C128.893 269.399 114.074 286.454 102.172 285.016Z" fill="#002677"/>
<path d="M45.6145 258.015C34.1513 254.94 24.086 263.008 22.9677 263.967C22.768 264.126 22.768 264.406 22.9277 264.606C23.0076 264.686 23.1275 264.766 23.2473 264.766C23.3671 264.766 23.447 264.726 23.5269 264.646C24.6053 263.727 34.351 255.899 45.3748 258.894C45.6145 258.934 45.8541 258.814 45.894 258.575C45.9739 258.295 45.8541 258.055 45.6145 258.015Z" fill="#002677"/>
<path d="M368.222 621.962H215.925C225.312 620.044 247.16 614.892 266.451 604.587C266.611 604.507 266.691 604.307 266.691 604.148C266.651 603.868 266.012 597.517 261.179 595.92C259.262 595.281 256.066 595.52 251.992 595.8C245.961 596.239 238.452 596.798 231.622 594.761L231.183 594.602C225.192 592.645 222.755 589.01 221.797 586.174L222.995 585.934C222.995 585.934 222.436 582.819 221.477 577.706C220.439 577.946 199.549 582.579 195.875 582.579C195.635 582.579 195.435 582.38 195.435 582.14C195.435 581.9 195.635 581.701 195.875 581.701C199.47 581.701 221.078 576.908 221.317 576.828C217.803 557.975 209.734 514.998 205.82 497.504C201.986 480.209 190.523 422.135 185.25 395.454C185.091 394.695 184.971 393.936 184.811 393.177L160.287 389.782C156.692 407.197 152.698 425.17 148.704 442.625L156.373 459.64C156.533 460.039 170.113 498.103 180.737 540.601C180.777 540.801 180.697 540.96 180.537 541.08C188.086 569.838 193.199 592.405 193.199 592.405L204.862 589.889L210.094 618.886C210.054 618.646 210.214 618.407 210.413 618.367C210.533 618.367 220.678 616.21 224.832 614.692C225.072 614.612 225.312 614.732 225.391 614.932C225.471 615.172 225.392 615.411 225.152 615.491H225.112C220.918 617.009 211.013 619.086 210.613 619.206H210.533C210.334 619.206 210.134 619.046 210.094 618.846L210.653 621.922H130.77C130.73 620.164 130.371 618.407 129.772 616.729C128.254 612.815 125.338 610.658 121.224 610.498C114.275 610.219 112.837 607.702 110.84 604.228C110.121 602.949 109.322 601.711 108.483 600.513C107.724 599.475 107.205 598.276 106.925 596.998C105.967 593.284 106.126 588.531 106.406 585.495L115.393 589.449C116.312 587.292 117.23 584.976 118.149 582.499H118.109C117.35 582.14 99.2166 573.912 97.6988 572.874C97.4991 572.714 97.4991 572.434 97.6189 572.274C97.7388 572.115 97.9784 572.075 98.1781 572.155C99.3364 572.953 111.958 578.745 118.468 581.701C120.905 575.27 123.501 567.841 126.177 559.813H126.137C125.897 559.733 125.778 559.493 125.858 559.254C125.977 558.934 131.05 543.557 137.201 523.786L128.773 524.664C123.062 547.031 119.227 561.45 119.227 561.45C117.11 559.693 115.113 558.015 113.156 556.458L108.603 569.678C108.523 569.838 108.363 569.958 108.203 569.958C108.163 569.958 108.124 569.958 108.044 569.918C107.804 569.838 107.684 569.598 107.764 569.359L112.437 555.859C106.486 551.066 101.334 547.271 96.8601 544.276L94.5035 555.1C94.4636 555.299 94.2639 555.459 94.0642 555.459H93.9843L89.0715 577.866L91.1085 578.745C89.8304 582.3 87.9931 586.094 85.2371 588.65C84.4383 589.409 83.6394 590.168 82.8806 590.967C79.4855 594.402 76.3701 598.117 74.4529 600.553C74.5727 600.353 74.8523 600.313 75.052 600.433L91.1884 611.417C91.3881 611.537 91.428 611.816 91.3082 612.016C91.1884 612.216 90.9088 612.256 90.7091 612.136L74.5728 601.152C74.373 601.032 74.3331 600.753 74.4529 600.553C73.1748 602.151 72.376 603.189 72.376 603.229C72.2562 603.389 72.2562 603.668 72.4159 603.788C79.5255 610.858 94.2639 619.126 99.4962 621.922H-9.06455C-9.3042 621.922 -9.50391 622.121 -9.50391 622.361C-9.50391 622.601 -9.3042 622.8 -9.06455 622.8H101.134L101.373 622.92C101.453 622.96 101.493 622.96 101.573 622.96H130.371C130.491 622.96 130.611 622.88 130.69 622.8H368.222C368.462 622.8 368.661 622.601 368.661 622.361C368.661 622.121 368.462 621.962 368.222 621.962ZM171.91 393.816C171.95 393.577 172.15 393.417 172.389 393.417C172.629 393.457 172.789 393.656 172.789 393.896C172.749 394.296 171.391 404.081 166.877 409.114C166.797 409.194 166.678 409.274 166.558 409.274C166.318 409.274 166.118 409.074 166.118 408.834C166.118 408.714 166.158 408.634 166.238 408.555C170.552 403.722 171.91 393.896 171.91 393.816ZM185.53 496.585H185.45C185.25 496.585 185.051 496.426 185.011 496.226C181.176 472.7 164.401 424.451 164.201 423.932C164.121 423.692 164.241 423.453 164.481 423.373C164.721 423.293 164.96 423.413 165.04 423.652C165.2 424.132 182.015 472.501 185.889 496.066C185.929 496.306 185.77 496.546 185.53 496.585ZM191.242 529.098C191.202 528.858 191.361 528.618 191.601 528.579C191.841 528.539 192.08 528.698 192.12 528.938L200.468 570.277C200.508 570.517 200.348 570.757 200.109 570.797H200.029C199.829 570.797 199.629 570.637 199.589 570.437L191.242 529.098ZM265.533 600.154C265.573 600.273 265.573 600.393 265.533 600.513C265.253 601.232 254.469 606.105 249.197 607.742C249.157 607.742 249.117 607.782 249.077 607.782C248.877 607.782 248.717 607.663 248.677 607.463C248.597 607.223 248.717 606.984 248.957 606.904C255.108 604.986 264.015 600.633 264.814 600.074C264.973 599.874 265.253 599.834 265.413 599.994C265.453 600.034 265.533 600.114 265.533 600.154ZM208.856 607.223L205.66 589.689L220.958 586.374C221.957 589.409 224.473 593.244 230.544 595.321C228.707 596.439 227.269 598.156 226.47 600.154C225.152 603.948 214.847 606.225 208.856 607.223ZM129.452 619.246H108.163C107.924 619.246 107.724 619.046 107.724 618.806C107.724 618.567 107.924 618.367 108.163 618.367H129.452C129.692 618.367 129.892 618.567 129.892 618.806C129.892 619.046 129.692 619.246 129.452 619.246ZM83.4797 591.646L83.5196 591.606C84.2785 590.847 85.0773 590.048 85.8362 589.329C88.6721 586.653 90.6292 582.739 91.9073 579.144L105.487 585.136C105.208 588.171 105.008 593.124 105.967 597.078C102.692 596.559 99.3764 596.918 96.3009 598.156C91.3881 600.193 86.4353 595.44 83.4797 591.646Z" fill="#002677"/>
<path d="M94.0228 555.419C94.2225 555.419 94.4222 555.259 94.4621 555.06L96.8187 544.236L96.8586 544.076C96.8986 543.836 96.7787 543.596 96.5391 543.557C96.2994 543.517 96.0598 543.636 96.0198 543.876L93.6233 554.86C93.5834 555.1 93.7432 555.299 93.9429 555.379L94.0228 555.419Z" fill="white"/>
<path d="M166.237 409.194C166.317 409.274 166.437 409.313 166.517 409.313C166.637 409.313 166.757 409.274 166.836 409.154C171.31 404.121 172.668 394.335 172.748 393.936C172.788 393.696 172.628 393.457 172.348 393.457C172.109 393.417 171.869 393.577 171.869 393.856C171.869 393.936 170.511 403.762 166.197 408.595C166.038 408.754 166.078 409.034 166.237 409.194Z" fill="white"/>
<path d="M195.875 581.701C195.635 581.701 195.436 581.9 195.436 582.14C195.436 582.38 195.635 582.579 195.875 582.579C199.55 582.579 220.439 577.946 221.477 577.706C221.717 577.666 221.877 577.427 221.837 577.187C221.797 576.948 221.557 576.788 221.318 576.828C221.078 576.868 199.47 581.701 195.875 581.701Z" fill="white"/>
<path d="M118.708 582.3C118.788 582.1 118.708 581.82 118.508 581.701H118.468C111.958 578.745 99.3764 572.953 98.1781 572.155C97.9385 572.075 97.6988 572.155 97.579 572.394C97.4991 572.554 97.5391 572.794 97.6988 572.913C99.2166 573.952 117.35 582.18 118.109 582.539H118.149C118.189 582.579 118.269 582.579 118.309 582.579C118.468 582.579 118.628 582.459 118.708 582.3Z" fill="white"/>
<path d="M294.768 273.672V272.993C294.728 273.193 294.728 273.433 294.768 273.672Z" fill="#002677"/>
<path d="M164.201 343.969C163.642 343.85 163.123 344.169 162.644 344.768C162.204 345.367 161.925 346.086 161.805 346.805C161.485 348.603 162.005 350.12 163.003 350.32C163.083 350.32 163.163 350.36 163.203 350.36C164.161 350.36 165.08 349.202 165.4 347.484C165.559 346.765 165.519 346.006 165.36 345.247C165.16 344.529 164.761 344.089 164.201 343.969ZM164.561 347.324C164.281 348.722 163.562 349.521 163.203 349.481C162.803 349.441 162.444 348.403 162.684 347.005C162.763 346.406 163.003 345.807 163.363 345.327C163.522 345.088 163.722 344.928 164.002 344.848H164.042C164.241 344.888 164.401 345.128 164.521 345.527C164.681 346.086 164.681 346.725 164.561 347.324Z" fill="#002677"/>
<path d="M153.576 400.247C152.577 400.047 151.619 401.205 151.299 402.923C151.139 403.602 151.179 404.321 151.339 405C151.459 405.599 151.858 406.078 152.457 406.238C152.537 406.238 152.577 406.238 152.657 406.238C153.176 406.198 153.656 405.918 153.935 405.479C154.335 404.92 154.614 404.241 154.734 403.562C155.053 401.844 154.534 400.446 153.576 400.247ZM153.855 403.402C153.616 404.68 152.937 405.439 152.617 405.399C152.457 405.359 152.298 405.12 152.178 404.8C152.058 404.241 152.018 403.682 152.138 403.123C152.377 401.884 152.977 401.125 153.336 401.125H153.376C153.775 401.165 154.095 402.084 153.855 403.402Z" fill="#002677"/>
</g>
<g clip-path="url(#clip2_1157_629)">
<path d="M1353.9 485.5L1318.7 471.1L1262.3 485.5" fill="#001B0E"/>
<path d="M1318.7 471.1H1447.4V623.6H1318.7V471.1Z" fill="#001B0E"/>
<path d="M1331.1 293.5H1434.9V479.2H1331.1V293.5Z" fill="#001B0E"/>
<path d="M1342.1 125.3H1423.8V324.8H1342.1V125.3Z" fill="#001B0E"/>
<path d="M1412.4 485H1433.4V506H1412.4V485Z" fill="#19B56A"/>
<path d="M1385.4 485H1406.4V506H1385.4V485Z" fill="#19B56A"/>
<path d="M1358.4 485H1379.4V506H1358.4V485Z" fill="#19B56A"/>
<path d="M1331.1 485H1352.1V506H1331.1V485Z" fill="#19B56A"/>
<path d="M1412.4 519.6H1433.4V540.6H1412.4V519.6Z" fill="#19B56A"/>
<path d="M1385.4 519.6H1406.4V540.6H1385.4V519.6Z" fill="#19B56A"/>
<path d="M1358.4 519.6H1379.4V540.6H1358.4V519.6Z" fill="#19B56A"/>
<path d="M1331.1 519.6H1352.1V540.6H1331.1V519.6Z" fill="#19B56A"/>
<path d="M1412.4 554.3H1433.4V575.3H1412.4V554.3Z" fill="#19B56A"/>
<path d="M1385.4 554.3H1406.4V575.3H1385.4V554.3Z" fill="#19B56A"/>
<path d="M1358.4 554.3H1379.4V575.3H1358.4V554.3Z" fill="#19B56A"/>
<path d="M1331.1 554.3H1352.1V575.3H1331.1V554.3Z" fill="#19B56A"/>
<path d="M1412.4 588.9H1433.4V609.9H1412.4V588.9Z" fill="#19B56A"/>
<path d="M1385.4 588.9H1406.4V609.9H1385.4V588.9Z" fill="#19B56A"/>
<path d="M1358.4 588.9H1379.4V609.9H1358.4V588.9Z" fill="#19B56A"/>
<path d="M1399.6 336H1420.6V357H1399.6V336Z" fill="#19B56A"/>
<path d="M1372.5 336H1393.5V357H1372.5V336Z" fill="#19B56A"/>
<path d="M1345.5 336H1366.5V357H1345.5V336Z" fill="#19B56A"/>
<path d="M1399.6 303.8H1420.6V324.8H1399.6V303.8Z" fill="#19B56A"/>
<path d="M1372.5 303.8H1393.5V324.8H1372.5V303.8Z" fill="#19B56A"/>
<path d="M1345.5 303.8H1366.5V324.8H1345.5V303.8Z" fill="#19B56A"/>
<path d="M1386.1 262H1407.1V283H1386.1V262Z" fill="#19B56A"/>
<path d="M1359 262H1380V283H1359V262Z" fill="#19B56A"/>
<path d="M1386.1 231.7H1407.1V252.7H1386.1V231.7Z" fill="#19B56A"/>
<path d="M1359 231.7H1380V252.7H1359V231.7Z" fill="#19B56A"/>
<path d="M1386.1 201.5H1407.1V222.5H1386.1V201.5Z" fill="#19B56A"/>
<path d="M1359 201.5H1380V222.5H1359V201.5Z" fill="#19B56A"/>
<path d="M1386.1 171.2H1407.1V192.2H1386.1V171.2Z" fill="#19B56A"/>
<path d="M1359 171.2H1380V192.2H1359V171.2Z" fill="#19B56A"/>
<path d="M1386.1 141H1407.1V162H1386.1V141Z" fill="#19B56A"/>
<path d="M1359 141H1380V162H1359V141Z" fill="#19B56A"/>
<path d="M1262.3 485.5H1318.7V623.2H1262.3V485.5Z" fill="#001B0E"/>
<path d="M1292.7 579.8H1307.1V594.2H1292.7V579.8Z" fill="#19B56A"/>
<path d="M1274 579.8H1288.4V594.2H1274V579.8Z" fill="#19B56A"/>
<path d="M1292.7 559H1307.1V573.4H1292.7V559Z" fill="#19B56A"/>
<path d="M1274 559H1288.4V573.4H1274V559Z" fill="#19B56A"/>
<path d="M1292.7 538.2H1307.1V552.6H1292.7V538.2Z" fill="#19B56A"/>
<path d="M1274 538.2H1288.4V552.6H1274V538.2Z" fill="#19B56A"/>
<path d="M1292.7 517.2H1307.1V531.6H1292.7V517.2Z" fill="#19B56A"/>
<path d="M1274 517.2H1288.4V531.6H1274V517.2Z" fill="#19B56A"/>
<path d="M1292.7 496.4H1307.1V510.8H1292.7V496.4Z" fill="#19B56A"/>
<path d="M1274 496.4H1288.4V510.8H1274V496.4Z" fill="#19B56A"/>
<path d="M1399.6 370.7H1420.6V391.7H1399.6V370.7Z" fill="#19B56A"/>
<path d="M1372.5 370.7H1393.5V391.7H1372.5V370.7Z" fill="#19B56A"/>
<path d="M1345.5 370.7H1366.5V391.7H1345.5V370.7Z" fill="#19B56A"/>
<path d="M1399.6 405.3H1420.6V426.3H1399.6V405.3Z" fill="#19B56A"/>
<path d="M1372.5 405.3H1393.5V426.3H1372.5V405.3Z" fill="#19B56A"/>
<path d="M1345.5 405.3H1366.5V426.3H1345.5V405.3Z" fill="#19B56A"/>
<path d="M1399.6 440H1420.6V461H1399.6V440Z" fill="#19B56A"/>
<path d="M1372.5 440H1393.5V461H1372.5V440Z" fill="#19B56A"/>
<path d="M1345.5 440H1366.5V461H1345.5V440Z" fill="#19B56A"/>
<path d="M1331.1 588.9H1352.1V609.9H1331.1V588.9Z" fill="#19B56A"/>
<path d="M1428.7 127.3L1383 81.4L1337.1 127.3" fill="#001B0E"/>
<path d="M1383 44C1384.7 44 1386 45.3 1386 47V94.2C1386 95.9 1384.7 97.2 1383 97.2C1381.3 97.2 1380 95.9 1380 94.2V47C1380 45.3 1381.3 44 1383 44Z" fill="#001B0E"/>
</g>
</g>
<defs>
<clipPath id="clip0_1157_629">
<rect width="1440" height="623" fill="white"/>
</clipPath>
<clipPath id="clip1_1157_629">
<rect width="329" height="409" fill="white" transform="translate(3 214)"/>
</clipPath>
<clipPath id="clip2_1157_629">
<rect width="178" height="595" fill="white" transform="matrix(-1 0 0 1 1440 28)"/>
</clipPath>
</defs>
</svg>
