<svg width="1440" height="623" viewBox="0 0 1440 623" fill="none" xmlns="http://www.w3.org/2000/svg">
<path fill-rule="evenodd" clip-rule="evenodd" d="M237.5 248C249.374 248 259 238.374 259 226.5C259 214.626 249.374 205 237.5 205C225.626 205 216 214.626 216 226.5V248H237.5Z" fill="#255D50"/>
<path d="M236.755 218.288C236.905 217.828 237.557 217.828 237.706 218.288L239.351 223.35C239.418 223.556 239.61 223.696 239.827 223.696L245.149 223.696C245.633 223.696 245.835 224.316 245.443 224.6L241.137 227.729C240.962 227.856 240.888 228.082 240.955 228.288L242.6 233.35C242.75 233.81 242.223 234.194 241.831 233.909L237.525 230.78C237.35 230.653 237.112 230.653 236.937 230.78L232.631 233.909C232.239 234.194 231.712 233.81 231.862 233.35L233.506 228.288C233.573 228.082 233.5 227.856 233.325 227.729L229.019 224.6C228.627 224.316 228.828 223.696 229.313 223.696L234.635 223.696C234.852 223.696 235.044 223.556 235.111 223.35L236.755 218.288Z" fill="#FFCB2D"/>
</svg>
