<svg width="60" height="60" viewBox="0 0 60 60" fill="none" xmlns="http://www.w3.org/2000/svg">
<circle opacity="0.1" cx="30" cy="30" r="30" fill="#11C770"/>
<path d="M44 30.1527C44 37.4162 38.0659 43.3045 30.7443 43.3045C28.4209 43.3045 26.2383 42.7102 24.3383 41.6695L17 44L19.3921 36.9416C18.1859 34.9607 17.4913 32.6346 17.4913 30.1518C17.4922 22.8883 23.4245 17 30.7461 17C38.0668 17.0018 44 22.8892 44 30.1527ZM30.7434 19.0972C24.5989 19.0972 19.6008 24.0575 19.6008 30.1553C19.6008 32.5747 20.3896 34.8145 21.7235 36.637L20.3324 40.7424L24.613 39.3822C26.3739 40.5373 28.4807 41.2099 30.7434 41.2099C36.8879 41.2099 41.8879 36.2505 41.8879 30.1527C41.8896 24.0575 36.8888 19.0972 30.7434 19.0972ZM37.4382 33.1822C37.3554 33.0493 37.1388 32.9683 36.8149 32.8063C36.4917 32.6443 34.892 31.8651 34.5953 31.7594C34.296 31.6512 34.0794 31.5966 33.8628 31.9197C33.6488 32.2428 33.0255 32.9683 32.8344 33.1849C32.6452 33.4006 32.4559 33.4279 32.131 33.2685C31.8061 33.1047 30.7584 32.7667 29.517 31.6688C28.5512 30.813 27.8988 29.7591 27.7104 29.436C27.5193 29.1138 27.691 28.9394 27.8521 28.7792C27.9974 28.6339 28.177 28.4024 28.3399 28.2131C28.5028 28.0256 28.5565 27.8926 28.6648 27.6769C28.7713 27.4612 28.7176 27.2737 28.6375 27.1108C28.5565 26.9488 27.9076 25.364 27.6355 24.7187C27.3652 24.0742 27.095 24.1807 26.9048 24.1807C26.7155 24.1807 26.4989 24.1543 26.2823 24.1543C26.0657 24.1543 25.7136 24.2327 25.4169 24.5558C25.1202 24.8789 24.2802 25.6581 24.2802 27.2446C24.2802 28.8329 25.4433 30.364 25.6062 30.5788C25.7699 30.7927 27.8548 34.1551 31.1572 35.4458C34.4615 36.7356 34.4615 36.3051 35.0566 36.2505C35.6536 36.1959 36.9795 35.4713 37.2489 34.7194C37.5201 33.964 37.5201 33.3169 37.4382 33.1822Z" fill="#11C770"/>
</svg>
